<svg width="45" height="45" viewBox="0 0 45 45" fill="none" xmlns="http://www.w3.org/2000/svg">
<path d="M40 23.9917C36 40.5 32.2674 44.4484 22.5 43.9835C12.3256 44.4484 8.5 39.5 5 23.9917C5 12.9506 12.835 4 22.5 4C32.165 4 40 12.9506 40 23.9917Z" fill="white"/>
<path d="M22.5 0.736572C10.4807 0.736572 0.736603 10.4807 0.736603 22.5C0.736603 32.7765 7.8616 41.3839 17.44 43.6657C16.9445 43.5477 16.4531 43.4154 15.971 43.2648V38.2784C15.971 38.2784 15.1549 38.5505 14.0667 38.5505C11.0223 38.5505 9.75753 35.8342 9.44196 34.4698C9.25028 33.6386 8.74972 32.851 8.21233 32.3697C7.57031 31.7971 7.26981 31.7954 7.26562 31.5996C7.25725 31.1886 7.8164 31.2053 8.08175 31.2053C9.44196 31.2053 10.4732 32.6526 10.952 33.4009C12.1381 35.2483 13.4113 35.558 14.0667 35.558C14.8828 35.558 15.5876 35.4358 16.0731 35.2014C16.2974 33.6211 17.0006 32.2131 18.1473 31.2053C13.0438 30.185 9.44196 27.2578 9.44196 22.5C9.44196 20.0491 10.4255 17.7966 12.0645 15.9776C11.897 15.503 11.6183 14.5429 11.6183 12.9785C11.6183 11.9447 11.6903 10.6757 12.1624 9.44193C12.1624 9.44193 15.2662 9.46369 18.1934 12.236C19.5444 11.8426 20.99 11.6183 22.5 11.6183C24.01 11.6183 25.4556 11.8426 26.8066 12.236C29.7338 9.46369 32.8376 9.44193 32.8376 9.44193C33.3122 10.6757 33.3817 11.9447 33.3817 12.9785C33.3817 14.6651 33.1574 15.6487 33.0201 16.0731C34.6088 17.8752 35.558 20.0926 35.558 22.5C35.558 27.2578 31.9562 30.185 26.8527 31.2053C28.2154 32.4023 29.029 34.1459 29.029 36.1021V43.2648C28.5469 43.4163 28.0564 43.5477 27.56 43.6657C37.1384 41.3839 44.2634 32.7765 44.2634 22.5C44.2634 10.4807 34.5192 0.736572 22.5 0.736572ZM24.0176 44.2048C23.5162 44.2399 23.0106 44.2634 22.5 44.2634C23.0106 44.2634 23.5153 44.2391 24.0176 44.2048ZM22.5 44.2634C21.9894 44.2634 21.4838 44.2399 20.9824 44.2048C21.4847 44.2391 21.9894 44.2634 22.5 44.2634ZM20.6484 44.1797C19.6297 44.0934 18.6303 43.9377 17.6568 43.7159C18.6311 43.9369 19.6297 44.0934 20.6484 44.1797Z" fill="black"/>
</svg>
