<svg xmlns="http://www.w3.org/2000/svg" width="35" height="35" fill="none" viewBox="0 0 35 35"><path fill="#000" fill-opacity=".9" d="M2.73437 17.5001C2.73727 14.7452 3.83292 12.104 5.78091 10.156C7.72891 8.20799 10.3701 7.11233 13.125 7.10944H26.6602L26.1789 6.62955C26.0263 6.47694 25.9052 6.29577 25.8226 6.09637C25.7401 5.89698 25.6975 5.68327 25.6975 5.46745C25.6975 5.25162 25.7401 5.03791 25.8226 4.83852C25.9052 4.63912 26.0263 4.45795 26.1789 4.30534C26.3315 4.15273 26.5127 4.03167 26.7121 3.94908C26.9115 3.86648 27.1252 3.82397 27.341 3.82397C27.5568 3.82397 27.7705 3.86648 27.9699 3.94908C28.1693 4.03167 28.3505 4.15273 28.5031 4.30534L31.7844 7.58659C31.9373 7.73901 32.0587 7.92012 32.1415 8.11954C32.2243 8.31896 32.2669 8.53277 32.2669 8.74869C32.2669 8.96462 32.2243 9.17843 32.1415 9.37785C32.0587 9.57727 31.9373 9.75838 31.7844 9.9108L28.5031 13.1921C28.1949 13.5003 27.7769 13.6734 27.341 13.6734C26.9051 13.6734 26.4871 13.5003 26.1789 13.1921C25.8707 12.8838 25.6975 12.4658 25.6975 12.0299C25.6975 11.5941 25.8707 11.176 26.1789 10.8678L26.6602 10.3907H13.125C11.2401 10.3929 9.4331 11.1426 8.10031 12.4754C6.76751 13.8082 6.01779 15.6152 6.01562 17.5001C6.01562 17.9352 5.84277 18.3525 5.53509 18.6602C5.22742 18.9678 4.81012 19.1407 4.375 19.1407C3.93988 19.1407 3.52258 18.9678 3.2149 18.6602C2.90722 18.3525 2.73437 17.9352 2.73437 17.5001ZM30.625 15.8594C30.1899 15.8594 29.7726 16.0323 29.4649 16.34C29.1572 16.6476 28.9844 17.0649 28.9844 17.5001C28.9822 19.3849 28.2325 21.192 26.8997 22.5248C25.5669 23.8575 23.7599 24.6073 21.875 24.6094H8.33984L8.82109 24.1296C8.9737 23.9769 9.09476 23.7958 9.17735 23.5964C9.25994 23.397 9.30245 23.1833 9.30245 22.9674C9.30245 22.7516 9.25994 22.5379 9.17735 22.3385C9.09476 22.1391 8.9737 21.9579 8.82109 21.8053C8.66848 21.6527 8.48731 21.5317 8.28791 21.4491C8.08852 21.3665 7.87481 21.324 7.65898 21.324C7.44316 21.324 7.22945 21.3665 7.03005 21.4491C6.83066 21.5317 6.64948 21.6527 6.49687 21.8053L3.21562 25.0866C3.06267 25.239 2.94131 25.4201 2.85851 25.6195C2.7757 25.819 2.73308 26.0328 2.73308 26.2487C2.73308 26.4646 2.7757 26.6784 2.85851 26.8778C2.94131 27.0773 3.06267 27.2584 3.21562 27.4108L6.49687 30.6921C6.64948 30.8447 6.83066 30.9657 7.03005 31.0483C7.22945 31.1309 7.44316 31.1734 7.65898 31.1734C7.87481 31.1734 8.08852 31.1309 8.28791 31.0483C8.48731 30.9657 8.66848 30.8447 8.82109 30.6921C8.9737 30.5394 9.09476 30.3583 9.17735 30.1589C9.25994 29.9595 9.30245 29.7458 9.30245 29.5299C9.30245 29.3141 9.25994 29.1004 9.17735 28.901C9.09476 28.7016 8.9737 28.5204 8.82109 28.3678L8.33984 27.8907H21.875C24.6299 27.8878 27.2711 26.7921 29.2191 24.8441C31.1671 22.8961 32.2627 20.2549 32.2656 17.5001C32.2656 17.0649 32.0928 16.6476 31.7851 16.34C31.4774 16.0323 31.0601 15.8594 30.625 15.8594Z"/></svg>