<svg xmlns="http://www.w3.org/2000/svg" width="64" height="64" fill="none" viewBox="0 0 64 64"><path fill="url(#paint0_linear_27_5)" d="M32 20.4445C38.3822 20.4445 43.5556 25.6178 43.5556 32C43.5556 38.3822 38.3822 43.5556 32 43.5556C25.6178 43.5556 20.4445 38.3822 20.4445 32C20.4445 25.6178 25.6178 20.4445 32 20.4445ZM32 36.4445C34.4542 36.4445 36.4445 34.4542 36.4445 32C36.4445 29.5458 34.4542 27.5556 32 27.5556C29.5458 27.5556 27.5556 29.5458 27.5556 32C27.5556 34.4542 29.5458 36.4445 32 36.4445ZM35.5556 9.77778C35.5556 10.4285 35.5556 12.6827 35.5556 13.3333C35.5556 15.2969 33.9636 16.8889 32 16.8889C30.0365 16.8889 28.4445 15.2969 28.4445 13.3333C28.4445 12.6827 28.4445 10.4285 28.4445 9.77778C28.4445 7.81423 30.0365 6.22223 32 6.22223C33.9636 6.22223 35.5556 7.81423 35.5556 9.77778ZM50.2276 18.8009C49.7671 19.2613 48.1733 20.8551 47.7138 21.3147C46.3253 22.7031 44.0738 22.7031 42.6853 21.3147C41.2969 19.9262 41.2969 17.6747 42.6853 16.2862C43.1458 15.8258 44.7396 14.232 45.1991 13.7725C46.5876 12.384 48.8391 12.384 50.2276 13.7725C51.616 15.1609 51.616 17.4125 50.2276 18.8009ZM54.2222 35.5556C53.5716 35.5556 51.3173 35.5556 50.6667 35.5556C48.7031 35.5556 47.1111 33.9636 47.1111 32C47.1111 30.0365 48.7031 28.4445 50.6667 28.4445C51.3173 28.4445 53.5716 28.4445 54.2222 28.4445C56.1858 28.4445 57.7778 30.0365 57.7778 32C57.7778 33.9636 56.1858 35.5556 54.2222 35.5556ZM45.1991 50.2276C44.7387 49.7671 43.1449 48.1733 42.6853 47.7138C41.2969 46.3253 41.2969 44.0738 42.6853 42.6853C44.0738 41.2969 46.3253 41.2969 47.7138 42.6853C48.1742 43.1458 49.768 44.7396 50.2276 45.1991C51.616 46.5876 51.616 48.8391 50.2276 50.2276C48.8391 51.616 46.5876 51.616 45.1991 50.2276ZM28.4445 54.2222C28.4445 53.5716 28.4445 51.3173 28.4445 50.6667C28.4445 48.7031 30.0365 47.1111 32 47.1111C33.9636 47.1111 35.5556 48.7031 35.5556 50.6667C35.5556 51.3173 35.5556 53.5716 35.5556 54.2222C35.5556 56.1858 33.9636 57.7778 32 57.7778C30.0365 57.7778 28.4445 56.1858 28.4445 54.2222ZM13.7725 45.1991C14.2329 44.7387 15.8267 43.1449 16.2862 42.6853C17.6747 41.2969 19.9262 41.2969 21.3147 42.6853C22.7031 44.0738 22.7031 46.3253 21.3147 47.7138C20.8542 48.1742 19.2605 49.768 18.8009 50.2276C17.4125 51.616 15.1609 51.616 13.7725 50.2276C12.384 48.8391 12.384 46.5876 13.7725 45.1991ZM9.77778 28.4445C10.4285 28.4445 12.6827 28.4445 13.3333 28.4445C15.2969 28.4445 16.8889 30.0365 16.8889 32C16.8889 33.9636 15.2969 35.5556 13.3333 35.5556C12.6827 35.5556 10.4285 35.5556 9.77778 35.5556C7.81423 35.5556 6.22223 33.9636 6.22223 32C6.22223 30.0365 7.81423 28.4445 9.77778 28.4445ZM18.8009 13.7725C19.2613 14.2329 20.8551 15.8267 21.3147 16.2862C22.7031 17.6747 22.7031 19.9262 21.3147 21.3147C19.9262 22.7031 17.6747 22.7031 16.2862 21.3147C15.8258 20.8542 14.232 19.2605 13.7725 18.8009C12.384 17.4125 12.384 15.1609 13.7725 13.7725C15.1609 12.384 17.4125 12.384 18.8009 13.7725Z"/><defs><linearGradient id="paint0_linear_27_5" x1="32" x2="32" y1="6.222" y2="57.778" gradientUnits="userSpaceOnUse"><stop stop-color="#07F9F5"/><stop offset="1" stop-color="#00B7FF"/></linearGradient></defs></svg>