<svg xmlns="http://www.w3.org/2000/svg" width="35" height="35" fill="none" viewBox="0 0 35 35"><g clip-path="url(#clip0_45_19)"><path fill="#000" fill-opacity=".9" d="M21.1254 4.58363C21.4976 4.68833 21.813 4.93656 22.0023 5.27375C22.1915 5.61094 22.2391 6.00949 22.1346 6.38176L15.6742 29.4059C15.6225 29.5903 15.5349 29.7628 15.4166 29.9134C15.2982 30.064 15.1514 30.1898 14.9844 30.2836C14.8174 30.3775 14.6336 30.4375 14.4434 30.4603C14.2533 30.4831 14.0605 30.4683 13.876 30.4165C13.6916 30.3648 13.5192 30.2773 13.3686 30.159C13.218 30.0406 13.0922 29.8938 12.9983 29.7268C12.9045 29.5598 12.8444 29.376 12.8216 29.1858C12.7988 28.9957 12.8137 28.8028 12.8654 28.6184L19.3258 5.59426C19.3775 5.40966 19.4651 5.23706 19.5835 5.08633C19.702 4.93561 19.849 4.80971 20.0161 4.71584C20.1832 4.62198 20.3672 4.56199 20.5576 4.5393C20.7479 4.51662 20.9409 4.53168 21.1254 4.58363ZM10.5102 10.2813C10.7836 10.5548 10.9372 10.9257 10.9372 11.3124C10.9372 11.6991 10.7836 12.0699 10.5102 12.3434L5.355 17.5001L10.5102 22.6553C10.6457 22.7907 10.7532 22.9515 10.8266 23.1284C10.8999 23.3053 10.9377 23.495 10.9378 23.6866C10.9379 23.8781 10.9002 24.0678 10.827 24.2448C10.7537 24.4218 10.6463 24.5826 10.5109 24.7181C10.3755 24.8536 10.2148 24.9611 10.0378 25.0345C9.86089 25.1078 9.67123 25.1456 9.47968 25.1457C9.28813 25.1458 9.09844 25.1081 8.92145 25.0349C8.74445 24.9616 8.58362 24.8542 8.44812 24.7188L2.26042 18.5311C1.98702 18.2577 1.83344 17.8868 1.83344 17.5001C1.83344 17.1134 1.98702 16.7425 2.26042 16.469L8.44812 10.2813C8.7216 10.0079 9.09247 9.85436 9.47917 9.85436C9.86586 9.85436 10.2367 10.0079 10.5102 10.2813ZM24.4898 12.3434C24.3505 12.2089 24.2394 12.048 24.163 11.8701C24.0865 11.6921 24.0463 11.5008 24.0446 11.3071C24.0429 11.1135 24.0798 10.9215 24.1532 10.7422C24.2265 10.563 24.3348 10.4002 24.4717 10.2633C24.6086 10.1263 24.7715 10.0181 24.9507 9.94473C25.1299 9.8714 25.3219 9.8345 25.5156 9.83618C25.7092 9.83787 25.9006 9.8781 26.0785 9.95453C26.2564 10.031 26.4173 10.1421 26.5519 10.2813L32.7396 16.469C33.013 16.7425 33.1666 17.1134 33.1666 17.5001C33.1666 17.8868 33.013 18.2577 32.7396 18.5311L26.5519 24.7174C26.2768 24.983 25.9085 25.13 25.5261 25.1267C25.1437 25.1234 24.7779 24.97 24.5076 24.6996C24.2372 24.4292 24.0838 24.0635 24.0805 23.6811C24.0772 23.2987 24.2241 22.9303 24.4898 22.6553L29.645 17.5001L24.4898 12.3434Z"/></g><defs><clipPath id="clip0_45_19"><rect width="35" height="35" fill="#fff"/></clipPath></defs></svg>