<svg xmlns="http://www.w3.org/2000/svg" width="45" height="45" fill="none" viewBox="0 0 45 45"><g clip-path="url(#clip0_41_1622)"><path fill="#5865F2" d="M34.4531 0H10.5469C4.722 0 0 4.722 0 10.5469V34.4531C0 40.278 4.722 45 10.5469 45H34.4531C40.278 45 45 40.278 45 34.4531V10.5469C45 4.722 40.278 0 34.4531 0Z"/><mask id="mask0_41_1622" style="mask-type:luminance" width="37" height="29" x="4" y="8" maskUnits="userSpaceOnUse"><path fill="#fff" d="M4.92188 8.96484H40.0781V36.1986H4.92188V8.96484Z"/></mask><g mask="url(#mask0_41_1622)"><path fill="#fff" d="M34.683 11.3901C32.4038 10.3438 29.9984 9.59773 27.5272 9.17051C27.5047 9.16636 27.4815 9.16939 27.4609 9.17917C27.4402 9.18895 27.4232 9.20499 27.4122 9.22501C27.1032 9.7745 26.7608 10.4917 26.5212 11.0552C23.8189 10.6506 21.1307 10.6506 18.4839 11.0552C18.2442 10.479 17.8894 9.7745 17.579 9.22501C17.5675 9.2054 17.5504 9.18972 17.5298 9.18C17.5093 9.17028 17.4863 9.16697 17.4639 9.17051C14.9924 9.59687 12.5869 10.343 10.308 11.3901C10.2885 11.3984 10.272 11.4125 10.2609 11.4305C5.70322 18.2396 4.45482 24.8813 5.06725 31.4408C5.06895 31.4568 5.07388 31.4724 5.08173 31.4866C5.08958 31.5007 5.1002 31.5131 5.11295 31.523C8.11986 33.7314 11.0327 35.0721 13.8915 35.9606C13.9137 35.9673 13.9374 35.9669 13.9595 35.9597C13.9815 35.9525 14.0009 35.9387 14.0149 35.9202C14.6911 34.9966 15.2938 34.023 15.8108 32.9991C15.8179 32.985 15.822 32.9697 15.8227 32.954C15.8235 32.9382 15.8209 32.9226 15.8151 32.9079C15.8094 32.8933 15.8006 32.88 15.7893 32.8691C15.7781 32.8581 15.7646 32.8496 15.7498 32.8442C14.7936 32.4814 13.8832 32.0393 13.0075 31.5371C12.9915 31.5277 12.9781 31.5145 12.9685 31.4987C12.9588 31.4829 12.9532 31.465 12.9521 31.4465C12.951 31.4281 12.9545 31.4096 12.9622 31.3928C12.9699 31.3759 12.9817 31.3613 12.9964 31.3501C13.1811 31.212 13.3627 31.0697 13.541 30.9233C13.5566 30.9104 13.5755 30.9021 13.5955 30.8993C13.6156 30.8966 13.636 30.8995 13.6545 30.9078C19.4082 33.5347 25.637 33.5347 31.3226 30.9078C31.3412 30.899 31.3619 30.8957 31.3822 30.8981C31.4026 30.9006 31.4219 30.9089 31.4378 30.9219C31.6162 31.0691 31.7982 31.2119 31.9837 31.3501C31.9985 31.3612 32.0104 31.3757 32.0182 31.3925C32.0261 31.4093 32.0297 31.4277 32.0287 31.4462C32.0278 31.4646 32.0223 31.4826 32.0128 31.4984C32.0032 31.5143 31.9899 31.5276 31.9741 31.5371C31.0978 32.0487 30.18 32.4855 29.2303 32.8428C29.2156 32.8484 29.2022 32.8571 29.191 32.8683C29.1799 32.8795 29.1712 32.8929 29.1656 32.9076C29.1599 32.9224 29.1575 32.9381 29.1584 32.9539C29.1593 32.9696 29.1635 32.985 29.1707 32.9991C29.6967 34.0149 30.2964 34.9907 30.9651 35.9188C30.9787 35.9378 30.9979 35.952 31.0201 35.9595C31.0422 35.9671 31.0661 35.9674 31.0885 35.9606C33.9611 35.0721 36.874 33.7314 39.8811 31.523C39.894 31.5135 39.9047 31.5014 39.9126 31.4875C39.9204 31.4736 39.9253 31.4581 39.9268 31.4422C40.6598 23.8588 38.6989 17.2714 34.7287 11.4319C34.719 11.413 34.7028 11.3981 34.683 11.3901ZM16.67 27.4468C14.9377 27.4468 13.5104 25.8565 13.5104 23.9034C13.5104 21.9503 14.9101 20.36 16.67 20.36C18.4437 20.36 19.8571 21.9644 19.8294 23.9034C19.8294 25.8565 18.43 27.4468 16.67 27.4468ZM28.3518 27.4468C26.6194 27.4468 25.1923 25.8565 25.1923 23.9034C25.1923 21.9503 26.5918 20.36 28.3518 20.36C30.1254 20.36 31.5388 21.9644 31.5113 23.9034C31.5113 25.8565 30.1254 27.4468 28.3518 27.4468Z"/></g></g><defs><clipPath id="clip0_41_1622"><rect width="45" height="45" fill="#fff"/></clipPath></defs></svg>