<svg width="104" height="104" viewBox="0 0 104 104" fill="none" xmlns="http://www.w3.org/2000/svg">
<g filter="url(#filter0_d_134_2)">
<rect x="7" y="3" width="90" height="90" rx="45" fill="url(#paint0_linear_134_2)" shape-rendering="crispEdges"/>
<rect x="5.5" y="1.5" width="93" height="93" rx="46.5" stroke="url(#paint1_linear_134_2)" stroke-width="3" shape-rendering="crispEdges"/>
</g>
<g filter="url(#filter1_d_134_2)">
<path d="M23.6112 57.355C23.0512 58.7083 22.7012 59.8283 22.5612 60.715C23.1212 60.1317 23.4128 59.8283 23.4362 59.805C24.9062 58.0317 26.4228 56.1883 27.9862 54.275C30.7395 50.9383 33.4345 48.185 36.0712 46.015C37.0745 45.1983 38.1712 44.405 39.3612 43.635C40.5512 42.865 41.9045 42.5617 43.4212 42.725C44.7745 42.865 45.7428 43.565 46.3262 44.825C46.7228 45.7117 46.9445 46.7617 46.9912 47.975C47.0378 50.285 46.5245 52.945 45.4512 55.955C45.4512 55.9783 45.2062 56.6433 44.7162 57.95C45.2762 57.7167 45.5678 57.6 45.5912 57.6C46.0578 57.3667 46.8045 56.97 47.8312 56.41C48.8578 55.85 49.6512 55.43 50.2112 55.15C50.6312 54.9167 50.9695 54.7767 51.2262 54.73C51.2728 54.7067 51.5645 54.7417 52.1012 54.835C52.0312 54.975 51.9495 55.1033 51.8562 55.22C51.7628 55.3133 51.6578 55.4067 51.5412 55.5C51.4245 55.5933 51.3312 55.6633 51.2612 55.71C51.2145 55.7333 51.1095 55.8033 50.9462 55.92C50.8062 56.0133 50.7128 56.0717 50.6662 56.095C47.8428 57.9383 45.8828 59.1983 44.7862 59.875C43.7128 60.5283 42.8028 61.4267 42.0562 62.57C41.3328 63.6667 40.3762 64.845 39.1862 66.105C37.0395 68.3917 34.3562 70.5033 31.1362 72.44C29.8062 73.2333 28.6278 73.6067 27.6012 73.56C27.2745 73.5367 27.0412 73.5133 26.9012 73.49C26.7612 73.4667 26.5745 73.3967 26.3412 73.28C26.1312 73.1867 25.9795 73.035 25.8862 72.825C25.8395 72.755 25.8045 72.6733 25.7812 72.58C25.7578 72.4867 25.7462 72.3933 25.7462 72.3C25.7695 72.23 25.7812 72.16 25.7812 72.09C25.8045 72.02 25.8395 71.9383 25.8862 71.845C25.9328 71.775 25.9678 71.7167 25.9912 71.67C26.0145 71.6233 26.0612 71.5533 26.1312 71.46C26.2012 71.39 26.2478 71.3317 26.2712 71.285C26.3178 71.2383 26.3878 71.18 26.4812 71.11C27.2278 70.2933 27.8578 69.6983 28.3712 69.325C30.7978 67.4817 33.1545 65.7433 35.4412 64.11C36.5145 63.34 38.0545 62.3133 40.0612 61.03C40.6212 60.6567 41.0412 60.1783 41.3212 59.595C42.8612 56.4217 43.8295 53.33 44.2262 50.32C44.4362 48.6867 44.3662 47.2283 44.0162 45.945C43.8762 45.455 43.7245 45.0933 43.5612 44.86C43.3978 44.6267 43.0828 44.3233 42.6162 43.95C42.0328 44.0667 41.1928 44.51 40.0962 45.28C37.7162 47.0067 35.3945 49.1183 33.1312 51.615C32.5012 52.315 31.6145 53.3417 30.4712 54.695C29.3278 56.025 28.6512 56.8183 28.4412 57.075C27.1578 58.545 25.8745 60.015 24.5912 61.485C24.3578 61.7183 23.9262 62.1383 23.2962 62.745C22.7128 63.2817 21.9662 63.5033 21.0562 63.41C20.2628 63.3167 19.8778 62.8967 19.9012 62.15C19.9012 61.6833 19.9595 61.2517 20.0762 60.855C20.5895 59.175 20.9628 58.0433 21.1962 57.46C24.0195 50.3433 27.3678 43.705 31.2412 37.545C33.1778 34.4417 35.1145 32.0383 37.0512 30.335C38.2178 29.285 39.4428 28.4917 40.7262 27.955C41.9862 27.4417 43.3162 27.2667 44.7162 27.43C46.6062 27.6633 47.9245 28.6667 48.6712 30.44C49.4412 32.33 49.3245 34.43 48.3212 36.74C48.2745 36.8333 48.2045 36.9267 48.1112 37.02C47.9712 37.1133 47.8778 37.1483 47.8312 37.125C47.5978 37.0317 47.4812 36.9383 47.4812 36.845C47.4112 36.3317 47.3762 35.795 47.3762 35.235C47.3995 33.905 47.2712 32.8317 46.9912 32.015C46.6878 31.1517 46.4078 30.51 46.1512 30.09C45.6612 29.25 45.0895 28.725 44.4362 28.515C43.8062 28.2817 43.0478 28.34 42.1612 28.69C41.0878 29.11 40.0028 29.8217 38.9062 30.825C37.5528 32.0383 36.4095 33.345 35.4762 34.745C34.0528 36.8683 33.0028 38.5133 32.3262 39.68C29.0828 45.21 26.1778 51.1017 23.6112 57.355ZM37.2612 65.16C34.1578 67.4 31.8828 69.2667 30.4362 70.76C31.4628 70.3867 32.7345 69.605 34.2512 68.415C35.3012 67.575 36.0128 66.945 36.3862 66.525C36.7595 66.1283 37.0512 65.6733 37.2612 65.16ZM56.8163 49.34C56.8863 49.3867 56.968 49.4217 57.0613 49.445C57.4113 49.0483 57.598 48.8383 57.6213 48.815C58.6246 47.625 60.3513 45.56 62.8013 42.62C65.2746 39.6567 67.188 37.37 68.5413 35.76C71.248 32.5167 73.5813 30.1133 75.5413 28.55C76.1946 28.0133 76.953 27.4883 77.8163 26.975C78.6563 26.4617 79.6013 26.275 80.6513 26.415C81.3746 26.485 81.8763 26.695 82.1563 27.045C82.4363 27.3717 82.553 27.885 82.5063 28.585C82.4363 29.1217 82.3196 29.6233 82.1563 30.09C81.0363 32.9833 80.3013 34.815 79.9513 35.585C79.228 37.125 78.108 39.435 76.5913 42.515C75.098 45.595 73.9896 47.9283 73.2663 49.515C70.3496 55.7217 68.1446 61.065 66.6513 65.545C66.488 66.0583 66.0213 67.785 65.2513 70.725C65.2513 70.7483 65.2396 71.075 65.2163 71.705C65.333 71.7283 65.5313 71.7867 65.8113 71.88C66.0913 71.9733 66.3013 72.055 66.4413 72.125C66.348 72.3117 66.2896 72.405 66.2663 72.405C66.1496 72.5217 65.998 72.6033 65.8113 72.65C64.9946 72.9533 64.353 72.9417 63.8863 72.615C63.4196 72.3117 63.1863 71.7283 63.1863 70.865C63.1863 69.9783 63.3263 68.9517 63.6063 67.785C64.633 63.2583 66.208 58.4867 68.3313 53.47C68.7513 52.5133 69.2063 51.4867 69.6963 50.39C70.2096 49.27 70.653 48.3133 71.0263 47.52C71.3996 46.7033 71.8896 45.665 72.4963 44.405C73.103 43.145 73.558 42.165 73.8613 41.465C74.188 40.7883 74.5846 39.96 75.0513 38.98C75.5413 38 75.9963 37.055 76.4163 36.145C76.8596 35.235 77.2563 34.395 77.6063 33.625C77.793 33.205 78.283 31.91 79.0763 29.74C79.0996 29.7167 79.158 29.4367 79.2513 28.9C79.1346 28.9 79.018 28.9233 78.9013 28.97C78.7846 29.0167 78.6913 29.0633 78.6213 29.11C78.5513 29.1333 78.458 29.1917 78.3413 29.285C78.248 29.355 78.178 29.4133 78.1313 29.46C78.108 29.4833 78.038 29.5533 77.9213 29.67C77.828 29.7867 77.7696 29.8567 77.7463 29.88C75.3663 32.33 73.8146 33.9633 73.0913 34.78C71.6446 36.4833 69.5096 39.0033 66.6863 42.34C63.8863 45.6533 61.7863 48.1267 60.3863 49.76C59.8496 50.39 58.3446 51.9883 55.8713 54.555C55.2646 55.2083 54.693 55.57 54.1563 55.64C53.503 55.7333 52.9896 55.745 52.6163 55.675C51.6596 55.535 51.3096 55.01 51.5663 54.1C51.823 53.2133 52.1496 52.35 52.5463 51.51C52.8963 50.81 54.5763 47.38 57.5863 41.22C57.9363 40.4967 58.1463 39.89 58.2163 39.4C57.843 39.7967 57.6446 40.0067 57.6213 40.03C56.898 40.9867 56.3496 41.7217 55.9763 42.235C55.6263 42.7483 55.1713 43.425 54.6113 44.265C54.0513 45.105 53.5613 45.91 53.1413 46.68C52.7446 47.45 52.383 48.22 52.0563 48.99C51.9863 49.1533 51.9163 49.2583 51.8463 49.305C51.5896 49.4217 51.3913 49.48 51.2513 49.48C51.1813 49.48 51.1113 49.445 51.0413 49.375C50.9713 49.2817 50.9363 49.2 50.9363 49.13C50.9363 48.2433 50.9713 47.6833 51.0413 47.45C51.4846 46.19 51.9396 45.1167 52.4063 44.23C54.1563 40.94 56.4663 37.4867 59.3363 33.87C59.593 33.5667 59.873 33.275 60.1763 32.995C60.783 32.4817 61.483 32.26 62.2763 32.33C62.673 32.3533 62.9763 32.435 63.1863 32.575C63.3963 32.6917 63.5363 32.8783 63.6063 33.135C63.6996 33.3683 63.7113 33.6717 63.6413 34.045C63.5246 34.6983 63.3496 35.305 63.1163 35.865C62.463 37.475 61.8796 38.805 61.3663 39.855C60.8763 40.8817 60.153 42.3633 59.1963 44.3C58.263 46.2133 57.6913 47.38 57.4813 47.8C57.458 47.8467 57.2363 48.36 56.8163 49.34Z" fill="white"/>
<path d="M23.6112 57.355L24.0732 57.5462L24.0737 57.5449L23.6112 57.355ZM22.5612 60.715L22.0673 60.637L21.8189 62.2102L22.9218 61.0613L22.5612 60.715ZM23.4362 59.805L23.7897 60.1586L23.8062 60.1421L23.8211 60.1241L23.4362 59.805ZM27.9862 54.275L27.6005 53.9568L27.599 53.9586L27.9862 54.275ZM36.0712 46.015L35.7555 45.6272L35.7534 45.6289L36.0712 46.015ZM39.3612 43.635L39.6328 44.0548L39.6328 44.0548L39.3612 43.635ZM43.4212 42.725L43.3676 43.2221L43.3697 43.2223L43.4212 42.725ZM46.3262 44.825L46.7826 44.6208L46.7799 44.6149L46.3262 44.825ZM46.9912 47.975L47.4911 47.9649L47.4908 47.9558L46.9912 47.975ZM45.4512 55.955L44.9802 55.7871L44.9512 55.8685V55.955H45.4512ZM44.7162 57.95L44.248 57.7744L43.8425 58.8557L44.9085 58.4115L44.7162 57.95ZM45.5912 57.6V58.1H45.7092L45.8148 58.0472L45.5912 57.6ZM47.8312 56.41L48.0706 56.8489L48.0706 56.8489L47.8312 56.41ZM50.2112 55.15L50.4348 55.5972L50.4445 55.5924L50.454 55.5871L50.2112 55.15ZM51.2262 54.73L51.3156 55.2219L51.3859 55.2092L51.4498 55.1772L51.2262 54.73ZM52.1012 54.835L52.5484 55.0586L52.8489 54.4575L52.1868 54.3424L52.1012 54.835ZM51.8562 55.22L52.2097 55.5736L52.2293 55.554L52.2466 55.5323L51.8562 55.22ZM51.2612 55.71L51.4848 56.1572L51.5126 56.1433L51.5385 56.126L51.2612 55.71ZM50.9462 55.92L51.2235 56.336L51.2302 56.3316L51.2368 56.3269L50.9462 55.92ZM50.6662 56.095L50.4425 55.6478L50.4169 55.6606L50.3928 55.6763L50.6662 56.095ZM44.7862 59.875L45.0461 60.3021L45.0487 60.3005L44.7862 59.875ZM42.0562 62.57L42.4735 62.8453L42.4748 62.8434L42.0562 62.57ZM39.1862 66.105L38.8226 65.7617L38.8216 65.7628L39.1862 66.105ZM31.1362 72.44L31.3923 72.8694L31.3939 72.8685L31.1362 72.44ZM27.6012 73.56L27.5655 74.0589L27.5784 74.0595L27.6012 73.56ZM26.9012 73.49L26.819 73.9832L26.819 73.9832L26.9012 73.49ZM26.3412 73.28L26.5648 72.8328L26.5546 72.8277L26.5442 72.8231L26.3412 73.28ZM25.8862 72.825L26.3431 72.6219L26.3258 72.5831L26.3022 72.5476L25.8862 72.825ZM25.7812 72.58L25.2961 72.7013L25.2961 72.7013L25.7812 72.58ZM25.7462 72.3L25.2718 72.1419L25.2462 72.2189V72.3H25.7462ZM25.7812 72.09L25.3068 71.9319L25.2812 72.0089V72.09H25.7812ZM25.8862 71.845L25.4701 71.5676L25.4529 71.5936L25.4389 71.6214L25.8862 71.845ZM25.9912 71.67L26.4384 71.8936L26.4384 71.8936L25.9912 71.67ZM26.1312 71.46L25.7776 71.1064L25.7525 71.1316L25.7312 71.16L26.1312 71.46ZM26.2712 71.285L25.9176 70.9314L25.8602 70.9888L25.8239 71.0614L26.2712 71.285ZM26.4812 71.11L26.7812 71.51L26.8186 71.4819L26.8502 71.4474L26.4812 71.11ZM28.3712 69.325L28.6653 69.7295L28.6736 69.7232L28.3712 69.325ZM35.4412 64.11L35.7318 64.5169L35.7326 64.5163L35.4412 64.11ZM40.0612 61.03L40.3306 61.4513L40.3385 61.446L40.0612 61.03ZM41.3212 59.595L40.8713 59.3767L40.8704 59.3786L41.3212 59.595ZM44.2262 50.32L44.7219 50.3853L44.7221 50.3838L44.2262 50.32ZM44.0162 45.945L44.4986 45.8134L44.4969 45.8076L44.0162 45.945ZM43.5612 44.86L43.1515 45.1467L43.1515 45.1467L43.5612 44.86ZM42.6162 43.95L42.9285 43.5596L42.7466 43.414L42.5181 43.4597L42.6162 43.95ZM40.0962 45.28L39.8088 44.8707L39.8025 44.8753L40.0962 45.28ZM33.1312 51.615L32.7607 51.2792L32.7595 51.2805L33.1312 51.615ZM30.4712 54.695L30.8503 55.021L30.8531 55.0177L30.4712 54.695ZM28.4412 57.075L28.8178 57.4038L28.8231 57.3978L28.8281 57.3916L28.4412 57.075ZM24.5912 61.485L24.9447 61.8386L24.9567 61.8266L24.9678 61.8138L24.5912 61.485ZM23.2962 62.745L23.6348 63.1131L23.643 63.1052L23.2962 62.745ZM21.0562 63.41L20.9977 63.9066L21.0051 63.9074L21.0562 63.41ZM19.9012 62.15L20.4009 62.1656L20.4012 62.1578V62.15H19.9012ZM20.0762 60.855L19.598 60.7089L19.5965 60.7139L20.0762 60.855ZM21.1962 57.46L21.6604 57.6457L21.6609 57.6444L21.1962 57.46ZM31.2412 37.545L31.6644 37.8112L31.6653 37.8097L31.2412 37.545ZM37.0512 30.335L37.3814 30.7105L37.3856 30.7066L37.0512 30.335ZM40.7262 27.955L40.5375 27.4919L40.5333 27.4937L40.7262 27.955ZM44.7162 27.43L44.7774 26.9338L44.7741 26.9334L44.7162 27.43ZM48.6712 30.44L49.1342 30.2513L49.132 30.246L48.6712 30.44ZM48.3212 36.74L48.7684 36.9636L48.7744 36.9516L48.7798 36.9392L48.3212 36.74ZM48.1112 37.02L48.3885 37.436L48.4297 37.4086L48.4647 37.3736L48.1112 37.02ZM47.8312 37.125L48.0548 36.6778L48.0362 36.6685L48.0169 36.6608L47.8312 37.125ZM47.4812 36.845H47.9812V36.8111L47.9766 36.7774L47.4812 36.845ZM47.3762 35.235L46.8762 35.2262V35.235H47.3762ZM46.9912 32.015L47.4641 31.8528L47.4629 31.8493L46.9912 32.015ZM46.1512 30.09L45.7192 30.342L45.7245 30.3507L46.1512 30.09ZM44.4362 28.515L44.2625 28.9839L44.2727 28.9877L44.2831 28.991L44.4362 28.515ZM42.1612 28.69L42.3434 29.1556L42.3447 29.1551L42.1612 28.69ZM38.9062 30.825L39.2399 31.1973L39.2437 31.1939L38.9062 30.825ZM35.4762 34.745L35.8915 35.0234L35.8922 35.0223L35.4762 34.745ZM32.3262 39.68L32.7575 39.933L32.7587 39.9309L32.3262 39.68ZM37.2612 65.16L37.7239 65.3493L38.3857 63.7317L36.9685 64.7546L37.2612 65.16ZM30.4362 70.76L30.077 70.4121L30.607 71.2299L30.4362 70.76ZM34.2512 68.415L34.5598 68.8084L34.5635 68.8054L34.2512 68.415ZM36.3862 66.525L36.0221 66.1823L36.0172 66.1875L36.0124 66.1928L36.3862 66.525ZM23.1491 57.1638C22.5823 58.5338 22.216 59.6949 22.0673 60.637L23.055 60.793C23.1863 59.9617 23.52 58.8829 24.0732 57.5462L23.1491 57.1638ZM22.9218 61.0613C23.2018 60.7696 23.4146 60.5481 23.5603 60.3966C23.6332 60.3208 23.6891 60.2626 23.7283 60.2221C23.7478 60.2018 23.763 60.186 23.7739 60.1748C23.7862 60.1621 23.7902 60.158 23.7897 60.1586L23.0826 59.4514C23.0545 59.4796 22.7565 59.7896 22.2005 60.3687L22.9218 61.0613ZM23.8211 60.1241C25.2919 58.3498 26.8093 56.5055 28.3733 54.5914L27.599 53.9586C26.0363 55.8711 24.5204 57.7135 23.0512 59.4859L23.8211 60.1241ZM28.3718 54.5932C31.1099 51.2751 33.7825 48.5461 36.3889 46.4011L35.7534 45.6289C33.0865 47.8239 30.3691 50.6016 27.6005 53.9568L28.3718 54.5932ZM36.3868 46.4028C37.3748 45.5986 38.4566 44.8158 39.6328 44.0548L39.0895 43.2152C37.8857 43.9942 36.7742 44.7981 35.7555 45.6272L36.3868 46.4028ZM39.6328 44.0548C40.7189 43.352 41.9557 43.0701 43.3676 43.2221L43.4747 42.2279C41.8533 42.0533 40.3834 42.378 39.0895 43.2152L39.6328 44.0548ZM43.3697 43.2223C44.5433 43.3438 45.3613 43.931 45.8724 45.0351L46.7799 44.6149C46.1244 43.199 45.0057 42.3862 43.4726 42.2277L43.3697 43.2223ZM45.8697 45.0292C46.2347 45.8449 46.4467 46.8293 46.4915 47.9942L47.4908 47.9558C47.4423 46.694 47.211 45.5784 46.7826 44.6208L45.8697 45.0292ZM46.4913 47.9851C46.5363 50.2161 46.0404 52.8138 44.9802 55.7871L45.9221 56.1229C47.0086 53.0762 47.5393 50.3539 47.4911 47.9649L46.4913 47.9851ZM44.9512 55.955C44.9512 55.911 44.9573 55.8772 44.9586 55.8697C44.9609 55.8566 44.9632 55.8465 44.9644 55.8417C44.9668 55.832 44.9687 55.8255 44.9688 55.8251C44.9693 55.8234 44.9685 55.8261 44.9653 55.8357C44.9593 55.8538 44.9491 55.8831 44.9342 55.9251C44.9045 56.0085 44.8593 56.1326 44.7982 56.2984C44.6762 56.6295 44.4929 57.1213 44.248 57.7744L45.1843 58.1256C45.4294 57.472 45.6136 56.978 45.7366 56.6441C45.798 56.4774 45.8447 56.3492 45.8763 56.2605C45.8919 56.2165 45.9047 56.1798 45.914 56.1519C45.9185 56.1386 45.9234 56.1233 45.9277 56.1087C45.9298 56.1019 45.9332 56.0901 45.9365 56.0764C45.9381 56.0696 45.9408 56.0579 45.9434 56.0435C45.9449 56.0346 45.9512 55.9997 45.9512 55.955H44.9512ZM44.9085 58.4115C45.1879 58.2951 45.3982 58.2087 45.5406 58.1517C45.6123 58.1231 45.6637 58.1031 45.697 58.0907C45.7051 58.0878 45.7114 58.0855 45.7161 58.0838C45.7185 58.083 45.7203 58.0823 45.7216 58.0819C45.7229 58.0815 45.7234 58.0813 45.7233 58.0813C45.7233 58.0813 45.7221 58.0817 45.7199 58.0824C45.7179 58.083 45.7137 58.0842 45.7078 58.0857C45.7026 58.087 45.6919 58.0897 45.6776 58.0923C45.6677 58.0941 45.6346 58.1 45.5912 58.1V57.1C45.5192 57.1 45.4606 57.1167 45.4594 57.117C45.4419 57.1215 45.4265 57.1263 45.4163 57.1296C45.395 57.1365 45.3718 57.1448 45.3497 57.153C45.3042 57.1698 45.2433 57.1936 45.1692 57.2233C45.02 57.283 44.8044 57.3716 44.5238 57.4885L44.9085 58.4115ZM45.8148 58.0472C46.29 57.8096 47.0435 57.4092 48.0706 56.8489L47.5917 55.9711C46.5655 56.5308 45.8256 56.9238 45.3675 57.1528L45.8148 58.0472ZM48.0706 56.8489C49.0957 56.2898 49.8828 55.8732 50.4348 55.5972L49.9875 54.7028C49.4195 54.9868 48.62 55.4102 47.5917 55.9711L48.0706 56.8489ZM50.454 55.5871C50.8593 55.3619 51.1404 55.2538 51.3156 55.2219L51.1367 54.2381C50.7986 54.2995 50.403 54.4714 49.9683 54.7129L50.454 55.5871ZM51.4498 55.1772C51.3997 55.2023 51.3576 55.2121 51.3394 55.2159C51.3182 55.2203 51.3024 55.2218 51.2955 55.2223C51.2823 55.2234 51.2785 55.2227 51.2899 55.2231C51.3114 55.2239 51.3529 55.2271 51.4203 55.2352C51.553 55.2511 51.7498 55.2814 52.0155 55.3276L52.1868 54.3424C51.9158 54.2953 51.6985 54.2614 51.5395 54.2423C51.4611 54.2329 51.3874 54.2259 51.3243 54.2237C51.2934 54.2227 51.2549 54.2224 51.2147 54.2256C51.1912 54.2275 51.0995 54.2343 51.0025 54.2828L51.4498 55.1772ZM51.6539 54.6114C51.5989 54.7214 51.536 54.8198 51.4657 54.9077L52.2466 55.5323C52.3629 55.3869 52.4634 55.2286 52.5484 55.0586L51.6539 54.6114ZM51.5026 54.8664C51.4239 54.9452 51.3329 55.0263 51.2288 55.1096L51.8535 55.8904C51.9827 55.7871 52.1018 55.6815 52.2097 55.5736L51.5026 54.8664ZM51.2288 55.1096C51.1162 55.1996 51.036 55.2592 50.9838 55.294L51.5385 56.126C51.6263 56.0675 51.7327 55.987 51.8535 55.8904L51.2288 55.1096ZM51.0375 55.2628C50.9481 55.3075 50.8077 55.4044 50.6555 55.5131L51.2368 56.3269C51.3163 56.2701 51.3785 56.2268 51.4248 56.196C51.4773 56.161 51.4922 56.1535 51.4848 56.1572L51.0375 55.2628ZM50.6688 55.504C50.601 55.5492 50.5471 55.5842 50.5062 55.6098C50.4857 55.6225 50.4698 55.6321 50.458 55.639C50.4453 55.6464 50.4409 55.6486 50.4425 55.6478L50.8898 56.5422C50.9694 56.5024 51.0893 56.4255 51.2235 56.336L50.6688 55.504ZM50.3928 55.6763C47.5691 57.5199 45.6141 58.7766 44.5236 59.4495L45.0487 60.3005C46.1515 59.6201 48.1165 58.3568 50.9395 56.5137L50.3928 55.6763ZM44.5262 59.4479C43.3838 60.1433 42.4214 61.0964 41.6375 62.2966L42.4748 62.8434C43.1843 61.757 44.0419 60.9134 45.0461 60.3021L44.5262 59.4479ZM41.6388 62.2947C40.9355 63.3609 39.9986 64.5165 38.8226 65.7617L39.5497 66.4483C40.7537 65.1735 41.7301 63.9724 42.4735 62.8453L41.6388 62.2947ZM38.8216 65.7628C36.7119 68.0101 34.0666 70.094 30.8784 72.0115L31.3939 72.8685C34.6457 70.9126 37.3671 68.7733 39.5507 66.4472L38.8216 65.7628ZM30.88 72.0106C29.5942 72.7776 28.5148 73.101 27.6239 73.0605L27.5784 74.0595C28.7408 74.1123 30.0181 73.6891 31.3923 72.8694L30.88 72.0106ZM27.6368 73.0613C27.3109 73.038 27.0981 73.0159 26.9834 72.9968L26.819 73.9832C26.9842 74.0107 27.2381 74.0353 27.5655 74.0587L27.6368 73.0613ZM26.9834 72.9968C26.9177 72.9859 26.7842 72.9425 26.5648 72.8328L26.1175 73.7272C26.3648 73.8508 26.6046 73.9475 26.819 73.9832L26.9834 72.9968ZM26.5442 72.8231C26.4473 72.78 26.3861 72.7188 26.3431 72.6219L25.4292 73.0281C25.5729 73.3512 25.815 73.5933 26.1381 73.7369L26.5442 72.8231ZM26.3022 72.5476C26.2915 72.5316 26.2776 72.5043 26.2662 72.4587L25.2961 72.7013C25.3313 72.8423 25.3875 72.9784 25.4701 73.1024L26.3022 72.5476ZM26.2662 72.4587C26.2525 72.4038 26.2462 72.3512 26.2462 72.3H25.2462C25.2462 72.4355 25.2631 72.5695 25.2961 72.7013L26.2662 72.4587ZM26.2205 72.4581C26.2599 72.3399 26.2812 72.2166 26.2812 72.09H25.2812C25.2812 72.1034 25.2791 72.1201 25.2718 72.1419L26.2205 72.4581ZM26.2555 72.2481C26.269 72.2076 26.2933 72.1487 26.3334 72.0686L25.4389 71.6214C25.3856 71.728 25.34 71.8324 25.3068 71.9319L26.2555 72.2481ZM26.3022 72.1224C26.3543 72.0442 26.4019 71.9665 26.4384 71.8936L25.5439 71.4464C25.5337 71.4668 25.5113 71.5058 25.4701 71.5676L26.3022 72.1224ZM26.4384 71.8936C26.4369 71.8965 26.4418 71.8867 26.4597 71.8598C26.4764 71.8348 26.4998 71.8019 26.5312 71.76L25.7312 71.16C25.6596 71.2554 25.589 71.3562 25.5439 71.4464L26.4384 71.8936ZM26.4847 71.8136C26.565 71.7332 26.6582 71.629 26.7184 71.5086L25.8239 71.0614C25.8291 71.0512 25.8328 71.0455 25.8333 71.0448C25.8338 71.044 25.8324 71.0461 25.8282 71.0514C25.8194 71.0624 25.8035 71.0806 25.7776 71.1064L26.4847 71.8136ZM26.6247 71.6386C26.6466 71.6166 26.6947 71.5748 26.7812 71.51L26.1812 70.71C26.0809 70.7852 25.989 70.86 25.9176 70.9314L26.6247 71.6386ZM26.8502 71.4474C27.5882 70.6401 28.1919 70.0736 28.6652 69.7294L28.0771 68.9206C27.5238 69.323 26.8674 69.9465 26.1121 70.7726L26.8502 71.4474ZM28.6736 69.7232C31.0967 67.8825 33.4494 66.1471 35.7318 64.5169L35.1505 63.7031C32.8596 65.3395 30.499 67.0808 28.0687 68.9268L28.6736 69.7232ZM35.7326 64.5163C36.7952 63.754 38.3265 62.7329 40.3305 61.4512L39.7918 60.6088C37.7825 61.8938 36.2338 62.926 35.1497 63.7037L35.7326 64.5163ZM40.3385 61.446C40.97 61.025 41.4515 60.4789 41.7719 59.8114L40.8704 59.3786C40.6308 59.8777 40.2723 60.2883 39.7838 60.614L40.3385 61.446ZM41.771 59.8133C43.3307 56.5994 44.3172 53.4562 44.7219 50.3853L43.7304 50.2547C43.3418 53.2037 42.3916 56.2439 40.8713 59.3767L41.771 59.8133ZM44.7221 50.3838C44.9385 48.7001 44.8695 47.1735 44.4985 45.8134L43.5338 46.0766C43.8628 47.2831 43.9338 48.6732 43.7302 50.2562L44.7221 50.3838ZM44.4969 45.8076C44.3517 45.2994 44.1817 44.8746 43.9708 44.5733L43.1515 45.1467C43.2672 45.312 43.4006 45.6106 43.5354 46.0824L44.4969 45.8076ZM43.9708 44.5733C43.764 44.2778 43.4009 43.9375 42.9285 43.5596L42.3038 44.3404C42.7648 44.7092 43.0317 44.9755 43.1515 45.1467L43.9708 44.5733ZM42.5181 43.4597C41.8232 43.5987 40.9086 44.0986 39.8088 44.8708L40.3835 45.6892C41.477 44.9214 42.2425 44.5346 42.7142 44.4403L42.5181 43.4597ZM39.8025 44.8753C37.3909 46.6249 35.0439 48.7606 32.7607 51.2792L33.5016 51.9508C35.745 49.4761 38.0414 47.3884 40.3898 45.6847L39.8025 44.8753ZM32.7595 51.2805C32.1242 51.9864 31.2335 53.0178 30.0892 54.3723L30.8531 55.0177C31.9954 53.6655 32.8781 52.6436 33.5028 51.9495L32.7595 51.2805ZM30.092 54.3691C28.9509 55.6965 28.2691 56.4958 28.0542 56.7584L28.8281 57.3916C29.0333 57.1409 29.7048 56.3535 30.8503 55.0209L30.092 54.3691ZM28.0645 56.7462C26.7812 58.2162 25.4978 59.6862 24.2145 61.1562L24.9678 61.8138C26.2511 60.3438 27.5345 58.8738 28.8178 57.4038L28.0645 56.7462ZM24.2376 61.1314C24.008 61.361 23.5796 61.7779 22.9493 62.3848L23.643 63.1052C24.2727 62.4987 24.7076 62.0757 24.9447 61.8386L24.2376 61.1314ZM22.9576 62.377C22.4963 62.8014 21.899 62.9938 21.1072 62.9126L21.0051 63.9074C22.0333 64.0128 22.9293 63.7619 23.6347 63.113L22.9576 62.377ZM21.1146 62.9134C20.7895 62.8752 20.6251 62.7789 20.541 62.6871C20.4615 62.6004 20.392 62.4505 20.4009 62.1656L19.4014 62.1344C19.387 62.5961 19.4983 63.0296 19.8038 63.3629C20.1047 63.6911 20.5295 63.8515 20.9977 63.9066L21.1146 62.9134ZM20.4012 62.15C20.4012 61.7251 20.4542 61.3415 20.5558 60.9961L19.5965 60.7139C19.4647 61.1619 19.4012 61.6416 19.4012 62.15H20.4012ZM20.5543 61.0011C21.0684 59.3188 21.436 58.2066 21.6604 57.6457L20.7319 57.2743C20.4896 57.88 20.1106 59.0312 19.598 60.7089L20.5543 61.0011ZM21.6609 57.6444C24.4735 50.5547 27.8082 43.9439 31.6644 37.8112L30.8179 37.2788C26.9274 43.4661 23.5654 50.132 20.7314 57.2756L21.6609 57.6444ZM31.6653 37.8097C33.5861 34.7319 35.493 32.3713 37.3814 30.7104L36.7209 29.9596C34.736 31.7053 32.7696 34.1514 30.817 37.2803L31.6653 37.8097ZM37.3856 30.7066C38.5158 29.6895 39.6938 28.9287 40.9191 28.4163L40.5333 27.4937C39.1918 28.0547 37.9198 28.8805 36.7167 29.9634L37.3856 30.7066ZM40.9148 28.418C42.0939 27.9377 43.3388 27.7727 44.6582 27.9266L44.7741 26.9334C43.2935 26.7606 41.8784 26.9457 40.5375 27.492L40.9148 28.418ZM44.6549 27.9262C46.3649 28.1373 47.5322 29.0236 48.2103 30.634L49.132 30.246C48.3167 28.3098 46.8474 27.1893 44.7774 26.9338L44.6549 27.9262ZM48.2081 30.6286C48.916 32.3661 48.8256 34.3235 47.8625 36.5408L48.7798 36.9392C49.8233 34.5365 49.9664 32.2939 49.1342 30.2514L48.2081 30.6286ZM47.8739 36.5164C47.8567 36.5509 47.8225 36.6015 47.7576 36.6664L48.4647 37.3736C48.5864 37.2518 48.6923 37.1158 48.7684 36.9636L47.8739 36.5164ZM47.8338 36.604C47.7771 36.6418 47.7553 36.6501 47.7606 36.6481C47.7639 36.6468 47.7903 36.6369 47.8334 36.6333C47.8766 36.6297 47.9607 36.6307 48.0548 36.6778L47.6075 37.5722C47.8295 37.6832 48.0412 37.6108 48.1117 37.5844C48.2103 37.5474 48.3052 37.4915 48.3885 37.436L47.8338 36.604ZM48.0169 36.6608C47.9712 36.6425 47.9374 36.6267 47.9133 36.6138C47.8885 36.6006 47.8798 36.5936 47.881 36.5946C47.8812 36.5947 47.9032 36.6118 47.927 36.65C47.9531 36.6917 47.9812 36.7589 47.9812 36.845H46.9812C46.9812 37.1158 47.1504 37.2907 47.2563 37.3754C47.3703 37.4666 47.5097 37.5349 47.6455 37.5892L48.0169 36.6608ZM47.9766 36.7774C47.9099 36.2882 47.8762 35.7742 47.8762 35.235H46.8762C46.8762 35.8158 46.9125 36.3751 46.9857 36.9126L47.9766 36.7774ZM47.8761 35.2438C47.8999 33.8836 47.7703 32.7459 47.4641 31.8528L46.5182 32.1772C46.772 32.9175 46.899 33.9264 46.8762 35.2262L47.8761 35.2438ZM47.4629 31.8493C47.156 30.9759 46.8622 30.2947 46.5778 29.8293L45.7245 30.3507C45.9534 30.7253 46.2196 31.3275 46.5194 32.1807L47.4629 31.8493ZM46.583 29.8381C46.0567 28.9357 45.4009 28.2999 44.5892 28.039L44.2831 28.991C44.7781 29.1501 45.2656 29.5643 45.7193 30.3419L46.583 29.8381ZM44.6098 28.0461C43.8239 27.7551 42.9311 27.8485 41.9776 28.2249L42.3447 29.1551C43.1645 28.8315 43.7884 28.8083 44.2625 28.9839L44.6098 28.0461ZM41.979 28.2244C40.8344 28.6722 39.6982 29.4227 38.5686 30.4561L39.2437 31.1939C40.3075 30.2206 41.3412 29.5478 42.3434 29.1556L41.979 28.2244ZM38.5724 30.4527C37.1902 31.6919 36.0186 33.03 35.0601 34.4676L35.8922 35.0223C36.8004 33.66 37.9154 32.3848 39.2399 31.1973L38.5724 30.4527ZM35.0608 34.4666C33.6358 36.5925 32.5786 38.2482 31.8936 39.4291L32.7587 39.9309C33.4271 38.7785 34.4699 37.1442 35.8915 35.0234L35.0608 34.4666ZM31.8949 39.427C28.639 44.9784 25.7237 50.8912 23.1486 57.1651L24.0737 57.5449C26.6319 51.3121 29.5266 45.4416 32.7574 39.933L31.8949 39.427ZM36.9685 64.7546C33.8576 67 31.5545 68.887 30.077 70.4121L30.7953 71.1079C32.2111 69.6463 34.458 67.8 37.5538 65.5654L36.9685 64.7546ZM30.607 71.2299C31.7075 70.8297 33.0282 70.0101 34.5598 68.8084L33.9425 68.0216C32.4408 69.1999 31.2182 69.9436 30.2653 70.2901L30.607 71.2299ZM34.5635 68.8054C35.6136 67.9653 36.3554 67.3121 36.7599 66.8572L36.0124 66.1928C35.6702 66.5779 34.9887 67.1847 33.9388 68.0246L34.5635 68.8054ZM36.7503 66.8677C37.1664 66.4256 37.4911 65.9183 37.7239 65.3493L36.7984 64.9707C36.6112 65.4283 36.3526 65.8311 36.0221 66.1823L36.7503 66.8677ZM56.8163 49.34L56.3567 49.143L56.1929 49.5253L56.539 49.756L56.8163 49.34ZM57.0613 49.445L56.94 49.9301L57.235 50.0038L57.4362 49.7758L57.0613 49.445ZM57.6213 48.815L57.9749 49.1686L57.9899 49.1535L58.0036 49.1373L57.6213 48.815ZM62.8013 42.62L62.4174 42.2996L62.4172 42.2999L62.8013 42.62ZM68.5413 35.76L68.9241 36.0817L68.9252 36.0804L68.5413 35.76ZM75.5413 28.55L75.8531 28.9409L75.8587 28.9364L75.5413 28.55ZM77.8163 26.975L78.0719 27.4048L78.077 27.4016L77.8163 26.975ZM80.6513 26.415L80.5852 26.9106L80.5942 26.9118L80.6031 26.9127L80.6513 26.415ZM82.1563 27.045L81.7659 27.3573L81.7712 27.364L81.7767 27.3704L82.1563 27.045ZM82.5063 28.585L83.0021 28.6497L83.0042 28.634L83.0052 28.6183L82.5063 28.585ZM82.1563 30.09L82.6226 30.2705L82.6255 30.2629L82.6282 30.2552L82.1563 30.09ZM79.9513 35.585L80.4039 35.7976L80.4065 35.7919L79.9513 35.585ZM76.5913 42.515L76.1427 42.2941L76.1414 42.2969L76.5913 42.515ZM73.2663 49.515L73.7189 49.7277L73.7213 49.7224L73.2663 49.515ZM66.6513 65.545L66.1769 65.3869L66.1748 65.3934L66.6513 65.545ZM65.2513 70.725L64.7676 70.5983L64.7513 70.6606V70.725H65.2513ZM65.2163 71.705L64.7167 71.6865L64.7009 72.1118L65.1182 72.1953L65.2163 71.705ZM65.8113 71.88L65.6532 72.3543L65.6532 72.3543L65.8113 71.88ZM66.4413 72.125L66.8885 72.3486L67.1121 71.9014L66.6649 71.6778L66.4413 72.125ZM66.2663 72.405V71.905H66.0592L65.9128 72.0514L66.2663 72.405ZM65.8113 72.65L65.69 72.1649L65.6632 72.1716L65.6372 72.1813L65.8113 72.65ZM63.8863 72.615L64.173 72.2054L64.166 72.2005L64.1588 72.1958L63.8863 72.615ZM63.6063 67.785L64.0925 67.9017L64.0939 67.8956L63.6063 67.785ZM68.3313 53.47L67.8734 53.269L67.8709 53.2751L68.3313 53.47ZM69.6963 50.39L69.2418 50.1817L69.2398 50.186L69.6963 50.39ZM71.0263 47.52L71.4787 47.7329L71.481 47.7279L71.0263 47.52ZM72.4963 44.405L72.0458 44.1881L72.0458 44.1881L72.4963 44.405ZM73.8613 41.465L73.411 41.2476L73.4066 41.2568L73.4025 41.2662L73.8613 41.465ZM75.0513 38.98L74.604 38.7564L74.5999 38.765L75.0513 38.98ZM76.4163 36.145L75.9667 35.926L75.9623 35.9355L76.4163 36.145ZM77.6063 33.625L78.0615 33.8319L78.0632 33.8281L77.6063 33.625ZM79.0763 29.74L78.7228 29.3864L78.6446 29.4646L78.6067 29.5683L79.0763 29.74ZM79.2513 28.9L79.7439 28.9857L79.8458 28.4H79.2513V28.9ZM78.6213 29.11L78.7794 29.5843L78.8429 29.5632L78.8987 29.526L78.6213 29.11ZM78.3413 29.285L78.6413 29.685L78.6476 29.6803L78.6537 29.6754L78.3413 29.285ZM78.1313 29.46L77.7778 29.1064L77.7778 29.1064L78.1313 29.46ZM77.9213 29.67L77.5678 29.3164L77.5482 29.336L77.5309 29.3576L77.9213 29.67ZM77.7463 29.88L77.3927 29.5264L77.3877 29.5316L77.7463 29.88ZM73.0913 34.78L72.7169 34.4484L72.7102 34.4563L73.0913 34.78ZM66.6863 42.34L66.3046 42.017L66.3044 42.0173L66.6863 42.34ZM60.3863 49.76L60.0067 49.4346L60.0057 49.4358L60.3863 49.76ZM55.8713 54.555L55.5112 54.208L55.5049 54.2148L55.8713 54.555ZM54.1563 55.64L54.0916 55.1442L54.0856 55.145L54.1563 55.64ZM52.6163 55.675L52.7085 55.1836L52.6986 55.1817L52.6887 55.1803L52.6163 55.675ZM51.5663 54.1L51.086 53.961L51.0851 53.9643L51.5663 54.1ZM52.5463 51.51L52.099 51.2863L52.0942 51.2965L52.5463 51.51ZM57.5863 41.22L58.0355 41.4395L58.0364 41.4378L57.5863 41.22ZM58.2163 39.4L58.7113 39.4707L58.9346 37.9072L57.8522 39.0573L58.2163 39.4ZM57.6213 40.03L57.2678 39.6764L57.2433 39.7009L57.2225 39.7284L57.6213 40.03ZM55.9763 42.235L55.5719 41.9409L55.5675 41.9471L55.5632 41.9533L55.9763 42.235ZM54.6113 44.265L54.1953 43.9876L54.1953 43.9876L54.6113 44.265ZM53.1413 46.68L52.7022 46.4405L52.6968 46.451L53.1413 46.68ZM52.0563 48.99L52.5159 49.187L52.5166 49.1853L52.0563 48.99ZM51.8463 49.305L52.0532 49.7602L52.09 49.7435L52.1237 49.721L51.8463 49.305ZM51.0413 49.375L50.6413 49.675L50.6626 49.7034L50.6878 49.7286L51.0413 49.375ZM51.0413 47.45L50.5697 47.284L50.5658 47.2951L50.5624 47.3063L51.0413 47.45ZM52.4063 44.23L51.9649 43.9952L51.9638 43.9971L52.4063 44.23ZM59.3363 33.87L58.9546 33.547L58.9495 33.553L58.9446 33.5592L59.3363 33.87ZM60.1763 32.995L59.8533 32.6133L59.8451 32.6203L59.8372 32.6276L60.1763 32.995ZM62.2763 32.33L62.2324 32.8281L62.2396 32.8287L62.2469 32.8291L62.2763 32.33ZM63.1863 32.575L62.909 32.991L62.9258 33.0022L62.9435 33.0121L63.1863 32.575ZM63.6063 33.135L63.1239 33.2666L63.1315 33.2941L63.1421 33.3207L63.6063 33.135ZM63.6413 34.045L63.1499 33.9529L63.1491 33.9571L63.6413 34.045ZM63.1163 35.865L62.6548 35.6727L62.653 35.677L63.1163 35.865ZM61.3663 39.855L60.9171 39.6354L60.9151 39.6396L61.3663 39.855ZM59.1963 44.3L58.748 44.0786L58.7469 44.0808L59.1963 44.3ZM56.539 49.756C56.663 49.8387 56.799 49.8948 56.94 49.9301L57.1826 48.9599C57.137 48.9485 57.1097 48.9346 57.0937 48.924L56.539 49.756ZM57.4362 49.7758C57.6111 49.5776 57.7448 49.4265 57.8375 49.3222C57.9387 49.2084 57.9767 49.1667 57.9749 49.1686L57.2678 48.4614C57.2298 48.4994 57.0258 48.7296 56.6864 49.1142L57.4362 49.7758ZM58.0036 49.1373C59.0079 47.9461 60.7354 45.8801 63.1854 42.9401L62.4172 42.2999C59.9672 45.2399 58.2414 47.3039 57.239 48.4927L58.0036 49.1373ZM63.1852 42.9404C65.6584 39.9772 67.5713 37.6911 68.9241 36.0817L68.1586 35.4383C66.8047 37.0489 64.8909 39.3361 62.4174 42.2996L63.1852 42.9404ZM68.9252 36.0804C71.6228 32.8479 73.9313 30.4738 75.8531 28.9409L75.2295 28.1591C73.2314 29.7529 70.8732 32.1854 68.1574 35.4396L68.9252 36.0804ZM75.8587 28.9364C76.4893 28.4183 77.2263 27.9075 78.0718 27.4048L77.5608 26.5452C76.6797 27.0691 75.9 27.6083 75.2239 28.1636L75.8587 28.9364ZM78.077 27.4016C78.8115 26.9528 79.6396 26.7845 80.5852 26.9106L80.7174 25.9194C79.563 25.7655 78.5011 25.9706 77.5556 26.5484L78.077 27.4016ZM80.6031 26.9127C81.2723 26.9774 81.61 27.1625 81.7659 27.3573L82.5467 26.7327C82.1426 26.2275 81.477 25.9926 80.6995 25.9173L80.6031 26.9127ZM81.7767 27.3704C81.9313 27.5508 82.0506 27.9039 82.0074 28.5517L83.0052 28.6183C83.0554 27.8661 82.9413 27.1925 82.5359 26.7196L81.7767 27.3704ZM82.0105 28.5203C81.9446 29.0259 81.8353 29.4936 81.6844 29.9248L82.6282 30.2552C82.804 29.753 82.9281 29.2174 83.0021 28.6497L82.0105 28.5203ZM81.69 29.9095C80.5684 32.807 79.8389 34.6239 79.4961 35.3781L80.4065 35.7919C80.7637 35.0061 81.5042 33.1596 82.6226 30.2705L81.69 29.9095ZM79.4987 35.3724C78.7775 36.9081 77.6591 39.2147 76.1427 42.2941L77.0399 42.7359C78.5568 39.6553 79.6785 37.3419 80.4039 35.7976L79.4987 35.3724ZM76.1414 42.2969C74.6476 45.3777 73.5372 47.7154 72.8114 49.3076L73.7213 49.7224C74.4421 48.1413 75.5483 45.8123 77.0412 42.7331L76.1414 42.2969ZM72.8138 49.3023C69.8921 55.5196 67.6786 60.8821 66.177 65.3869L67.1257 65.7031C68.6107 61.2479 70.8071 55.9237 73.7188 49.7277L72.8138 49.3023ZM66.1748 65.3934C66.0065 65.9225 65.5357 67.6657 64.7676 70.5983L65.735 70.8517C66.5069 67.9043 66.9694 66.1942 67.1278 65.6966L66.1748 65.3934ZM64.7513 70.725C64.7513 70.7249 64.749 70.7975 64.7429 70.9697C64.7371 71.1327 64.7283 71.3716 64.7167 71.6865L65.716 71.7235C65.7389 71.1041 65.7513 70.7606 65.7513 70.725H64.7513ZM65.1182 72.1953C65.2009 72.2118 65.3725 72.2608 65.6532 72.3543L65.9694 71.4057C65.6901 71.3126 65.465 71.2448 65.3144 71.2147L65.1182 72.1953ZM65.6532 72.3543C65.9267 72.4455 66.1099 72.5183 66.2177 72.5722L66.6649 71.6778C66.4927 71.5917 66.2559 71.5012 65.9694 71.4057L65.6532 72.3543ZM65.9941 71.9014C65.9494 71.9907 65.9199 72.0438 65.9036 72.07C65.8941 72.0852 65.8982 72.0764 65.9141 72.0582C65.9214 72.0498 65.9446 72.0239 65.9826 71.9963C66.0024 71.9818 66.0342 71.9611 66.0771 71.9431C66.1198 71.9251 66.1849 71.905 66.2663 71.905V72.905C66.4262 72.905 66.5351 72.8309 66.5708 72.805C66.6168 72.7715 66.6491 72.7368 66.6667 72.7168C66.703 72.6753 66.7319 72.6315 66.7516 72.6C66.7935 72.5329 66.8398 72.446 66.8885 72.3486L65.9941 71.9014ZM65.9128 72.0514C65.8702 72.094 65.8036 72.1365 65.69 72.1649L65.9326 73.1351C66.1924 73.0701 66.4291 72.9493 66.6199 72.7586L65.9128 72.0514ZM65.6372 72.1813C64.8895 72.459 64.4448 72.3956 64.173 72.2054L63.5996 73.0246C64.2611 73.4877 65.0998 73.4476 65.9854 73.1187L65.6372 72.1813ZM64.1588 72.1958C63.9001 72.0276 63.6863 71.6569 63.6863 70.865H62.6863C62.6863 71.7997 62.9392 72.5957 63.6138 73.0342L64.1588 72.1958ZM63.6863 70.865C63.6863 70.0287 63.8187 69.0426 64.0925 67.9017L63.1201 67.6683C62.8339 68.8607 62.6863 69.928 62.6863 70.865H63.6863ZM64.0939 67.8956C65.113 63.4022 66.678 58.6589 68.7918 53.6649L67.8709 53.2751C65.7379 58.3145 64.1529 63.1144 63.1187 67.6744L64.0939 67.8956ZM68.7891 53.671C69.2086 52.7155 69.6632 51.6898 70.1528 50.594L69.2398 50.186C68.7494 51.2835 68.294 52.3112 67.8735 53.269L68.7891 53.671ZM70.1508 50.5983C70.6637 49.4793 71.1063 48.5242 71.4787 47.7329L70.5739 47.3071C70.1996 48.1024 69.7556 49.0607 69.2418 50.1817L70.1508 50.5983ZM71.481 47.7279C71.8525 46.9154 72.3409 45.8804 72.9468 44.6219L72.0458 44.1881C71.4384 45.4496 70.9468 46.4913 70.5716 47.3121L71.481 47.7279ZM72.9468 44.6219C73.5544 43.36 74.0128 42.3729 74.3201 41.6638L73.4025 41.2662C73.1032 41.9571 72.6515 42.93 72.0458 44.1881L72.9468 44.6219ZM74.3116 41.6824C74.6388 41.0046 75.0358 40.1755 75.5027 39.195L74.5999 38.765C74.1334 39.7445 73.7372 40.572 73.411 41.2476L74.3116 41.6824ZM75.4985 39.2036C75.9906 38.2194 76.4479 37.2697 76.8703 36.3545L75.9623 35.9355C75.5447 36.8403 75.092 37.7806 74.6041 38.7564L75.4985 39.2036ZM76.8658 36.364C77.3107 35.4507 77.7093 34.6066 78.0615 33.8319L77.1511 33.4181C76.8033 34.1834 76.4086 35.0193 75.9668 35.926L76.8658 36.364ZM78.0632 33.8281C78.2586 33.3886 78.7556 32.0734 79.5459 29.9117L78.6067 29.5683C77.8103 31.7466 77.3274 33.0214 77.1494 33.4219L78.0632 33.8281ZM79.4299 30.0936C79.4893 30.0341 79.5197 29.9733 79.5283 29.9562C79.5414 29.93 79.5506 29.9066 79.5561 29.8913C79.5675 29.8604 79.5765 29.8294 79.5832 29.8044C79.5971 29.7526 79.6118 29.6876 79.627 29.6145C79.6579 29.4662 79.697 29.2555 79.7439 28.9857L78.7587 28.8143C78.7123 29.0811 78.6755 29.2788 78.6481 29.4105C78.6341 29.4774 78.624 29.5204 78.6176 29.5444C78.6141 29.5573 78.6139 29.5562 78.6173 29.5471C78.6188 29.5428 78.6242 29.5284 78.6339 29.509C78.639 29.4988 78.6662 29.443 78.7228 29.3864L79.4299 30.0936ZM79.2513 28.4C79.0663 28.4 78.8868 28.4373 78.7156 28.5058L79.087 29.4342C79.1492 29.4094 79.203 29.4 79.2513 29.4V28.4ZM78.7156 28.5058C78.5809 28.5596 78.4531 28.6212 78.344 28.694L78.8987 29.526C78.9295 29.5055 78.9884 29.4737 79.087 29.4342L78.7156 28.5058ZM78.4632 28.6357C78.305 28.6884 78.1544 28.7942 78.029 28.8946L78.6537 29.6754C78.7018 29.6369 78.7382 29.6113 78.7638 29.5952C78.7916 29.5779 78.7954 29.579 78.7794 29.5843L78.4632 28.6357ZM78.0413 28.885C77.941 28.9602 77.8492 29.035 77.7778 29.1064L78.4849 29.8136C78.5068 29.7916 78.5549 29.7498 78.6413 29.685L78.0413 28.885ZM77.7778 29.1064C77.7777 29.1065 77.7777 29.1065 77.7776 29.1066C77.7776 29.1066 77.7775 29.1067 77.7775 29.1067C77.7774 29.1068 77.7774 29.1068 77.7773 29.1069C77.7773 29.1069 77.7772 29.107 77.7772 29.107C77.7772 29.107 77.7771 29.1071 77.7771 29.1071C77.777 29.1072 77.777 29.1072 77.7769 29.1073C77.7769 29.1073 77.7768 29.1074 77.7768 29.1074C77.7767 29.1075 77.7767 29.1075 77.7766 29.1076C77.7766 29.1076 77.7765 29.1077 77.7765 29.1077C77.7764 29.1078 77.7764 29.1078 77.7763 29.1079C77.7763 29.1079 77.7762 29.108 77.7762 29.108C77.7761 29.1081 77.7761 29.1081 77.776 29.1082C77.776 29.1082 77.7759 29.1083 77.7759 29.1083C77.7758 29.1084 77.7758 29.1084 77.7757 29.1085C77.7757 29.1085 77.7756 29.1086 77.7756 29.1086C77.7755 29.1087 77.7755 29.1087 77.7754 29.1088C77.7754 29.1088 77.7753 29.1089 77.7753 29.1089C77.7752 29.109 77.7752 29.109 77.7751 29.1091C77.7751 29.1091 77.775 29.1092 77.775 29.1092C77.7749 29.1093 77.7749 29.1093 77.7748 29.1094C77.7748 29.1094 77.7747 29.1095 77.7746 29.1096C77.7746 29.1096 77.7745 29.1097 77.7745 29.1097C77.7744 29.1098 77.7744 29.1098 77.7743 29.1099C77.7743 29.1099 77.7742 29.11 77.7742 29.11C77.7741 29.1101 77.7741 29.1101 77.774 29.1102C77.774 29.1103 77.7739 29.1103 77.7738 29.1104C77.7738 29.1104 77.7737 29.1105 77.7737 29.1105C77.7736 29.1106 77.7736 29.1106 77.7735 29.1107C77.7735 29.1107 77.7734 29.1108 77.7733 29.1109C77.7733 29.1109 77.7732 29.111 77.7732 29.111C77.7731 29.1111 77.7731 29.1111 77.773 29.1112C77.7729 29.1113 77.7729 29.1113 77.7728 29.1114C77.7728 29.1114 77.7727 29.1115 77.7727 29.1115C77.7726 29.1116 77.7725 29.1117 77.7725 29.1117C77.7724 29.1118 77.7724 29.1118 77.7723 29.1119C77.7723 29.1119 77.7722 29.112 77.7721 29.1121C77.7721 29.1121 77.772 29.1122 77.772 29.1122C77.7719 29.1123 77.7718 29.1124 77.7718 29.1124C77.7717 29.1125 77.7717 29.1125 77.7716 29.1126C77.7716 29.1126 77.7715 29.1127 77.7714 29.1128C77.7714 29.1128 77.7713 29.1129 77.7713 29.1129C77.7712 29.113 77.7711 29.1131 77.7711 29.1131C77.771 29.1132 77.771 29.1133 77.7709 29.1133C77.7708 29.1134 77.7708 29.1134 77.7707 29.1135C77.7706 29.1136 77.7706 29.1136 77.7705 29.1137C77.7705 29.1137 77.7704 29.1138 77.7703 29.1139C77.7703 29.1139 77.7702 29.114 77.7702 29.1141C77.7701 29.1141 77.77 29.1142 77.77 29.1142C77.7699 29.1143 77.7698 29.1144 77.7698 29.1144C77.7697 29.1145 77.7696 29.1146 77.7696 29.1146C77.7695 29.1147 77.7695 29.1147 77.7694 29.1148C77.7693 29.1149 77.7693 29.1149 77.7692 29.115C77.7691 29.1151 77.7691 29.1151 77.769 29.1152C77.7689 29.1153 77.7689 29.1153 77.7688 29.1154C77.7688 29.1154 77.7687 29.1155 77.7686 29.1156C77.7686 29.1156 77.7685 29.1157 77.7684 29.1158C77.7684 29.1158 77.7683 29.1159 77.7682 29.116C77.7682 29.116 77.7681 29.1161 77.768 29.1162C77.768 29.1162 77.7679 29.1163 77.7678 29.1164C77.7678 29.1164 77.7677 29.1165 77.7676 29.1166C77.7676 29.1166 77.7675 29.1167 77.7674 29.1168C77.7674 29.1168 77.7673 29.1169 77.7672 29.117C77.7672 29.117 77.7671 29.1171 77.767 29.1172C77.767 29.1172 77.7669 29.1173 77.7668 29.1174C77.7668 29.1175 77.7667 29.1175 77.7666 29.1176C77.7665 29.1177 77.7665 29.1177 77.7664 29.1178C77.7663 29.1179 77.7663 29.1179 77.7662 29.118C77.7661 29.1181 77.7661 29.1181 77.766 29.1182C77.7659 29.1183 77.7659 29.1184 77.7658 29.1184C77.7657 29.1185 77.7656 29.1186 77.7656 29.1186C77.7655 29.1187 77.7654 29.1188 77.7654 29.1188C77.7653 29.1189 77.7652 29.119 77.7651 29.1191C77.7651 29.1191 77.765 29.1192 77.7649 29.1193C77.7649 29.1193 77.7648 29.1194 77.7647 29.1195C77.7646 29.1196 77.7646 29.1196 77.7645 29.1197C77.7644 29.1198 77.7644 29.1198 77.7643 29.1199C77.7642 29.12 77.7641 29.1201 77.7641 29.1201C77.764 29.1202 77.7639 29.1203 77.7638 29.1204C77.7638 29.1204 77.7637 29.1205 77.7636 29.1206C77.7635 29.1207 77.7635 29.1207 77.7634 29.1208C77.7633 29.1209 77.7633 29.1209 77.7632 29.121C77.7631 29.1211 77.763 29.1212 77.763 29.1212C77.7629 29.1213 77.7628 29.1214 77.7627 29.1215C77.7627 29.1215 77.7626 29.1216 77.7625 29.1217C77.7624 29.1218 77.7624 29.1218 77.7623 29.1219C77.7622 29.122 77.7621 29.1221 77.762 29.1222C77.762 29.1222 77.7619 29.1223 77.7618 29.1224C77.7617 29.1225 77.7617 29.1225 77.7616 29.1226C77.7615 29.1227 77.7614 29.1228 77.7614 29.1228C77.7613 29.1229 77.7612 29.123 77.7611 29.1231C77.761 29.1232 77.761 29.1232 77.7609 29.1233C77.7608 29.1234 77.7607 29.1235 77.7607 29.1235C77.7606 29.1236 77.7605 29.1237 77.7604 29.1238C77.7603 29.1239 77.7603 29.1239 77.7602 29.124C77.7601 29.1241 77.76 29.1242 77.7599 29.1243C77.7599 29.1243 77.7598 29.1244 77.7597 29.1245C77.7596 29.1246 77.7595 29.1247 77.7595 29.1247C77.7594 29.1248 77.7593 29.1249 77.7592 29.125C77.7591 29.1251 77.7591 29.1251 77.759 29.1252C77.7589 29.1253 77.7588 29.1254 77.7587 29.1255C77.7587 29.1255 77.7586 29.1256 77.7585 29.1257C77.7584 29.1258 77.7583 29.1259 77.7583 29.1259C77.7582 29.126 77.7581 29.1261 77.758 29.1262C77.7579 29.1263 77.7578 29.1264 77.7578 29.1264C77.7577 29.1265 77.7576 29.1266 77.7575 29.1267C77.7574 29.1268 77.7573 29.1269 77.7573 29.1269C77.7572 29.127 77.7571 29.1271 77.757 29.1272C77.7569 29.1273 77.7568 29.1274 77.7568 29.1274C77.7567 29.1275 77.7566 29.1276 77.7565 29.1277C77.7564 29.1278 77.7563 29.1279 77.7563 29.1279C77.7562 29.128 77.7561 29.1281 77.756 29.1282C77.7559 29.1283 77.7558 29.1284 77.7557 29.1285C77.7557 29.1285 77.7556 29.1286 77.7555 29.1287C77.7554 29.1288 77.7553 29.1289 77.7552 29.129C77.7551 29.1291 77.7551 29.1291 77.755 29.1292C77.7549 29.1293 77.7548 29.1294 77.7547 29.1295C77.7546 29.1296 77.7545 29.1297 77.7544 29.1298C77.7544 29.1298 77.7543 29.1299 77.7542 29.13C77.7541 29.1301 77.754 29.1302 77.7539 29.1303C77.7538 29.1304 77.7537 29.1305 77.7537 29.1305C77.7536 29.1306 77.7535 29.1307 77.7534 29.1308C77.7533 29.1309 77.7532 29.131 77.7531 29.1311C77.753 29.1312 77.7529 29.1313 77.7529 29.1313C77.7528 29.1314 77.7527 29.1315 77.7526 29.1316C77.7525 29.1317 77.7524 29.1318 77.7523 29.1319C77.7522 29.132 77.7521 29.1321 77.7521 29.1322C77.752 29.1322 77.7519 29.1323 77.7518 29.1324C77.7517 29.1325 77.7516 29.1326 77.7515 29.1327C77.7514 29.1328 77.7513 29.1329 77.7512 29.133C77.7511 29.1331 77.751 29.1332 77.751 29.1332C77.7509 29.1333 77.7508 29.1334 77.7507 29.1335C77.7506 29.1336 77.7505 29.1337 77.7504 29.1338C77.7503 29.1339 77.7502 29.134 77.7501 29.1341C77.75 29.1342 77.7499 29.1343 77.7498 29.1344C77.7498 29.1344 77.7497 29.1345 77.7496 29.1346C77.7495 29.1347 77.7494 29.1348 77.7493 29.1349C77.7492 29.135 77.7491 29.1351 77.749 29.1352C77.7489 29.1353 77.7488 29.1354 77.7487 29.1355C77.7486 29.1356 77.7485 29.1357 77.7484 29.1358C77.7483 29.1359 77.7482 29.136 77.7481 29.1361C77.7481 29.1361 77.748 29.1362 77.7479 29.1363C77.7478 29.1364 77.7477 29.1365 77.7476 29.1366C77.7475 29.1367 77.7474 29.1368 77.7473 29.1369C77.7472 29.137 77.7471 29.1371 77.747 29.1372C77.7469 29.1373 77.7468 29.1374 77.7467 29.1375C77.7466 29.1376 77.7465 29.1377 77.7464 29.1378C77.7463 29.1379 77.7462 29.138 77.7461 29.1381C77.746 29.1382 77.7459 29.1383 77.7458 29.1384C77.7457 29.1385 77.7456 29.1386 77.7455 29.1387C77.7454 29.1388 77.7453 29.1389 77.7452 29.139C77.7451 29.1391 77.745 29.1392 77.7449 29.1393C77.7448 29.1394 77.7447 29.1395 77.7446 29.1396C77.7445 29.1397 77.7444 29.1398 77.7443 29.1399C77.7442 29.14 77.7441 29.1401 77.744 29.1402C77.7439 29.1403 77.7438 29.1404 77.7437 29.1405C77.7436 29.1406 77.7435 29.1407 77.7434 29.1408C77.7433 29.1409 77.7432 29.141 77.7431 29.1411C77.743 29.1412 77.7429 29.1413 77.7428 29.1414C77.7427 29.1415 77.7426 29.1416 77.7425 29.1417C77.7424 29.1418 77.7423 29.1419 77.7422 29.142C77.7421 29.1421 77.742 29.1422 77.7419 29.1423C77.7418 29.1424 77.7417 29.1425 77.7416 29.1426C77.7415 29.1427 77.7414 29.1428 77.7413 29.1429C77.7412 29.143 77.7411 29.1431 77.741 29.1432C77.7409 29.1433 77.7408 29.1434 77.7407 29.1435C77.7406 29.1436 77.7404 29.1438 77.7403 29.1439C77.7402 29.144 77.7401 29.1441 77.74 29.1442C77.7399 29.1443 77.7398 29.1444 77.7397 29.1445C77.7396 29.1446 77.7395 29.1447 77.7394 29.1448C77.7393 29.1449 77.7392 29.145 77.7391 29.1451C77.739 29.1452 77.7389 29.1453 77.7388 29.1454C77.7387 29.1455 77.7385 29.1457 77.7384 29.1458C77.7383 29.1459 77.7382 29.146 77.7381 29.1461C77.738 29.1462 77.7379 29.1463 77.7378 29.1464C77.7377 29.1465 77.7376 29.1466 77.7375 29.1467C77.7374 29.1468 77.7373 29.1469 77.7372 29.1471C77.737 29.1472 77.7369 29.1473 77.7368 29.1474C77.7367 29.1475 77.7366 29.1476 77.7365 29.1477C77.7364 29.1478 77.7363 29.1479 77.7362 29.148C77.7361 29.1481 77.736 29.1482 77.7358 29.1484C77.7357 29.1485 77.7356 29.1486 77.7355 29.1487C77.7354 29.1488 77.7353 29.1489 77.7352 29.149C77.7351 29.1491 77.735 29.1492 77.7349 29.1493C77.7347 29.1495 77.7346 29.1496 77.7345 29.1497C77.7344 29.1498 77.7343 29.1499 77.7342 29.15C77.7341 29.1501 77.734 29.1502 77.7339 29.1504C77.7337 29.1505 77.7336 29.1506 77.7335 29.1507C77.7334 29.1508 77.7333 29.1509 77.7332 29.151C77.7331 29.1511 77.733 29.1512 77.7328 29.1514C77.7327 29.1515 77.7326 29.1516 77.7325 29.1517C77.7324 29.1518 77.7323 29.1519 77.7322 29.152C77.732 29.1522 77.7319 29.1523 77.7318 29.1524C77.7317 29.1525 77.7316 29.1526 77.7315 29.1527C77.7314 29.1528 77.7312 29.153 77.7311 29.1531C77.731 29.1532 77.7309 29.1533 77.7308 29.1534C77.7307 29.1535 77.7306 29.1536 77.7304 29.1538C77.7303 29.1539 77.7302 29.154 77.7301 29.1541C77.73 29.1542 77.7299 29.1543 77.7297 29.1545C77.7296 29.1546 77.7295 29.1547 77.7294 29.1548C77.7293 29.1549 77.7292 29.155 77.7291 29.1552C77.7289 29.1553 77.7288 29.1554 77.7287 29.1555C77.7286 29.1556 77.7285 29.1557 77.7283 29.1559C77.7282 29.156 77.7281 29.1561 77.728 29.1562C77.7279 29.1563 77.7278 29.1564 77.7276 29.1566C77.7275 29.1567 77.7274 29.1568 77.7273 29.1569C77.7272 29.157 77.727 29.1572 77.7269 29.1573C77.7268 29.1574 77.7267 29.1575 77.7266 29.1576C77.7265 29.1577 77.7263 29.1579 77.7262 29.158C77.7261 29.1581 77.726 29.1582 77.7259 29.1583C77.7257 29.1585 77.7256 29.1586 77.7255 29.1587C77.7254 29.1588 77.7253 29.1589 77.7251 29.1591C77.725 29.1592 77.7249 29.1593 77.7248 29.1594C77.7246 29.1596 77.7245 29.1597 77.7244 29.1598C77.7243 29.1599 77.7242 29.16 77.724 29.1602C77.7239 29.1603 77.7238 29.1604 77.7237 29.1605C77.7236 29.1606 77.7234 29.1608 77.7233 29.1609C77.7232 29.161 77.7231 29.1611 77.7229 29.1613C77.7228 29.1614 77.7227 29.1615 77.7226 29.1616C77.7224 29.1618 77.7223 29.1619 77.7222 29.162C77.7221 29.1621 77.722 29.1622 77.7218 29.1624C77.7217 29.1625 77.7216 29.1626 77.7215 29.1627C77.7213 29.1629 77.7212 29.163 77.7211 29.1631C77.721 29.1632 77.7208 29.1634 77.7207 29.1635C77.7206 29.1636 77.7205 29.1637 77.7203 29.1639C77.7202 29.164 77.7201 29.1641 77.72 29.1642C77.7198 29.1644 77.7197 29.1645 77.7196 29.1646C77.7195 29.1647 77.7193 29.1649 77.7192 29.165C77.7191 29.1651 77.7189 29.1653 77.7188 29.1654C77.7187 29.1655 77.7186 29.1656 77.7184 29.1658C77.7183 29.1659 77.7182 29.166 77.7181 29.1661C77.7179 29.1663 77.7178 29.1664 77.7177 29.1665C77.7175 29.1667 77.7174 29.1668 77.7173 29.1669C77.7172 29.167 77.717 29.1672 77.7169 29.1673C77.7168 29.1674 77.7167 29.1676 77.7165 29.1677C77.7164 29.1678 77.7163 29.1679 77.7161 29.1681C77.716 29.1682 77.7159 29.1683 77.7157 29.1685C77.7156 29.1686 77.7155 29.1687 77.7154 29.1688C77.7152 29.169 77.7151 29.1691 77.715 29.1692C77.7148 29.1694 77.7147 29.1695 77.7146 29.1696C77.7144 29.1698 77.7143 29.1699 77.7142 29.17C77.7141 29.1702 77.7139 29.1703 77.7138 29.1704C77.7137 29.1705 77.7135 29.1707 77.7134 29.1708C77.7133 29.1709 77.7131 29.1711 77.713 29.1712C77.7129 29.1713 77.7127 29.1715 77.7126 29.1716C77.7125 29.1717 77.7123 29.1719 77.7122 29.172C77.7121 29.1721 77.7119 29.1723 77.7118 29.1724C77.7117 29.1725 77.7115 29.1727 77.7114 29.1728C77.7113 29.1729 77.7111 29.1731 77.711 29.1732C77.7109 29.1733 77.7107 29.1735 77.7106 29.1736C77.7105 29.1737 77.7103 29.1739 77.7102 29.174C77.7101 29.1741 77.7099 29.1743 77.7098 29.1744C77.7097 29.1745 77.7095 29.1747 77.7094 29.1748C77.7093 29.1749 77.7091 29.1751 77.709 29.1752C77.7088 29.1754 77.7087 29.1755 77.7086 29.1756C77.7084 29.1758 77.7083 29.1759 77.7082 29.176C77.708 29.1762 77.7079 29.1763 77.7078 29.1764C77.7076 29.1766 77.7075 29.1767 77.7073 29.1769C77.7072 29.177 77.7071 29.1771 77.7069 29.1773C77.7068 29.1774 77.7067 29.1775 77.7065 29.1777C77.7064 29.1778 77.7062 29.178 77.7061 29.1781C77.706 29.1782 77.7058 29.1784 77.7057 29.1785C77.7056 29.1786 77.7054 29.1788 77.7053 29.1789C77.7051 29.1791 77.705 29.1792 77.7049 29.1793C77.7047 29.1795 77.7046 29.1796 77.7044 29.1798C77.7043 29.1799 77.7042 29.18 77.704 29.1802C77.7039 29.1803 77.7037 29.1805 77.7036 29.1806C77.7035 29.1807 77.7033 29.1809 77.7032 29.181C77.703 29.1812 77.7029 29.1813 77.7028 29.1814C77.7026 29.1816 77.7025 29.1817 77.7023 29.1819C77.7022 29.182 77.7021 29.1821 77.7019 29.1823C77.7018 29.1824 77.7016 29.1826 77.7015 29.1827C77.7013 29.1829 77.7012 29.183 77.7011 29.1831C77.7009 29.1833 77.7008 29.1834 77.7006 29.1836C77.7005 29.1837 77.7003 29.1839 77.7002 29.184C77.7001 29.1841 77.6999 29.1843 77.6998 29.1844C77.6996 29.1846 77.6995 29.1847 77.6993 29.1849C77.6992 29.185 77.6991 29.1851 77.6989 29.1853C77.6988 29.1854 77.6986 29.1856 77.6985 29.1857C77.6983 29.1859 77.6982 29.186 77.698 29.1862C77.6979 29.1863 77.6978 29.1865 77.6976 29.1866C77.6975 29.1867 77.6973 29.1869 77.6972 29.187C77.697 29.1872 77.6969 29.1873 77.6967 29.1875C77.6966 29.1876 77.6964 29.1878 77.6963 29.1879C77.6961 29.1881 77.696 29.1882 77.6959 29.1883C77.6957 29.1885 77.6956 29.1886 77.6954 29.1888C77.6953 29.1889 77.6951 29.1891 77.695 29.1892C77.6948 29.1894 77.6947 29.1895 77.6945 29.1897C77.6944 29.1898 77.6942 29.19 77.6941 29.1901C77.6939 29.1903 77.6938 29.1904 77.6936 29.1906C77.6935 29.1907 77.6933 29.1909 77.6932 29.191C77.693 29.1912 77.6929 29.1913 77.6927 29.1915C77.6926 29.1916 77.6924 29.1918 77.6923 29.1919C77.6921 29.1921 77.692 29.1922 77.6918 29.1924C77.6917 29.1925 77.6915 29.1927 77.6914 29.1928C77.6912 29.193 77.6911 29.1931 77.6909 29.1933C77.6908 29.1934 77.6906 29.1936 77.6905 29.1937C77.6903 29.1939 77.6902 29.194 77.69 29.1942C77.6899 29.1943 77.6897 29.1945 77.6896 29.1946C77.6894 29.1948 77.6893 29.1949 77.6891 29.1951C77.689 29.1952 77.6888 29.1954 77.6887 29.1955C77.6885 29.1957 77.6884 29.1958 77.6882 29.196C77.6881 29.1961 77.6879 29.1963 77.6878 29.1964C77.6876 29.1966 77.6875 29.1967 77.6873 29.1969C77.6871 29.1971 77.687 29.1972 77.6868 29.1974C77.6867 29.1975 77.6865 29.1977 77.6864 29.1978C77.6862 29.198 77.6861 29.1981 77.6859 29.1983C77.6858 29.1984 77.6856 29.1986 77.6854 29.1988C77.6853 29.1989 77.6851 29.1991 77.685 29.1992C77.6848 29.1994 77.6847 29.1995 77.6845 29.1997C77.6844 29.1998 77.6842 29.2 77.6841 29.2002C77.6839 29.2003 77.6837 29.2005 77.6836 29.2006C77.6834 29.2008 77.6833 29.2009 77.6831 29.2011C77.683 29.2012 77.6828 29.2014 77.6826 29.2016C77.6825 29.2017 77.6823 29.2019 77.6822 29.202C77.682 29.2022 77.6819 29.2023 77.6817 29.2025C77.6815 29.2027 77.6814 29.2028 77.6812 29.203C77.6811 29.2031 77.6809 29.2033 77.6807 29.2035C77.6806 29.2036 77.6804 29.2038 77.6803 29.2039C77.6801 29.2041 77.68 29.2042 77.6798 29.2044C77.6796 29.2046 77.6795 29.2047 77.6793 29.2049C77.6792 29.205 77.679 29.2052 77.6788 29.2054C77.6787 29.2055 77.6785 29.2057 77.6784 29.2058C77.6782 29.206 77.678 29.2062 77.6779 29.2063C77.6777 29.2065 77.6776 29.2066 77.6774 29.2068C77.6772 29.207 77.6771 29.2071 77.6769 29.2073C77.6768 29.2074 77.6766 29.2076 77.6764 29.2078C77.6763 29.2079 77.6761 29.2081 77.6759 29.2083C77.6758 29.2084 77.6756 29.2086 77.6755 29.2087C77.6753 29.2089 77.6751 29.2091 77.675 29.2092C77.6748 29.2094 77.6746 29.2096 77.6745 29.2097C77.6743 29.2099 77.6742 29.21 77.674 29.2102C77.6738 29.2104 77.6737 29.2105 77.6735 29.2107C77.6733 29.2109 77.6732 29.211 77.673 29.2112C77.6728 29.2114 77.6727 29.2115 77.6725 29.2117C77.6724 29.2119 77.6722 29.212 77.672 29.2122C77.6719 29.2123 77.6717 29.2125 77.6715 29.2127C77.6714 29.2128 77.6712 29.213 77.671 29.2132C77.6709 29.2133 77.6707 29.2135 77.6705 29.2137C77.6704 29.2138 77.6702 29.214 77.67 29.2142C77.6699 29.2143 77.6697 29.2145 77.6695 29.2147C77.6694 29.2148 77.6692 29.215 77.669 29.2152C77.6689 29.2153 77.6687 29.2155 77.6685 29.2157C77.6684 29.2158 77.6682 29.216 77.668 29.2162C77.6679 29.2163 77.6677 29.2165 77.6675 29.2167C77.6674 29.2168 77.6672 29.217 77.667 29.2172C77.6669 29.2173 77.6667 29.2175 77.6665 29.2177C77.6663 29.2179 77.6662 29.218 77.666 29.2182C77.6658 29.2184 77.6657 29.2185 77.6655 29.2187C77.6653 29.2189 77.6652 29.219 77.665 29.2192C77.6648 29.2194 77.6647 29.2195 77.6645 29.2197C77.6643 29.2199 77.6641 29.2201 77.664 29.2202C77.6638 29.2204 77.6636 29.2206 77.6635 29.2207C77.6633 29.2209 77.6631 29.2211 77.6629 29.2213C77.6628 29.2214 77.6626 29.2216 77.6624 29.2218C77.6623 29.2219 77.6621 29.2221 77.6619 29.2223C77.6617 29.2225 77.6616 29.2226 77.6614 29.2228C77.6612 29.223 77.6611 29.2231 77.6609 29.2233C77.6607 29.2235 77.6605 29.2237 77.6604 29.2238C77.6602 29.224 77.66 29.2242 77.6598 29.2244C77.6597 29.2245 77.6595 29.2247 77.6593 29.2249C77.6592 29.2251 77.659 29.2252 77.6588 29.2254C77.6586 29.2256 77.6585 29.2257 77.6583 29.2259C77.6581 29.2261 77.6579 29.2263 77.6578 29.2264C77.6576 29.2266 77.6574 29.2268 77.6572 29.227C77.6571 29.2271 77.6569 29.2273 77.6567 29.2275C77.6565 29.2277 77.6564 29.2278 77.6562 29.228C77.656 29.2282 77.6558 29.2284 77.6556 29.2286C77.6555 29.2287 77.6553 29.2289 77.6551 29.2291C77.6549 29.2293 77.6548 29.2294 77.6546 29.2296C77.6544 29.2298 77.6542 29.23 77.6541 29.2301C77.6539 29.2303 77.6537 29.2305 77.6535 29.2307C77.6533 29.2309 77.6532 29.231 77.653 29.2312C77.6528 29.2314 77.6526 29.2316 77.6525 29.2317C77.6523 29.2319 77.6521 29.2321 77.6519 29.2323C77.6517 29.2325 77.6516 29.2326 77.6514 29.2328C77.6512 29.233 77.651 29.2332 77.6508 29.2334C77.6507 29.2335 77.6505 29.2337 77.6503 29.2339C77.6501 29.2341 77.6499 29.2343 77.6498 29.2344C77.6496 29.2346 77.6494 29.2348 77.6492 29.235C77.649 29.2352 77.6489 29.2353 77.6487 29.2355C77.6485 29.2357 77.6483 29.2359 77.6481 29.2361C77.648 29.2362 77.6478 29.2364 77.6476 29.2366C77.6474 29.2368 77.6472 29.237 77.6471 29.2371C77.6469 29.2373 77.6467 29.2375 77.6465 29.2377C77.6463 29.2379 77.6461 29.2381 77.646 29.2382C77.6458 29.2384 77.6456 29.2386 77.6454 29.2388C77.6452 29.239 77.645 29.2392 77.6449 29.2393C77.6447 29.2395 77.6445 29.2397 77.6443 29.2399C77.6441 29.2401 77.6439 29.2403 77.6438 29.2404C77.6436 29.2406 77.6434 29.2408 77.6432 29.241C77.643 29.2412 77.6428 29.2414 77.6427 29.2415C77.6425 29.2417 77.6423 29.2419 77.6421 29.2421C77.6419 29.2423 77.6417 29.2425 77.6415 29.2427C77.6414 29.2428 77.6412 29.243 77.641 29.2432C77.6408 29.2434 77.6406 29.2436 77.6404 29.2438C77.6402 29.244 77.6401 29.2441 77.6399 29.2443C77.6397 29.2445 77.6395 29.2447 77.6393 29.2449C77.6391 29.2451 77.6389 29.2453 77.6387 29.2455C77.6386 29.2456 77.6384 29.2458 77.6382 29.246C77.638 29.2462 77.6378 29.2464 77.6376 29.2466C77.6374 29.2468 77.6372 29.247 77.6371 29.2471C77.6369 29.2473 77.6367 29.2475 77.6365 29.2477C77.6363 29.2479 77.6361 29.2481 77.6359 29.2483C77.6357 29.2485 77.6355 29.2487 77.6354 29.2488C77.6352 29.249 77.635 29.2492 77.6348 29.2494C77.6346 29.2496 77.6344 29.2498 77.6342 29.25C77.634 29.2502 77.6338 29.2504 77.6336 29.2506C77.6335 29.2507 77.6333 29.2509 77.6331 29.2511C77.6329 29.2513 77.6327 29.2515 77.6325 29.2517C77.6323 29.2519 77.6321 29.2521 77.6319 29.2523C77.6317 29.2525 77.6315 29.2527 77.6314 29.2528C77.6312 29.253 77.631 29.2532 77.6308 29.2534C77.6306 29.2536 77.6304 29.2538 77.6302 29.254C77.63 29.2542 77.6298 29.2544 77.6296 29.2546C77.6294 29.2548 77.6292 29.255 77.629 29.2552C77.6288 29.2554 77.6287 29.2555 77.6285 29.2557C77.6283 29.2559 77.6281 29.2561 77.6279 29.2563C77.6277 29.2565 77.6275 29.2567 77.6273 29.2569C77.6271 29.2571 77.6269 29.2573 77.6267 29.2575C77.6265 29.2577 77.6263 29.2579 77.6261 29.2581C77.6259 29.2583 77.6257 29.2585 77.6255 29.2587C77.6253 29.2589 77.6252 29.2591 77.625 29.2592C77.6248 29.2594 77.6246 29.2596 77.6244 29.2598C77.6242 29.26 77.624 29.2602 77.6238 29.2604C77.6236 29.2606 77.6234 29.2608 77.6232 29.261C77.623 29.2612 77.6228 29.2614 77.6226 29.2616C77.6224 29.2618 77.6222 29.262 77.622 29.2622C77.6218 29.2624 77.6216 29.2626 77.6214 29.2628C77.6212 29.263 77.621 29.2632 77.6208 29.2634C77.6206 29.2636 77.6204 29.2638 77.6202 29.264C77.62 29.2642 77.6198 29.2644 77.6196 29.2646C77.6194 29.2648 77.6192 29.265 77.619 29.2652C77.6188 29.2654 77.6186 29.2656 77.6184 29.2658C77.6182 29.266 77.618 29.2662 77.6178 29.2664C77.6176 29.2666 77.6174 29.2668 77.6172 29.267C77.617 29.2672 77.6168 29.2674 77.6166 29.2676C77.6164 29.2678 77.6162 29.268 77.616 29.2682C77.6158 29.2684 77.6156 29.2686 77.6154 29.2688C77.6152 29.269 77.615 29.2692 77.6148 29.2694C77.6146 29.2696 77.6144 29.2698 77.6142 29.27C77.614 29.2702 77.6138 29.2704 77.6136 29.2706C77.6134 29.2708 77.6132 29.271 77.613 29.2712C77.6128 29.2714 77.6126 29.2716 77.6124 29.2718C77.6122 29.272 77.612 29.2722 77.6118 29.2724C77.6116 29.2726 77.6114 29.2728 77.6112 29.273C77.611 29.2732 77.6108 29.2734 77.6105 29.2737C77.6103 29.2739 77.6101 29.2741 77.6099 29.2743C77.6097 29.2745 77.6095 29.2747 77.6093 29.2749C77.6091 29.2751 77.6089 29.2753 77.6087 29.2755C77.6085 29.2757 77.6083 29.2759 77.6081 29.2761C77.6079 29.2763 77.6077 29.2765 77.6075 29.2767C77.6073 29.2769 77.6071 29.2771 77.6068 29.2774C77.6066 29.2776 77.6064 29.2778 77.6062 29.278C77.606 29.2782 77.6058 29.2784 77.6056 29.2786C77.6054 29.2788 77.6052 29.279 77.605 29.2792C77.6048 29.2794 77.6046 29.2796 77.6044 29.2798C77.6042 29.28 77.6039 29.2803 77.6037 29.2805C77.6035 29.2807 77.6033 29.2809 77.6031 29.2811C77.6029 29.2813 77.6027 29.2815 77.6025 29.2817C77.6023 29.2819 77.6021 29.2821 77.6019 29.2823C77.6017 29.2826 77.6014 29.2828 77.6012 29.283C77.601 29.2832 77.6008 29.2834 77.6006 29.2836C77.6004 29.2838 77.6002 29.284 77.6 29.2842C77.5998 29.2844 77.5995 29.2847 77.5993 29.2849C77.5991 29.2851 77.5989 29.2853 77.5987 29.2855C77.5985 29.2857 77.5983 29.2859 77.5981 29.2861C77.5979 29.2863 77.5976 29.2866 77.5974 29.2868C77.5972 29.287 77.597 29.2872 77.5968 29.2874C77.5966 29.2876 77.5964 29.2878 77.5962 29.288C77.596 29.2883 77.5957 29.2885 77.5955 29.2887C77.5953 29.2889 77.5951 29.2891 77.5949 29.2893C77.5947 29.2895 77.5945 29.2897 77.5942 29.29C77.594 29.2902 77.5938 29.2904 77.5936 29.2906C77.5934 29.2908 77.5932 29.291 77.593 29.2912C77.5927 29.2915 77.5925 29.2917 77.5923 29.2919C77.5921 29.2921 77.5919 29.2923 77.5917 29.2925C77.5915 29.2927 77.5912 29.293 77.591 29.2932C77.5908 29.2934 77.5906 29.2936 77.5904 29.2938C77.5902 29.294 77.5899 29.2943 77.5897 29.2945C77.5895 29.2947 77.5893 29.2949 77.5891 29.2951C77.5889 29.2953 77.5887 29.2955 77.5884 29.2958C77.5882 29.296 77.588 29.2962 77.5878 29.2964C77.5876 29.2966 77.5873 29.2969 77.5871 29.2971C77.5869 29.2973 77.5867 29.2975 77.5865 29.2977C77.5863 29.2979 77.586 29.2982 77.5858 29.2984C77.5856 29.2986 77.5854 29.2988 77.5852 29.299C77.585 29.2993 77.5847 29.2995 77.5845 29.2997C77.5843 29.2999 77.5841 29.3001 77.5839 29.3003C77.5836 29.3006 77.5834 29.3008 77.5832 29.301C77.583 29.3012 77.5828 29.3014 77.5825 29.3017C77.5823 29.3019 77.5821 29.3021 77.5819 29.3023C77.5817 29.3025 77.5814 29.3028 77.5812 29.303C77.581 29.3032 77.5808 29.3034 77.5806 29.3036C77.5803 29.3039 77.5801 29.3041 77.5799 29.3043C77.5797 29.3045 77.5794 29.3048 77.5792 29.305C77.579 29.3052 77.5788 29.3054 77.5786 29.3056C77.5783 29.3059 77.5781 29.3061 77.5779 29.3063C77.5777 29.3065 77.5774 29.3068 77.5772 29.307C77.577 29.3072 77.5768 29.3074 77.5766 29.3076C77.5763 29.3079 77.5761 29.3081 77.5759 29.3083C77.5757 29.3085 77.5754 29.3088 77.5752 29.309C77.575 29.3092 77.5748 29.3094 77.5745 29.3097C77.5743 29.3099 77.5741 29.3101 77.5739 29.3103C77.5736 29.3106 77.5734 29.3108 77.5732 29.311C77.573 29.3112 77.5727 29.3115 77.5725 29.3117C77.5723 29.3119 77.5721 29.3121 77.5718 29.3124C77.5716 29.3126 77.5714 29.3128 77.5712 29.313C77.5709 29.3133 77.5707 29.3135 77.5705 29.3137C77.5703 29.3139 77.57 29.3142 77.5698 29.3144C77.5696 29.3146 77.5693 29.3149 77.5691 29.3151C77.5689 29.3153 77.5687 29.3155 77.5684 29.3158C77.5682 29.316 77.568 29.3162 77.5678 29.3164L78.2749 30.0236C78.2751 30.0233 78.2753 30.0231 78.2755 30.0229C78.2758 30.0226 78.276 30.0224 78.2762 30.0222C78.2765 30.022 78.2767 30.0217 78.2769 30.0215C78.2771 30.0213 78.2774 30.0211 78.2776 30.0208C78.2778 30.0206 78.278 30.0204 78.2783 30.0201C78.2785 30.0199 78.2787 30.0197 78.2789 30.0195C78.2792 30.0192 78.2794 30.019 78.2796 30.0188C78.2798 30.0186 78.2801 30.0183 78.2803 30.0181C78.2805 30.0179 78.2807 30.0177 78.281 30.0174C78.2812 30.0172 78.2814 30.017 78.2816 30.0168C78.2819 30.0165 78.2821 30.0163 78.2823 30.0161C78.2825 30.0159 78.2828 30.0156 78.283 30.0154C78.2832 30.0152 78.2834 30.015 78.2837 30.0148C78.2839 30.0145 78.2841 30.0143 78.2843 30.0141C78.2846 30.0139 78.2848 30.0136 78.285 30.0134C78.2852 30.0132 78.2854 30.013 78.2857 30.0128C78.2859 30.0125 78.2861 30.0123 78.2863 30.0121C78.2866 30.0119 78.2868 30.0116 78.287 30.0114C78.2872 30.0112 78.2874 30.011 78.2877 30.0108C78.2879 30.0105 78.2881 30.0103 78.2883 30.0101C78.2885 30.0099 78.2888 30.0097 78.289 30.0094C78.2892 30.0092 78.2894 30.009 78.2896 30.0088C78.2899 30.0086 78.2901 30.0083 78.2903 30.0081C78.2905 30.0079 78.2907 30.0077 78.291 30.0075C78.2912 30.0072 78.2914 30.007 78.2916 30.0068C78.2918 30.0066 78.2921 30.0064 78.2923 30.0061C78.2925 30.0059 78.2927 30.0057 78.2929 30.0055C78.2931 30.0053 78.2934 30.005 78.2936 30.0048C78.2938 30.0046 78.294 30.0044 78.2942 30.0042C78.2945 30.004 78.2947 30.0037 78.2949 30.0035C78.2951 30.0033 78.2953 30.0031 78.2955 30.0029C78.2958 30.0027 78.296 30.0024 78.2962 30.0022C78.2964 30.002 78.2966 30.0018 78.2968 30.0016C78.2971 30.0014 78.2973 30.0011 78.2975 30.0009C78.2977 30.0007 78.2979 30.0005 78.2981 30.0003C78.2984 30.0001 78.2986 29.9998 78.2988 29.9996C78.299 29.9994 78.2992 29.9992 78.2994 29.999C78.2996 29.9988 78.2999 29.9986 78.3001 29.9983C78.3003 29.9981 78.3005 29.9979 78.3007 29.9977C78.3009 29.9975 78.3011 29.9973 78.3014 29.9971C78.3016 29.9968 78.3018 29.9966 78.302 29.9964C78.3022 29.9962 78.3024 29.996 78.3026 29.9958C78.3028 29.9956 78.3031 29.9954 78.3033 29.9951C78.3035 29.9949 78.3037 29.9947 78.3039 29.9945C78.3041 29.9943 78.3043 29.9941 78.3045 29.9939C78.3048 29.9937 78.305 29.9934 78.3052 29.9932C78.3054 29.993 78.3056 29.9928 78.3058 29.9926C78.306 29.9924 78.3062 29.9922 78.3064 29.992C78.3067 29.9918 78.3069 29.9915 78.3071 29.9913C78.3073 29.9911 78.3075 29.9909 78.3077 29.9907C78.3079 29.9905 78.3081 29.9903 78.3083 29.9901C78.3085 29.9899 78.3088 29.9897 78.309 29.9894C78.3092 29.9892 78.3094 29.989 78.3096 29.9888C78.3098 29.9886 78.31 29.9884 78.3102 29.9882C78.3104 29.988 78.3106 29.9878 78.3108 29.9876C78.3111 29.9874 78.3113 29.9872 78.3115 29.9869C78.3117 29.9867 78.3119 29.9865 78.3121 29.9863C78.3123 29.9861 78.3125 29.9859 78.3127 29.9857C78.3129 29.9855 78.3131 29.9853 78.3133 29.9851C78.3135 29.9849 78.3138 29.9847 78.314 29.9845C78.3142 29.9843 78.3144 29.984 78.3146 29.9838C78.3148 29.9836 78.315 29.9834 78.3152 29.9832C78.3154 29.983 78.3156 29.9828 78.3158 29.9826C78.316 29.9824 78.3162 29.9822 78.3164 29.982C78.3166 29.9818 78.3168 29.9816 78.317 29.9814C78.3172 29.9812 78.3175 29.981 78.3177 29.9808C78.3179 29.9806 78.3181 29.9804 78.3183 29.9801C78.3185 29.9799 78.3187 29.9797 78.3189 29.9795C78.3191 29.9793 78.3193 29.9791 78.3195 29.9789C78.3197 29.9787 78.3199 29.9785 78.3201 29.9783C78.3203 29.9781 78.3205 29.9779 78.3207 29.9777C78.3209 29.9775 78.3211 29.9773 78.3213 29.9771C78.3215 29.9769 78.3217 29.9767 78.3219 29.9765C78.3221 29.9763 78.3223 29.9761 78.3225 29.9759C78.3227 29.9757 78.3229 29.9755 78.3231 29.9753C78.3233 29.9751 78.3235 29.9749 78.3237 29.9747C78.3239 29.9745 78.3241 29.9743 78.3243 29.9741C78.3245 29.9739 78.3247 29.9737 78.3249 29.9735C78.3251 29.9733 78.3253 29.9731 78.3255 29.9729C78.3257 29.9727 78.3259 29.9725 78.3261 29.9723C78.3263 29.9721 78.3265 29.9719 78.3267 29.9717C78.3269 29.9715 78.3271 29.9713 78.3273 29.9711C78.3275 29.9709 78.3277 29.9707 78.3279 29.9705C78.3281 29.9703 78.3283 29.9701 78.3285 29.9699C78.3287 29.9697 78.3289 29.9695 78.3291 29.9693C78.3293 29.9691 78.3295 29.9689 78.3297 29.9687C78.3299 29.9685 78.3301 29.9683 78.3303 29.9681C78.3305 29.9679 78.3307 29.9677 78.3309 29.9675C78.3311 29.9673 78.3313 29.9671 78.3315 29.9669C78.3317 29.9667 78.3319 29.9665 78.3321 29.9664C78.3323 29.9662 78.3325 29.966 78.3326 29.9658C78.3328 29.9656 78.333 29.9654 78.3332 29.9652C78.3334 29.965 78.3336 29.9648 78.3338 29.9646C78.334 29.9644 78.3342 29.9642 78.3344 29.964C78.3346 29.9638 78.3348 29.9636 78.335 29.9634C78.3352 29.9632 78.3354 29.963 78.3356 29.9628C78.3358 29.9627 78.336 29.9625 78.3361 29.9623C78.3363 29.9621 78.3365 29.9619 78.3367 29.9617C78.3369 29.9615 78.3371 29.9613 78.3373 29.9611C78.3375 29.9609 78.3377 29.9607 78.3379 29.9605C78.3381 29.9603 78.3383 29.9601 78.3385 29.96C78.3387 29.9598 78.3388 29.9596 78.339 29.9594C78.3392 29.9592 78.3394 29.959 78.3396 29.9588C78.3398 29.9586 78.34 29.9584 78.3402 29.9582C78.3404 29.958 78.3406 29.9579 78.3408 29.9577C78.3409 29.9575 78.3411 29.9573 78.3413 29.9571C78.3415 29.9569 78.3417 29.9567 78.3419 29.9565C78.3421 29.9563 78.3423 29.9561 78.3425 29.956C78.3427 29.9558 78.3428 29.9556 78.343 29.9554C78.3432 29.9552 78.3434 29.955 78.3436 29.9548C78.3438 29.9546 78.344 29.9544 78.3442 29.9543C78.3444 29.9541 78.3445 29.9539 78.3447 29.9537C78.3449 29.9535 78.3451 29.9533 78.3453 29.9531C78.3455 29.9529 78.3457 29.9527 78.3459 29.9526C78.346 29.9524 78.3462 29.9522 78.3464 29.952C78.3466 29.9518 78.3468 29.9516 78.347 29.9514C78.3472 29.9513 78.3473 29.9511 78.3475 29.9509C78.3477 29.9507 78.3479 29.9505 78.3481 29.9503C78.3483 29.9501 78.3485 29.95 78.3486 29.9498C78.3488 29.9496 78.349 29.9494 78.3492 29.9492C78.3494 29.949 78.3496 29.9488 78.3498 29.9487C78.3499 29.9485 78.3501 29.9483 78.3503 29.9481C78.3505 29.9479 78.3507 29.9477 78.3509 29.9475C78.351 29.9474 78.3512 29.9472 78.3514 29.947C78.3516 29.9468 78.3518 29.9466 78.352 29.9464C78.3522 29.9463 78.3523 29.9461 78.3525 29.9459C78.3527 29.9457 78.3529 29.9455 78.3531 29.9453C78.3532 29.9452 78.3534 29.945 78.3536 29.9448C78.3538 29.9446 78.354 29.9444 78.3542 29.9443C78.3543 29.9441 78.3545 29.9439 78.3547 29.9437C78.3549 29.9435 78.3551 29.9433 78.3552 29.9432C78.3554 29.943 78.3556 29.9428 78.3558 29.9426C78.356 29.9424 78.3562 29.9423 78.3563 29.9421C78.3565 29.9419 78.3567 29.9417 78.3569 29.9415C78.3571 29.9414 78.3572 29.9412 78.3574 29.941C78.3576 29.9408 78.3578 29.9406 78.358 29.9405C78.3581 29.9403 78.3583 29.9401 78.3585 29.9399C78.3587 29.9397 78.3589 29.9396 78.359 29.9394C78.3592 29.9392 78.3594 29.939 78.3596 29.9389C78.3597 29.9387 78.3599 29.9385 78.3601 29.9383C78.3603 29.9381 78.3605 29.938 78.3606 29.9378C78.3608 29.9376 78.361 29.9374 78.3612 29.9372C78.3613 29.9371 78.3615 29.9369 78.3617 29.9367C78.3619 29.9365 78.3621 29.9364 78.3622 29.9362C78.3624 29.936 78.3626 29.9358 78.3628 29.9357C78.3629 29.9355 78.3631 29.9353 78.3633 29.9351C78.3635 29.935 78.3636 29.9348 78.3638 29.9346C78.364 29.9344 78.3642 29.9343 78.3643 29.9341C78.3645 29.9339 78.3647 29.9337 78.3649 29.9336C78.365 29.9334 78.3652 29.9332 78.3654 29.933C78.3656 29.9329 78.3657 29.9327 78.3659 29.9325C78.3661 29.9323 78.3663 29.9322 78.3664 29.932C78.3666 29.9318 78.3668 29.9316 78.367 29.9315C78.3671 29.9313 78.3673 29.9311 78.3675 29.9309C78.3676 29.9308 78.3678 29.9306 78.368 29.9304C78.3682 29.9303 78.3683 29.9301 78.3685 29.9299C78.3687 29.9297 78.3689 29.9296 78.369 29.9294C78.3692 29.9292 78.3694 29.929 78.3695 29.9289C78.3697 29.9287 78.3699 29.9285 78.3701 29.9284C78.3702 29.9282 78.3704 29.928 78.3706 29.9278C78.3707 29.9277 78.3709 29.9275 78.3711 29.9273C78.3712 29.9272 78.3714 29.927 78.3716 29.9268C78.3718 29.9267 78.3719 29.9265 78.3721 29.9263C78.3723 29.9261 78.3724 29.926 78.3726 29.9258C78.3728 29.9256 78.3729 29.9255 78.3731 29.9253C78.3733 29.9251 78.3735 29.925 78.3736 29.9248C78.3738 29.9246 78.374 29.9245 78.3741 29.9243C78.3743 29.9241 78.3745 29.9239 78.3746 29.9238C78.3748 29.9236 78.375 29.9234 78.3751 29.9233C78.3753 29.9231 78.3755 29.9229 78.3756 29.9228C78.3758 29.9226 78.376 29.9224 78.3761 29.9223C78.3763 29.9221 78.3765 29.9219 78.3766 29.9218C78.3768 29.9216 78.377 29.9214 78.3771 29.9213C78.3773 29.9211 78.3775 29.9209 78.3776 29.9208C78.3778 29.9206 78.378 29.9204 78.3781 29.9203C78.3783 29.9201 78.3785 29.9199 78.3786 29.9198C78.3788 29.9196 78.379 29.9195 78.3791 29.9193C78.3793 29.9191 78.3795 29.919 78.3796 29.9188C78.3798 29.9186 78.38 29.9185 78.3801 29.9183C78.3803 29.9181 78.3804 29.918 78.3806 29.9178C78.3808 29.9176 78.3809 29.9175 78.3811 29.9173C78.3813 29.9172 78.3814 29.917 78.3816 29.9168C78.3818 29.9167 78.3819 29.9165 78.3821 29.9163C78.3822 29.9162 78.3824 29.916 78.3826 29.9159C78.3827 29.9157 78.3829 29.9155 78.3831 29.9154C78.3832 29.9152 78.3834 29.915 78.3835 29.9149C78.3837 29.9147 78.3839 29.9146 78.384 29.9144C78.3842 29.9142 78.3843 29.9141 78.3845 29.9139C78.3847 29.9138 78.3848 29.9136 78.385 29.9134C78.3851 29.9133 78.3853 29.9131 78.3855 29.9129C78.3856 29.9128 78.3858 29.9126 78.3859 29.9125C78.3861 29.9123 78.3863 29.9121 78.3864 29.912C78.3866 29.9118 78.3867 29.9117 78.3869 29.9115C78.3871 29.9114 78.3872 29.9112 78.3874 29.911C78.3875 29.9109 78.3877 29.9107 78.3879 29.9106C78.388 29.9104 78.3882 29.9102 78.3883 29.9101C78.3885 29.9099 78.3886 29.9098 78.3888 29.9096C78.389 29.9095 78.3891 29.9093 78.3893 29.9091C78.3894 29.909 78.3896 29.9088 78.3897 29.9087C78.3899 29.9085 78.3901 29.9084 78.3902 29.9082C78.3904 29.908 78.3905 29.9079 78.3907 29.9077C78.3908 29.9076 78.391 29.9074 78.3912 29.9073C78.3913 29.9071 78.3915 29.9069 78.3916 29.9068C78.3918 29.9066 78.3919 29.9065 78.3921 29.9063C78.3922 29.9062 78.3924 29.906 78.3926 29.9059C78.3927 29.9057 78.3929 29.9055 78.393 29.9054C78.3932 29.9052 78.3933 29.9051 78.3935 29.9049C78.3936 29.9048 78.3938 29.9046 78.3939 29.9045C78.3941 29.9043 78.3943 29.9042 78.3944 29.904C78.3946 29.9039 78.3947 29.9037 78.3949 29.9035C78.395 29.9034 78.3952 29.9032 78.3953 29.9031C78.3955 29.9029 78.3956 29.9028 78.3958 29.9026C78.3959 29.9025 78.3961 29.9023 78.3962 29.9022C78.3964 29.902 78.3965 29.9019 78.3967 29.9017C78.3968 29.9016 78.397 29.9014 78.3971 29.9013C78.3973 29.9011 78.3975 29.901 78.3976 29.9008C78.3978 29.9007 78.3979 29.9005 78.3981 29.9004C78.3982 29.9002 78.3984 29.9001 78.3985 29.8999C78.3987 29.8998 78.3988 29.8996 78.399 29.8995C78.3991 29.8993 78.3993 29.8992 78.3994 29.899C78.3996 29.8989 78.3997 29.8987 78.3999 29.8986C78.4 29.8984 78.4002 29.8983 78.4003 29.8981C78.4004 29.898 78.4006 29.8978 78.4007 29.8977C78.4009 29.8975 78.401 29.8974 78.4012 29.8972C78.4013 29.8971 78.4015 29.8969 78.4016 29.8968C78.4018 29.8966 78.4019 29.8965 78.4021 29.8963C78.4022 29.8962 78.4024 29.896 78.4025 29.8959C78.4027 29.8957 78.4028 29.8956 78.403 29.8955C78.4031 29.8953 78.4033 29.8952 78.4034 29.895C78.4035 29.8949 78.4037 29.8947 78.4038 29.8946C78.404 29.8944 78.4041 29.8943 78.4043 29.8941C78.4044 29.894 78.4046 29.8938 78.4047 29.8937C78.4049 29.8936 78.405 29.8934 78.4051 29.8933C78.4053 29.8931 78.4054 29.893 78.4056 29.8928C78.4057 29.8927 78.4059 29.8925 78.406 29.8924C78.4062 29.8923 78.4063 29.8921 78.4064 29.892C78.4066 29.8918 78.4067 29.8917 78.4069 29.8915C78.407 29.8914 78.4072 29.8913 78.4073 29.8911C78.4075 29.891 78.4076 29.8908 78.4077 29.8907C78.4079 29.8905 78.408 29.8904 78.4082 29.8903C78.4083 29.8901 78.4084 29.89 78.4086 29.8898C78.4087 29.8897 78.4089 29.8895 78.409 29.8894C78.4092 29.8893 78.4093 29.8891 78.4094 29.889C78.4096 29.8888 78.4097 29.8887 78.4099 29.8886C78.41 29.8884 78.4101 29.8883 78.4103 29.8881C78.4104 29.888 78.4106 29.8878 78.4107 29.8877C78.4108 29.8876 78.411 29.8874 78.4111 29.8873C78.4113 29.8871 78.4114 29.887 78.4115 29.8869C78.4117 29.8867 78.4118 29.8866 78.412 29.8864C78.4121 29.8863 78.4122 29.8862 78.4124 29.886C78.4125 29.8859 78.4127 29.8858 78.4128 29.8856C78.4129 29.8855 78.4131 29.8853 78.4132 29.8852C78.4134 29.8851 78.4135 29.8849 78.4136 29.8848C78.4138 29.8846 78.4139 29.8845 78.414 29.8844C78.4142 29.8842 78.4143 29.8841 78.4145 29.884C78.4146 29.8838 78.4147 29.8837 78.4149 29.8836C78.415 29.8834 78.4151 29.8833 78.4153 29.8831C78.4154 29.883 78.4155 29.8829 78.4157 29.8827C78.4158 29.8826 78.416 29.8825 78.4161 29.8823C78.4162 29.8822 78.4164 29.8821 78.4165 29.8819C78.4166 29.8818 78.4168 29.8816 78.4169 29.8815C78.417 29.8814 78.4172 29.8812 78.4173 29.8811C78.4174 29.881 78.4176 29.8808 78.4177 29.8807C78.4178 29.8806 78.418 29.8804 78.4181 29.8803C78.4182 29.8802 78.4184 29.88 78.4185 29.8799C78.4186 29.8798 78.4188 29.8796 78.4189 29.8795C78.419 29.8794 78.4192 29.8792 78.4193 29.8791C78.4194 29.879 78.4196 29.8788 78.4197 29.8787C78.4198 29.8786 78.42 29.8784 78.4201 29.8783C78.4202 29.8782 78.4204 29.878 78.4205 29.8779C78.4206 29.8778 78.4208 29.8777 78.4209 29.8775C78.421 29.8774 78.4212 29.8773 78.4213 29.8771C78.4214 29.877 78.4216 29.8769 78.4217 29.8767C78.4218 29.8766 78.4219 29.8765 78.4221 29.8763C78.4222 29.8762 78.4223 29.8761 78.4225 29.876C78.4226 29.8758 78.4227 29.8757 78.4229 29.8756C78.423 29.8754 78.4231 29.8753 78.4232 29.8752C78.4234 29.875 78.4235 29.8749 78.4236 29.8748C78.4238 29.8747 78.4239 29.8745 78.424 29.8744C78.4241 29.8743 78.4243 29.8741 78.4244 29.874C78.4245 29.8739 78.4247 29.8738 78.4248 29.8736C78.4249 29.8735 78.425 29.8734 78.4252 29.8732C78.4253 29.8731 78.4254 29.873 78.4255 29.8729C78.4257 29.8727 78.4258 29.8726 78.4259 29.8725C78.4261 29.8724 78.4262 29.8722 78.4263 29.8721C78.4264 29.872 78.4266 29.8719 78.4267 29.8717C78.4268 29.8716 78.4269 29.8715 78.4271 29.8713C78.4272 29.8712 78.4273 29.8711 78.4274 29.871C78.4276 29.8708 78.4277 29.8707 78.4278 29.8706C78.4279 29.8705 78.4281 29.8703 78.4282 29.8702C78.4283 29.8701 78.4284 29.87 78.4286 29.8699C78.4287 29.8697 78.4288 29.8696 78.4289 29.8695C78.4291 29.8694 78.4292 29.8692 78.4293 29.8691C78.4294 29.869 78.4296 29.8689 78.4297 29.8687C78.4298 29.8686 78.4299 29.8685 78.43 29.8684C78.4302 29.8682 78.4303 29.8681 78.4304 29.868C78.4305 29.8679 78.4307 29.8678 78.4308 29.8676C78.4309 29.8675 78.431 29.8674 78.4311 29.8673C78.4313 29.8671 78.4314 29.867 78.4315 29.8669C78.4316 29.8668 78.4318 29.8667 78.4319 29.8665C78.432 29.8664 78.4321 29.8663 78.4322 29.8662C78.4324 29.8661 78.4325 29.8659 78.4326 29.8658C78.4327 29.8657 78.4328 29.8656 78.433 29.8655C78.4331 29.8653 78.4332 29.8652 78.4333 29.8651C78.4334 29.865 78.4336 29.8649 78.4337 29.8647C78.4338 29.8646 78.4339 29.8645 78.434 29.8644C78.4342 29.8643 78.4343 29.8641 78.4344 29.864C78.4345 29.8639 78.4346 29.8638 78.4347 29.8637C78.4349 29.8635 78.435 29.8634 78.4351 29.8633C78.4352 29.8632 78.4353 29.8631 78.4355 29.863C78.4356 29.8628 78.4357 29.8627 78.4358 29.8626C78.4359 29.8625 78.436 29.8624 78.4362 29.8623C78.4363 29.8621 78.4364 29.862 78.4365 29.8619C78.4366 29.8618 78.4367 29.8617 78.4369 29.8616C78.437 29.8614 78.4371 29.8613 78.4372 29.8612C78.4373 29.8611 78.4374 29.861 78.4376 29.8609C78.4377 29.8607 78.4378 29.8606 78.4379 29.8605C78.438 29.8604 78.4381 29.8603 78.4382 29.8602C78.4384 29.8601 78.4385 29.8599 78.4386 29.8598C78.4387 29.8597 78.4388 29.8596 78.4389 29.8595C78.439 29.8594 78.4392 29.8593 78.4393 29.8591C78.4394 29.859 78.4395 29.8589 78.4396 29.8588C78.4397 29.8587 78.4398 29.8586 78.4399 29.8585C78.4401 29.8584 78.4402 29.8582 78.4403 29.8581C78.4404 29.858 78.4405 29.8579 78.4406 29.8578C78.4407 29.8577 78.4408 29.8576 78.441 29.8575C78.4411 29.8573 78.4412 29.8572 78.4413 29.8571C78.4414 29.857 78.4415 29.8569 78.4416 29.8568C78.4417 29.8567 78.4418 29.8566 78.442 29.8565C78.4421 29.8563 78.4422 29.8562 78.4423 29.8561C78.4424 29.856 78.4425 29.8559 78.4426 29.8558C78.4427 29.8557 78.4428 29.8556 78.443 29.8555C78.4431 29.8554 78.4432 29.8552 78.4433 29.8551C78.4434 29.855 78.4435 29.8549 78.4436 29.8548C78.4437 29.8547 78.4438 29.8546 78.4439 29.8545C78.444 29.8544 78.4441 29.8543 78.4443 29.8542C78.4444 29.854 78.4445 29.8539 78.4446 29.8538C78.4447 29.8537 78.4448 29.8536 78.4449 29.8535C78.445 29.8534 78.4451 29.8533 78.4452 29.8532C78.4453 29.8531 78.4454 29.853 78.4455 29.8529C78.4457 29.8528 78.4458 29.8527 78.4459 29.8525C78.446 29.8524 78.4461 29.8523 78.4462 29.8522C78.4463 29.8521 78.4464 29.852 78.4465 29.8519C78.4466 29.8518 78.4467 29.8517 78.4468 29.8516C78.4469 29.8515 78.447 29.8514 78.4471 29.8513C78.4472 29.8512 78.4473 29.8511 78.4475 29.851C78.4476 29.8509 78.4477 29.8508 78.4478 29.8506C78.4479 29.8505 78.448 29.8504 78.4481 29.8503C78.4482 29.8502 78.4483 29.8501 78.4484 29.85C78.4485 29.8499 78.4486 29.8498 78.4487 29.8497C78.4488 29.8496 78.4489 29.8495 78.449 29.8494C78.4491 29.8493 78.4492 29.8492 78.4493 29.8491C78.4494 29.849 78.4495 29.8489 78.4496 29.8488C78.4497 29.8487 78.4498 29.8486 78.4499 29.8485C78.45 29.8484 78.4501 29.8483 78.4502 29.8482C78.4503 29.8481 78.4504 29.848 78.4505 29.8479C78.4506 29.8478 78.4507 29.8477 78.4508 29.8476C78.4509 29.8475 78.451 29.8474 78.4511 29.8473C78.4512 29.8472 78.4513 29.8471 78.4514 29.847C78.4515 29.8469 78.4516 29.8468 78.4517 29.8467C78.4518 29.8466 78.4519 29.8465 78.452 29.8464C78.4521 29.8463 78.4522 29.8462 78.4523 29.8461C78.4524 29.846 78.4525 29.8459 78.4526 29.8458C78.4527 29.8457 78.4528 29.8456 78.4529 29.8455C78.453 29.8454 78.4531 29.8453 78.4532 29.8452C78.4533 29.8451 78.4534 29.845 78.4535 29.8449C78.4536 29.8448 78.4537 29.8447 78.4538 29.8446C78.4539 29.8445 78.454 29.8444 78.4541 29.8443C78.4542 29.8442 78.4543 29.8441 78.4544 29.844C78.4545 29.8439 78.4546 29.8438 78.4547 29.8437C78.4548 29.8436 78.4549 29.8435 78.455 29.8434C78.4551 29.8434 78.4552 29.8433 78.4553 29.8432C78.4554 29.8431 78.4554 29.843 78.4555 29.8429C78.4556 29.8428 78.4557 29.8427 78.4558 29.8426C78.4559 29.8425 78.456 29.8424 78.4561 29.8423C78.4562 29.8422 78.4563 29.8421 78.4564 29.842C78.4565 29.8419 78.4566 29.8418 78.4567 29.8417C78.4568 29.8416 78.4569 29.8416 78.457 29.8415C78.457 29.8414 78.4571 29.8413 78.4572 29.8412C78.4573 29.8411 78.4574 29.841 78.4575 29.8409C78.4576 29.8408 78.4577 29.8407 78.4578 29.8406C78.4579 29.8405 78.458 29.8404 78.4581 29.8404C78.4582 29.8403 78.4582 29.8402 78.4583 29.8401C78.4584 29.84 78.4585 29.8399 78.4586 29.8398C78.4587 29.8397 78.4588 29.8396 78.4589 29.8395C78.459 29.8394 78.4591 29.8393 78.4592 29.8393C78.4592 29.8392 78.4593 29.8391 78.4594 29.839C78.4595 29.8389 78.4596 29.8388 78.4597 29.8387C78.4598 29.8386 78.4599 29.8385 78.46 29.8384C78.4601 29.8384 78.4601 29.8383 78.4602 29.8382C78.4603 29.8381 78.4604 29.838 78.4605 29.8379C78.4606 29.8378 78.4607 29.8377 78.4608 29.8376C78.4609 29.8376 78.4609 29.8375 78.461 29.8374C78.4611 29.8373 78.4612 29.8372 78.4613 29.8371C78.4614 29.837 78.4615 29.8369 78.4616 29.8369C78.4616 29.8368 78.4617 29.8367 78.4618 29.8366C78.4619 29.8365 78.462 29.8364 78.4621 29.8363C78.4622 29.8363 78.4623 29.8362 78.4623 29.8361C78.4624 29.836 78.4625 29.8359 78.4626 29.8358C78.4627 29.8357 78.4628 29.8356 78.4629 29.8356C78.4629 29.8355 78.463 29.8354 78.4631 29.8353C78.4632 29.8352 78.4633 29.8351 78.4634 29.8351C78.4634 29.835 78.4635 29.8349 78.4636 29.8348C78.4637 29.8347 78.4638 29.8346 78.4639 29.8345C78.464 29.8345 78.464 29.8344 78.4641 29.8343C78.4642 29.8342 78.4643 29.8341 78.4644 29.834C78.4645 29.834 78.4645 29.8339 78.4646 29.8338C78.4647 29.8337 78.4648 29.8336 78.4649 29.8335C78.465 29.8335 78.465 29.8334 78.4651 29.8333C78.4652 29.8332 78.4653 29.8331 78.4654 29.8331C78.4654 29.833 78.4655 29.8329 78.4656 29.8328C78.4657 29.8327 78.4658 29.8326 78.4659 29.8326C78.4659 29.8325 78.466 29.8324 78.4661 29.8323C78.4662 29.8322 78.4663 29.8322 78.4663 29.8321C78.4664 29.832 78.4665 29.8319 78.4666 29.8318C78.4667 29.8318 78.4667 29.8317 78.4668 29.8316C78.4669 29.8315 78.467 29.8314 78.4671 29.8314C78.4671 29.8313 78.4672 29.8312 78.4673 29.8311C78.4674 29.831 78.4675 29.831 78.4675 29.8309C78.4676 29.8308 78.4677 29.8307 78.4678 29.8307C78.4678 29.8306 78.4679 29.8305 78.468 29.8304C78.4681 29.8303 78.4682 29.8303 78.4682 29.8302C78.4683 29.8301 78.4684 29.83 78.4685 29.83C78.4685 29.8299 78.4686 29.8298 78.4687 29.8297C78.4688 29.8296 78.4688 29.8296 78.4689 29.8295C78.469 29.8294 78.4691 29.8293 78.4692 29.8293C78.4692 29.8292 78.4693 29.8291 78.4694 29.829C78.4695 29.829 78.4695 29.8289 78.4696 29.8288C78.4697 29.8287 78.4698 29.8287 78.4698 29.8286C78.4699 29.8285 78.47 29.8284 78.4701 29.8284C78.4701 29.8283 78.4702 29.8282 78.4703 29.8281C78.4704 29.8281 78.4704 29.828 78.4705 29.8279C78.4706 29.8278 78.4707 29.8278 78.4707 29.8277C78.4708 29.8276 78.4709 29.8275 78.4709 29.8275C78.471 29.8274 78.4711 29.8273 78.4712 29.8272C78.4712 29.8272 78.4713 29.8271 78.4714 29.827C78.4715 29.827 78.4715 29.8269 78.4716 29.8268C78.4717 29.8267 78.4717 29.8267 78.4718 29.8266C78.4719 29.8265 78.472 29.8264 78.472 29.8264C78.4721 29.8263 78.4722 29.8262 78.4723 29.8262C78.4723 29.8261 78.4724 29.826 78.4725 29.826C78.4725 29.8259 78.4726 29.8258 78.4727 29.8257C78.4727 29.8257 78.4728 29.8256 78.4729 29.8255C78.473 29.8255 78.473 29.8254 78.4731 29.8253C78.4732 29.8252 78.4732 29.8252 78.4733 29.8251C78.4734 29.825 78.4734 29.825 78.4735 29.8249C78.4736 29.8248 78.4737 29.8248 78.4737 29.8247C78.4738 29.8246 78.4739 29.8246 78.4739 29.8245C78.474 29.8244 78.4741 29.8244 78.4741 29.8243C78.4742 29.8242 78.4743 29.8241 78.4743 29.8241C78.4744 29.824 78.4745 29.8239 78.4745 29.8239C78.4746 29.8238 78.4747 29.8237 78.4747 29.8237C78.4748 29.8236 78.4749 29.8235 78.4749 29.8235C78.475 29.8234 78.4751 29.8233 78.4751 29.8233C78.4752 29.8232 78.4753 29.8231 78.4753 29.8231C78.4754 29.823 78.4755 29.8229 78.4755 29.8229C78.4756 29.8228 78.4757 29.8228 78.4757 29.8227C78.4758 29.8226 78.4759 29.8226 78.4759 29.8225C78.476 29.8224 78.4761 29.8224 78.4761 29.8223C78.4762 29.8222 78.4762 29.8222 78.4763 29.8221C78.4764 29.822 78.4764 29.822 78.4765 29.8219C78.4766 29.8218 78.4766 29.8218 78.4767 29.8217C78.4768 29.8217 78.4768 29.8216 78.4769 29.8215C78.4769 29.8215 78.477 29.8214 78.4771 29.8213C78.4771 29.8213 78.4772 29.8212 78.4773 29.8212C78.4773 29.8211 78.4774 29.821 78.4774 29.821C78.4775 29.8209 78.4776 29.8208 78.4776 29.8208C78.4777 29.8207 78.4778 29.8207 78.4778 29.8206C78.4779 29.8205 78.4779 29.8205 78.478 29.8204C78.4781 29.8204 78.4781 29.8203 78.4782 29.8202C78.4782 29.8202 78.4783 29.8201 78.4784 29.8201C78.4784 29.82 78.4785 29.8199 78.4785 29.8199C78.4786 29.8198 78.4787 29.8198 78.4787 29.8197C78.4788 29.8196 78.4788 29.8196 78.4789 29.8195C78.479 29.8195 78.479 29.8194 78.4791 29.8193C78.4791 29.8193 78.4792 29.8192 78.4792 29.8192C78.4793 29.8191 78.4794 29.819 78.4794 29.819C78.4795 29.8189 78.4795 29.8189 78.4796 29.8188C78.4797 29.8188 78.4797 29.8187 78.4798 29.8186C78.4798 29.8186 78.4799 29.8185 78.4799 29.8185C78.48 29.8184 78.4801 29.8184 78.4801 29.8183C78.4802 29.8182 78.4802 29.8182 78.4803 29.8181C78.4803 29.8181 78.4804 29.818 78.4804 29.818C78.4805 29.8179 78.4806 29.8179 78.4806 29.8178C78.4807 29.8177 78.4807 29.8177 78.4808 29.8176C78.4808 29.8176 78.4809 29.8175 78.4809 29.8175C78.481 29.8174 78.4811 29.8174 78.4811 29.8173C78.4812 29.8172 78.4812 29.8172 78.4813 29.8171C78.4813 29.8171 78.4814 29.817 78.4814 29.817C78.4815 29.8169 78.4815 29.8169 78.4816 29.8168C78.4817 29.8168 78.4817 29.8167 78.4818 29.8167C78.4818 29.8166 78.4819 29.8166 78.4819 29.8165C78.482 29.8164 78.482 29.8164 78.4821 29.8163C78.4821 29.8163 78.4822 29.8162 78.4822 29.8162C78.4823 29.8161 78.4823 29.8161 78.4824 29.816C78.4824 29.816 78.4825 29.8159 78.4825 29.8159C78.4826 29.8158 78.4826 29.8158 78.4827 29.8157C78.4827 29.8157 78.4828 29.8156 78.4828 29.8156C78.4829 29.8155 78.4829 29.8155 78.483 29.8154C78.483 29.8154 78.4831 29.8153 78.4831 29.8153C78.4832 29.8152 78.4832 29.8152 78.4833 29.8151C78.4833 29.8151 78.4834 29.815 78.4834 29.815C78.4835 29.8149 78.4835 29.8149 78.4836 29.8148C78.4836 29.8148 78.4837 29.8147 78.4837 29.8147C78.4838 29.8146 78.4838 29.8146 78.4839 29.8145C78.4839 29.8145 78.484 29.8144 78.484 29.8144C78.4841 29.8143 78.4841 29.8143 78.4842 29.8142C78.4842 29.8142 78.4843 29.8142 78.4843 29.8141C78.4844 29.8141 78.4844 29.814 78.4844 29.814C78.4845 29.8139 78.4845 29.8139 78.4846 29.8138C78.4846 29.8138 78.4847 29.8137 78.4847 29.8137C78.4848 29.8136 78.4848 29.8136 78.4849 29.8136L77.7778 29.1064ZM77.5309 29.3576C77.4852 29.4148 77.4496 29.4586 77.4234 29.4899C77.4104 29.5056 77.4007 29.5169 77.3941 29.5245C77.386 29.5337 77.3867 29.5325 77.3927 29.5265L78.0999 30.2335C78.1476 30.1858 78.2263 30.0891 78.3117 29.9823L77.5309 29.3576ZM77.3877 29.5316C75.0093 31.98 73.4493 33.6217 72.717 34.4485L73.4656 35.1115C74.18 34.305 75.7234 32.68 78.105 30.2284L77.3877 29.5316ZM72.7102 34.4563C71.2632 36.16 69.128 38.6803 66.3046 42.017L67.068 42.663C69.8913 39.3264 72.026 36.8066 73.4724 35.1037L72.7102 34.4563ZM66.3044 42.0173C63.5046 45.3304 61.4055 47.8027 60.0067 49.4346L60.7659 50.0854C62.1671 48.4507 64.268 45.9763 67.0682 42.6627L66.3044 42.0173ZM60.0057 49.4358C59.4813 50.0513 57.9891 51.6367 55.5113 54.2081L56.2313 54.9019C58.7002 52.34 60.2179 50.7287 60.7669 50.0842L60.0057 49.4358ZM55.5049 54.2148C54.93 54.8339 54.4584 55.0964 54.0916 55.1442L54.221 56.1358C54.9275 56.0436 55.5993 55.5828 56.2377 54.8952L55.5049 54.2148ZM54.0856 55.145C53.4527 55.2354 53.0025 55.2387 52.7085 55.1836L52.5242 56.1664C52.9768 56.2513 53.5533 56.2312 54.227 56.135L54.0856 55.145ZM52.6887 55.1803C52.2762 55.1199 52.115 54.9929 52.0523 54.8989C51.9919 54.8083 51.9388 54.6212 52.0475 54.2357L51.0851 53.9643C50.9371 54.4888 50.9307 55.0192 51.2203 55.4536C51.5076 55.8846 51.9997 56.0901 52.5439 56.1697L52.6887 55.1803ZM52.0466 54.239C52.2958 53.3781 52.613 52.5396 52.9984 51.7235L52.0942 51.2965C51.6862 52.1604 51.3501 53.0486 51.086 53.961L52.0466 54.239ZM52.9935 51.7336C53.3449 51.0309 55.0264 47.5978 58.0355 41.4395L57.1371 41.0005C54.1263 47.1622 52.4478 50.5891 52.0991 51.2864L52.9935 51.7336ZM58.0364 41.4378C58.3967 40.6931 58.6309 40.0335 58.7113 39.4707L57.7213 39.3293C57.6617 39.7465 57.4759 40.3002 57.1362 41.0022L58.0364 41.4378ZM57.8522 39.0573C57.6656 39.2556 57.5229 39.407 57.4241 39.5117C57.3746 39.5641 57.3363 39.6045 57.3091 39.6331C57.2955 39.6475 57.2849 39.6585 57.2773 39.6665C57.2683 39.6759 57.2663 39.6779 57.2678 39.6764L57.9749 40.3836C58.0053 40.3531 58.2125 40.1336 58.5804 39.7427L57.8522 39.0573ZM57.2225 39.7284C56.4986 40.6858 55.948 41.4238 55.5719 41.9409L56.3807 42.5291C56.7512 42.0196 57.2973 41.2875 58.0201 40.3316L57.2225 39.7284ZM55.5632 41.9533C55.2118 42.4687 54.7557 43.147 54.1953 43.9876L55.0273 44.5423C55.5869 43.703 56.0408 43.028 56.3894 42.5167L55.5632 41.9533ZM54.1953 43.9876C53.6283 44.8382 53.1304 45.6558 52.7024 46.4406L53.5803 46.9194C53.9922 46.1642 54.4743 45.3718 55.0273 44.5423L54.1953 43.9876ZM52.6968 46.451C52.2947 47.2317 51.9277 48.0129 51.596 48.7947L52.5166 49.1853C52.8383 48.4271 53.1946 47.6683 53.5858 46.909L52.6968 46.451ZM51.5967 48.793C51.5693 48.857 51.5481 48.8947 51.5353 48.9139C51.5293 48.9229 51.5277 48.9239 51.5314 48.9199C51.535 48.9161 51.5471 48.9036 51.569 48.889L52.1237 49.721C52.3246 49.5871 52.4418 49.3599 52.5159 49.187L51.5967 48.793ZM51.6394 48.8498C51.395 48.9609 51.2787 48.98 51.2513 48.98V49.98C51.5039 49.98 51.7843 49.8824 52.0532 49.7602L51.6394 48.8498ZM51.2513 48.98C51.3607 48.98 51.4104 49.0369 51.3949 49.0214L50.6878 49.7286C50.8123 49.8531 51.0019 49.98 51.2513 49.98V48.98ZM51.4413 49.075C51.4232 49.0509 51.4199 49.0417 51.4221 49.0468C51.4244 49.0521 51.4363 49.0817 51.4363 49.13H50.4363C50.4363 49.3593 50.5458 49.5476 50.6413 49.675L51.4413 49.075ZM51.4363 49.13C51.4363 48.6919 51.445 48.3417 51.4616 48.0762C51.479 47.798 51.5032 47.6503 51.5202 47.5937L50.5624 47.3063C50.5094 47.483 50.4811 47.732 50.4635 48.0138C50.4451 48.3083 50.4363 48.6815 50.4363 49.13H51.4363ZM51.513 47.616C51.9507 46.3719 52.3965 45.3222 52.8488 44.4629L51.9638 43.9971C51.4828 44.9111 51.0186 46.0081 50.5697 47.284L51.513 47.616ZM52.8477 44.4648C54.5806 41.207 56.8726 37.7791 59.728 34.1808L58.9446 33.5592C56.0601 37.1943 53.732 40.673 51.9649 43.9952L52.8477 44.4648ZM59.718 34.193C59.9609 33.9059 60.2266 33.629 60.5154 33.3624L59.8372 32.6276C59.5193 32.921 59.225 33.2274 58.9546 33.547L59.718 34.193ZM60.4993 33.3767C61.0038 32.9498 61.5716 32.7698 62.2324 32.8281L62.3203 31.8319C61.3943 31.7502 60.5621 32.0136 59.8533 32.6133L60.4993 33.3767ZM62.2469 32.8291C62.6013 32.85 62.8036 32.9208 62.909 32.991L63.4637 32.159C63.149 31.9492 62.7447 31.8567 62.3057 31.8309L62.2469 32.8291ZM62.9435 33.0121C63.0225 33.056 63.0852 33.1245 63.1239 33.2666L64.0887 33.0034C63.9874 32.6322 63.7701 32.3274 63.4291 32.1379L62.9435 33.0121ZM63.1421 33.3207C63.1865 33.4317 63.2107 33.6284 63.1499 33.9529L64.1327 34.1371C64.2119 33.7149 64.2128 33.305 64.0705 32.9493L63.1421 33.3207ZM63.1491 33.9571C63.0382 34.5779 62.8729 35.1492 62.6548 35.6727L63.5778 36.0573C63.8264 35.4607 64.0111 34.8187 64.1335 34.1329L63.1491 33.9571ZM62.653 35.677C62.0021 37.2809 61.4236 38.5994 60.9171 39.6354L61.8155 40.0746C62.3357 39.0106 62.9238 37.6691 63.5796 36.053L62.653 35.677ZM60.9151 39.6396C60.4265 40.6632 59.7044 42.1425 58.748 44.0786L59.6446 44.5214C60.6015 42.5842 61.3261 41.1001 61.8176 40.0704L60.9151 39.6396ZM58.7469 44.0808C57.8131 45.9951 57.2427 47.1591 57.0341 47.5764L57.9285 48.0236C58.1399 47.6009 58.7129 46.4315 59.6457 44.5192L58.7469 44.0808ZM57.0341 47.5764C57.002 47.6405 56.7704 48.1778 56.3567 49.143L57.2759 49.537C57.4858 49.0471 57.646 48.6742 57.7566 48.4182C57.8119 48.2901 57.8546 48.1918 57.8847 48.1229C57.9185 48.0457 57.93 48.0206 57.9285 48.0236L57.0341 47.5764Z" fill="white"/>
</g>
<defs>
<filter id="filter0_d_134_2" x="0" y="0" width="104" height="104" filterUnits="userSpaceOnUse" color-interpolation-filters="sRGB">
<feFlood flood-opacity="0" result="BackgroundImageFix"/>
<feColorMatrix in="SourceAlpha" type="matrix" values="0 0 0 0 0 0 0 0 0 0 0 0 0 0 0 0 0 0 127 0" result="hardAlpha"/>
<feOffset dy="4"/>
<feGaussianBlur stdDeviation="2"/>
<feComposite in2="hardAlpha" operator="out"/>
<feColorMatrix type="matrix" values="0 0 0 0 0 0 0 0 0 0 0 0 0 0 0 0 0 0 0.25 0"/>
<feBlend mode="normal" in2="BackgroundImageFix" result="effect1_dropShadow_134_2"/>
<feBlend mode="normal" in="SourceGraphic" in2="effect1_dropShadow_134_2" result="shape"/>
</filter>
<filter id="filter1_d_134_2" x="15.8662" y="26.205" width="70.71" height="55.425" filterUnits="userSpaceOnUse" color-interpolation-filters="sRGB">
<feFlood flood-opacity="0" result="BackgroundImageFix"/>
<feColorMatrix in="SourceAlpha" type="matrix" values="0 0 0 0 0 0 0 0 0 0 0 0 0 0 0 0 0 0 127 0" result="hardAlpha"/>
<feOffset dy="4"/>
<feGaussianBlur stdDeviation="2"/>
<feComposite in2="hardAlpha" operator="out"/>
<feColorMatrix type="matrix" values="0 0 0 0 0 0 0 0 0 0 0 0 0 0 0 0 0 0 0.25 0"/>
<feBlend mode="color-dodge" in2="BackgroundImageFix" result="effect1_dropShadow_134_2"/>
<feBlend mode="normal" in="SourceGraphic" in2="effect1_dropShadow_134_2" result="shape"/>
</filter>
<linearGradient id="paint0_linear_134_2" x1="52" y1="92" x2="52" y2="3" gradientUnits="userSpaceOnUse">
<stop stop-color="#00FEE0" stop-opacity="0.75"/>
<stop offset="1" stop-color="#00FEE0" stop-opacity="0.77"/>
</linearGradient>
<linearGradient id="paint1_linear_134_2" x1="7" y1="3" x2="97" y2="93" gradientUnits="userSpaceOnUse">
<stop stop-color="white"/>
<stop offset="1" stop-color="white" stop-opacity="0.61"/>
</linearGradient>
</defs>
</svg>
