<svg xmlns="http://www.w3.org/2000/svg" width="72" height="56" fill="none" viewBox="0 0 72 56"><g filter="url(#filter0_d_134_4)"><path fill="#fff" d="M8.61115 31.355C8.05115 32.7083 7.70115 33.8283 7.56115 34.715C8.12115 34.1317 8.41282 33.8283 8.43615 33.805C9.90615 32.0317 11.4228 30.1883 12.9862 28.275C15.7395 24.9383 18.4345 22.185 21.0712 20.015C22.0745 19.1983 23.1712 18.405 24.3612 17.635C25.5512 16.865 26.9045 16.5617 28.4212 16.725C29.7745 16.865 30.7428 17.565 31.3262 18.825C31.7228 19.7117 31.9445 20.7617 31.9912 21.975C32.0378 24.285 31.5245 26.945 30.4512 29.955C30.4512 29.9783 30.2062 30.6433 29.7162 31.95C30.2762 31.7167 30.5678 31.6 30.5912 31.6C31.0578 31.3667 31.8045 30.97 32.8312 30.41C33.8578 29.85 34.6512 29.43 35.2112 29.15C35.6312 28.9167 35.9695 28.7767 36.2262 28.73C36.2728 28.7067 36.5645 28.7417 37.1012 28.835C37.0312 28.975 36.9495 29.1033 36.8562 29.22C36.7628 29.3133 36.6578 29.4067 36.5412 29.5C36.4245 29.5933 36.3312 29.6633 36.2612 29.71C36.2145 29.7333 36.1095 29.8033 35.9462 29.92C35.8062 30.0133 35.7128 30.0717 35.6662 30.095C32.8428 31.9383 30.8828 33.1983 29.7862 33.875C28.7128 34.5283 27.8028 35.4267 27.0562 36.57C26.3328 37.6667 25.3762 38.845 24.1862 40.105C22.0395 42.3917 19.3562 44.5033 16.1362 46.44C14.8062 47.2333 13.6278 47.6067 12.6012 47.56C12.2745 47.5367 12.0412 47.5133 11.9012 47.49C11.7612 47.4667 11.5745 47.3967 11.3412 47.28C11.1312 47.1867 10.9795 47.035 10.8862 46.825C10.8395 46.755 10.8045 46.6733 10.7812 46.58C10.7578 46.4867 10.7462 46.3933 10.7462 46.3C10.7695 46.23 10.7812 46.16 10.7812 46.09C10.8045 46.02 10.8395 45.9383 10.8862 45.845C10.9328 45.775 10.9678 45.7167 10.9912 45.67C11.0145 45.6233 11.0612 45.5533 11.1312 45.46C11.2012 45.39 11.2478 45.3317 11.2712 45.285C11.3178 45.2383 11.3878 45.18 11.4812 45.11C12.2278 44.2933 12.8578 43.6983 13.3712 43.325C15.7978 41.4817 18.1545 39.7433 20.4412 38.11C21.5145 37.34 23.0545 36.3133 25.0612 35.03C25.6212 34.6567 26.0412 34.1783 26.3212 33.595C27.8612 30.4217 28.8295 27.33 29.2262 24.32C29.4362 22.6867 29.3662 21.2283 29.0162 19.945C28.8762 19.455 28.7245 19.0933 28.5612 18.86C28.3978 18.6267 28.0828 18.3233 27.6162 17.95C27.0328 18.0667 26.1928 18.51 25.0962 19.28C22.7162 21.0067 20.3945 23.1183 18.1312 25.615C17.5012 26.315 16.6145 27.3417 15.4712 28.695C14.3278 30.025 13.6512 30.8183 13.4412 31.075C12.1578 32.545 10.8745 34.015 9.59115 35.485C9.35782 35.7183 8.92615 36.1383 8.29615 36.745C7.71282 37.2817 6.96615 37.5033 6.05615 37.41C5.26282 37.3167 4.87782 36.8967 4.90115 36.15C4.90115 35.6833 4.95949 35.2517 5.07615 34.855C5.58949 33.175 5.96282 32.0433 6.19615 31.46C9.01949 24.3433 12.3678 17.705 16.2412 11.545C18.1778 8.44167 20.1145 6.03833 22.0512 4.335C23.2178 3.285 24.4428 2.49167 25.7262 1.955C26.9862 1.44167 28.3162 1.26666 29.7162 1.43C31.6062 1.66333 32.9245 2.66667 33.6712 4.44C34.4412 6.33 34.3245 8.43 33.3212 10.74C33.2745 10.8333 33.2045 10.9267 33.1112 11.02C32.9712 11.1133 32.8778 11.1483 32.8312 11.125C32.5978 11.0317 32.4812 10.9383 32.4812 10.845C32.4112 10.3317 32.3762 9.795 32.3762 9.235C32.3995 7.905 32.2712 6.83166 31.9912 6.015C31.6878 5.15167 31.4078 4.51 31.1512 4.09C30.6612 3.25 30.0895 2.725 29.4362 2.515C28.8062 2.28167 28.0478 2.34 27.1612 2.69C26.0878 3.11 25.0028 3.82166 23.9062 4.825C22.5528 6.03833 21.4095 7.345 20.4762 8.745C19.0528 10.8683 18.0028 12.5133 17.3262 13.68C14.0828 19.21 11.1778 25.1017 8.61115 31.355ZM22.2612 39.16C19.1578 41.4 16.8828 43.2667 15.4362 44.76C16.4628 44.3867 17.7345 43.605 19.2512 42.415C20.3012 41.575 21.0128 40.945 21.3862 40.525C21.7595 40.1283 22.0512 39.6733 22.2612 39.16ZM41.8163 23.34C41.8863 23.3867 41.968 23.4217 42.0613 23.445C42.4113 23.0483 42.598 22.8383 42.6213 22.815C43.6246 21.625 45.3513 19.56 47.8013 16.62C50.2746 13.6567 52.188 11.37 53.5413 9.76C56.248 6.51667 58.5813 4.11333 60.5413 2.55C61.1946 2.01333 61.953 1.48833 62.8163 0.974999C63.6563 0.461666 64.6013 0.274999 65.6513 0.414998C66.3746 0.484999 66.8763 0.694999 67.1563 1.045C67.4363 1.37166 67.553 1.885 67.5063 2.585C67.4363 3.12167 67.3196 3.62333 67.1563 4.09C66.0363 6.98333 65.3013 8.815 64.9513 9.585C64.228 11.125 63.108 13.435 61.5913 16.515C60.098 19.595 58.9896 21.9283 58.2663 23.515C55.3496 29.7217 53.1446 35.065 51.6513 39.545C51.488 40.0583 51.0213 41.785 50.2513 44.725C50.2513 44.7483 50.2396 45.075 50.2163 45.705C50.333 45.7283 50.5313 45.7867 50.8113 45.88C51.0913 45.9733 51.3013 46.055 51.4413 46.125C51.348 46.3117 51.2896 46.405 51.2663 46.405C51.1496 46.5217 50.998 46.6033 50.8113 46.65C49.9946 46.9533 49.353 46.9417 48.8863 46.615C48.4196 46.3117 48.1863 45.7283 48.1863 44.865C48.1863 43.9783 48.3263 42.9517 48.6063 41.785C49.633 37.2583 51.208 32.4867 53.3313 27.47C53.7513 26.5133 54.2063 25.4867 54.6963 24.39C55.2096 23.27 55.653 22.3133 56.0263 21.52C56.3996 20.7033 56.8896 19.665 57.4963 18.405C58.103 17.145 58.558 16.165 58.8613 15.465C59.188 14.7883 59.5846 13.96 60.0513 12.98C60.5413 12 60.9963 11.055 61.4163 10.145C61.8596 9.235 62.2563 8.395 62.6063 7.625C62.793 7.205 63.283 5.91 64.0763 3.74C64.0996 3.71667 64.158 3.43667 64.2513 2.9C64.1346 2.9 64.018 2.92333 63.9013 2.97C63.7846 3.01666 63.6913 3.06333 63.6213 3.11C63.5513 3.13333 63.458 3.19167 63.3413 3.285C63.248 3.355 63.178 3.41333 63.1313 3.46C63.108 3.48333 63.038 3.55333 62.9213 3.67C62.828 3.78666 62.7696 3.85666 62.7463 3.88C60.3663 6.33 58.8146 7.96333 58.0913 8.78C56.6446 10.4833 54.5096 13.0033 51.6863 16.34C48.8863 19.6533 46.7863 22.1267 45.3863 23.76C44.8496 24.39 43.3446 25.9883 40.8713 28.555C40.2646 29.2083 39.693 29.57 39.1563 29.64C38.503 29.7333 37.9896 29.745 37.6163 29.675C36.6596 29.535 36.3096 29.01 36.5663 28.1C36.823 27.2133 37.1496 26.35 37.5463 25.51C37.8963 24.81 39.5763 21.38 42.5863 15.22C42.9363 14.4967 43.1463 13.89 43.2163 13.4C42.843 13.7967 42.6446 14.0067 42.6213 14.03C41.898 14.9867 41.3496 15.7217 40.9763 16.235C40.6263 16.7483 40.1713 17.425 39.6113 18.265C39.0513 19.105 38.5613 19.91 38.1413 20.68C37.7446 21.45 37.383 22.22 37.0563 22.99C36.9863 23.1533 36.9163 23.2583 36.8463 23.305C36.5896 23.4217 36.3913 23.48 36.2513 23.48C36.1813 23.48 36.1113 23.445 36.0413 23.375C35.9713 23.2817 35.9363 23.2 35.9363 23.13C35.9363 22.2433 35.9713 21.6833 36.0413 21.45C36.4846 20.19 36.9396 19.1167 37.4063 18.23C39.1563 14.94 41.4663 11.4867 44.3363 7.87C44.593 7.56667 44.873 7.275 45.1763 6.995C45.783 6.48167 46.483 6.26 47.2763 6.33C47.673 6.35333 47.9763 6.435 48.1863 6.575C48.3963 6.69166 48.5363 6.87833 48.6063 7.135C48.6996 7.36833 48.7113 7.67167 48.6413 8.045C48.5246 8.69833 48.3496 9.305 48.1163 9.865C47.463 11.475 46.8796 12.805 46.3663 13.855C45.8763 14.8817 45.153 16.3633 44.1963 18.3C43.263 20.2133 42.6913 21.38 42.4813 21.8C42.458 21.8467 42.2363 22.36 41.8163 23.34Z"/><path fill="#fff" d="M8.61115 31.355L9.07316 31.5462L9.07371 31.5449L8.61115 31.355ZM7.56115 34.715L7.06727 34.637L6.81887 36.2102L7.92185 35.0613L7.56115 34.715ZM8.43615 33.805L8.78971 34.1586L8.8062 34.1421L8.82109 34.1241L8.43615 33.805ZM12.9862 28.275L12.6005 27.9568L12.599 27.9586L12.9862 28.275ZM21.0712 20.015L20.7555 19.6272L20.7534 19.6289L21.0712 20.015ZM24.3612 17.635L24.6328 18.0548L24.6328 18.0548L24.3612 17.635ZM28.4212 16.725L28.3676 17.2221L28.3697 17.2223L28.4212 16.725ZM31.3262 18.825L31.7826 18.6208L31.7799 18.6149L31.3262 18.825ZM31.9912 21.975L32.4911 21.9649L32.4908 21.9558L31.9912 21.975ZM30.4512 29.955L29.9802 29.7871L29.9512 29.8685V29.955H30.4512ZM29.7162 31.95L29.248 31.7744L28.8425 32.8557L29.9085 32.4115L29.7162 31.95ZM30.5912 31.6V32.1H30.7092L30.8148 32.0472L30.5912 31.6ZM32.8312 30.41L33.0706 30.8489L33.0706 30.8489L32.8312 30.41ZM35.2112 29.15L35.4348 29.5972L35.4445 29.5924L35.454 29.5871L35.2112 29.15ZM36.2262 28.73L36.3156 29.2219L36.3859 29.2092L36.4498 29.1772L36.2262 28.73ZM37.1012 28.835L37.5484 29.0586L37.8489 28.4575L37.1868 28.3424L37.1012 28.835ZM36.8562 29.22L37.2097 29.5736L37.2293 29.554L37.2466 29.5323L36.8562 29.22ZM36.2612 29.71L36.4848 30.1572L36.5126 30.1433L36.5385 30.126L36.2612 29.71ZM35.9462 29.92L36.2235 30.336L36.2302 30.3316L36.2368 30.3269L35.9462 29.92ZM35.6662 30.095L35.4425 29.6478L35.4169 29.6606L35.3928 29.6763L35.6662 30.095ZM29.7862 33.875L30.0461 34.3021L30.0487 34.3005L29.7862 33.875ZM27.0562 36.57L27.4735 36.8453L27.4748 36.8434L27.0562 36.57ZM24.1862 40.105L23.8226 39.7617L23.8216 39.7628L24.1862 40.105ZM16.1362 46.44L16.3923 46.8694L16.3939 46.8685L16.1362 46.44ZM12.6012 47.56L12.5655 48.0589L12.5784 48.0595L12.6012 47.56ZM11.9012 47.49L11.819 47.9832L11.819 47.9832L11.9012 47.49ZM11.3412 47.28L11.5648 46.8328L11.5546 46.8277L11.5442 46.8231L11.3412 47.28ZM10.8862 46.825L11.3431 46.6219L11.3258 46.5831L11.3022 46.5476L10.8862 46.825ZM10.7812 46.58L10.2961 46.7013L10.2961 46.7013L10.7812 46.58ZM10.7462 46.3L10.2718 46.1419L10.2462 46.2189V46.3H10.7462ZM10.7812 46.09L10.3068 45.9319L10.2812 46.0089V46.09H10.7812ZM10.8862 45.845L10.4701 45.5676L10.4529 45.5936L10.4389 45.6214L10.8862 45.845ZM10.9912 45.67L11.4384 45.8936L11.4384 45.8936L10.9912 45.67ZM11.1312 45.46L10.7776 45.1064L10.7525 45.1316L10.7312 45.16L11.1312 45.46ZM11.2712 45.285L10.9176 44.9314L10.8602 44.9888L10.8239 45.0614L11.2712 45.285ZM11.4812 45.11L11.7812 45.51L11.8186 45.4819L11.8502 45.4474L11.4812 45.11ZM13.3712 43.325L13.6653 43.7295L13.6736 43.7232L13.3712 43.325ZM20.4412 38.11L20.7318 38.5169L20.7326 38.5163L20.4412 38.11ZM25.0612 35.03L25.3306 35.4513L25.3385 35.446L25.0612 35.03ZM26.3212 33.595L25.8713 33.3767L25.8704 33.3786L26.3212 33.595ZM29.2262 24.32L29.7219 24.3853L29.7221 24.3838L29.2262 24.32ZM29.0162 19.945L29.4986 19.8134L29.4969 19.8076L29.0162 19.945ZM28.5612 18.86L28.1515 19.1467L28.1515 19.1467L28.5612 18.86ZM27.6162 17.95L27.9285 17.5596L27.7466 17.414L27.5181 17.4597L27.6162 17.95ZM25.0962 19.28L24.8088 18.8707L24.8025 18.8753L25.0962 19.28ZM18.1312 25.615L17.7607 25.2792L17.7595 25.2805L18.1312 25.615ZM15.4712 28.695L15.8503 29.021L15.8531 29.0177L15.4712 28.695ZM13.4412 31.075L13.8178 31.4038L13.8231 31.3978L13.8281 31.3916L13.4412 31.075ZM9.59115 35.485L9.94471 35.8386L9.95668 35.8266L9.96781 35.8138L9.59115 35.485ZM8.29615 36.745L8.63477 37.1131L8.64297 37.1052L8.29615 36.745ZM6.05615 37.41L5.99773 37.9066L6.00514 37.9074L6.05615 37.41ZM4.90115 36.15L5.40091 36.1656L5.40115 36.1578V36.15H4.90115ZM5.07615 34.855L4.59795 34.7089L4.59647 34.7139L5.07615 34.855ZM6.19615 31.46L6.66039 31.6457L6.66091 31.6444L6.19615 31.46ZM16.2412 11.545L16.6644 11.8112L16.6653 11.8097L16.2412 11.545ZM22.0512 4.335L22.3814 4.71047L22.3856 4.70664L22.0512 4.335ZM25.7262 1.955L25.5375 1.49193L25.5333 1.49371L25.7262 1.955ZM29.7162 1.43L29.7774 0.933754L29.7741 0.933366L29.7162 1.43ZM33.6712 4.44L34.1342 4.25134L34.132 4.24597L33.6712 4.44ZM33.3212 10.74L33.7684 10.9636L33.7744 10.9516L33.7798 10.9392L33.3212 10.74ZM33.1112 11.02L33.3885 11.436L33.4297 11.4086L33.4647 11.3736L33.1112 11.02ZM32.8312 11.125L33.0548 10.6778L33.0362 10.6685L33.0169 10.6608L32.8312 11.125ZM32.4812 10.845H32.9812V10.8111L32.9766 10.7774L32.4812 10.845ZM32.3762 9.235L31.8762 9.22623V9.235H32.3762ZM31.9912 6.015L32.4641 5.85283L32.4629 5.84926L31.9912 6.015ZM31.1512 4.09L30.7192 4.34199L30.7245 4.35072L31.1512 4.09ZM29.4362 2.515L29.2625 2.98387L29.2727 2.98767L29.2831 2.99101L29.4362 2.515ZM27.1612 2.69L27.3434 3.15562L27.3447 3.15508L27.1612 2.69ZM23.9062 4.825L24.2399 5.1973L24.2437 5.1939L23.9062 4.825ZM20.4762 8.745L20.8915 9.0234L20.8922 9.02235L20.4762 8.745ZM17.3262 13.68L17.7575 13.933L17.7587 13.9309L17.3262 13.68ZM22.2612 39.16L22.7239 39.3493L23.3857 37.7317L21.9685 38.7546L22.2612 39.16ZM15.4362 44.76L15.077 44.4121L15.607 45.2299L15.4362 44.76ZM19.2512 42.415L19.5598 42.8084L19.5635 42.8054L19.2512 42.415ZM21.3862 40.525L21.0221 40.1823L21.0172 40.1875L21.0124 40.1928L21.3862 40.525ZM8.14914 31.1638C7.58227 32.5338 7.21602 33.6949 7.06727 34.637L8.05503 34.793C8.18628 33.9617 8.52003 32.8829 9.07316 31.5462L8.14914 31.1638ZM7.92185 35.0613C8.20182 34.7696 8.41463 34.5481 8.56032 34.3966C8.63318 34.3208 8.68914 34.2626 8.72826 34.2221C8.74785 34.2018 8.76304 34.186 8.77394 34.1748C8.78625 34.1621 8.79022 34.158 8.78971 34.1586L8.0826 33.4514C8.05447 33.4796 7.75647 33.7896 7.20046 34.3687L7.92185 35.0613ZM8.82109 34.1241C10.2919 32.3498 11.8093 30.5055 13.3733 28.5914L12.599 27.9586C11.0363 29.8711 9.52041 31.7135 8.05121 33.4859L8.82109 34.1241ZM13.3718 28.5932C16.1099 25.2751 18.7825 22.5461 21.3889 20.4011L20.7534 19.6289C18.0865 21.8239 15.3691 24.6016 12.6005 27.9568L13.3718 28.5932ZM21.3868 20.4028C22.3748 19.5986 23.4566 18.8158 24.6328 18.0548L24.0895 17.2152C22.8857 17.9942 21.7742 18.7981 20.7555 19.6272L21.3868 20.4028ZM24.6328 18.0548C25.7189 17.352 26.9557 17.0701 28.3676 17.2221L28.4747 16.2279C26.8533 16.0533 25.3834 16.378 24.0895 17.2152L24.6328 18.0548ZM28.3697 17.2223C29.5433 17.3438 30.3613 17.931 30.8724 19.0351L31.7799 18.6149C31.1244 17.199 30.0057 16.3862 28.4726 16.2277L28.3697 17.2223ZM30.8697 19.0292C31.2347 19.8449 31.4467 20.8293 31.4915 21.9942L32.4908 21.9558C32.4423 20.694 32.211 19.5784 31.7826 18.6208L30.8697 19.0292ZM31.4913 21.9851C31.5363 24.2161 31.0404 26.8138 29.9802 29.7871L30.9221 30.1229C32.0086 27.0762 32.5393 24.3539 32.4911 21.9649L31.4913 21.9851ZM29.9512 29.955C29.9512 29.911 29.9573 29.8772 29.9586 29.8697C29.9609 29.8566 29.9632 29.8465 29.9644 29.8417C29.9668 29.832 29.9687 29.8255 29.9688 29.8251C29.9693 29.8234 29.9685 29.8261 29.9653 29.8357C29.9593 29.8538 29.9491 29.8831 29.9342 29.9251C29.9045 30.0085 29.8593 30.1326 29.7982 30.2984C29.6762 30.6295 29.4929 31.1213 29.248 31.7744L30.1843 32.1256C30.4294 31.472 30.6136 30.978 30.7366 30.6441C30.798 30.4774 30.8447 30.3492 30.8763 30.2605C30.8919 30.2165 30.9047 30.1798 30.914 30.1519C30.9185 30.1386 30.9234 30.1233 30.9277 30.1087C30.9298 30.1019 30.9332 30.0901 30.9365 30.0764C30.9381 30.0696 30.9408 30.0579 30.9434 30.0435C30.9449 30.0346 30.9512 29.9997 30.9512 29.955H29.9512ZM29.9085 32.4115C30.1879 32.2951 30.3982 32.2087 30.5406 32.1517C30.6123 32.1231 30.6637 32.1031 30.697 32.0907C30.7051 32.0878 30.7114 32.0855 30.7161 32.0838C30.7185 32.083 30.7203 32.0823 30.7216 32.0819C30.7229 32.0815 30.7234 32.0813 30.7233 32.0813C30.7233 32.0813 30.7221 32.0817 30.7199 32.0824C30.7179 32.083 30.7137 32.0842 30.7078 32.0857C30.7026 32.087 30.6919 32.0897 30.6776 32.0923C30.6677 32.0941 30.6346 32.1 30.5912 32.1V31.1C30.5192 31.1 30.4606 31.1167 30.4594 31.117C30.4419 31.1215 30.4265 31.1263 30.4163 31.1296C30.395 31.1365 30.3718 31.1448 30.3497 31.153C30.3042 31.1698 30.2433 31.1936 30.1692 31.2233C30.02 31.283 29.8044 31.3716 29.5238 31.4885L29.9085 32.4115ZM30.8148 32.0472C31.29 31.8096 32.0435 31.4092 33.0706 30.8489L32.5917 29.9711C31.5655 30.5308 30.8256 30.9238 30.3675 31.1528L30.8148 32.0472ZM33.0706 30.8489C34.0957 30.2898 34.8828 29.8732 35.4348 29.5972L34.9875 28.7028C34.4195 28.9868 33.62 29.4102 32.5917 29.9711L33.0706 30.8489ZM35.454 29.5871C35.8593 29.3619 36.1404 29.2538 36.3156 29.2219L36.1367 28.2381C35.7986 28.2995 35.403 28.4714 34.9683 28.7129L35.454 29.5871ZM36.4498 29.1772C36.3997 29.2023 36.3576 29.2121 36.3394 29.2159C36.3182 29.2203 36.3024 29.2218 36.2955 29.2223C36.2823 29.2234 36.2785 29.2227 36.2899 29.2231C36.3114 29.2239 36.3529 29.2271 36.4203 29.2352C36.553 29.2511 36.7498 29.2814 37.0155 29.3276L37.1868 28.3424C36.9158 28.2953 36.6985 28.2614 36.5395 28.2423C36.4611 28.2329 36.3874 28.2259 36.3243 28.2237C36.2934 28.2227 36.2549 28.2224 36.2147 28.2256C36.1912 28.2275 36.0995 28.2343 36.0025 28.2828L36.4498 29.1772ZM36.6539 28.6114C36.5989 28.7214 36.536 28.8198 36.4657 28.9077L37.2466 29.5323C37.3629 29.3869 37.4634 29.2286 37.5484 29.0586L36.6539 28.6114ZM36.5026 28.8664C36.4239 28.9452 36.3329 29.0263 36.2288 29.1096L36.8535 29.8904C36.9827 29.7871 37.1018 29.6815 37.2097 29.5736L36.5026 28.8664ZM36.2288 29.1096C36.1162 29.1996 36.036 29.2592 35.9838 29.294L36.5385 30.126C36.6263 30.0675 36.7327 29.987 36.8535 29.8904L36.2288 29.1096ZM36.0375 29.2628C35.9481 29.3075 35.8077 29.4044 35.6555 29.5131L36.2368 30.3269C36.3163 30.2701 36.3785 30.2268 36.4248 30.196C36.4773 30.161 36.4922 30.1535 36.4848 30.1572L36.0375 29.2628ZM35.6688 29.504C35.601 29.5492 35.5471 29.5842 35.5062 29.6098C35.4857 29.6225 35.4698 29.6321 35.458 29.639C35.4453 29.6464 35.4409 29.6486 35.4425 29.6478L35.8898 30.5422C35.9694 30.5024 36.0893 30.4255 36.2235 30.336L35.6688 29.504ZM35.3928 29.6763C32.5691 31.5199 30.6141 32.7766 29.5236 33.4495L30.0487 34.3005C31.1515 33.6201 33.1165 32.3568 35.9395 30.5137L35.3928 29.6763ZM29.5262 33.4479C28.3838 34.1433 27.4214 35.0964 26.6375 36.2966L27.4748 36.8434C28.1843 35.757 29.0419 34.9134 30.0461 34.3021L29.5262 33.4479ZM26.6388 36.2947C25.9355 37.3609 24.9986 38.5165 23.8226 39.7617L24.5497 40.4483C25.7537 39.1735 26.7301 37.9724 27.4735 36.8453L26.6388 36.2947ZM23.8216 39.7628C21.7119 42.0101 19.0666 44.094 15.8784 46.0115L16.3939 46.8685C19.6457 44.9126 22.3671 42.7733 24.5507 40.4472L23.8216 39.7628ZM15.88 46.0106C14.5942 46.7776 13.5148 47.101 12.6239 47.0605L12.5784 48.0595C13.7408 48.1123 15.0181 47.6891 16.3923 46.8694L15.88 46.0106ZM12.6368 47.0613C12.3109 47.038 12.0981 47.0159 11.9834 46.9968L11.819 47.9832C11.9842 48.0107 12.2381 48.0353 12.5655 48.0587L12.6368 47.0613ZM11.9834 46.9968C11.9177 46.9859 11.7842 46.9425 11.5648 46.8328L11.1175 47.7272C11.3648 47.8508 11.6046 47.9475 11.819 47.9832L11.9834 46.9968ZM11.5442 46.8231C11.4473 46.78 11.3861 46.7188 11.3431 46.6219L10.4292 47.0281C10.5729 47.3512 10.815 47.5933 11.1381 47.7369L11.5442 46.8231ZM11.3022 46.5476C11.2915 46.5316 11.2776 46.5043 11.2662 46.4587L10.2961 46.7013C10.3313 46.8423 10.3875 46.9784 10.4701 47.1024L11.3022 46.5476ZM11.2662 46.4587C11.2525 46.4038 11.2462 46.3512 11.2462 46.3H10.2462C10.2462 46.4355 10.2631 46.5695 10.2961 46.7013L11.2662 46.4587ZM11.2205 46.4581C11.2599 46.3399 11.2812 46.2166 11.2812 46.09H10.2812C10.2812 46.1034 10.2791 46.1201 10.2718 46.1419L11.2205 46.4581ZM11.2555 46.2481C11.269 46.2076 11.2933 46.1487 11.3334 46.0686L10.4389 45.6214C10.3856 45.728 10.34 45.8324 10.3068 45.9319L11.2555 46.2481ZM11.3022 46.1224C11.3543 46.0442 11.4019 45.9665 11.4384 45.8936L10.5439 45.4464C10.5337 45.4668 10.5113 45.5058 10.4701 45.5676L11.3022 46.1224ZM11.4384 45.8936C11.4369 45.8965 11.4418 45.8867 11.4597 45.8598C11.4764 45.8348 11.4998 45.8019 11.5312 45.76L10.7312 45.16C10.6596 45.2554 10.589 45.3562 10.5439 45.4464L11.4384 45.8936ZM11.4847 45.8136C11.565 45.7332 11.6582 45.629 11.7184 45.5086L10.8239 45.0614C10.8291 45.0512 10.8328 45.0455 10.8333 45.0448C10.8338 45.044 10.8324 45.0461 10.8282 45.0514C10.8194 45.0624 10.8035 45.0806 10.7776 45.1064L11.4847 45.8136ZM11.6247 45.6386C11.6466 45.6166 11.6947 45.5748 11.7812 45.51L11.1812 44.71C11.0809 44.7852 10.989 44.86 10.9176 44.9314L11.6247 45.6386ZM11.8502 45.4474C12.5882 44.6401 13.1919 44.0736 13.6652 43.7294L13.0771 42.9206C12.5238 43.323 11.8674 43.9465 11.1121 44.7726L11.8502 45.4474ZM13.6736 43.7232C16.0967 41.8825 18.4494 40.1471 20.7318 38.5169L20.1505 37.7031C17.8596 39.3395 15.499 41.0808 13.0687 42.9268L13.6736 43.7232ZM20.7326 38.5163C21.7952 37.754 23.3265 36.7329 25.3305 35.4512L24.7918 34.6088C22.7825 35.8938 21.2338 36.926 20.1497 37.7037L20.7326 38.5163ZM25.3385 35.446C25.97 35.025 26.4515 34.4789 26.7719 33.8114L25.8704 33.3786C25.6308 33.8777 25.2723 34.2883 24.7838 34.614L25.3385 35.446ZM26.771 33.8133C28.3307 30.5994 29.3172 27.4562 29.7219 24.3853L28.7304 24.2547C28.3418 27.2037 27.3916 30.2439 25.8713 33.3767L26.771 33.8133ZM29.7221 24.3838C29.9385 22.7001 29.8695 21.1735 29.4985 19.8134L28.5338 20.0766C28.8628 21.2831 28.9338 22.6732 28.7302 24.2562L29.7221 24.3838ZM29.4969 19.8076C29.3517 19.2994 29.1817 18.8746 28.9708 18.5733L28.1515 19.1467C28.2672 19.312 28.4006 19.6106 28.5354 20.0824L29.4969 19.8076ZM28.9708 18.5733C28.764 18.2778 28.4009 17.9375 27.9285 17.5596L27.3038 18.3404C27.7648 18.7092 28.0317 18.9755 28.1515 19.1467L28.9708 18.5733ZM27.5181 17.4597C26.8232 17.5987 25.9086 18.0986 24.8088 18.8708L25.3835 19.6892C26.477 18.9214 27.2425 18.5346 27.7142 18.4403L27.5181 17.4597ZM24.8025 18.8753C22.3909 20.6249 20.0439 22.7606 17.7607 25.2792L18.5016 25.9508C20.745 23.4761 23.0414 21.3884 25.3898 19.6847L24.8025 18.8753ZM17.7595 25.2805C17.1242 25.9864 16.2335 27.0178 15.0892 28.3723L15.8531 29.0177C16.9954 27.6655 17.8781 26.6436 18.5028 25.9495L17.7595 25.2805ZM15.092 28.3691C13.9509 29.6965 13.2691 30.4958 13.0542 30.7584L13.8281 31.3916C14.0333 31.1409 14.7048 30.3535 15.8503 29.0209L15.092 28.3691ZM13.0645 30.7462C11.7812 32.2162 10.4978 33.6862 9.21449 35.1562L9.96781 35.8138C11.2511 34.3438 12.5345 32.8738 13.8178 31.4038L13.0645 30.7462ZM9.2376 35.1314C9.00805 35.361 8.57958 35.7779 7.94933 36.3848L8.64297 37.1052C9.27273 36.4987 9.70759 36.0757 9.94471 35.8386L9.2376 35.1314ZM7.95762 36.377C7.49632 36.8014 6.89902 36.9938 6.10717 36.9126L6.00514 37.9074C7.03328 38.0128 7.92931 37.7619 8.63468 37.113L7.95762 36.377ZM6.11457 36.9134C5.78945 36.8752 5.62512 36.7789 5.54098 36.6871C5.46148 36.6004 5.392 36.4505 5.40091 36.1656L4.4014 36.1344C4.38697 36.5961 4.49832 37.0296 4.80383 37.3629C5.10468 37.6911 5.52952 37.8515 5.99773 37.9066L6.11457 36.9134ZM5.40115 36.15C5.40115 35.7251 5.45425 35.3415 5.55584 34.9961L4.59647 34.7139C4.46472 35.1619 4.40115 35.6416 4.40115 36.15H5.40115ZM5.55433 35.0011C6.06836 33.3188 6.43601 32.2066 6.66039 31.6457L5.73191 31.2743C5.48962 31.88 5.11061 33.0312 4.59798 34.7089L5.55433 35.0011ZM6.66091 31.6444C9.47354 24.5547 12.8082 17.9439 16.6644 11.8112L15.8179 11.2788C11.9274 17.4661 8.56543 24.132 5.73139 31.2756L6.66091 31.6444ZM16.6653 11.8097C18.5861 8.7319 20.493 6.37132 22.3814 4.71044L21.7209 3.95955C19.736 5.70534 17.7696 8.15143 15.817 11.2803L16.6653 11.8097ZM22.3856 4.70664C23.5158 3.6895 24.6938 2.92866 25.9191 2.41629L25.5333 1.49371C24.1918 2.05467 22.9198 2.8805 21.7167 3.96335L22.3856 4.70664ZM25.9148 2.41805C27.0939 1.93768 28.3388 1.7727 29.6582 1.92663L29.7741 0.933366C28.2935 0.760632 26.8784 0.945652 25.5375 1.49195L25.9148 2.41805ZM29.6549 1.92623C31.3649 2.13735 32.5322 3.02357 33.2103 4.63403L34.132 4.24597C33.3167 2.30976 31.8474 1.18932 29.7774 0.933765L29.6549 1.92623ZM33.2081 4.62865C33.916 6.36608 33.8256 8.32347 32.8625 10.5408L33.7798 10.9392C34.8233 8.53652 34.9664 6.29392 34.1342 4.25135L33.2081 4.62865ZM32.8739 10.5164C32.8567 10.5509 32.8225 10.6015 32.7576 10.6664L33.4647 11.3736C33.5864 11.2518 33.6923 11.1158 33.7684 10.9636L32.8739 10.5164ZM32.8338 10.604C32.7771 10.6418 32.7553 10.6501 32.7606 10.6481C32.7639 10.6468 32.7903 10.6369 32.8334 10.6333C32.8766 10.6297 32.9607 10.6307 33.0548 10.6778L32.6075 11.5722C32.8295 11.6832 33.0412 11.6108 33.1117 11.5844C33.2103 11.5474 33.3052 11.4915 33.3885 11.436L32.8338 10.604ZM33.0169 10.6608C32.9712 10.6425 32.9374 10.6267 32.9133 10.6138C32.8885 10.6006 32.8798 10.5936 32.881 10.5946C32.8812 10.5947 32.9032 10.6118 32.927 10.65C32.9531 10.6917 32.9812 10.7589 32.9812 10.845H31.9812C31.9812 11.1158 32.1504 11.2907 32.2563 11.3754C32.3703 11.4666 32.5097 11.5349 32.6455 11.5892L33.0169 10.6608ZM32.9766 10.7774C32.9099 10.2882 32.8762 9.7742 32.8762 9.235H31.8762C31.8762 9.8158 31.9125 10.3751 31.9857 10.9126L32.9766 10.7774ZM32.8761 9.24377C32.8999 7.88364 32.7703 6.74586 32.4641 5.85284L31.5182 6.17716C31.772 6.91747 31.899 7.92636 31.8762 9.22623L32.8761 9.24377ZM32.4629 5.84926C32.156 4.97586 31.8622 4.2947 31.5778 3.82927L30.7245 4.35072C30.9534 4.7253 31.2196 5.32747 31.5194 6.18074L32.4629 5.84926ZM31.583 3.83806C31.0567 2.93571 30.4009 2.29989 29.5892 2.03898L29.2831 2.99101C29.7781 3.1501 30.2656 3.56428 30.7193 4.34193L31.583 3.83806ZM29.6098 2.04612C28.8239 1.75505 27.9311 1.84852 26.9776 2.22492L27.3447 3.15508C28.1645 2.83147 28.7884 2.80828 29.2625 2.98387L29.6098 2.04612ZM26.979 2.22438C25.8344 2.67224 24.6982 3.4227 23.5686 4.45609L24.2437 5.1939C25.3075 4.22063 26.3412 3.54776 27.3434 3.15562L26.979 2.22438ZM23.5724 4.45271C22.1902 5.69188 21.0186 7.02999 20.0601 8.46765L20.8922 9.02235C21.8004 7.66 22.9154 6.38479 24.2399 5.19728L23.5724 4.45271ZM20.0608 8.4666C18.6358 10.5925 17.5786 12.2482 16.8936 13.4291L17.7587 13.9309C18.4271 12.7785 19.4699 11.1442 20.8915 9.0234L20.0608 8.4666ZM16.8949 13.427C13.639 18.9784 10.7237 24.8912 8.1486 31.1651L9.07371 31.5449C11.6319 25.3121 14.5266 19.4416 17.7574 13.933L16.8949 13.427ZM21.9685 38.7546C18.8576 41 16.5545 42.887 15.077 44.4121L15.7953 45.1079C17.2111 43.6463 19.458 41.8 22.5538 39.5654L21.9685 38.7546ZM15.607 45.2299C16.7075 44.8297 18.0282 44.0101 19.5598 42.8084L18.9425 42.0216C17.4408 43.1999 16.2182 43.9436 15.2653 44.2901L15.607 45.2299ZM19.5635 42.8054C20.6136 41.9653 21.3554 41.3121 21.7599 40.8572L21.0124 40.1928C20.6702 40.5779 19.9887 41.1847 18.9388 42.0246L19.5635 42.8054ZM21.7503 40.8677C22.1664 40.4256 22.4911 39.9183 22.7239 39.3493L21.7984 38.9707C21.6112 39.4283 21.3526 39.8311 21.0221 40.1823L21.7503 40.8677ZM41.8163 23.34L41.3567 23.143L41.1929 23.5253L41.539 23.756L41.8163 23.34ZM42.0613 23.445L41.94 23.9301L42.235 24.0038L42.4362 23.7758L42.0613 23.445ZM42.6213 22.815L42.9749 23.1686L42.9899 23.1535L43.0036 23.1373L42.6213 22.815ZM47.8013 16.62L47.4174 16.2996L47.4172 16.2999L47.8013 16.62ZM53.5413 9.76L53.9241 10.0817L53.9252 10.0804L53.5413 9.76ZM60.5413 2.55L60.8531 2.94093L60.8587 2.93636L60.5413 2.55ZM62.8163 0.974999L63.0719 1.4048L63.077 1.40164L62.8163 0.974999ZM65.6513 0.414998L65.5852 0.910612L65.5942 0.911804L65.6031 0.912673L65.6513 0.414998ZM67.1563 1.045L66.7659 1.35735L66.7712 1.36396L66.7767 1.37039L67.1563 1.045ZM67.5063 2.585L68.0021 2.64967L68.0042 2.63401L68.0052 2.61826L67.5063 2.585ZM67.1563 4.09L67.6226 4.2705L67.6255 4.26288L67.6282 4.25517L67.1563 4.09ZM64.9513 9.585L65.4039 9.79758L65.4065 9.7919L64.9513 9.585ZM61.5913 16.515L61.1427 16.2941L61.1414 16.2969L61.5913 16.515ZM58.2663 23.515L58.7189 23.7277L58.7213 23.7224L58.2663 23.515ZM51.6513 39.545L51.1769 39.3869L51.1748 39.3934L51.6513 39.545ZM50.2513 44.725L49.7676 44.5983L49.7513 44.6606V44.725H50.2513ZM50.2163 45.705L49.7167 45.6865L49.7009 46.1118L50.1182 46.1953L50.2163 45.705ZM50.8113 45.88L50.6532 46.3543L50.6532 46.3543L50.8113 45.88ZM51.4413 46.125L51.8885 46.3486L52.1121 45.9014L51.6649 45.6778L51.4413 46.125ZM51.2663 46.405V45.905H51.0592L50.9128 46.0514L51.2663 46.405ZM50.8113 46.65L50.69 46.1649L50.6632 46.1716L50.6372 46.1813L50.8113 46.65ZM48.8863 46.615L49.173 46.2054L49.166 46.2005L49.1588 46.1958L48.8863 46.615ZM48.6063 41.785L49.0925 41.9017L49.0939 41.8956L48.6063 41.785ZM53.3313 27.47L52.8734 27.269L52.8709 27.2751L53.3313 27.47ZM54.6963 24.39L54.2418 24.1817L54.2398 24.186L54.6963 24.39ZM56.0263 21.52L56.4787 21.7329L56.481 21.7279L56.0263 21.52ZM57.4963 18.405L57.0458 18.1881L57.0458 18.1881L57.4963 18.405ZM58.8613 15.465L58.411 15.2476L58.4066 15.2568L58.4025 15.2662L58.8613 15.465ZM60.0513 12.98L59.604 12.7564L59.5999 12.765L60.0513 12.98ZM61.4163 10.145L60.9667 9.92597L60.9623 9.93547L61.4163 10.145ZM62.6063 7.625L63.0615 7.83191L63.0632 7.82807L62.6063 7.625ZM64.0763 3.74L63.7228 3.38645L63.6446 3.46456L63.6067 3.56832L64.0763 3.74ZM64.2513 2.9L64.7439 2.98567L64.8458 2.4H64.2513V2.9ZM63.6213 3.11L63.7794 3.58434L63.8429 3.56317L63.8987 3.52602L63.6213 3.11ZM63.3413 3.285L63.6413 3.685L63.6476 3.68031L63.6537 3.67543L63.3413 3.285ZM63.1313 3.46L62.7778 3.10644L62.7778 3.10645L63.1313 3.46ZM62.9213 3.67L62.5678 3.31644L62.5482 3.33603L62.5309 3.35765L62.9213 3.67ZM62.7463 3.88L62.3927 3.52642L62.3877 3.53161L62.7463 3.88ZM58.0913 8.78L57.7169 8.44841L57.7102 8.45633L58.0913 8.78ZM51.6863 16.34L51.3046 16.017L51.3044 16.0173L51.6863 16.34ZM45.3863 23.76L45.0067 23.4346L45.0057 23.4358L45.3863 23.76ZM40.8713 28.555L40.5112 28.208L40.5049 28.2148L40.8713 28.555ZM39.1563 29.64L39.0916 29.1442L39.0856 29.145L39.1563 29.64ZM37.6163 29.675L37.7085 29.1836L37.6986 29.1817L37.6887 29.1803L37.6163 29.675ZM36.5663 28.1L36.086 27.961L36.0851 27.9643L36.5663 28.1ZM37.5463 25.51L37.099 25.2863L37.0942 25.2965L37.5463 25.51ZM42.5863 15.22L43.0355 15.4395L43.0364 15.4378L42.5863 15.22ZM43.2163 13.4L43.7113 13.4707L43.9346 11.9072L42.8522 13.0573L43.2163 13.4ZM42.6213 14.03L42.2678 13.6764L42.2433 13.7009L42.2225 13.7284L42.6213 14.03ZM40.9763 16.235L40.5719 15.9409L40.5675 15.9471L40.5632 15.9533L40.9763 16.235ZM39.6113 18.265L39.1953 17.9876L39.1953 17.9876L39.6113 18.265ZM38.1413 20.68L37.7022 20.4405L37.6968 20.451L38.1413 20.68ZM37.0563 22.99L37.5159 23.187L37.5166 23.1853L37.0563 22.99ZM36.8463 23.305L37.0532 23.7602L37.09 23.7435L37.1237 23.721L36.8463 23.305ZM36.0413 23.375L35.6413 23.675L35.6626 23.7034L35.6878 23.7286L36.0413 23.375ZM36.0413 21.45L35.5697 21.284L35.5658 21.2951L35.5624 21.3063L36.0413 21.45ZM37.4063 18.23L36.9649 17.9952L36.9638 17.9971L37.4063 18.23ZM44.3363 7.87L43.9546 7.54703L43.9495 7.55303L43.9446 7.55919L44.3363 7.87ZM45.1763 6.995L44.8533 6.61331L44.8451 6.62028L44.8372 6.6276L45.1763 6.995ZM47.2763 6.33L47.2324 6.82806L47.2396 6.82871L47.2469 6.82914L47.2763 6.33ZM48.1863 6.575L47.909 6.99102L47.9258 7.00225L47.9435 7.01208L48.1863 6.575ZM48.6063 7.135L48.1239 7.26656L48.1315 7.29414L48.1421 7.3207L48.6063 7.135ZM48.6413 8.045L48.1499 7.95285L48.1491 7.9571L48.6413 8.045ZM48.1163 9.865L47.6548 9.67268L47.653 9.67699L48.1163 9.865ZM46.3663 13.855L45.9171 13.6354L45.9151 13.6396L46.3663 13.855ZM44.1963 18.3L43.748 18.0786L43.7469 18.0808L44.1963 18.3ZM41.539 23.756C41.663 23.8387 41.799 23.8948 41.94 23.9301L42.1826 22.9599C42.137 22.9485 42.1097 22.9346 42.0937 22.924L41.539 23.756ZM42.4362 23.7758C42.6111 23.5776 42.7448 23.4265 42.8375 23.3222C42.9387 23.2084 42.9767 23.1667 42.9749 23.1686L42.2678 22.4614C42.2298 22.4994 42.0258 22.7296 41.6864 23.1142L42.4362 23.7758ZM43.0036 23.1373C44.0079 21.9461 45.7354 19.8801 48.1854 16.9401L47.4172 16.2999C44.9672 19.2399 43.2414 21.3039 42.239 22.4927L43.0036 23.1373ZM48.1852 16.9404C50.6584 13.9772 52.5713 11.6911 53.9241 10.0817L53.1586 9.43827C51.8047 11.0489 49.8909 13.3361 47.4174 16.2996L48.1852 16.9404ZM53.9252 10.0804C56.6228 6.84791 58.9313 4.47378 60.8531 2.94089L60.2295 2.15911C58.2314 3.75289 55.8732 6.18542 53.1574 9.43964L53.9252 10.0804ZM60.8587 2.93636C61.4893 2.41834 62.2263 1.90753 63.0718 1.40477L62.5608 0.545231C61.6797 1.06913 60.9 1.60832 60.2239 2.16363L60.8587 2.93636ZM63.077 1.40164C63.8115 0.952777 64.6396 0.784527 65.5852 0.910612L65.7174 -0.0806159C64.563 -0.23453 63.5011 -0.0294463 62.5556 0.548358L63.077 1.40164ZM65.6031 0.912673C66.2723 0.977432 66.61 1.16248 66.7659 1.35735L67.5467 0.73265C67.1426 0.227519 66.477 -0.00743486 65.6995 -0.0826769L65.6031 0.912673ZM66.7767 1.37039C66.9313 1.55084 67.0506 1.90394 67.0074 2.55174L68.0052 2.61826C68.0554 1.86605 67.9413 1.19249 67.5359 0.719602L66.7767 1.37039ZM67.0105 2.52033C66.9446 3.02595 66.8353 3.49365 66.6844 3.92482L67.6282 4.25517C67.804 3.75302 67.9281 3.21738 68.0021 2.64967L67.0105 2.52033ZM66.69 3.9095C65.5684 6.80703 64.8389 8.62389 64.4961 9.3781L65.4065 9.7919C65.7637 9.00611 66.5042 7.15964 67.6226 4.2705L66.69 3.9095ZM64.4987 9.37243C63.7775 10.9081 62.6591 13.2147 61.1427 16.2941L62.0399 16.7359C63.5568 13.6553 64.6785 11.3419 65.4039 9.79757L64.4987 9.37243ZM61.1414 16.2969C59.6476 19.3777 58.5372 21.7154 57.8114 23.3076L58.7213 23.7224C59.4421 22.1413 60.5483 19.8123 62.0412 16.7331L61.1414 16.2969ZM57.8138 23.3023C54.8921 29.5196 52.6786 34.8821 51.177 39.3869L52.1257 39.7031C53.6107 35.2479 55.8071 29.9237 58.7188 23.7277L57.8138 23.3023ZM51.1748 39.3934C51.0065 39.9225 50.5357 41.6657 49.7676 44.5983L50.735 44.8517C51.5069 41.9043 51.9694 40.1942 52.1278 39.6966L51.1748 39.3934ZM49.7513 44.725C49.7513 44.7249 49.749 44.7975 49.7429 44.9697C49.7371 45.1327 49.7283 45.3716 49.7167 45.6865L50.716 45.7235C50.7389 45.1041 50.7513 44.7606 50.7513 44.725H49.7513ZM50.1182 46.1953C50.2009 46.2118 50.3725 46.2608 50.6532 46.3543L50.9694 45.4057C50.6901 45.3126 50.465 45.2448 50.3144 45.2147L50.1182 46.1953ZM50.6532 46.3543C50.9267 46.4455 51.1099 46.5183 51.2177 46.5722L51.6649 45.6778C51.4927 45.5917 51.2559 45.5012 50.9694 45.4057L50.6532 46.3543ZM50.9941 45.9014C50.9494 45.9907 50.9199 46.0438 50.9036 46.07C50.8941 46.0852 50.8982 46.0764 50.9141 46.0582C50.9214 46.0498 50.9446 46.0239 50.9826 45.9963C51.0024 45.9818 51.0342 45.9611 51.0771 45.9431C51.1198 45.9251 51.1849 45.905 51.2663 45.905V46.905C51.4262 46.905 51.5351 46.8309 51.5708 46.805C51.6168 46.7715 51.6491 46.7368 51.6667 46.7168C51.703 46.6753 51.7319 46.6315 51.7516 46.6C51.7935 46.5329 51.8398 46.446 51.8885 46.3486L50.9941 45.9014ZM50.9128 46.0514C50.8702 46.094 50.8036 46.1365 50.69 46.1649L50.9326 47.1351C51.1924 47.0701 51.4291 46.9493 51.6199 46.7586L50.9128 46.0514ZM50.6372 46.1813C49.8895 46.459 49.4448 46.3956 49.173 46.2054L48.5996 47.0246C49.2611 47.4877 50.0998 47.4476 50.9854 47.1187L50.6372 46.1813ZM49.1588 46.1958C48.9001 46.0276 48.6863 45.6569 48.6863 44.865H47.6863C47.6863 45.7997 47.9392 46.5957 48.6138 47.0342L49.1588 46.1958ZM48.6863 44.865C48.6863 44.0287 48.8187 43.0426 49.0925 41.9017L48.1201 41.6683C47.8339 42.8607 47.6863 43.928 47.6863 44.865H48.6863ZM49.0939 41.8956C50.113 37.4022 51.678 32.6589 53.7918 27.6649L52.8709 27.2751C50.7379 32.3145 49.1529 37.1144 48.1187 41.6744L49.0939 41.8956ZM53.7891 27.671C54.2086 26.7155 54.6632 25.6898 55.1528 24.594L54.2398 24.186C53.7494 25.2835 53.294 26.3112 52.8735 27.269L53.7891 27.671ZM55.1508 24.5983C55.6637 23.4793 56.1063 22.5242 56.4787 21.7329L55.5739 21.3071C55.1996 22.1024 54.7556 23.0607 54.2418 24.1817L55.1508 24.5983ZM56.481 21.7279C56.8525 20.9154 57.3409 19.8804 57.9468 18.6219L57.0458 18.1881C56.4384 19.4496 55.9468 20.4913 55.5716 21.3121L56.481 21.7279ZM57.9468 18.6219C58.5544 17.36 59.0128 16.3729 59.3201 15.6638L58.4025 15.2662C58.1032 15.9571 57.6515 16.93 57.0458 18.1881L57.9468 18.6219ZM59.3116 15.6824C59.6388 15.0046 60.0358 14.1755 60.5027 13.195L59.5999 12.765C59.1334 13.7445 58.7372 14.572 58.411 15.2476L59.3116 15.6824ZM60.4985 13.2036C60.9906 12.2194 61.4479 11.2697 61.8703 10.3545L60.9623 9.93547C60.5447 10.8403 60.092 11.7806 59.6041 12.7564L60.4985 13.2036ZM61.8658 10.364C62.3107 9.45073 62.7093 8.60665 63.0615 7.8319L62.1511 7.4181C61.8033 8.18335 61.4086 9.01927 60.9668 9.92601L61.8658 10.364ZM63.0632 7.82807C63.2586 7.38857 63.7556 6.07337 64.5459 3.91168L63.6067 3.56832C62.8103 5.74663 62.3274 7.02143 62.1494 7.42193L63.0632 7.82807ZM64.4299 4.09355C64.4893 4.03408 64.5197 3.97334 64.5283 3.95622C64.5414 3.92996 64.5506 3.90657 64.5561 3.89134C64.5675 3.86039 64.5765 3.82935 64.5832 3.80436C64.5971 3.75256 64.6118 3.68761 64.627 3.61448C64.6579 3.46621 64.697 3.25553 64.7439 2.98567L63.7587 2.81433C63.7123 3.08114 63.6755 3.27879 63.6481 3.41052C63.6341 3.47739 63.624 3.52035 63.6176 3.54439C63.6141 3.55732 63.6139 3.55617 63.6173 3.54709C63.6188 3.5428 63.6242 3.52835 63.6339 3.50901C63.639 3.49882 63.6662 3.443 63.7228 3.38645L64.4299 4.09355ZM64.2513 2.4C64.0663 2.4 63.8868 2.4373 63.7156 2.50576L64.087 3.43424C64.1492 3.40936 64.203 3.4 64.2513 3.4V2.4ZM63.7156 2.50576C63.5809 2.55964 63.4531 2.6212 63.344 2.69398L63.8987 3.52602C63.9295 3.50546 63.9884 3.47369 64.087 3.43424L63.7156 2.50576ZM63.4632 2.63566C63.305 2.68837 63.1544 2.79422 63.029 2.89456L63.6537 3.67543C63.7018 3.63691 63.7382 3.61127 63.7638 3.59525C63.7916 3.57785 63.7954 3.57902 63.7794 3.58434L63.4632 2.63566ZM63.0413 2.885C62.941 2.9602 62.8492 3.03503 62.7778 3.10644L63.4849 3.81356C63.5068 3.79164 63.5549 3.7498 63.6413 3.685L63.0413 2.885ZM62.7778 3.10645C62.7777 3.10649 62.7777 3.10654 62.7776 3.10658C62.7776 3.10663 62.7775 3.10667 62.7775 3.10672C62.7774 3.10677 62.7774 3.10681 62.7773 3.10686C62.7773 3.10691 62.7772 3.10695 62.7772 3.107C62.7772 3.10705 62.7771 3.10709 62.7771 3.10714C62.777 3.10719 62.777 3.10724 62.7769 3.10728C62.7769 3.10733 62.7768 3.10738 62.7768 3.10743C62.7767 3.10748 62.7767 3.10752 62.7766 3.10757C62.7766 3.10762 62.7765 3.10767 62.7765 3.10772C62.7764 3.10777 62.7764 3.10782 62.7763 3.10787C62.7763 3.10791 62.7762 3.10796 62.7762 3.10801C62.7761 3.10806 62.7761 3.10811 62.776 3.10816C62.776 3.10821 62.7759 3.10826 62.7759 3.10831C62.7758 3.10836 62.7758 3.10841 62.7757 3.10846C62.7757 3.10851 62.7756 3.10857 62.7756 3.10862C62.7755 3.10867 62.7755 3.10872 62.7754 3.10877C62.7754 3.10882 62.7753 3.10887 62.7753 3.10892C62.7752 3.10898 62.7752 3.10903 62.7751 3.10908C62.7751 3.10913 62.775 3.10918 62.775 3.10924C62.7749 3.10929 62.7749 3.10934 62.7748 3.10939C62.7748 3.10945 62.7747 3.1095 62.7746 3.10955C62.7746 3.1096 62.7745 3.10966 62.7745 3.10971C62.7744 3.10976 62.7744 3.10982 62.7743 3.10987C62.7743 3.10993 62.7742 3.10998 62.7742 3.11003C62.7741 3.11009 62.7741 3.11014 62.774 3.1102C62.774 3.11025 62.7739 3.11031 62.7738 3.11036C62.7738 3.11042 62.7737 3.11047 62.7737 3.11053C62.7736 3.11058 62.7736 3.11064 62.7735 3.11069C62.7735 3.11075 62.7734 3.1108 62.7733 3.11086C62.7733 3.11091 62.7732 3.11097 62.7732 3.11103C62.7731 3.11108 62.7731 3.11114 62.773 3.1112C62.7729 3.11125 62.7729 3.11131 62.7728 3.11137C62.7728 3.11142 62.7727 3.11148 62.7727 3.11154C62.7726 3.1116 62.7725 3.11165 62.7725 3.11171C62.7724 3.11177 62.7724 3.11183 62.7723 3.11188C62.7723 3.11194 62.7722 3.112 62.7721 3.11206C62.7721 3.11212 62.772 3.11218 62.772 3.11223C62.7719 3.11229 62.7718 3.11235 62.7718 3.11241C62.7717 3.11247 62.7717 3.11253 62.7716 3.11259C62.7716 3.11265 62.7715 3.11271 62.7714 3.11277C62.7714 3.11283 62.7713 3.11289 62.7713 3.11295C62.7712 3.11301 62.7711 3.11307 62.7711 3.11313C62.771 3.11319 62.771 3.11325 62.7709 3.11331C62.7708 3.11337 62.7708 3.11343 62.7707 3.11349C62.7706 3.11356 62.7706 3.11362 62.7705 3.11368C62.7705 3.11374 62.7704 3.1138 62.7703 3.11386C62.7703 3.11393 62.7702 3.11399 62.7702 3.11405C62.7701 3.11411 62.77 3.11418 62.77 3.11424C62.7699 3.1143 62.7698 3.11436 62.7698 3.11443C62.7697 3.11449 62.7696 3.11455 62.7696 3.11462C62.7695 3.11468 62.7695 3.11474 62.7694 3.11481C62.7693 3.11487 62.7693 3.11493 62.7692 3.115C62.7691 3.11506 62.7691 3.11513 62.769 3.11519C62.7689 3.11526 62.7689 3.11532 62.7688 3.11539C62.7688 3.11545 62.7687 3.11551 62.7686 3.11558C62.7686 3.11565 62.7685 3.11571 62.7684 3.11578C62.7684 3.11584 62.7683 3.11591 62.7682 3.11597C62.7682 3.11604 62.7681 3.11611 62.768 3.11617C62.768 3.11624 62.7679 3.1163 62.7678 3.11637C62.7678 3.11644 62.7677 3.1165 62.7676 3.11657C62.7676 3.11664 62.7675 3.1167 62.7674 3.11677C62.7674 3.11684 62.7673 3.11691 62.7672 3.11697C62.7672 3.11704 62.7671 3.11711 62.767 3.11718C62.767 3.11725 62.7669 3.11731 62.7668 3.11738C62.7668 3.11745 62.7667 3.11752 62.7666 3.11759C62.7665 3.11766 62.7665 3.11773 62.7664 3.11779C62.7663 3.11786 62.7663 3.11793 62.7662 3.118C62.7661 3.11807 62.7661 3.11814 62.766 3.11821C62.7659 3.11828 62.7659 3.11835 62.7658 3.11842C62.7657 3.11849 62.7656 3.11856 62.7656 3.11863C62.7655 3.1187 62.7654 3.11877 62.7654 3.11884C62.7653 3.11892 62.7652 3.11899 62.7651 3.11906C62.7651 3.11913 62.765 3.1192 62.7649 3.11927C62.7649 3.11934 62.7648 3.11941 62.7647 3.11949C62.7646 3.11956 62.7646 3.11963 62.7645 3.1197C62.7644 3.11978 62.7644 3.11985 62.7643 3.11992C62.7642 3.11999 62.7641 3.12007 62.7641 3.12014C62.764 3.12021 62.7639 3.12028 62.7638 3.12036C62.7638 3.12043 62.7637 3.12051 62.7636 3.12058C62.7635 3.12065 62.7635 3.12073 62.7634 3.1208C62.7633 3.12087 62.7633 3.12095 62.7632 3.12102C62.7631 3.1211 62.763 3.12117 62.763 3.12125C62.7629 3.12132 62.7628 3.1214 62.7627 3.12147C62.7627 3.12155 62.7626 3.12162 62.7625 3.1217C62.7624 3.12177 62.7624 3.12185 62.7623 3.12192C62.7622 3.122 62.7621 3.12208 62.762 3.12215C62.762 3.12223 62.7619 3.12231 62.7618 3.12238C62.7617 3.12246 62.7617 3.12254 62.7616 3.12261C62.7615 3.12269 62.7614 3.12277 62.7614 3.12284C62.7613 3.12292 62.7612 3.123 62.7611 3.12308C62.761 3.12315 62.761 3.12323 62.7609 3.12331C62.7608 3.12339 62.7607 3.12347 62.7607 3.12354C62.7606 3.12362 62.7605 3.1237 62.7604 3.12378C62.7603 3.12386 62.7603 3.12394 62.7602 3.12402C62.7601 3.12409 62.76 3.12417 62.7599 3.12425C62.7599 3.12433 62.7598 3.12441 62.7597 3.12449C62.7596 3.12457 62.7595 3.12465 62.7595 3.12473C62.7594 3.12481 62.7593 3.12489 62.7592 3.12497C62.7591 3.12505 62.7591 3.12513 62.759 3.12521C62.7589 3.1253 62.7588 3.12538 62.7587 3.12546C62.7587 3.12554 62.7586 3.12562 62.7585 3.1257C62.7584 3.12578 62.7583 3.12586 62.7583 3.12595C62.7582 3.12603 62.7581 3.12611 62.758 3.12619C62.7579 3.12628 62.7578 3.12636 62.7578 3.12644C62.7577 3.12652 62.7576 3.12661 62.7575 3.12669C62.7574 3.12677 62.7573 3.12685 62.7573 3.12694C62.7572 3.12702 62.7571 3.1271 62.757 3.12719C62.7569 3.12727 62.7568 3.12736 62.7568 3.12744C62.7567 3.12752 62.7566 3.12761 62.7565 3.12769C62.7564 3.12778 62.7563 3.12786 62.7563 3.12795C62.7562 3.12803 62.7561 3.12812 62.756 3.1282C62.7559 3.12829 62.7558 3.12837 62.7557 3.12846C62.7557 3.12854 62.7556 3.12863 62.7555 3.12871C62.7554 3.1288 62.7553 3.12889 62.7552 3.12897C62.7551 3.12906 62.7551 3.12914 62.755 3.12923C62.7549 3.12932 62.7548 3.1294 62.7547 3.12949C62.7546 3.12958 62.7545 3.12966 62.7544 3.12975C62.7544 3.12984 62.7543 3.12993 62.7542 3.13001C62.7541 3.1301 62.754 3.13019 62.7539 3.13028C62.7538 3.13037 62.7537 3.13045 62.7537 3.13054C62.7536 3.13063 62.7535 3.13072 62.7534 3.13081C62.7533 3.1309 62.7532 3.13098 62.7531 3.13107C62.753 3.13116 62.7529 3.13125 62.7529 3.13134C62.7528 3.13143 62.7527 3.13152 62.7526 3.13161C62.7525 3.1317 62.7524 3.13179 62.7523 3.13188C62.7522 3.13197 62.7521 3.13206 62.7521 3.13215C62.752 3.13224 62.7519 3.13233 62.7518 3.13242C62.7517 3.13251 62.7516 3.1326 62.7515 3.13269C62.7514 3.13279 62.7513 3.13288 62.7512 3.13297C62.7511 3.13306 62.751 3.13315 62.751 3.13324C62.7509 3.13334 62.7508 3.13343 62.7507 3.13352C62.7506 3.13361 62.7505 3.1337 62.7504 3.1338C62.7503 3.13389 62.7502 3.13398 62.7501 3.13408C62.75 3.13417 62.7499 3.13426 62.7498 3.13435C62.7498 3.13445 62.7497 3.13454 62.7496 3.13464C62.7495 3.13473 62.7494 3.13482 62.7493 3.13492C62.7492 3.13501 62.7491 3.1351 62.749 3.1352C62.7489 3.13529 62.7488 3.13539 62.7487 3.13548C62.7486 3.13558 62.7485 3.13567 62.7484 3.13577C62.7483 3.13586 62.7482 3.13596 62.7481 3.13605C62.7481 3.13615 62.748 3.13624 62.7479 3.13634C62.7478 3.13644 62.7477 3.13653 62.7476 3.13663C62.7475 3.13672 62.7474 3.13682 62.7473 3.13692C62.7472 3.13701 62.7471 3.13711 62.747 3.13721C62.7469 3.1373 62.7468 3.1374 62.7467 3.1375C62.7466 3.13759 62.7465 3.13769 62.7464 3.13779C62.7463 3.13789 62.7462 3.13799 62.7461 3.13808C62.746 3.13818 62.7459 3.13828 62.7458 3.13838C62.7457 3.13848 62.7456 3.13857 62.7455 3.13867C62.7454 3.13877 62.7453 3.13887 62.7452 3.13897C62.7451 3.13907 62.745 3.13917 62.7449 3.13927C62.7448 3.13937 62.7447 3.13947 62.7446 3.13957C62.7445 3.13966 62.7444 3.13976 62.7443 3.13986C62.7442 3.13996 62.7441 3.14006 62.744 3.14017C62.7439 3.14027 62.7438 3.14037 62.7437 3.14047C62.7436 3.14057 62.7435 3.14067 62.7434 3.14077C62.7433 3.14087 62.7432 3.14097 62.7431 3.14107C62.743 3.14118 62.7429 3.14128 62.7428 3.14138C62.7427 3.14148 62.7426 3.14158 62.7425 3.14168C62.7424 3.14179 62.7423 3.14189 62.7422 3.14199C62.7421 3.14209 62.742 3.1422 62.7419 3.1423C62.7418 3.1424 62.7417 3.14251 62.7416 3.14261C62.7415 3.14271 62.7414 3.14282 62.7413 3.14292C62.7412 3.14302 62.7411 3.14313 62.741 3.14323C62.7409 3.14333 62.7408 3.14344 62.7407 3.14354C62.7406 3.14365 62.7404 3.14375 62.7403 3.14386C62.7402 3.14396 62.7401 3.14407 62.74 3.14417C62.7399 3.14428 62.7398 3.14438 62.7397 3.14449C62.7396 3.14459 62.7395 3.1447 62.7394 3.1448C62.7393 3.14491 62.7392 3.14502 62.7391 3.14512C62.739 3.14523 62.7389 3.14533 62.7388 3.14544C62.7387 3.14555 62.7385 3.14565 62.7384 3.14576C62.7383 3.14587 62.7382 3.14597 62.7381 3.14608C62.738 3.14619 62.7379 3.1463 62.7378 3.1464C62.7377 3.14651 62.7376 3.14662 62.7375 3.14673C62.7374 3.14683 62.7373 3.14694 62.7372 3.14705C62.737 3.14716 62.7369 3.14727 62.7368 3.14738C62.7367 3.14748 62.7366 3.14759 62.7365 3.1477C62.7364 3.14781 62.7363 3.14792 62.7362 3.14803C62.7361 3.14814 62.736 3.14825 62.7358 3.14836C62.7357 3.14847 62.7356 3.14858 62.7355 3.14869C62.7354 3.1488 62.7353 3.14891 62.7352 3.14902C62.7351 3.14913 62.735 3.14924 62.7349 3.14935C62.7347 3.14946 62.7346 3.14957 62.7345 3.14968C62.7344 3.14979 62.7343 3.1499 62.7342 3.15002C62.7341 3.15013 62.734 3.15024 62.7339 3.15035C62.7337 3.15046 62.7336 3.15057 62.7335 3.15069C62.7334 3.1508 62.7333 3.15091 62.7332 3.15102C62.7331 3.15114 62.733 3.15125 62.7328 3.15136C62.7327 3.15147 62.7326 3.15159 62.7325 3.1517C62.7324 3.15181 62.7323 3.15193 62.7322 3.15204C62.732 3.15215 62.7319 3.15227 62.7318 3.15238C62.7317 3.1525 62.7316 3.15261 62.7315 3.15272C62.7314 3.15284 62.7312 3.15295 62.7311 3.15307C62.731 3.15318 62.7309 3.1533 62.7308 3.15341C62.7307 3.15353 62.7306 3.15364 62.7304 3.15376C62.7303 3.15387 62.7302 3.15399 62.7301 3.1541C62.73 3.15422 62.7299 3.15434 62.7297 3.15445C62.7296 3.15457 62.7295 3.15468 62.7294 3.1548C62.7293 3.15492 62.7292 3.15503 62.7291 3.15515C62.7289 3.15527 62.7288 3.15538 62.7287 3.1555C62.7286 3.15562 62.7285 3.15574 62.7283 3.15585C62.7282 3.15597 62.7281 3.15609 62.728 3.15621C62.7279 3.15632 62.7278 3.15644 62.7276 3.15656C62.7275 3.15668 62.7274 3.1568 62.7273 3.15692C62.7272 3.15703 62.727 3.15715 62.7269 3.15727C62.7268 3.15739 62.7267 3.15751 62.7266 3.15763C62.7265 3.15775 62.7263 3.15787 62.7262 3.15799C62.7261 3.15811 62.726 3.15823 62.7259 3.15835C62.7257 3.15847 62.7256 3.15859 62.7255 3.15871C62.7254 3.15883 62.7253 3.15895 62.7251 3.15907C62.725 3.15919 62.7249 3.15931 62.7248 3.15943C62.7246 3.15955 62.7245 3.15967 62.7244 3.1598C62.7243 3.15992 62.7242 3.16004 62.724 3.16016C62.7239 3.16028 62.7238 3.1604 62.7237 3.16053C62.7236 3.16065 62.7234 3.16077 62.7233 3.16089C62.7232 3.16102 62.7231 3.16114 62.7229 3.16126C62.7228 3.16138 62.7227 3.16151 62.7226 3.16163C62.7224 3.16175 62.7223 3.16188 62.7222 3.162C62.7221 3.16212 62.722 3.16225 62.7218 3.16237C62.7217 3.1625 62.7216 3.16262 62.7215 3.16274C62.7213 3.16287 62.7212 3.16299 62.7211 3.16312C62.721 3.16324 62.7208 3.16337 62.7207 3.16349C62.7206 3.16362 62.7205 3.16374 62.7203 3.16387C62.7202 3.16399 62.7201 3.16412 62.72 3.16424C62.7198 3.16437 62.7197 3.16449 62.7196 3.16462C62.7195 3.16475 62.7193 3.16487 62.7192 3.165C62.7191 3.16513 62.7189 3.16525 62.7188 3.16538C62.7187 3.16551 62.7186 3.16563 62.7184 3.16576C62.7183 3.16589 62.7182 3.16601 62.7181 3.16614C62.7179 3.16627 62.7178 3.1664 62.7177 3.16652C62.7175 3.16665 62.7174 3.16678 62.7173 3.16691C62.7172 3.16704 62.717 3.16717 62.7169 3.16729C62.7168 3.16742 62.7167 3.16755 62.7165 3.16768C62.7164 3.16781 62.7163 3.16794 62.7161 3.16807C62.716 3.1682 62.7159 3.16833 62.7157 3.16846C62.7156 3.16858 62.7155 3.16871 62.7154 3.16884C62.7152 3.16897 62.7151 3.1691 62.715 3.16924C62.7148 3.16937 62.7147 3.1695 62.7146 3.16963C62.7144 3.16976 62.7143 3.16989 62.7142 3.17002C62.7141 3.17015 62.7139 3.17028 62.7138 3.17041C62.7137 3.17054 62.7135 3.17068 62.7134 3.17081C62.7133 3.17094 62.7131 3.17107 62.713 3.1712C62.7129 3.17134 62.7127 3.17147 62.7126 3.1716C62.7125 3.17173 62.7123 3.17186 62.7122 3.172C62.7121 3.17213 62.7119 3.17226 62.7118 3.1724C62.7117 3.17253 62.7115 3.17266 62.7114 3.1728C62.7113 3.17293 62.7111 3.17306 62.711 3.1732C62.7109 3.17333 62.7107 3.17347 62.7106 3.1736C62.7105 3.17373 62.7103 3.17387 62.7102 3.174C62.7101 3.17414 62.7099 3.17427 62.7098 3.17441C62.7097 3.17454 62.7095 3.17468 62.7094 3.17481C62.7093 3.17495 62.7091 3.17508 62.709 3.17522C62.7088 3.17535 62.7087 3.17549 62.7086 3.17563C62.7084 3.17576 62.7083 3.1759 62.7082 3.17604C62.708 3.17617 62.7079 3.17631 62.7078 3.17644C62.7076 3.17658 62.7075 3.17672 62.7073 3.17686C62.7072 3.17699 62.7071 3.17713 62.7069 3.17727C62.7068 3.1774 62.7067 3.17754 62.7065 3.17768C62.7064 3.17782 62.7062 3.17796 62.7061 3.17809C62.706 3.17823 62.7058 3.17837 62.7057 3.17851C62.7056 3.17865 62.7054 3.17879 62.7053 3.17892C62.7051 3.17906 62.705 3.1792 62.7049 3.17934C62.7047 3.17948 62.7046 3.17962 62.7044 3.17976C62.7043 3.1799 62.7042 3.18004 62.704 3.18018C62.7039 3.18032 62.7037 3.18046 62.7036 3.1806C62.7035 3.18074 62.7033 3.18088 62.7032 3.18102C62.703 3.18116 62.7029 3.1813 62.7028 3.18144C62.7026 3.18158 62.7025 3.18173 62.7023 3.18187C62.7022 3.18201 62.7021 3.18215 62.7019 3.18229C62.7018 3.18243 62.7016 3.18258 62.7015 3.18272C62.7013 3.18286 62.7012 3.183 62.7011 3.18314C62.7009 3.18329 62.7008 3.18343 62.7006 3.18357C62.7005 3.18371 62.7003 3.18386 62.7002 3.184C62.7001 3.18414 62.6999 3.18429 62.6998 3.18443C62.6996 3.18457 62.6995 3.18472 62.6993 3.18486C62.6992 3.18501 62.6991 3.18515 62.6989 3.18529C62.6988 3.18544 62.6986 3.18558 62.6985 3.18573C62.6983 3.18587 62.6982 3.18602 62.698 3.18616C62.6979 3.18631 62.6978 3.18645 62.6976 3.1866C62.6975 3.18674 62.6973 3.18689 62.6972 3.18703C62.697 3.18718 62.6969 3.18732 62.6967 3.18747C62.6966 3.18762 62.6964 3.18776 62.6963 3.18791C62.6961 3.18805 62.696 3.1882 62.6959 3.18835C62.6957 3.18849 62.6956 3.18864 62.6954 3.18879C62.6953 3.18894 62.6951 3.18908 62.695 3.18923C62.6948 3.18938 62.6947 3.18953 62.6945 3.18967C62.6944 3.18982 62.6942 3.18997 62.6941 3.19012C62.6939 3.19026 62.6938 3.19041 62.6936 3.19056C62.6935 3.19071 62.6933 3.19086 62.6932 3.19101C62.693 3.19116 62.6929 3.19131 62.6927 3.19145C62.6926 3.1916 62.6924 3.19175 62.6923 3.1919C62.6921 3.19205 62.692 3.1922 62.6918 3.19235C62.6917 3.1925 62.6915 3.19265 62.6914 3.1928C62.6912 3.19295 62.6911 3.1931 62.6909 3.19325C62.6908 3.1934 62.6906 3.19355 62.6905 3.19371C62.6903 3.19386 62.6902 3.19401 62.69 3.19416C62.6899 3.19431 62.6897 3.19446 62.6896 3.19461C62.6894 3.19477 62.6893 3.19492 62.6891 3.19507C62.689 3.19522 62.6888 3.19537 62.6887 3.19553C62.6885 3.19568 62.6884 3.19583 62.6882 3.19598C62.6881 3.19614 62.6879 3.19629 62.6878 3.19644C62.6876 3.1966 62.6875 3.19675 62.6873 3.1969C62.6871 3.19706 62.687 3.19721 62.6868 3.19736C62.6867 3.19752 62.6865 3.19767 62.6864 3.19782C62.6862 3.19798 62.6861 3.19813 62.6859 3.19829C62.6858 3.19844 62.6856 3.1986 62.6854 3.19875C62.6853 3.19891 62.6851 3.19906 62.685 3.19922C62.6848 3.19937 62.6847 3.19953 62.6845 3.19968C62.6844 3.19984 62.6842 3.19999 62.6841 3.20015C62.6839 3.20031 62.6837 3.20046 62.6836 3.20062C62.6834 3.20078 62.6833 3.20093 62.6831 3.20109C62.683 3.20124 62.6828 3.2014 62.6826 3.20156C62.6825 3.20172 62.6823 3.20187 62.6822 3.20203C62.682 3.20219 62.6819 3.20235 62.6817 3.2025C62.6815 3.20266 62.6814 3.20282 62.6812 3.20298C62.6811 3.20313 62.6809 3.20329 62.6807 3.20345C62.6806 3.20361 62.6804 3.20377 62.6803 3.20393C62.6801 3.20409 62.68 3.20425 62.6798 3.2044C62.6796 3.20456 62.6795 3.20472 62.6793 3.20488C62.6792 3.20504 62.679 3.2052 62.6788 3.20536C62.6787 3.20552 62.6785 3.20568 62.6784 3.20584C62.6782 3.206 62.678 3.20616 62.6779 3.20632C62.6777 3.20648 62.6776 3.20664 62.6774 3.2068C62.6772 3.20697 62.6771 3.20713 62.6769 3.20729C62.6768 3.20745 62.6766 3.20761 62.6764 3.20777C62.6763 3.20793 62.6761 3.2081 62.6759 3.20826C62.6758 3.20842 62.6756 3.20858 62.6755 3.20874C62.6753 3.20891 62.6751 3.20907 62.675 3.20923C62.6748 3.20939 62.6746 3.20956 62.6745 3.20972C62.6743 3.20988 62.6742 3.21005 62.674 3.21021C62.6738 3.21037 62.6737 3.21054 62.6735 3.2107C62.6733 3.21087 62.6732 3.21103 62.673 3.21119C62.6728 3.21136 62.6727 3.21152 62.6725 3.21169C62.6724 3.21185 62.6722 3.21202 62.672 3.21218C62.6719 3.21234 62.6717 3.21251 62.6715 3.21268C62.6714 3.21284 62.6712 3.21301 62.671 3.21317C62.6709 3.21334 62.6707 3.2135 62.6705 3.21367C62.6704 3.21383 62.6702 3.214 62.67 3.21417C62.6699 3.21433 62.6697 3.2145 62.6695 3.21467C62.6694 3.21483 62.6692 3.215 62.669 3.21517C62.6689 3.21533 62.6687 3.2155 62.6685 3.21567C62.6684 3.21584 62.6682 3.216 62.668 3.21617C62.6679 3.21634 62.6677 3.21651 62.6675 3.21667C62.6674 3.21684 62.6672 3.21701 62.667 3.21718C62.6669 3.21735 62.6667 3.21752 62.6665 3.21768C62.6663 3.21785 62.6662 3.21802 62.666 3.21819C62.6658 3.21836 62.6657 3.21853 62.6655 3.2187C62.6653 3.21887 62.6652 3.21904 62.665 3.21921C62.6648 3.21938 62.6647 3.21955 62.6645 3.21972C62.6643 3.21989 62.6641 3.22006 62.664 3.22023C62.6638 3.2204 62.6636 3.22057 62.6635 3.22074C62.6633 3.22091 62.6631 3.22108 62.6629 3.22125C62.6628 3.22143 62.6626 3.2216 62.6624 3.22177C62.6623 3.22194 62.6621 3.22211 62.6619 3.22228C62.6617 3.22246 62.6616 3.22263 62.6614 3.2228C62.6612 3.22297 62.6611 3.22315 62.6609 3.22332C62.6607 3.22349 62.6605 3.22366 62.6604 3.22384C62.6602 3.22401 62.66 3.22418 62.6598 3.22436C62.6597 3.22453 62.6595 3.2247 62.6593 3.22488C62.6592 3.22505 62.659 3.22522 62.6588 3.2254C62.6586 3.22557 62.6585 3.22575 62.6583 3.22592C62.6581 3.2261 62.6579 3.22627 62.6578 3.22645C62.6576 3.22662 62.6574 3.2268 62.6572 3.22697C62.6571 3.22715 62.6569 3.22732 62.6567 3.2275C62.6565 3.22767 62.6564 3.22785 62.6562 3.22802C62.656 3.2282 62.6558 3.22838 62.6556 3.22855C62.6555 3.22873 62.6553 3.2289 62.6551 3.22908C62.6549 3.22926 62.6548 3.22943 62.6546 3.22961C62.6544 3.22979 62.6542 3.22997 62.6541 3.23014C62.6539 3.23032 62.6537 3.2305 62.6535 3.23068C62.6533 3.23085 62.6532 3.23103 62.653 3.23121C62.6528 3.23139 62.6526 3.23157 62.6525 3.23174C62.6523 3.23192 62.6521 3.2321 62.6519 3.23228C62.6517 3.23246 62.6516 3.23264 62.6514 3.23282C62.6512 3.233 62.651 3.23317 62.6508 3.23335C62.6507 3.23353 62.6505 3.23371 62.6503 3.23389C62.6501 3.23407 62.6499 3.23425 62.6498 3.23443C62.6496 3.23461 62.6494 3.23479 62.6492 3.23497C62.649 3.23515 62.6489 3.23533 62.6487 3.23552C62.6485 3.2357 62.6483 3.23588 62.6481 3.23606C62.648 3.23624 62.6478 3.23642 62.6476 3.2366C62.6474 3.23678 62.6472 3.23697 62.6471 3.23715C62.6469 3.23733 62.6467 3.23751 62.6465 3.23769C62.6463 3.23788 62.6461 3.23806 62.646 3.23824C62.6458 3.23842 62.6456 3.23861 62.6454 3.23879C62.6452 3.23897 62.645 3.23916 62.6449 3.23934C62.6447 3.23952 62.6445 3.23971 62.6443 3.23989C62.6441 3.24007 62.6439 3.24026 62.6438 3.24044C62.6436 3.24063 62.6434 3.24081 62.6432 3.241C62.643 3.24118 62.6428 3.24136 62.6427 3.24155C62.6425 3.24173 62.6423 3.24192 62.6421 3.2421C62.6419 3.24229 62.6417 3.24247 62.6415 3.24266C62.6414 3.24285 62.6412 3.24303 62.641 3.24322C62.6408 3.2434 62.6406 3.24359 62.6404 3.24377C62.6402 3.24396 62.6401 3.24415 62.6399 3.24433C62.6397 3.24452 62.6395 3.24471 62.6393 3.24489C62.6391 3.24508 62.6389 3.24527 62.6387 3.24546C62.6386 3.24564 62.6384 3.24583 62.6382 3.24602C62.638 3.24621 62.6378 3.24639 62.6376 3.24658C62.6374 3.24677 62.6372 3.24696 62.6371 3.24715C62.6369 3.24733 62.6367 3.24752 62.6365 3.24771C62.6363 3.2479 62.6361 3.24809 62.6359 3.24828C62.6357 3.24847 62.6355 3.24866 62.6354 3.24885C62.6352 3.24904 62.635 3.24922 62.6348 3.24941C62.6346 3.2496 62.6344 3.24979 62.6342 3.24998C62.634 3.25017 62.6338 3.25036 62.6336 3.25056C62.6335 3.25075 62.6333 3.25094 62.6331 3.25113C62.6329 3.25132 62.6327 3.25151 62.6325 3.2517C62.6323 3.25189 62.6321 3.25208 62.6319 3.25227C62.6317 3.25247 62.6315 3.25266 62.6314 3.25285C62.6312 3.25304 62.631 3.25323 62.6308 3.25343C62.6306 3.25362 62.6304 3.25381 62.6302 3.254C62.63 3.2542 62.6298 3.25439 62.6296 3.25458C62.6294 3.25477 62.6292 3.25497 62.629 3.25516C62.6288 3.25535 62.6287 3.25555 62.6285 3.25574C62.6283 3.25594 62.6281 3.25613 62.6279 3.25632C62.6277 3.25652 62.6275 3.25671 62.6273 3.25691C62.6271 3.2571 62.6269 3.25729 62.6267 3.25749C62.6265 3.25768 62.6263 3.25788 62.6261 3.25807C62.6259 3.25827 62.6257 3.25846 62.6255 3.25866C62.6253 3.25886 62.6252 3.25905 62.625 3.25925C62.6248 3.25944 62.6246 3.25964 62.6244 3.25984C62.6242 3.26003 62.624 3.26023 62.6238 3.26042C62.6236 3.26062 62.6234 3.26082 62.6232 3.26101C62.623 3.26121 62.6228 3.26141 62.6226 3.26161C62.6224 3.2618 62.6222 3.262 62.622 3.2622C62.6218 3.2624 62.6216 3.26259 62.6214 3.26279C62.6212 3.26299 62.621 3.26319 62.6208 3.26339C62.6206 3.26358 62.6204 3.26378 62.6202 3.26398C62.62 3.26418 62.6198 3.26438 62.6196 3.26458C62.6194 3.26478 62.6192 3.26498 62.619 3.26518C62.6188 3.26537 62.6186 3.26557 62.6184 3.26577C62.6182 3.26597 62.618 3.26617 62.6178 3.26637C62.6176 3.26657 62.6174 3.26677 62.6172 3.26697C62.617 3.26717 62.6168 3.26738 62.6166 3.26758C62.6164 3.26778 62.6162 3.26798 62.616 3.26818C62.6158 3.26838 62.6156 3.26858 62.6154 3.26878C62.6152 3.26898 62.615 3.26919 62.6148 3.26939C62.6146 3.26959 62.6144 3.26979 62.6142 3.26999C62.614 3.2702 62.6138 3.2704 62.6136 3.2706C62.6134 3.2708 62.6132 3.27101 62.613 3.27121C62.6128 3.27141 62.6126 3.27162 62.6124 3.27182C62.6122 3.27202 62.612 3.27223 62.6118 3.27243C62.6116 3.27263 62.6114 3.27284 62.6112 3.27304C62.611 3.27325 62.6108 3.27345 62.6105 3.27365C62.6103 3.27386 62.6101 3.27406 62.6099 3.27427C62.6097 3.27447 62.6095 3.27468 62.6093 3.27488C62.6091 3.27509 62.6089 3.27529 62.6087 3.2755C62.6085 3.2757 62.6083 3.27591 62.6081 3.27611C62.6079 3.27632 62.6077 3.27653 62.6075 3.27673C62.6073 3.27694 62.6071 3.27715 62.6068 3.27735C62.6066 3.27756 62.6064 3.27776 62.6062 3.27797C62.606 3.27818 62.6058 3.27839 62.6056 3.27859C62.6054 3.2788 62.6052 3.27901 62.605 3.27921C62.6048 3.27942 62.6046 3.27963 62.6044 3.27984C62.6042 3.28005 62.6039 3.28025 62.6037 3.28046C62.6035 3.28067 62.6033 3.28088 62.6031 3.28109C62.6029 3.2813 62.6027 3.28151 62.6025 3.28171C62.6023 3.28192 62.6021 3.28213 62.6019 3.28234C62.6017 3.28255 62.6014 3.28276 62.6012 3.28297C62.601 3.28318 62.6008 3.28339 62.6006 3.2836C62.6004 3.28381 62.6002 3.28402 62.6 3.28423C62.5998 3.28444 62.5995 3.28465 62.5993 3.28486C62.5991 3.28507 62.5989 3.28528 62.5987 3.2855C62.5985 3.28571 62.5983 3.28592 62.5981 3.28613C62.5979 3.28634 62.5976 3.28655 62.5974 3.28676C62.5972 3.28698 62.597 3.28719 62.5968 3.2874C62.5966 3.28761 62.5964 3.28782 62.5962 3.28804C62.596 3.28825 62.5957 3.28846 62.5955 3.28868C62.5953 3.28889 62.5951 3.2891 62.5949 3.28931C62.5947 3.28953 62.5945 3.28974 62.5942 3.28996C62.594 3.29017 62.5938 3.29038 62.5936 3.2906C62.5934 3.29081 62.5932 3.29102 62.593 3.29124C62.5927 3.29145 62.5925 3.29167 62.5923 3.29188C62.5921 3.2921 62.5919 3.29231 62.5917 3.29253C62.5915 3.29274 62.5912 3.29296 62.591 3.29317C62.5908 3.29339 62.5906 3.2936 62.5904 3.29382C62.5902 3.29404 62.5899 3.29425 62.5897 3.29447C62.5895 3.29468 62.5893 3.2949 62.5891 3.29512C62.5889 3.29533 62.5887 3.29555 62.5884 3.29577C62.5882 3.29598 62.588 3.2962 62.5878 3.29642C62.5876 3.29663 62.5873 3.29685 62.5871 3.29707C62.5869 3.29729 62.5867 3.2975 62.5865 3.29772C62.5863 3.29794 62.586 3.29816 62.5858 3.29838C62.5856 3.2986 62.5854 3.29881 62.5852 3.29903C62.585 3.29925 62.5847 3.29947 62.5845 3.29969C62.5843 3.29991 62.5841 3.30013 62.5839 3.30035C62.5836 3.30057 62.5834 3.30078 62.5832 3.301C62.583 3.30122 62.5828 3.30144 62.5825 3.30166C62.5823 3.30188 62.5821 3.3021 62.5819 3.30232C62.5817 3.30254 62.5814 3.30277 62.5812 3.30299C62.581 3.30321 62.5808 3.30343 62.5806 3.30365C62.5803 3.30387 62.5801 3.30409 62.5799 3.30431C62.5797 3.30453 62.5794 3.30476 62.5792 3.30498C62.579 3.3052 62.5788 3.30542 62.5786 3.30564C62.5783 3.30587 62.5781 3.30609 62.5779 3.30631C62.5777 3.30653 62.5774 3.30676 62.5772 3.30698C62.577 3.3072 62.5768 3.30742 62.5766 3.30765C62.5763 3.30787 62.5761 3.30809 62.5759 3.30832C62.5757 3.30854 62.5754 3.30877 62.5752 3.30899C62.575 3.30921 62.5748 3.30944 62.5745 3.30966C62.5743 3.30989 62.5741 3.31011 62.5739 3.31034C62.5736 3.31056 62.5734 3.31078 62.5732 3.31101C62.573 3.31123 62.5727 3.31146 62.5725 3.31169C62.5723 3.31191 62.5721 3.31214 62.5718 3.31236C62.5716 3.31259 62.5714 3.31281 62.5712 3.31304C62.5709 3.31327 62.5707 3.31349 62.5705 3.31372C62.5703 3.31395 62.57 3.31417 62.5698 3.3144C62.5696 3.31463 62.5693 3.31485 62.5691 3.31508C62.5689 3.31531 62.5687 3.31553 62.5684 3.31576C62.5682 3.31599 62.568 3.31622 62.5678 3.31644L63.2749 4.02355C63.2751 4.02332 63.2753 4.0231 63.2755 4.02287C63.2758 4.02264 63.276 4.02241 63.2762 4.02219C63.2765 4.02196 63.2767 4.02173 63.2769 4.02151C63.2771 4.02128 63.2774 4.02105 63.2776 4.02083C63.2778 4.0206 63.278 4.02037 63.2783 4.02015C63.2785 4.01992 63.2787 4.01969 63.2789 4.01947C63.2792 4.01924 63.2794 4.01902 63.2796 4.01879C63.2798 4.01857 63.2801 4.01834 63.2803 4.01812C63.2805 4.01789 63.2807 4.01767 63.281 4.01744C63.2812 4.01722 63.2814 4.01699 63.2816 4.01677C63.2819 4.01654 63.2821 4.01632 63.2823 4.0161C63.2825 4.01587 63.2828 4.01565 63.283 4.01543C63.2832 4.0152 63.2834 4.01498 63.2837 4.01475C63.2839 4.01453 63.2841 4.01431 63.2843 4.01409C63.2846 4.01386 63.2848 4.01364 63.285 4.01342C63.2852 4.0132 63.2854 4.01297 63.2857 4.01275C63.2859 4.01253 63.2861 4.01231 63.2863 4.01208C63.2866 4.01186 63.2868 4.01164 63.287 4.01142C63.2872 4.0112 63.2874 4.01098 63.2877 4.01076C63.2879 4.01053 63.2881 4.01031 63.2883 4.01009C63.2885 4.00987 63.2888 4.00965 63.289 4.00943C63.2892 4.00921 63.2894 4.00899 63.2896 4.00877C63.2899 4.00855 63.2901 4.00833 63.2903 4.00811C63.2905 4.00789 63.2907 4.00767 63.291 4.00745C63.2912 4.00723 63.2914 4.00701 63.2916 4.0068C63.2918 4.00658 63.2921 4.00636 63.2923 4.00614C63.2925 4.00592 63.2927 4.0057 63.2929 4.00548C63.2931 4.00527 63.2934 4.00505 63.2936 4.00483C63.2938 4.00461 63.294 4.00439 63.2942 4.00418C63.2945 4.00396 63.2947 4.00374 63.2949 4.00352C63.2951 4.00331 63.2953 4.00309 63.2955 4.00287C63.2958 4.00266 63.296 4.00244 63.2962 4.00222C63.2964 4.00201 63.2966 4.00179 63.2968 4.00157C63.2971 4.00136 63.2973 4.00114 63.2975 4.00093C63.2977 4.00071 63.2979 4.0005 63.2981 4.00028C63.2984 4.00006 63.2986 3.99985 63.2988 3.99963C63.299 3.99942 63.2992 3.9992 63.2994 3.99899C63.2996 3.99877 63.2999 3.99856 63.3001 3.99835C63.3003 3.99813 63.3005 3.99792 63.3007 3.9977C63.3009 3.99749 63.3011 3.99728 63.3014 3.99706C63.3016 3.99685 63.3018 3.99664 63.302 3.99642C63.3022 3.99621 63.3024 3.996 63.3026 3.99578C63.3028 3.99557 63.3031 3.99536 63.3033 3.99514C63.3035 3.99493 63.3037 3.99472 63.3039 3.99451C63.3041 3.99429 63.3043 3.99408 63.3045 3.99387C63.3048 3.99366 63.305 3.99345 63.3052 3.99324C63.3054 3.99302 63.3056 3.99281 63.3058 3.9926C63.306 3.99239 63.3062 3.99218 63.3064 3.99197C63.3067 3.99176 63.3069 3.99155 63.3071 3.99134C63.3073 3.99113 63.3075 3.99092 63.3077 3.99071C63.3079 3.9905 63.3081 3.99029 63.3083 3.99008C63.3085 3.98987 63.3088 3.98966 63.309 3.98945C63.3092 3.98924 63.3094 3.98903 63.3096 3.98882C63.3098 3.98861 63.31 3.9884 63.3102 3.98819C63.3104 3.98799 63.3106 3.98778 63.3108 3.98757C63.3111 3.98736 63.3113 3.98715 63.3115 3.98694C63.3117 3.98674 63.3119 3.98653 63.3121 3.98632C63.3123 3.98611 63.3125 3.98591 63.3127 3.9857C63.3129 3.98549 63.3131 3.98529 63.3133 3.98508C63.3135 3.98487 63.3138 3.98466 63.314 3.98446C63.3142 3.98425 63.3144 3.98405 63.3146 3.98384C63.3148 3.98363 63.315 3.98343 63.3152 3.98322C63.3154 3.98302 63.3156 3.98281 63.3158 3.9826C63.316 3.9824 63.3162 3.98219 63.3164 3.98199C63.3166 3.98178 63.3168 3.98158 63.317 3.98137C63.3172 3.98117 63.3175 3.98096 63.3177 3.98076C63.3179 3.98056 63.3181 3.98035 63.3183 3.98015C63.3185 3.97994 63.3187 3.97974 63.3189 3.97954C63.3191 3.97933 63.3193 3.97913 63.3195 3.97893C63.3197 3.97872 63.3199 3.97852 63.3201 3.97832C63.3203 3.97811 63.3205 3.97791 63.3207 3.97771C63.3209 3.97751 63.3211 3.9773 63.3213 3.9771C63.3215 3.9769 63.3217 3.9767 63.3219 3.9765C63.3221 3.97629 63.3223 3.97609 63.3225 3.97589C63.3227 3.97569 63.3229 3.97549 63.3231 3.97529C63.3233 3.97508 63.3235 3.97488 63.3237 3.97468C63.3239 3.97448 63.3241 3.97428 63.3243 3.97408C63.3245 3.97388 63.3247 3.97368 63.3249 3.97348C63.3251 3.97328 63.3253 3.97308 63.3255 3.97288C63.3257 3.97268 63.3259 3.97248 63.3261 3.97228C63.3263 3.97208 63.3265 3.97188 63.3267 3.97168C63.3269 3.97149 63.3271 3.97129 63.3273 3.97109C63.3275 3.97089 63.3277 3.97069 63.3279 3.97049C63.3281 3.97029 63.3283 3.9701 63.3285 3.9699C63.3287 3.9697 63.3289 3.9695 63.3291 3.9693C63.3293 3.96911 63.3295 3.96891 63.3297 3.96871C63.3299 3.96851 63.3301 3.96832 63.3303 3.96812C63.3305 3.96792 63.3307 3.96773 63.3309 3.96753C63.3311 3.96733 63.3313 3.96714 63.3315 3.96694C63.3317 3.96675 63.3319 3.96655 63.3321 3.96635C63.3323 3.96616 63.3325 3.96596 63.3326 3.96577C63.3328 3.96557 63.333 3.96538 63.3332 3.96518C63.3334 3.96499 63.3336 3.96479 63.3338 3.9646C63.334 3.9644 63.3342 3.96421 63.3344 3.96401C63.3346 3.96382 63.3348 3.96362 63.335 3.96343C63.3352 3.96324 63.3354 3.96304 63.3356 3.96285C63.3358 3.96265 63.336 3.96246 63.3361 3.96227C63.3363 3.96207 63.3365 3.96188 63.3367 3.96169C63.3369 3.9615 63.3371 3.9613 63.3373 3.96111C63.3375 3.96092 63.3377 3.96072 63.3379 3.96053C63.3381 3.96034 63.3383 3.96015 63.3385 3.95996C63.3387 3.95976 63.3388 3.95957 63.339 3.95938C63.3392 3.95919 63.3394 3.959 63.3396 3.95881C63.3398 3.95862 63.34 3.95842 63.3402 3.95823C63.3404 3.95804 63.3406 3.95785 63.3408 3.95766C63.3409 3.95747 63.3411 3.95728 63.3413 3.95709C63.3415 3.9569 63.3417 3.95671 63.3419 3.95652C63.3421 3.95633 63.3423 3.95614 63.3425 3.95595C63.3427 3.95576 63.3428 3.95557 63.343 3.95538C63.3432 3.9552 63.3434 3.95501 63.3436 3.95482C63.3438 3.95463 63.344 3.95444 63.3442 3.95425C63.3444 3.95406 63.3445 3.95388 63.3447 3.95369C63.3449 3.9535 63.3451 3.95331 63.3453 3.95312C63.3455 3.95294 63.3457 3.95275 63.3459 3.95256C63.346 3.95238 63.3462 3.95219 63.3464 3.952C63.3466 3.95181 63.3468 3.95163 63.347 3.95144C63.3472 3.95125 63.3473 3.95107 63.3475 3.95088C63.3477 3.9507 63.3479 3.95051 63.3481 3.95032C63.3483 3.95014 63.3485 3.94995 63.3486 3.94977C63.3488 3.94958 63.349 3.9494 63.3492 3.94921C63.3494 3.94903 63.3496 3.94884 63.3498 3.94866C63.3499 3.94847 63.3501 3.94829 63.3503 3.9481C63.3505 3.94792 63.3507 3.94773 63.3509 3.94755C63.351 3.94737 63.3512 3.94718 63.3514 3.947C63.3516 3.94681 63.3518 3.94663 63.352 3.94645C63.3522 3.94626 63.3523 3.94608 63.3525 3.9459C63.3527 3.94571 63.3529 3.94553 63.3531 3.94535C63.3532 3.94517 63.3534 3.94498 63.3536 3.9448C63.3538 3.94462 63.354 3.94444 63.3542 3.94426C63.3543 3.94407 63.3545 3.94389 63.3547 3.94371C63.3549 3.94353 63.3551 3.94335 63.3552 3.94317C63.3554 3.94298 63.3556 3.9428 63.3558 3.94262C63.356 3.94244 63.3562 3.94226 63.3563 3.94208C63.3565 3.9419 63.3567 3.94172 63.3569 3.94154C63.3571 3.94136 63.3572 3.94118 63.3574 3.941C63.3576 3.94082 63.3578 3.94064 63.358 3.94046C63.3581 3.94028 63.3583 3.9401 63.3585 3.93992C63.3587 3.93974 63.3589 3.93956 63.359 3.93939C63.3592 3.93921 63.3594 3.93903 63.3596 3.93885C63.3597 3.93867 63.3599 3.93849 63.3601 3.93832C63.3603 3.93814 63.3605 3.93796 63.3606 3.93778C63.3608 3.9376 63.361 3.93743 63.3612 3.93725C63.3613 3.93707 63.3615 3.9369 63.3617 3.93672C63.3619 3.93654 63.3621 3.93636 63.3622 3.93619C63.3624 3.93601 63.3626 3.93584 63.3628 3.93566C63.3629 3.93548 63.3631 3.93531 63.3633 3.93513C63.3635 3.93495 63.3636 3.93478 63.3638 3.9346C63.364 3.93443 63.3642 3.93425 63.3643 3.93408C63.3645 3.9339 63.3647 3.93373 63.3649 3.93355C63.365 3.93338 63.3652 3.9332 63.3654 3.93303C63.3656 3.93285 63.3657 3.93268 63.3659 3.93251C63.3661 3.93233 63.3663 3.93216 63.3664 3.93198C63.3666 3.93181 63.3668 3.93164 63.367 3.93146C63.3671 3.93129 63.3673 3.93112 63.3675 3.93094C63.3676 3.93077 63.3678 3.9306 63.368 3.93043C63.3682 3.93025 63.3683 3.93008 63.3685 3.92991C63.3687 3.92974 63.3689 3.92956 63.369 3.92939C63.3692 3.92922 63.3694 3.92905 63.3695 3.92888C63.3697 3.9287 63.3699 3.92853 63.3701 3.92836C63.3702 3.92819 63.3704 3.92802 63.3706 3.92785C63.3707 3.92768 63.3709 3.92751 63.3711 3.92734C63.3712 3.92717 63.3714 3.927 63.3716 3.92683C63.3718 3.92665 63.3719 3.92648 63.3721 3.92632C63.3723 3.92615 63.3724 3.92598 63.3726 3.92581C63.3728 3.92564 63.3729 3.92547 63.3731 3.9253C63.3733 3.92513 63.3735 3.92496 63.3736 3.92479C63.3738 3.92462 63.374 3.92445 63.3741 3.92429C63.3743 3.92412 63.3745 3.92395 63.3746 3.92378C63.3748 3.92361 63.375 3.92345 63.3751 3.92328C63.3753 3.92311 63.3755 3.92294 63.3756 3.92277C63.3758 3.92261 63.376 3.92244 63.3761 3.92227C63.3763 3.92211 63.3765 3.92194 63.3766 3.92177C63.3768 3.92161 63.377 3.92144 63.3771 3.92127C63.3773 3.92111 63.3775 3.92094 63.3776 3.92078C63.3778 3.92061 63.378 3.92044 63.3781 3.92028C63.3783 3.92011 63.3785 3.91995 63.3786 3.91978C63.3788 3.91962 63.379 3.91945 63.3791 3.91929C63.3793 3.91912 63.3795 3.91896 63.3796 3.91879C63.3798 3.91863 63.38 3.91846 63.3801 3.9183C63.3803 3.91814 63.3804 3.91797 63.3806 3.91781C63.3808 3.91764 63.3809 3.91748 63.3811 3.91732C63.3813 3.91715 63.3814 3.91699 63.3816 3.91683C63.3818 3.91666 63.3819 3.9165 63.3821 3.91634C63.3822 3.91618 63.3824 3.91601 63.3826 3.91585C63.3827 3.91569 63.3829 3.91553 63.3831 3.91536C63.3832 3.9152 63.3834 3.91504 63.3835 3.91488C63.3837 3.91472 63.3839 3.91456 63.384 3.91439C63.3842 3.91423 63.3843 3.91407 63.3845 3.91391C63.3847 3.91375 63.3848 3.91359 63.385 3.91343C63.3851 3.91327 63.3853 3.91311 63.3855 3.91295C63.3856 3.91279 63.3858 3.91263 63.3859 3.91247C63.3861 3.91231 63.3863 3.91215 63.3864 3.91199C63.3866 3.91183 63.3867 3.91167 63.3869 3.91151C63.3871 3.91135 63.3872 3.91119 63.3874 3.91103C63.3875 3.91088 63.3877 3.91072 63.3879 3.91056C63.388 3.9104 63.3882 3.91024 63.3883 3.91008C63.3885 3.90993 63.3886 3.90977 63.3888 3.90961C63.389 3.90945 63.3891 3.90929 63.3893 3.90914C63.3894 3.90898 63.3896 3.90882 63.3897 3.90867C63.3899 3.90851 63.3901 3.90835 63.3902 3.9082C63.3904 3.90804 63.3905 3.90788 63.3907 3.90773C63.3908 3.90757 63.391 3.90741 63.3912 3.90726C63.3913 3.9071 63.3915 3.90695 63.3916 3.90679C63.3918 3.90663 63.3919 3.90648 63.3921 3.90632C63.3922 3.90617 63.3924 3.90601 63.3926 3.90586C63.3927 3.9057 63.3929 3.90555 63.393 3.90539C63.3932 3.90524 63.3933 3.90509 63.3935 3.90493C63.3936 3.90478 63.3938 3.90462 63.3939 3.90447C63.3941 3.90432 63.3943 3.90416 63.3944 3.90401C63.3946 3.90386 63.3947 3.9037 63.3949 3.90355C63.395 3.9034 63.3952 3.90324 63.3953 3.90309C63.3955 3.90294 63.3956 3.90278 63.3958 3.90263C63.3959 3.90248 63.3961 3.90233 63.3962 3.90218C63.3964 3.90202 63.3965 3.90187 63.3967 3.90172C63.3968 3.90157 63.397 3.90142 63.3971 3.90127C63.3973 3.90111 63.3975 3.90096 63.3976 3.90081C63.3978 3.90066 63.3979 3.90051 63.3981 3.90036C63.3982 3.90021 63.3984 3.90006 63.3985 3.89991C63.3987 3.89976 63.3988 3.89961 63.399 3.89946C63.3991 3.89931 63.3993 3.89916 63.3994 3.89901C63.3996 3.89886 63.3997 3.89871 63.3999 3.89856C63.4 3.89841 63.4002 3.89826 63.4003 3.89811C63.4004 3.89797 63.4006 3.89782 63.4007 3.89767C63.4009 3.89752 63.401 3.89737 63.4012 3.89722C63.4013 3.89708 63.4015 3.89693 63.4016 3.89678C63.4018 3.89663 63.4019 3.89648 63.4021 3.89634C63.4022 3.89619 63.4024 3.89604 63.4025 3.8959C63.4027 3.89575 63.4028 3.8956 63.403 3.89545C63.4031 3.89531 63.4033 3.89516 63.4034 3.89502C63.4035 3.89487 63.4037 3.89472 63.4038 3.89458C63.404 3.89443 63.4041 3.89428 63.4043 3.89414C63.4044 3.89399 63.4046 3.89385 63.4047 3.8937C63.4049 3.89356 63.405 3.89341 63.4051 3.89327C63.4053 3.89312 63.4054 3.89298 63.4056 3.89283C63.4057 3.89269 63.4059 3.89254 63.406 3.8924C63.4062 3.89226 63.4063 3.89211 63.4064 3.89197C63.4066 3.89182 63.4067 3.89168 63.4069 3.89154C63.407 3.89139 63.4072 3.89125 63.4073 3.89111C63.4075 3.89096 63.4076 3.89082 63.4077 3.89068C63.4079 3.89054 63.408 3.89039 63.4082 3.89025C63.4083 3.89011 63.4084 3.88997 63.4086 3.88982C63.4087 3.88968 63.4089 3.88954 63.409 3.8894C63.4092 3.88926 63.4093 3.88912 63.4094 3.88897C63.4096 3.88883 63.4097 3.88869 63.4099 3.88855C63.41 3.88841 63.4101 3.88827 63.4103 3.88813C63.4104 3.88799 63.4106 3.88785 63.4107 3.88771C63.4108 3.88757 63.411 3.88743 63.4111 3.88729C63.4113 3.88715 63.4114 3.88701 63.4115 3.88687C63.4117 3.88673 63.4118 3.88659 63.412 3.88645C63.4121 3.88631 63.4122 3.88617 63.4124 3.88603C63.4125 3.88589 63.4127 3.88575 63.4128 3.88562C63.4129 3.88548 63.4131 3.88534 63.4132 3.8852C63.4134 3.88506 63.4135 3.88492 63.4136 3.88479C63.4138 3.88465 63.4139 3.88451 63.414 3.88437C63.4142 3.88424 63.4143 3.8841 63.4145 3.88396C63.4146 3.88383 63.4147 3.88369 63.4149 3.88355C63.415 3.88341 63.4151 3.88328 63.4153 3.88314C63.4154 3.88301 63.4155 3.88287 63.4157 3.88273C63.4158 3.8826 63.416 3.88246 63.4161 3.88233C63.4162 3.88219 63.4164 3.88205 63.4165 3.88192C63.4166 3.88178 63.4168 3.88165 63.4169 3.88151C63.417 3.88138 63.4172 3.88124 63.4173 3.88111C63.4174 3.88098 63.4176 3.88084 63.4177 3.88071C63.4178 3.88057 63.418 3.88044 63.4181 3.8803C63.4182 3.88017 63.4184 3.88004 63.4185 3.8799C63.4186 3.87977 63.4188 3.87964 63.4189 3.8795C63.419 3.87937 63.4192 3.87924 63.4193 3.8791C63.4194 3.87897 63.4196 3.87884 63.4197 3.87871C63.4198 3.87857 63.42 3.87844 63.4201 3.87831C63.4202 3.87818 63.4204 3.87805 63.4205 3.87791C63.4206 3.87778 63.4208 3.87765 63.4209 3.87752C63.421 3.87739 63.4212 3.87726 63.4213 3.87713C63.4214 3.87699 63.4216 3.87686 63.4217 3.87673C63.4218 3.8766 63.4219 3.87647 63.4221 3.87634C63.4222 3.87621 63.4223 3.87608 63.4225 3.87595C63.4226 3.87582 63.4227 3.87569 63.4229 3.87556C63.423 3.87543 63.4231 3.8753 63.4232 3.87517C63.4234 3.87504 63.4235 3.87492 63.4236 3.87479C63.4238 3.87466 63.4239 3.87453 63.424 3.8744C63.4241 3.87427 63.4243 3.87414 63.4244 3.87402C63.4245 3.87389 63.4247 3.87376 63.4248 3.87363C63.4249 3.8735 63.425 3.87338 63.4252 3.87325C63.4253 3.87312 63.4254 3.87299 63.4255 3.87287C63.4257 3.87274 63.4258 3.87261 63.4259 3.87249C63.4261 3.87236 63.4262 3.87223 63.4263 3.87211C63.4264 3.87198 63.4266 3.87185 63.4267 3.87173C63.4268 3.8716 63.4269 3.87148 63.4271 3.87135C63.4272 3.87122 63.4273 3.8711 63.4274 3.87097C63.4276 3.87085 63.4277 3.87072 63.4278 3.8706C63.4279 3.87047 63.4281 3.87035 63.4282 3.87022C63.4283 3.8701 63.4284 3.86997 63.4286 3.86985C63.4287 3.86973 63.4288 3.8696 63.4289 3.86948C63.4291 3.86935 63.4292 3.86923 63.4293 3.86911C63.4294 3.86898 63.4296 3.86886 63.4297 3.86874C63.4298 3.86861 63.4299 3.86849 63.43 3.86837C63.4302 3.86824 63.4303 3.86812 63.4304 3.868C63.4305 3.86788 63.4307 3.86776 63.4308 3.86763C63.4309 3.86751 63.431 3.86739 63.4311 3.86727C63.4313 3.86715 63.4314 3.86702 63.4315 3.8669C63.4316 3.86678 63.4318 3.86666 63.4319 3.86654C63.432 3.86642 63.4321 3.8663 63.4322 3.86618C63.4324 3.86606 63.4325 3.86593 63.4326 3.86581C63.4327 3.86569 63.4328 3.86557 63.433 3.86545C63.4331 3.86533 63.4332 3.86521 63.4333 3.86509C63.4334 3.86497 63.4336 3.86486 63.4337 3.86474C63.4338 3.86462 63.4339 3.8645 63.434 3.86438C63.4342 3.86426 63.4343 3.86414 63.4344 3.86402C63.4345 3.8639 63.4346 3.86379 63.4347 3.86367C63.4349 3.86355 63.435 3.86343 63.4351 3.86331C63.4352 3.8632 63.4353 3.86308 63.4355 3.86296C63.4356 3.86284 63.4357 3.86273 63.4358 3.86261C63.4359 3.86249 63.436 3.86237 63.4362 3.86226C63.4363 3.86214 63.4364 3.86202 63.4365 3.86191C63.4366 3.86179 63.4367 3.86168 63.4369 3.86156C63.437 3.86144 63.4371 3.86133 63.4372 3.86121C63.4373 3.8611 63.4374 3.86098 63.4376 3.86086C63.4377 3.86075 63.4378 3.86063 63.4379 3.86052C63.438 3.8604 63.4381 3.86029 63.4382 3.86017C63.4384 3.86006 63.4385 3.85995 63.4386 3.85983C63.4387 3.85972 63.4388 3.8596 63.4389 3.85949C63.439 3.85938 63.4392 3.85926 63.4393 3.85915C63.4394 3.85903 63.4395 3.85892 63.4396 3.85881C63.4397 3.85869 63.4398 3.85858 63.4399 3.85847C63.4401 3.85836 63.4402 3.85824 63.4403 3.85813C63.4404 3.85802 63.4405 3.85791 63.4406 3.85779C63.4407 3.85768 63.4408 3.85757 63.441 3.85746C63.4411 3.85735 63.4412 3.85723 63.4413 3.85712C63.4414 3.85701 63.4415 3.8569 63.4416 3.85679C63.4417 3.85668 63.4418 3.85657 63.442 3.85646C63.4421 3.85635 63.4422 3.85623 63.4423 3.85612C63.4424 3.85601 63.4425 3.8559 63.4426 3.85579C63.4427 3.85568 63.4428 3.85557 63.443 3.85546C63.4431 3.85535 63.4432 3.85525 63.4433 3.85514C63.4434 3.85503 63.4435 3.85492 63.4436 3.85481C63.4437 3.8547 63.4438 3.85459 63.4439 3.85448C63.444 3.85437 63.4441 3.85427 63.4443 3.85416C63.4444 3.85405 63.4445 3.85394 63.4446 3.85383C63.4447 3.85373 63.4448 3.85362 63.4449 3.85351C63.445 3.8534 63.4451 3.85329 63.4452 3.85319C63.4453 3.85308 63.4454 3.85297 63.4455 3.85287C63.4457 3.85276 63.4458 3.85265 63.4459 3.85255C63.446 3.85244 63.4461 3.85233 63.4462 3.85223C63.4463 3.85212 63.4464 3.85202 63.4465 3.85191C63.4466 3.8518 63.4467 3.8517 63.4468 3.85159C63.4469 3.85149 63.447 3.85138 63.4471 3.85128C63.4472 3.85117 63.4473 3.85107 63.4475 3.85096C63.4476 3.85086 63.4477 3.85075 63.4478 3.85065C63.4479 3.85055 63.448 3.85044 63.4481 3.85034C63.4482 3.85023 63.4483 3.85013 63.4484 3.85003C63.4485 3.84992 63.4486 3.84982 63.4487 3.84972C63.4488 3.84961 63.4489 3.84951 63.449 3.84941C63.4491 3.8493 63.4492 3.8492 63.4493 3.8491C63.4494 3.849 63.4495 3.84889 63.4496 3.84879C63.4497 3.84869 63.4498 3.84859 63.4499 3.84849C63.45 3.84838 63.4501 3.84828 63.4502 3.84818C63.4503 3.84808 63.4504 3.84798 63.4505 3.84788C63.4506 3.84778 63.4507 3.84767 63.4508 3.84757C63.4509 3.84747 63.451 3.84737 63.4511 3.84727C63.4512 3.84717 63.4513 3.84707 63.4514 3.84697C63.4515 3.84687 63.4516 3.84677 63.4517 3.84667C63.4518 3.84657 63.4519 3.84647 63.452 3.84637C63.4521 3.84627 63.4522 3.84617 63.4523 3.84608C63.4524 3.84598 63.4525 3.84588 63.4526 3.84578C63.4527 3.84568 63.4528 3.84558 63.4529 3.84548C63.453 3.84539 63.4531 3.84529 63.4532 3.84519C63.4533 3.84509 63.4534 3.84499 63.4535 3.8449C63.4536 3.8448 63.4537 3.8447 63.4538 3.8446C63.4539 3.84451 63.454 3.84441 63.4541 3.84431C63.4542 3.84422 63.4543 3.84412 63.4544 3.84402C63.4545 3.84393 63.4546 3.84383 63.4547 3.84373C63.4548 3.84364 63.4549 3.84354 63.455 3.84345C63.4551 3.84335 63.4552 3.84326 63.4553 3.84316C63.4554 3.84306 63.4554 3.84297 63.4555 3.84287C63.4556 3.84278 63.4557 3.84268 63.4558 3.84259C63.4559 3.84249 63.456 3.8424 63.4561 3.84231C63.4562 3.84221 63.4563 3.84212 63.4564 3.84202C63.4565 3.84193 63.4566 3.84184 63.4567 3.84174C63.4568 3.84165 63.4569 3.84155 63.457 3.84146C63.457 3.84137 63.4571 3.84128 63.4572 3.84118C63.4573 3.84109 63.4574 3.841 63.4575 3.8409C63.4576 3.84081 63.4577 3.84072 63.4578 3.84063C63.4579 3.84053 63.458 3.84044 63.4581 3.84035C63.4582 3.84026 63.4582 3.84017 63.4583 3.84008C63.4584 3.83998 63.4585 3.83989 63.4586 3.8398C63.4587 3.83971 63.4588 3.83962 63.4589 3.83953C63.459 3.83944 63.4591 3.83935 63.4592 3.83926C63.4592 3.83917 63.4593 3.83908 63.4594 3.83899C63.4595 3.8389 63.4596 3.83881 63.4597 3.83872C63.4598 3.83863 63.4599 3.83854 63.46 3.83845C63.4601 3.83836 63.4601 3.83827 63.4602 3.83818C63.4603 3.83809 63.4604 3.838 63.4605 3.83791C63.4606 3.83783 63.4607 3.83774 63.4608 3.83765C63.4609 3.83756 63.4609 3.83747 63.461 3.83738C63.4611 3.8373 63.4612 3.83721 63.4613 3.83712C63.4614 3.83703 63.4615 3.83695 63.4616 3.83686C63.4616 3.83677 63.4617 3.83668 63.4618 3.8366C63.4619 3.83651 63.462 3.83642 63.4621 3.83634C63.4622 3.83625 63.4623 3.83616 63.4623 3.83608C63.4624 3.83599 63.4625 3.83591 63.4626 3.83582C63.4627 3.83573 63.4628 3.83565 63.4629 3.83556C63.4629 3.83548 63.463 3.83539 63.4631 3.83531C63.4632 3.83522 63.4633 3.83514 63.4634 3.83505C63.4634 3.83497 63.4635 3.83488 63.4636 3.8348C63.4637 3.83471 63.4638 3.83463 63.4639 3.83455C63.464 3.83446 63.464 3.83438 63.4641 3.8343C63.4642 3.83421 63.4643 3.83413 63.4644 3.83404C63.4645 3.83396 63.4645 3.83388 63.4646 3.8338C63.4647 3.83371 63.4648 3.83363 63.4649 3.83355C63.465 3.83346 63.465 3.83338 63.4651 3.8333C63.4652 3.83322 63.4653 3.83314 63.4654 3.83305C63.4654 3.83297 63.4655 3.83289 63.4656 3.83281C63.4657 3.83273 63.4658 3.83265 63.4659 3.83256C63.4659 3.83248 63.466 3.8324 63.4661 3.83232C63.4662 3.83224 63.4663 3.83216 63.4663 3.83208C63.4664 3.832 63.4665 3.83192 63.4666 3.83184C63.4667 3.83176 63.4667 3.83168 63.4668 3.8316C63.4669 3.83152 63.467 3.83144 63.4671 3.83136C63.4671 3.83128 63.4672 3.8312 63.4673 3.83112C63.4674 3.83104 63.4675 3.83096 63.4675 3.83089C63.4676 3.83081 63.4677 3.83073 63.4678 3.83065C63.4678 3.83057 63.4679 3.83049 63.468 3.83042C63.4681 3.83034 63.4682 3.83026 63.4682 3.83018C63.4683 3.8301 63.4684 3.83003 63.4685 3.82995C63.4685 3.82987 63.4686 3.8298 63.4687 3.82972C63.4688 3.82964 63.4688 3.82957 63.4689 3.82949C63.469 3.82941 63.4691 3.82934 63.4692 3.82926C63.4692 3.82918 63.4693 3.82911 63.4694 3.82903C63.4695 3.82896 63.4695 3.82888 63.4696 3.8288C63.4697 3.82873 63.4698 3.82865 63.4698 3.82858C63.4699 3.8285 63.47 3.82843 63.4701 3.82835C63.4701 3.82828 63.4702 3.8282 63.4703 3.82813C63.4704 3.82806 63.4704 3.82798 63.4705 3.82791C63.4706 3.82783 63.4707 3.82776 63.4707 3.82769C63.4708 3.82761 63.4709 3.82754 63.4709 3.82747C63.471 3.82739 63.4711 3.82732 63.4712 3.82725C63.4712 3.82717 63.4713 3.8271 63.4714 3.82703C63.4715 3.82695 63.4715 3.82688 63.4716 3.82681C63.4717 3.82674 63.4717 3.82667 63.4718 3.82659C63.4719 3.82652 63.472 3.82645 63.472 3.82638C63.4721 3.82631 63.4722 3.82624 63.4723 3.82616C63.4723 3.82609 63.4724 3.82602 63.4725 3.82595C63.4725 3.82588 63.4726 3.82581 63.4727 3.82574C63.4727 3.82567 63.4728 3.8256 63.4729 3.82553C63.473 3.82546 63.473 3.82539 63.4731 3.82532C63.4732 3.82525 63.4732 3.82518 63.4733 3.82511C63.4734 3.82504 63.4734 3.82497 63.4735 3.8249C63.4736 3.82483 63.4737 3.82476 63.4737 3.82469C63.4738 3.82463 63.4739 3.82456 63.4739 3.82449C63.474 3.82442 63.4741 3.82435 63.4741 3.82428C63.4742 3.82422 63.4743 3.82415 63.4743 3.82408C63.4744 3.82401 63.4745 3.82395 63.4745 3.82388C63.4746 3.82381 63.4747 3.82374 63.4747 3.82368C63.4748 3.82361 63.4749 3.82354 63.4749 3.82348C63.475 3.82341 63.4751 3.82334 63.4751 3.82328C63.4752 3.82321 63.4753 3.82315 63.4753 3.82308C63.4754 3.82301 63.4755 3.82295 63.4755 3.82288C63.4756 3.82282 63.4757 3.82275 63.4757 3.82269C63.4758 3.82262 63.4759 3.82256 63.4759 3.82249C63.476 3.82243 63.4761 3.82236 63.4761 3.8223C63.4762 3.82223 63.4762 3.82217 63.4763 3.82211C63.4764 3.82204 63.4764 3.82198 63.4765 3.82191C63.4766 3.82185 63.4766 3.82179 63.4767 3.82172C63.4768 3.82166 63.4768 3.8216 63.4769 3.82153C63.4769 3.82147 63.477 3.82141 63.4771 3.82134C63.4771 3.82128 63.4772 3.82122 63.4773 3.82116C63.4773 3.8211 63.4774 3.82103 63.4774 3.82097C63.4775 3.82091 63.4776 3.82085 63.4776 3.82079C63.4777 3.82072 63.4778 3.82066 63.4778 3.8206C63.4779 3.82054 63.4779 3.82048 63.478 3.82042C63.4781 3.82036 63.4781 3.8203 63.4782 3.82024C63.4782 3.82018 63.4783 3.82012 63.4784 3.82006C63.4784 3.81999 63.4785 3.81993 63.4785 3.81988C63.4786 3.81982 63.4787 3.81976 63.4787 3.8197C63.4788 3.81964 63.4788 3.81958 63.4789 3.81952C63.479 3.81946 63.479 3.8194 63.4791 3.81934C63.4791 3.81928 63.4792 3.81922 63.4792 3.81917C63.4793 3.81911 63.4794 3.81905 63.4794 3.81899C63.4795 3.81893 63.4795 3.81888 63.4796 3.81882C63.4797 3.81876 63.4797 3.8187 63.4798 3.81865C63.4798 3.81859 63.4799 3.81853 63.4799 3.81847C63.48 3.81842 63.4801 3.81836 63.4801 3.8183C63.4802 3.81825 63.4802 3.81819 63.4803 3.81813C63.4803 3.81808 63.4804 3.81802 63.4804 3.81797C63.4805 3.81791 63.4806 3.81785 63.4806 3.8178C63.4807 3.81774 63.4807 3.81769 63.4808 3.81763C63.4808 3.81758 63.4809 3.81752 63.4809 3.81747C63.481 3.81741 63.4811 3.81736 63.4811 3.8173C63.4812 3.81725 63.4812 3.81719 63.4813 3.81714C63.4813 3.81709 63.4814 3.81703 63.4814 3.81698C63.4815 3.81693 63.4815 3.81687 63.4816 3.81682C63.4817 3.81676 63.4817 3.81671 63.4818 3.81666C63.4818 3.81661 63.4819 3.81655 63.4819 3.8165C63.482 3.81645 63.482 3.81639 63.4821 3.81634C63.4821 3.81629 63.4822 3.81624 63.4822 3.81619C63.4823 3.81613 63.4823 3.81608 63.4824 3.81603C63.4824 3.81598 63.4825 3.81593 63.4825 3.81588C63.4826 3.81582 63.4826 3.81577 63.4827 3.81572C63.4827 3.81567 63.4828 3.81562 63.4828 3.81557C63.4829 3.81552 63.4829 3.81547 63.483 3.81542C63.483 3.81537 63.4831 3.81532 63.4831 3.81527C63.4832 3.81522 63.4832 3.81517 63.4833 3.81512C63.4833 3.81507 63.4834 3.81502 63.4834 3.81497C63.4835 3.81492 63.4835 3.81487 63.4836 3.81483C63.4836 3.81478 63.4837 3.81473 63.4837 3.81468C63.4838 3.81463 63.4838 3.81458 63.4839 3.81454C63.4839 3.81449 63.484 3.81444 63.484 3.81439C63.4841 3.81434 63.4841 3.8143 63.4842 3.81425C63.4842 3.8142 63.4843 3.81415 63.4843 3.81411C63.4844 3.81406 63.4844 3.81401 63.4844 3.81397C63.4845 3.81392 63.4845 3.81387 63.4846 3.81383C63.4846 3.81378 63.4847 3.81374 63.4847 3.81369C63.4848 3.81364 63.4848 3.8136 63.4849 3.81355L62.7778 3.10645ZM62.5309 3.35765C62.4852 3.4148 62.4496 3.45856 62.4234 3.48991C62.4104 3.50561 62.4007 3.51689 62.3941 3.5245C62.386 3.5337 62.3867 3.53253 62.3927 3.52646L63.0999 4.23354C63.1476 4.18581 63.2263 4.08913 63.3117 3.98235L62.5309 3.35765ZM62.3877 3.53161C60.0093 5.97996 58.4493 7.62167 57.717 8.44848L58.4656 9.11152C59.18 8.30499 60.7234 6.68003 63.105 4.22839L62.3877 3.53161ZM57.7102 8.45633C56.2632 10.16 54.128 12.6803 51.3046 16.017L52.068 16.663C54.8913 13.3264 57.026 10.8066 58.4724 9.10367L57.7102 8.45633ZM51.3044 16.0173C48.5046 19.3304 46.4055 21.8027 45.0067 23.4346L45.7659 24.0854C47.1671 22.4507 49.268 19.9763 52.0682 16.6627L51.3044 16.0173ZM45.0057 23.4358C44.4813 24.0513 42.9891 25.6367 40.5113 28.2081L41.2313 28.9019C43.7002 26.34 45.2179 24.7287 45.7669 24.0842L45.0057 23.4358ZM40.5049 28.2148C39.93 28.8339 39.4584 29.0964 39.0916 29.1442L39.221 30.1358C39.9275 30.0436 40.5993 29.5828 41.2377 28.8952L40.5049 28.2148ZM39.0856 29.145C38.4527 29.2354 38.0025 29.2387 37.7085 29.1836L37.5242 30.1664C37.9768 30.2513 38.5533 30.2312 39.227 30.135L39.0856 29.145ZM37.6887 29.1803C37.2762 29.1199 37.115 28.9929 37.0523 28.8989C36.9919 28.8083 36.9388 28.6212 37.0475 28.2357L36.0851 27.9643C35.9371 28.4888 35.9307 29.0192 36.2203 29.4536C36.5076 29.8846 36.9997 30.0901 37.5439 30.1697L37.6887 29.1803ZM37.0466 28.239C37.2958 27.3781 37.613 26.5396 37.9984 25.7235L37.0942 25.2965C36.6862 26.1604 36.3501 27.0486 36.086 27.961L37.0466 28.239ZM37.9935 25.7336C38.3449 25.0309 40.0264 21.5978 43.0355 15.4395L42.1371 15.0005C39.1263 21.1622 37.4478 24.5891 37.0991 25.2864L37.9935 25.7336ZM43.0364 15.4378C43.3967 14.6931 43.6309 14.0335 43.7113 13.4707L42.7213 13.3293C42.6617 13.7465 42.4759 14.3002 42.1362 15.0022L43.0364 15.4378ZM42.8522 13.0573C42.6656 13.2556 42.5229 13.407 42.4241 13.5117C42.3746 13.5641 42.3363 13.6045 42.3091 13.6331C42.2955 13.6475 42.2849 13.6585 42.2773 13.6665C42.2683 13.6759 42.2663 13.6779 42.2678 13.6764L42.9749 14.3836C43.0053 14.3531 43.2125 14.1336 43.5804 13.7427L42.8522 13.0573ZM42.2225 13.7284C41.4986 14.6858 40.948 15.4238 40.5719 15.9409L41.3807 16.5291C41.7512 16.0196 42.2973 15.2875 43.0201 14.3316L42.2225 13.7284ZM40.5632 15.9533C40.2118 16.4687 39.7557 17.147 39.1953 17.9876L40.0273 18.5423C40.5869 17.703 41.0408 17.028 41.3894 16.5167L40.5632 15.9533ZM39.1953 17.9876C38.6283 18.8382 38.1304 19.6558 37.7024 20.4406L38.5803 20.9194C38.9922 20.1642 39.4743 19.3718 40.0273 18.5423L39.1953 17.9876ZM37.6968 20.451C37.2947 21.2317 36.9277 22.0129 36.596 22.7947L37.5166 23.1853C37.8383 22.4271 38.1946 21.6683 38.5858 20.909L37.6968 20.451ZM36.5967 22.793C36.5693 22.857 36.5481 22.8947 36.5353 22.9139C36.5293 22.9229 36.5277 22.9239 36.5314 22.9199C36.535 22.9161 36.5471 22.9036 36.569 22.889L37.1237 23.721C37.3246 23.5871 37.4418 23.3599 37.5159 23.187L36.5967 22.793ZM36.6394 22.8498C36.395 22.9609 36.2787 22.98 36.2513 22.98V23.98C36.5039 23.98 36.7843 23.8824 37.0532 23.7602L36.6394 22.8498ZM36.2513 22.98C36.3607 22.98 36.4104 23.0369 36.3949 23.0214L35.6878 23.7286C35.8123 23.8531 36.0019 23.98 36.2513 23.98V22.98ZM36.4413 23.075C36.4232 23.0509 36.4199 23.0417 36.4221 23.0468C36.4244 23.0521 36.4363 23.0817 36.4363 23.13H35.4363C35.4363 23.3593 35.5458 23.5476 35.6413 23.675L36.4413 23.075ZM36.4363 23.13C36.4363 22.6919 36.445 22.3417 36.4616 22.0762C36.479 21.798 36.5032 21.6503 36.5202 21.5937L35.5624 21.3063C35.5094 21.483 35.4811 21.732 35.4635 22.0138C35.4451 22.3083 35.4363 22.6815 35.4363 23.13H36.4363ZM36.513 21.616C36.9507 20.3719 37.3965 19.3222 37.8488 18.4629L36.9638 17.9971C36.4828 18.9111 36.0186 20.0081 35.5697 21.284L36.513 21.616ZM37.8477 18.4648C39.5806 15.207 41.8726 11.7791 44.728 8.1808L43.9446 7.55919C41.0601 11.1943 38.732 14.673 36.9649 17.9952L37.8477 18.4648ZM44.718 8.19297C44.9609 7.9059 45.2266 7.62902 45.5154 7.3624L44.8372 6.6276C44.5193 6.92098 44.225 7.22743 43.9546 7.54703L44.718 8.19297ZM45.4993 7.37669C46.0038 6.94977 46.5716 6.76976 47.2324 6.82806L47.3203 5.83193C46.3943 5.75023 45.5621 6.01356 44.8533 6.61331L45.4993 7.37669ZM47.2469 6.82914C47.6013 6.84998 47.8036 6.92078 47.909 6.99102L48.4637 6.15897C48.149 5.94921 47.7447 5.85668 47.3057 5.83086L47.2469 6.82914ZM47.9435 7.01208C48.0225 7.05598 48.0852 7.12447 48.1239 7.26656L49.0887 7.00344C48.9874 6.63219 48.7701 6.32735 48.4291 6.13792L47.9435 7.01208ZM48.1421 7.3207C48.1865 7.43165 48.2107 7.62841 48.1499 7.95285L49.1327 8.13714C49.2119 7.71493 49.2128 7.30501 49.0705 6.9493L48.1421 7.3207ZM48.1491 7.9571C48.0382 8.57794 47.8729 9.14925 47.6548 9.67269L48.5778 10.0573C48.8264 9.46075 49.0111 8.81873 49.1335 8.13289L48.1491 7.9571ZM47.653 9.67699C47.0021 11.2809 46.4236 12.5994 45.9171 13.6354L46.8155 14.0746C47.3357 13.0106 47.9238 11.6691 48.5796 10.053L47.653 9.67699ZM45.9151 13.6396C45.4265 14.6632 44.7044 16.1425 43.748 18.0786L44.6446 18.5214C45.6015 16.5842 46.3261 15.1001 46.8176 14.0704L45.9151 13.6396ZM43.7469 18.0808C42.8131 19.9951 42.2427 21.1591 42.0341 21.5764L42.9285 22.0236C43.1399 21.6009 43.7129 20.4315 44.6457 18.5192L43.7469 18.0808ZM42.0341 21.5764C42.002 21.6405 41.7704 22.1778 41.3567 23.143L42.2759 23.537C42.4858 23.0471 42.646 22.6742 42.7566 22.4182C42.8119 22.2901 42.8546 22.1918 42.8847 22.1229C42.9185 22.0457 42.93 22.0206 42.9285 22.0236L42.0341 21.5764Z"/></g><defs><filter id="filter0_d_134_4" width="70.71" height="55.425" x=".866" y=".205" color-interpolation-filters="sRGB" filterUnits="userSpaceOnUse"><feFlood flood-opacity="0" result="BackgroundImageFix"/><feColorMatrix in="SourceAlpha" result="hardAlpha" type="matrix" values="0 0 0 0 0 0 0 0 0 0 0 0 0 0 0 0 0 0 127 0"/><feOffset dy="4"/><feGaussianBlur stdDeviation="2"/><feComposite in2="hardAlpha" operator="out"/><feColorMatrix type="matrix" values="0 0 0 0 0 0 0 0 0 0 0 0 0 0 0 0 0 0 0.25 0"/><feBlend in2="BackgroundImageFix" mode="color-dodge" result="effect1_dropShadow_134_4"/><feBlend in="SourceGraphic" in2="effect1_dropShadow_134_4" mode="normal" result="shape"/></filter></defs></svg>