<svg width="600" height="600" viewBox="0 0 600 600" fill="none" xmlns="http://www.w3.org/2000/svg">
<path d="M330.912 69.9C225.552 50.844 64.512 127.5 104.868 244.704C113.376 269.424 125.688 292.548 135.204 316.86C150.408 355.764 134.292 394.584 164.772 429.3C178.514 444.69 195.434 456.912 214.363 465.121C233.292 473.33 253.777 477.33 274.404 476.844C324.612 475.38 380.844 454.644 413.904 417.756C449.04 378.54 463.248 328.38 488.628 284.244C516.228 236.256 497.82 100.08 330.912 69.9Z" fill="#1CB0FD"/>
<path opacity="0.75" d="M330.912 69.9C225.552 50.844 64.512 127.5 104.868 244.704C113.376 269.424 125.688 292.548 135.204 316.86C150.408 355.764 134.292 394.584 164.772 429.3C178.514 444.69 195.434 456.912 214.363 465.121C233.292 473.33 253.777 477.33 274.404 476.844C324.612 475.38 380.844 454.644 413.904 417.756C449.04 378.54 463.248 328.38 488.628 284.244C516.228 236.256 497.82 100.08 330.912 69.9Z" fill="white"/>
<path d="M296.4 542.88C392.524 542.88 470.448 533.15 470.448 521.148C470.448 509.146 392.524 499.416 296.4 499.416C200.276 499.416 122.352 509.146 122.352 521.148C122.352 533.15 200.276 542.88 296.4 542.88Z" stroke="#263238" stroke-width="0.25" stroke-miterlimit="10"/>
<path d="M296.4 537.732C375.021 537.732 438.756 529.345 438.756 519C438.756 508.655 375.021 500.268 296.4 500.268C217.779 500.268 154.044 508.655 154.044 519C154.044 529.345 217.779 537.732 296.4 537.732Z" stroke="#263238" stroke-width="0.5" stroke-miterlimit="10"/>
<path d="M296.4 533.472C357.134 533.472 406.368 526.993 406.368 519C406.368 511.007 357.134 504.528 296.4 504.528C235.666 504.528 186.432 511.007 186.432 519C186.432 526.993 235.666 533.472 296.4 533.472Z" stroke="#263238" stroke-miterlimit="10"/>
<path d="M297.624 528C347.489 528 387.912 523.756 387.912 518.52C387.912 513.284 347.489 509.04 297.624 509.04C247.759 509.04 207.336 513.284 207.336 518.52C207.336 523.756 247.759 528 297.624 528Z" fill="#1CB0FD"/>
<path opacity="0.5" d="M297.624 528C347.489 528 387.912 523.756 387.912 518.52C387.912 513.284 347.489 509.04 297.624 509.04C247.759 509.04 207.336 513.284 207.336 518.52C207.336 523.756 247.759 528 297.624 528Z" fill="white"/>
<path d="M296.424 426.852C386.245 426.852 459.06 354.037 459.06 264.216C459.06 174.395 386.245 101.58 296.424 101.58C206.603 101.58 133.788 174.395 133.788 264.216C133.788 354.037 206.603 426.852 296.424 426.852Z" stroke="#263238" stroke-linecap="round" stroke-linejoin="round" stroke-dasharray="2 3"/>
<path d="M237.24 428.616C212.268 428.616 191.496 420.924 176.616 406.044C132.648 362.076 155.112 268.044 226.668 196.524C261.324 161.88 302.184 137.58 341.724 128.124C381.264 118.668 414.924 125.16 436.188 146.472C454.68 164.976 462.168 193.536 457.26 226.872L456.672 226.788C461.544 193.62 454.116 165.24 435.756 146.88C414.6 125.712 381.252 119.28 341.868 128.688C302.484 138.096 261.672 162.36 227.1 196.932C155.76 268.272 133.308 361.884 177.036 405.6C194.448 423.012 220.008 430.5 250.956 427.26L251.016 427.86C246.44 428.35 241.842 428.603 237.24 428.616Z" fill="#1CB0FD"/>
<path d="M366.528 401.064C325.296 401.064 277.2 384.576 234.096 352.32C154.62 292.848 121.776 201.96 160.896 149.712C178.044 126.792 207.204 114.096 242.988 113.976V114.576C207.396 114.696 178.416 127.296 161.388 150.072C122.496 202.056 155.28 292.572 234.492 351.84C313.704 411.108 409.788 417.036 448.692 365.04C464.796 343.5 469.2 315.168 461.412 283.104L462 282.96C469.824 315.216 465.384 343.716 449.172 365.388C431.244 389.316 401.328 401.052 366.528 401.064Z" fill="#1CB0FD"/>
<path d="M220.44 331.2C207.814 331.26 195.2 330.394 182.7 328.608C145.5 323.076 122.328 309.312 117.624 289.848C112.92 270.384 127.224 247.572 157.836 225.648C188.448 203.724 231.6 185.34 279.468 173.772C327.336 162.204 374.184 158.868 411.348 164.388C448.512 169.908 471.732 183.672 476.436 203.148C481.14 222.624 466.836 245.412 436.224 267.336C405.612 289.26 362.472 307.632 314.592 319.2C281.796 327.12 249.48 331.2 220.44 331.2ZM373.668 162.432C345.3 162.432 313.068 166.272 279.6 174.36C231.804 185.904 188.676 204.288 158.184 226.116C127.692 247.944 113.568 270.516 118.212 289.716C122.856 308.916 145.812 322.536 182.796 328.02C219.78 333.504 266.652 330.192 314.448 318.648C413.052 294.828 485.46 243.048 475.848 203.316C469.5 177.012 428.916 162.432 373.668 162.432Z" fill="#1CB0FD"/>
<path d="M256.104 446.808C253.679 446.803 251.263 446.517 248.904 445.956C229.428 441.252 215.784 417.648 210.504 379.488C205.224 341.328 208.824 293.424 220.692 244.284C232.56 195.144 251.256 150.78 273.348 119.34C295.44 87.9 318.396 73.044 337.872 77.748C357.348 82.452 370.992 106.056 376.272 144.204C381.552 182.352 377.94 230.28 366.072 279.42C354.204 328.56 335.46 372.924 313.368 404.4C293.928 432 273.888 446.808 256.104 446.808ZM330.576 77.496C291.888 77.496 244.176 149.124 221.184 244.428C196.8 345.6 209.208 435.756 248.988 445.368C268.188 450.012 290.892 435.324 312.876 404.016C334.86 372.708 353.592 328.332 365.448 279.216C389.892 178.02 377.448 87.876 337.644 78.276C335.328 77.7349 332.955 77.473 330.576 77.496Z" fill="#1CB0FD"/>
<path d="M317.82 396.336C318.24 396.755 318.774 397.04 319.356 397.155C319.938 397.27 320.541 397.21 321.088 396.983C321.636 396.756 322.104 396.371 322.434 395.878C322.763 395.385 322.939 394.805 322.939 394.212C322.939 393.619 322.763 393.039 322.434 392.546C322.104 392.053 321.636 391.669 321.088 391.441C320.541 391.214 319.938 391.154 319.356 391.269C318.774 391.384 318.24 391.669 317.82 392.088C317.262 392.654 316.948 393.417 316.948 394.212C316.948 395.007 317.262 395.77 317.82 396.336Z" fill="#1CB0FD"/>
<path d="M319.944 397.512C319.174 397.517 318.426 397.254 317.828 396.769C317.23 396.284 316.82 395.606 316.666 394.852C316.512 394.097 316.625 393.313 316.986 392.632C317.346 391.952 317.932 391.418 318.642 391.121C319.353 390.824 320.144 390.783 320.882 391.006C321.619 391.228 322.256 391.699 322.685 392.339C323.113 392.978 323.306 393.747 323.231 394.513C323.156 395.28 322.817 395.996 322.272 396.54C321.968 396.849 321.605 397.093 321.206 397.26C320.806 397.427 320.377 397.513 319.944 397.512ZM319.944 391.512C319.5 391.512 319.062 391.621 318.67 391.83C318.279 392.039 317.944 392.342 317.697 392.711C317.45 393.08 317.298 393.505 317.255 393.947C317.211 394.389 317.277 394.835 317.447 395.245C317.617 395.656 317.885 396.018 318.229 396.299C318.572 396.581 318.98 396.774 319.416 396.86C319.851 396.947 320.301 396.925 320.726 396.796C321.151 396.666 321.538 396.434 321.852 396.12C322.358 395.614 322.642 394.928 322.642 394.212C322.642 393.497 322.358 392.81 321.852 392.304C321.602 392.052 321.305 391.853 320.977 391.717C320.65 391.581 320.299 391.511 319.944 391.512Z" fill="#1CB0FD"/>
<path d="M206.616 332.244C207.036 332.663 207.57 332.948 208.152 333.063C208.734 333.178 209.337 333.118 209.884 332.891C210.432 332.664 210.9 332.279 211.23 331.786C211.559 331.293 211.735 330.713 211.735 330.12C211.735 329.527 211.559 328.947 211.23 328.454C210.9 327.961 210.432 327.576 209.884 327.349C209.337 327.122 208.734 327.062 208.152 327.177C207.57 327.292 207.036 327.577 206.616 327.996C206.337 328.275 206.115 328.606 205.964 328.97C205.812 329.335 205.735 329.726 205.735 330.12C205.735 330.515 205.812 330.905 205.964 331.27C206.115 331.634 206.337 331.965 206.616 332.244Z" fill="#1CB0FD"/>
<path d="M208.728 333.42C208.292 333.414 207.861 333.32 207.461 333.145C207.061 332.97 206.7 332.717 206.4 332.4C205.864 331.86 205.532 331.152 205.461 330.395C205.389 329.638 205.582 328.879 206.006 328.248C206.431 327.617 207.061 327.153 207.789 326.935C208.517 326.716 209.299 326.757 210.001 327.05C210.702 327.343 211.281 327.87 211.638 328.542C211.994 329.213 212.107 329.988 211.957 330.733C211.807 331.478 211.403 332.149 210.815 332.63C210.226 333.111 209.488 333.374 208.728 333.372V333.42ZM208.728 327.42C208.194 327.421 207.673 327.579 207.229 327.876C206.786 328.173 206.44 328.594 206.236 329.087C206.032 329.58 205.978 330.123 206.082 330.646C206.186 331.17 206.443 331.651 206.82 332.028C207.334 332.52 208.017 332.794 208.728 332.794C209.439 332.794 210.122 332.52 210.636 332.028C211.013 331.651 211.27 331.17 211.374 330.646C211.478 330.123 211.424 329.58 211.22 329.087C211.016 328.594 210.67 328.173 210.227 327.876C209.783 327.579 209.262 327.421 208.728 327.42Z" fill="#1CB0FD"/>
<path d="M166.8 282.996C167.219 283.417 167.754 283.703 168.336 283.82C168.918 283.936 169.522 283.877 170.071 283.651C170.619 283.424 171.088 283.039 171.418 282.546C171.748 282.052 171.925 281.472 171.925 280.878C171.925 280.284 171.748 279.704 171.418 279.21C171.088 278.717 170.619 278.332 170.071 278.106C169.522 277.879 168.918 277.82 168.336 277.937C167.754 278.053 167.219 278.34 166.8 278.76C166.239 279.323 165.925 280.084 165.925 280.878C165.925 281.672 166.239 282.434 166.8 282.996Z" fill="#1CB0FD"/>
<path d="M168.912 284.172C168.148 284.172 167.408 283.907 166.818 283.422C166.228 282.937 165.824 282.262 165.676 281.513C165.528 280.763 165.644 279.986 166.005 279.313C166.366 278.64 166.949 278.112 167.655 277.821C168.361 277.53 169.146 277.493 169.877 277.716C170.607 277.939 171.238 278.409 171.661 279.045C172.084 279.681 172.273 280.444 172.196 281.204C172.12 281.964 171.782 282.673 171.24 283.212C170.621 283.827 169.784 284.172 168.912 284.172ZM168.912 278.172C168.29 278.175 167.689 278.394 167.21 278.791C166.732 279.188 166.406 279.738 166.288 280.349C166.169 280.959 166.266 281.592 166.562 282.139C166.858 282.685 167.334 283.113 167.909 283.348C168.485 283.583 169.124 283.612 169.718 283.429C170.312 283.246 170.825 282.862 171.168 282.344C171.511 281.826 171.664 281.204 171.601 280.586C171.537 279.967 171.261 279.39 170.82 278.952C170.31 278.455 169.624 278.18 168.912 278.184V278.172Z" fill="#1CB0FD"/>
<path d="M146.532 235.404C146.952 235.823 147.486 236.108 148.068 236.223C148.65 236.338 149.253 236.278 149.8 236.051C150.348 235.824 150.816 235.439 151.146 234.946C151.475 234.453 151.651 233.873 151.651 233.28C151.651 232.687 151.475 232.107 151.146 231.614C150.816 231.121 150.348 230.736 149.8 230.509C149.253 230.282 148.65 230.222 148.068 230.337C147.486 230.452 146.952 230.737 146.532 231.156C146.251 231.434 146.028 231.765 145.876 232.129C145.724 232.494 145.646 232.885 145.646 233.28C145.646 233.675 145.724 234.066 145.876 234.431C146.028 234.795 146.251 235.126 146.532 235.404Z" fill="#1CB0FD"/>
<path d="M148.644 236.58C147.772 236.578 146.936 236.233 146.316 235.62C145.855 235.159 145.54 234.571 145.413 233.931C145.286 233.29 145.352 232.627 145.601 232.024C145.851 231.421 146.274 230.906 146.817 230.543C147.359 230.181 147.997 229.987 148.65 229.987C149.303 229.987 149.941 230.181 150.483 230.543C151.026 230.906 151.449 231.421 151.699 232.024C151.948 232.627 152.014 233.29 151.887 233.931C151.759 234.571 151.445 235.159 150.984 235.62C150.361 236.236 149.52 236.581 148.644 236.58ZM146.736 235.2C147.113 235.578 147.595 235.836 148.118 235.94C148.642 236.045 149.185 235.991 149.679 235.787C150.172 235.583 150.594 235.237 150.891 234.793C151.188 234.349 151.346 233.826 151.346 233.292C151.346 232.758 151.188 232.236 150.891 231.792C150.594 231.348 150.172 231.002 149.679 230.797C149.185 230.593 148.642 230.54 148.118 230.644C147.595 230.749 147.113 231.006 146.736 231.384C146.23 231.89 145.946 232.577 145.946 233.292C145.946 234.008 146.23 234.694 146.736 235.2Z" fill="#1CB0FD"/>
<path d="M154.068 324.468C154.488 324.887 155.022 325.172 155.604 325.287C156.186 325.402 156.789 325.342 157.336 325.115C157.884 324.888 158.352 324.503 158.682 324.01C159.011 323.517 159.187 322.937 159.187 322.344C159.187 321.751 159.011 321.171 158.682 320.678C158.352 320.185 157.884 319.8 157.336 319.573C156.789 319.346 156.186 319.286 155.604 319.401C155.022 319.516 154.488 319.801 154.068 320.22C153.789 320.499 153.567 320.83 153.416 321.194C153.264 321.559 153.187 321.949 153.187 322.344C153.187 322.739 153.264 323.129 153.416 323.494C153.567 323.858 153.789 324.189 154.068 324.468Z" fill="#1CB0FD"/>
<path d="M156.192 325.644C155.316 325.645 154.475 325.3 153.852 324.684C153.236 324.064 152.89 323.225 152.89 322.35C152.89 321.476 153.236 320.637 153.852 320.016C154.235 319.631 154.707 319.347 155.226 319.188C155.746 319.03 156.296 319.001 156.829 319.106C157.361 319.211 157.86 319.446 158.28 319.79C158.701 320.134 159.03 320.576 159.238 321.077C159.446 321.579 159.528 322.124 159.475 322.664C159.423 323.204 159.238 323.724 158.936 324.175C158.635 324.627 158.227 324.997 157.748 325.254C157.269 325.51 156.735 325.644 156.192 325.644ZM156.192 319.644C155.658 319.645 155.137 319.803 154.693 320.1C154.25 320.397 153.904 320.818 153.7 321.311C153.496 321.804 153.442 322.347 153.546 322.87C153.65 323.394 153.907 323.875 154.284 324.252C154.798 324.744 155.481 325.018 156.192 325.018C156.903 325.018 157.586 324.744 158.1 324.252C158.477 323.875 158.734 323.394 158.838 322.87C158.942 322.347 158.888 321.804 158.684 321.311C158.48 320.818 158.134 320.397 157.691 320.1C157.247 319.803 156.726 319.645 156.192 319.644Z" fill="#1CB0FD"/>
<path d="M237.24 187.572C237.659 187.993 238.194 188.279 238.776 188.396C239.358 188.512 239.962 188.453 240.511 188.227C241.059 188 241.528 187.615 241.858 187.122C242.188 186.628 242.365 186.048 242.365 185.454C242.365 184.86 242.188 184.28 241.858 183.786C241.528 183.293 241.059 182.908 240.511 182.682C239.962 182.455 239.358 182.396 238.776 182.512C238.194 182.629 237.659 182.916 237.24 183.336C236.961 183.614 236.74 183.944 236.588 184.307C236.437 184.671 236.36 185.06 236.36 185.454C236.36 185.848 236.437 186.237 236.588 186.601C236.74 186.964 236.961 187.294 237.24 187.572Z" fill="#1CB0FD"/>
<path d="M239.364 188.748C238.821 188.75 238.285 188.618 237.805 188.363C237.325 188.108 236.916 187.738 236.613 187.287C236.31 186.835 236.123 186.316 236.069 185.776C236.015 185.235 236.096 184.689 236.304 184.187C236.511 183.685 236.84 183.241 237.26 182.897C237.68 182.552 238.179 182.317 238.712 182.211C239.245 182.105 239.796 182.133 240.316 182.292C240.836 182.45 241.309 182.735 241.692 183.12C242.151 183.582 242.464 184.169 242.59 184.807C242.717 185.446 242.651 186.108 242.403 186.71C242.154 187.311 241.732 187.826 241.192 188.189C240.651 188.551 240.015 188.746 239.364 188.748ZM239.364 182.748C239.01 182.745 238.659 182.812 238.331 182.946C238.004 183.08 237.706 183.278 237.456 183.528C237.005 183.97 236.722 184.555 236.655 185.183C236.589 185.811 236.742 186.442 237.089 186.97C237.436 187.497 237.955 187.887 238.558 188.074C239.161 188.261 239.811 188.233 240.395 187.994C240.979 187.755 241.463 187.32 241.762 186.765C242.062 186.209 242.159 185.566 242.037 184.947C241.915 184.327 241.582 183.769 241.095 183.368C240.607 182.967 239.995 182.748 239.364 182.748Z" fill="#1CB0FD"/>
<path d="M370.368 125.604C370.787 126.025 371.322 126.311 371.904 126.428C372.486 126.544 373.09 126.485 373.638 126.259C374.187 126.032 374.656 125.647 374.986 125.154C375.316 124.66 375.493 124.08 375.493 123.486C375.493 122.892 375.316 122.312 374.986 121.818C374.656 121.325 374.187 120.94 373.638 120.714C373.09 120.487 372.486 120.428 371.904 120.544C371.322 120.661 370.787 120.948 370.368 121.368C370.089 121.646 369.868 121.976 369.716 122.339C369.565 122.703 369.488 123.092 369.488 123.486C369.488 123.88 369.565 124.269 369.716 124.633C369.868 124.996 370.089 125.326 370.368 125.604Z" fill="#1CB0FD"/>
<path d="M372.48 126.78C372.048 126.782 371.619 126.698 371.22 126.534C370.82 126.369 370.457 126.126 370.152 125.82C369.845 125.514 369.602 125.15 369.436 124.749C369.271 124.349 369.185 123.92 369.185 123.486C369.185 123.053 369.271 122.623 369.436 122.223C369.602 121.822 369.845 121.459 370.152 121.152C370.458 120.846 370.822 120.602 371.223 120.437C371.623 120.271 372.053 120.185 372.486 120.185C372.919 120.185 373.349 120.271 373.749 120.437C374.15 120.602 374.513 120.846 374.82 121.152C375.436 121.773 375.782 122.612 375.782 123.486C375.782 124.361 375.436 125.2 374.82 125.82C374.513 126.127 374.148 126.37 373.746 126.535C373.345 126.7 372.914 126.783 372.48 126.78ZM372.48 120.78C372.126 120.78 371.775 120.85 371.449 120.986C371.122 121.122 370.825 121.321 370.575 121.572C370.325 121.822 370.128 122.12 369.993 122.448C369.859 122.775 369.79 123.126 369.792 123.48C369.79 123.834 369.858 124.184 369.992 124.512C370.126 124.839 370.323 125.137 370.572 125.388C371.088 125.88 371.773 126.155 372.486 126.155C373.199 126.155 373.884 125.88 374.4 125.388C374.903 124.88 375.185 124.195 375.185 123.48C375.185 122.766 374.903 122.08 374.4 121.572C373.888 121.067 373.199 120.783 372.48 120.78Z" fill="#1CB0FD"/>
<path d="M376.02 164.244C376.439 164.664 376.974 164.951 377.556 165.068C378.138 165.184 378.742 165.125 379.291 164.899C379.839 164.672 380.308 164.287 380.638 163.794C380.968 163.3 381.145 162.72 381.145 162.126C381.145 161.532 380.968 160.952 380.638 160.458C380.308 159.965 379.839 159.58 379.291 159.353C378.742 159.127 378.138 159.068 377.556 159.184C376.974 159.301 376.439 159.587 376.02 160.008C375.741 160.286 375.52 160.616 375.368 160.979C375.217 161.343 375.14 161.732 375.14 162.126C375.14 162.52 375.217 162.909 375.368 163.273C375.52 163.636 375.741 163.966 376.02 164.244Z" fill="#1CB0FD"/>
<path d="M378.144 165.42C377.71 165.423 377.279 165.34 376.878 165.175C376.476 165.01 376.111 164.767 375.804 164.46C375.188 163.84 374.842 163.001 374.842 162.126C374.842 161.252 375.188 160.413 375.804 159.792C376.187 159.407 376.659 159.123 377.178 158.964C377.698 158.805 378.248 158.777 378.781 158.882C379.313 158.987 379.812 159.222 380.232 159.566C380.653 159.91 380.982 160.352 381.19 160.853C381.398 161.355 381.48 161.9 381.427 162.44C381.375 162.98 381.19 163.499 380.888 163.951C380.587 164.403 380.179 164.773 379.7 165.03C379.221 165.286 378.687 165.42 378.144 165.42ZM376.236 164.028C376.75 164.52 377.433 164.794 378.144 164.794C378.855 164.794 379.538 164.52 380.052 164.028C380.304 163.778 380.504 163.481 380.64 163.154C380.775 162.826 380.845 162.475 380.844 162.12C380.841 161.405 380.556 160.719 380.052 160.212C379.538 159.721 378.855 159.446 378.144 159.446C377.433 159.446 376.75 159.721 376.236 160.212C375.73 160.718 375.446 161.405 375.446 162.12C375.446 162.836 375.73 163.522 376.236 164.028Z" fill="#1CB0FD"/>
<path d="M356.7 307.5C357.119 307.921 357.654 308.207 358.236 308.324C358.818 308.44 359.422 308.381 359.971 308.155C360.519 307.928 360.988 307.543 361.318 307.05C361.648 306.556 361.825 305.976 361.825 305.382C361.825 304.788 361.648 304.208 361.318 303.714C360.988 303.221 360.519 302.836 359.971 302.61C359.422 302.383 358.818 302.324 358.236 302.44C357.654 302.557 357.119 302.844 356.7 303.264C356.421 303.542 356.2 303.872 356.049 304.235C355.897 304.599 355.82 304.988 355.82 305.382C355.82 305.776 355.897 306.165 356.049 306.529C356.2 306.892 356.421 307.222 356.7 307.5Z" fill="#1CB0FD"/>
<path d="M358.8 308.676C357.924 308.677 357.083 308.332 356.46 307.716C355.916 307.177 355.575 306.465 355.497 305.702C355.419 304.94 355.608 304.174 356.031 303.535C356.454 302.896 357.086 302.424 357.819 302.198C358.552 301.973 359.34 302.009 360.049 302.3C360.758 302.591 361.344 303.119 361.708 303.794C362.071 304.469 362.189 305.249 362.042 306.001C361.895 306.753 361.491 307.431 360.9 307.919C360.309 308.407 359.567 308.674 358.8 308.676ZM356.892 307.296C357.27 307.672 357.751 307.928 358.275 308.031C358.798 308.134 359.34 308.08 359.833 307.875C360.325 307.671 360.746 307.325 361.042 306.881C361.338 306.437 361.496 305.916 361.496 305.382C361.496 304.849 361.338 304.327 361.042 303.884C360.746 303.44 360.325 303.094 359.833 302.889C359.34 302.684 358.798 302.63 358.275 302.733C357.751 302.836 357.27 303.092 356.892 303.468C356.386 303.977 356.101 304.665 356.101 305.382C356.101 306.1 356.386 306.788 356.892 307.296Z" fill="#1CB0FD"/>
<path d="M224.04 429.312C224.459 429.733 224.994 430.019 225.576 430.136C226.158 430.252 226.762 430.193 227.31 429.967C227.859 429.74 228.328 429.355 228.658 428.862C228.988 428.368 229.165 427.788 229.165 427.194C229.165 426.6 228.988 426.02 228.658 425.526C228.328 425.033 227.859 424.648 227.31 424.422C226.762 424.195 226.158 424.136 225.576 424.252C224.994 424.369 224.459 424.656 224.04 425.076C223.479 425.638 223.165 426.4 223.165 427.194C223.165 427.988 223.479 428.75 224.04 429.312Z" fill="#1CB0FD"/>
<path d="M226.164 430.5C225.731 430.501 225.302 430.415 224.902 430.248C224.503 430.081 224.14 429.837 223.836 429.528C223.22 428.908 222.874 428.069 222.874 427.194C222.874 426.32 223.22 425.481 223.836 424.86C224.22 424.478 224.693 424.196 225.213 424.04C225.732 423.884 226.282 423.858 226.813 423.965C227.345 424.072 227.842 424.308 228.261 424.653C228.679 424.997 229.006 425.44 229.213 425.941C229.42 426.442 229.5 426.987 229.447 427.526C229.393 428.066 229.207 428.584 228.906 429.035C228.604 429.485 228.197 429.855 227.718 430.111C227.24 430.366 226.706 430.5 226.164 430.5ZM224.256 429.108C224.762 429.614 225.448 429.898 226.164 429.898C226.879 429.898 227.566 429.614 228.072 429.108C228.578 428.602 228.862 427.916 228.862 427.2C228.862 426.485 228.578 425.798 228.072 425.292C227.558 424.801 226.875 424.526 226.164 424.526C225.453 424.526 224.77 424.801 224.256 425.292C223.75 425.798 223.466 426.485 223.466 427.2C223.466 427.916 223.75 428.602 224.256 429.108Z" fill="#1CB0FD"/>
<path d="M452.124 180.504C452.543 180.924 453.078 181.211 453.66 181.328C454.242 181.444 454.846 181.385 455.395 181.159C455.943 180.932 456.412 180.547 456.742 180.054C457.072 179.56 457.249 178.98 457.249 178.386C457.249 177.792 457.072 177.212 456.742 176.718C456.412 176.225 455.943 175.84 455.395 175.613C454.846 175.387 454.242 175.328 453.66 175.444C453.078 175.561 452.543 175.847 452.124 176.268C451.845 176.546 451.624 176.876 451.472 177.239C451.321 177.603 451.244 177.992 451.244 178.386C451.244 178.78 451.321 179.169 451.472 179.533C451.624 179.896 451.845 180.226 452.124 180.504Z" fill="#1CB0FD"/>
<path d="M454.248 181.68C453.804 181.691 453.362 181.612 452.949 181.447C452.537 181.282 452.162 181.035 451.848 180.72C451.383 180.258 451.065 179.668 450.935 179.025C450.806 178.382 450.87 177.715 451.12 177.108C451.37 176.502 451.794 175.983 452.34 175.618C452.885 175.253 453.526 175.058 454.182 175.058C454.838 175.058 455.479 175.253 456.024 175.618C456.57 175.983 456.994 176.502 457.244 177.108C457.494 177.715 457.558 178.382 457.429 179.025C457.299 179.668 456.981 180.258 456.516 180.72C455.914 181.324 455.1 181.669 454.248 181.68ZM454.248 175.68C453.714 175.681 453.193 175.839 452.749 176.136C452.306 176.433 451.96 176.854 451.756 177.347C451.552 177.84 451.498 178.383 451.602 178.906C451.706 179.43 451.963 179.911 452.34 180.288C452.854 180.78 453.537 181.054 454.248 181.054C454.959 181.054 455.642 180.78 456.156 180.288C456.533 179.911 456.79 179.43 456.894 178.906C456.998 178.383 456.944 177.84 456.74 177.347C456.536 176.854 456.19 176.433 455.747 176.136C455.303 175.839 454.782 175.681 454.248 175.68Z" fill="#1CB0FD"/>
<path d="M256.211 102.062L255.617 102.146L256.628 109.227L257.222 109.142L256.211 102.062Z" fill="#1CB0FD"/>
<path d="M353.544 427.812C348.942 427.807 344.344 427.563 339.768 427.08L339.828 426.48C370.776 429.72 396.336 422.232 413.748 404.88C457.476 361.152 435.012 267.54 363.684 196.212C329.112 161.64 288.348 137.412 248.916 127.956C209.484 118.5 176.184 124.992 155.016 146.148C136.656 164.508 129.24 192.948 134.112 226.068L133.524 226.152C128.616 192.78 136.092 164.22 154.596 145.752C175.908 124.44 209.46 117.912 249.06 127.392C288.66 136.872 329.46 161.16 364.104 195.792C435.672 267.36 458.136 361.392 414.168 405.312C399.288 420.12 378.504 427.812 353.544 427.812Z" fill="#1CB0FD"/>
<path d="M224.1 400.344C188.1 400.344 159.024 387.828 141.648 364.608C125.424 342.924 120.996 314.424 128.82 282.18L129.408 282.324C121.62 314.388 126.012 342.72 142.128 364.248C160.956 389.448 193.596 401.916 234.024 399.432C274.452 396.948 318 379.764 356.328 351.036C435.528 291.768 468.324 201.252 429.42 149.268C412.392 126.468 383.412 113.904 347.82 113.784V113.184C383.604 113.304 412.752 125.988 429.9 148.908C469.008 201.156 436.164 292.056 356.7 351.516C318.216 380.316 274.668 397.548 234.072 400.032C230.696 400.232 227.372 400.336 224.1 400.344Z" fill="#1CB0FD"/>
<path d="M370.344 330.384C341.292 330.384 308.988 326.316 276.18 318.384C228.312 306.816 185.112 288.384 154.56 266.532C124.008 244.68 109.644 221.808 114.348 202.332C119.052 182.856 142.164 169.092 179.424 163.572C216.684 158.052 263.424 161.4 311.316 172.956C359.208 184.512 402.396 202.956 432.948 224.82C463.5 246.684 477.852 269.544 473.148 289.008C468.444 308.472 445.332 322.248 408.072 327.768C395.577 329.563 382.967 330.437 370.344 330.384ZM217.2 161.592C204.606 161.534 192.024 162.396 179.556 164.172C142.548 169.668 119.616 183.276 114.972 202.488C110.328 221.7 124.572 244.284 154.944 266.088C185.316 287.892 228.552 306.3 276.36 317.844C374.964 341.664 462.996 328.644 472.608 288.912C477.252 269.712 463.008 247.128 432.636 225.312C402.264 203.496 359.016 185.1 311.208 173.556C278.4 165.6 246.156 161.592 217.2 161.592Z" fill="#1CB0FD"/>
<path d="M334.668 446.004C316.896 446.004 296.856 431.244 277.404 403.572C255.324 372.12 236.604 327.744 224.748 278.616C212.892 229.488 209.268 181.416 214.56 143.412C219.852 105.408 233.52 81.6601 252.96 76.9561C272.4 72.2521 295.344 87.0121 317.484 118.536C339.624 150.06 358.284 194.352 370.14 243.492C381.996 292.632 385.62 340.692 380.328 378.696C375.036 416.7 361.404 440.4 342 445.2C339.597 445.761 337.135 446.031 334.668 446.004ZM260.268 76.6921C257.867 76.6873 255.474 76.9693 253.14 77.5321C233.94 82.1761 220.44 105.6 215.172 143.532C209.904 181.464 213.492 229.452 225.348 278.508C237.204 327.564 255.864 371.88 277.908 403.308C299.952 434.736 322.584 449.292 341.808 444.648C381.6 434.964 394.032 344.82 369.6 243.6C357.756 194.544 339.084 150.24 317.04 118.8C297.708 91.3681 277.836 76.6921 260.256 76.6921H260.268Z" fill="#1CB0FD"/>
<path d="M272.952 395.532C272.533 395.953 271.998 396.239 271.416 396.356C270.834 396.472 270.23 396.413 269.681 396.187C269.133 395.96 268.664 395.575 268.334 395.082C268.004 394.588 267.827 394.008 267.827 393.414C267.827 392.82 268.004 392.24 268.334 391.746C268.664 391.253 269.133 390.868 269.681 390.642C270.23 390.415 270.834 390.356 271.416 390.472C271.998 390.589 272.533 390.876 272.952 391.296C273.231 391.574 273.452 391.904 273.603 392.267C273.755 392.631 273.832 393.02 273.832 393.414C273.832 393.808 273.755 394.197 273.603 394.561C273.452 394.924 273.231 395.254 272.952 395.532Z" fill="#1CB0FD"/>
<path d="M270.84 396.708C269.964 396.709 269.123 396.364 268.5 395.748C268.035 395.286 267.717 394.696 267.587 394.053C267.458 393.409 267.522 392.742 267.772 392.136C268.022 391.529 268.446 391.011 268.992 390.646C269.537 390.281 270.178 390.086 270.834 390.086C271.49 390.086 272.131 390.281 272.676 390.646C273.221 391.011 273.646 391.529 273.896 392.136C274.146 392.742 274.21 393.409 274.081 394.053C273.951 394.696 273.633 395.286 273.168 395.748C272.549 396.363 271.712 396.708 270.84 396.708ZM270.84 390.708C270.124 390.709 269.438 390.994 268.932 391.5C268.667 391.747 268.454 392.045 268.306 392.376C268.159 392.708 268.079 393.065 268.073 393.428C268.067 393.79 268.133 394.15 268.269 394.487C268.405 394.823 268.607 395.128 268.863 395.385C269.12 395.641 269.425 395.843 269.761 395.979C270.098 396.115 270.458 396.181 270.82 396.175C271.183 396.169 271.54 396.089 271.872 395.942C272.203 395.794 272.501 395.581 272.748 395.316C273.125 394.938 273.382 394.458 273.486 393.934C273.59 393.411 273.536 392.868 273.332 392.375C273.128 391.882 272.782 391.461 272.339 391.164C271.895 390.867 271.374 390.708 270.84 390.708Z" fill="#1CB0FD"/>
<path d="M384.168 331.44C383.749 331.861 383.214 332.147 382.632 332.264C382.05 332.38 381.446 332.321 380.897 332.095C380.349 331.868 379.88 331.483 379.55 330.99C379.22 330.496 379.043 329.916 379.043 329.322C379.043 328.728 379.22 328.148 379.55 327.654C379.88 327.161 380.349 326.776 380.897 326.549C381.446 326.323 382.05 326.264 382.632 326.38C383.214 326.497 383.749 326.784 384.168 327.204C384.447 327.482 384.668 327.812 384.82 328.175C384.971 328.539 385.048 328.928 385.048 329.322C385.048 329.716 384.971 330.105 384.82 330.469C384.668 330.832 384.447 331.162 384.168 331.44Z" fill="#1CB0FD"/>
<path d="M382.056 332.628C381.289 332.632 380.545 332.369 379.95 331.885C379.355 331.402 378.947 330.726 378.794 329.975C378.642 329.223 378.755 328.442 379.114 327.765C379.473 327.087 380.056 326.555 380.764 326.26C381.472 325.964 382.26 325.924 382.994 326.145C383.728 326.365 384.363 326.834 384.791 327.471C385.218 328.108 385.411 328.873 385.337 329.636C385.262 330.4 384.926 331.113 384.384 331.656C384.079 331.964 383.717 332.208 383.317 332.375C382.918 332.542 382.489 332.628 382.056 332.628ZM382.056 326.628C381.7 326.628 381.347 326.697 381.017 326.833C380.688 326.969 380.388 327.168 380.136 327.42C379.886 327.67 379.688 327.968 379.554 328.296C379.42 328.623 379.353 328.974 379.356 329.328C379.355 330.042 379.635 330.728 380.136 331.236C380.65 331.728 381.333 332.002 382.044 332.002C382.755 332.002 383.438 331.728 383.952 331.236C384.458 330.73 384.742 330.044 384.742 329.328C384.742 328.613 384.458 327.926 383.952 327.42C383.705 327.169 383.409 326.969 383.084 326.833C382.758 326.697 382.409 326.627 382.056 326.628Z" fill="#1CB0FD"/>
<path d="M423.984 282.204C423.564 282.623 423.03 282.908 422.448 283.023C421.866 283.138 421.263 283.078 420.716 282.851C420.168 282.624 419.7 282.239 419.37 281.746C419.041 281.253 418.865 280.673 418.865 280.08C418.865 279.487 419.041 278.907 419.37 278.414C419.7 277.921 420.168 277.536 420.716 277.309C421.263 277.082 421.866 277.022 422.448 277.137C423.03 277.252 423.564 277.537 423.984 277.956C424.263 278.235 424.485 278.566 424.636 278.93C424.787 279.295 424.865 279.685 424.865 280.08C424.865 280.475 424.787 280.865 424.636 281.23C424.485 281.594 424.263 281.925 423.984 282.204Z" fill="#1CB0FD"/>
<path d="M421.872 283.38C421.102 283.385 420.354 283.122 419.756 282.637C419.158 282.152 418.748 281.474 418.594 280.72C418.44 279.965 418.553 279.181 418.914 278.5C419.274 277.82 419.86 277.285 420.57 276.989C421.281 276.692 422.072 276.651 422.81 276.873C423.547 277.096 424.184 277.567 424.613 278.206C425.041 278.846 425.234 279.615 425.159 280.381C425.084 281.148 424.745 281.864 424.2 282.408C423.895 282.716 423.533 282.96 423.133 283.127C422.734 283.294 422.305 283.38 421.872 283.38ZM421.872 277.38C421.517 277.378 421.165 277.447 420.838 277.583C420.51 277.719 420.213 277.919 419.964 278.172C419.487 278.684 419.227 279.361 419.24 280.06C419.252 280.76 419.535 281.427 420.03 281.922C420.525 282.417 421.192 282.7 421.892 282.712C422.591 282.725 423.268 282.465 423.78 281.988C424.286 281.482 424.57 280.796 424.57 280.08C424.57 279.365 424.286 278.678 423.78 278.172C423.531 277.92 423.233 277.72 422.906 277.584C422.578 277.448 422.227 277.378 421.872 277.38Z" fill="#1CB0FD"/>
<path d="M444.252 234.6C443.833 235.021 443.298 235.307 442.716 235.424C442.134 235.54 441.53 235.481 440.981 235.255C440.433 235.028 439.964 234.643 439.634 234.15C439.304 233.656 439.127 233.076 439.127 232.482C439.127 231.888 439.304 231.308 439.634 230.814C439.964 230.321 440.433 229.936 440.981 229.71C441.53 229.483 442.134 229.424 442.716 229.541C443.298 229.657 443.833 229.944 444.252 230.364C444.531 230.642 444.752 230.972 444.903 231.335C445.055 231.699 445.132 232.089 445.132 232.482C445.132 232.876 445.055 233.266 444.903 233.629C444.752 233.992 444.531 234.323 444.252 234.6Z" fill="#1CB0FD"/>
<path d="M442.128 235.788C441.362 235.789 440.619 235.524 440.026 235.039C439.433 234.553 439.027 233.877 438.876 233.126C438.726 232.374 438.841 231.594 439.202 230.918C439.562 230.242 440.146 229.711 440.854 229.417C441.561 229.123 442.349 229.084 443.083 229.306C443.816 229.528 444.45 229.997 444.876 230.633C445.303 231.27 445.495 232.035 445.42 232.798C445.346 233.56 445.009 234.274 444.468 234.816C444.162 235.125 443.797 235.37 443.395 235.537C442.994 235.703 442.563 235.789 442.128 235.788ZM442.128 229.788C441.773 229.786 441.422 229.856 441.094 229.992C440.766 230.128 440.469 230.328 440.22 230.58C439.714 231.086 439.43 231.773 439.43 232.488C439.43 233.204 439.714 233.89 440.22 234.396C440.734 234.887 441.417 235.162 442.128 235.162C442.839 235.162 443.522 234.887 444.036 234.396C444.542 233.89 444.826 233.204 444.826 232.488C444.826 231.773 444.542 231.086 444.036 230.58C443.787 230.327 443.49 230.127 443.162 229.991C442.835 229.855 442.483 229.786 442.128 229.788Z" fill="#1CB0FD"/>
<path d="M436.716 323.664C436.297 324.085 435.762 324.371 435.18 324.488C434.598 324.604 433.994 324.545 433.445 324.319C432.897 324.092 432.428 323.707 432.098 323.214C431.768 322.72 431.591 322.14 431.591 321.546C431.591 320.952 431.768 320.372 432.098 319.878C432.428 319.385 432.897 319 433.445 318.774C433.994 318.547 434.598 318.488 435.18 318.604C435.762 318.721 436.297 319.008 436.716 319.428C437.277 319.99 437.591 320.752 437.591 321.546C437.591 322.34 437.277 323.102 436.716 323.664Z" fill="#1CB0FD"/>
<path d="M434.592 324.84C433.719 324.84 432.881 324.494 432.263 323.878C431.644 323.261 431.295 322.425 431.292 321.552C431.29 321.009 431.423 320.473 431.678 319.993C431.933 319.513 432.302 319.104 432.753 318.801C433.205 318.498 433.724 318.311 434.265 318.257C434.805 318.204 435.351 318.284 435.853 318.492C436.356 318.7 436.799 319.028 437.143 319.448C437.488 319.868 437.724 320.367 437.829 320.9C437.935 321.434 437.907 321.984 437.748 322.504C437.59 323.024 437.305 323.497 436.92 323.88C436.615 324.187 436.252 324.43 435.853 324.595C435.453 324.759 435.024 324.843 434.592 324.84ZM434.592 318.84C433.876 318.84 433.189 319.125 432.683 319.631C432.176 320.137 431.892 320.824 431.892 321.54C431.892 322.074 432.051 322.595 432.348 323.039C432.645 323.482 433.066 323.828 433.559 324.032C434.052 324.236 434.595 324.29 435.118 324.186C435.642 324.082 436.122 323.825 436.5 323.448C436.877 323.07 437.134 322.59 437.238 322.066C437.342 321.543 437.288 321 437.084 320.507C436.88 320.014 436.534 319.593 436.091 319.296C435.647 318.999 435.126 318.841 434.592 318.84Z" fill="#1CB0FD"/>
<path d="M353.544 186.78C353.124 187.199 352.59 187.484 352.008 187.599C351.426 187.714 350.823 187.654 350.276 187.427C349.728 187.2 349.26 186.815 348.93 186.322C348.601 185.829 348.425 185.249 348.425 184.656C348.425 184.063 348.601 183.483 348.93 182.99C349.26 182.497 349.728 182.112 350.276 181.885C350.823 181.658 351.426 181.598 352.008 181.713C352.59 181.828 353.124 182.113 353.544 182.532C354.102 183.098 354.415 183.861 354.415 184.656C354.415 185.451 354.102 186.214 353.544 186.78Z" fill="#1CB0FD"/>
<path d="M351.42 187.956C350.987 187.958 350.557 187.873 350.157 187.706C349.758 187.539 349.395 187.294 349.092 186.984C348.784 186.678 348.539 186.315 348.373 185.914C348.206 185.514 348.12 185.084 348.12 184.65C348.12 184.216 348.206 183.787 348.373 183.386C348.539 182.985 348.784 182.622 349.092 182.316C349.396 182.008 349.759 181.765 350.159 181.6C350.558 181.435 350.987 181.352 351.42 181.356C351.852 181.354 352.281 181.438 352.68 181.603C353.08 181.767 353.443 182.01 353.748 182.316C354.206 182.779 354.517 183.367 354.642 184.006C354.768 184.644 354.702 185.306 354.454 185.908C354.205 186.51 353.785 187.025 353.246 187.389C352.706 187.753 352.071 187.951 351.42 187.956ZM351.42 181.956C351.065 181.954 350.713 182.023 350.386 182.159C350.058 182.295 349.761 182.495 349.512 182.748C349.006 183.254 348.722 183.941 348.722 184.656C348.722 185.372 349.006 186.058 349.512 186.564C350.026 187.056 350.709 187.33 351.42 187.33C352.131 187.33 352.814 187.056 353.328 186.564C353.705 186.187 353.962 185.706 354.066 185.182C354.17 184.659 354.116 184.116 353.912 183.623C353.708 183.13 353.362 182.709 352.919 182.412C352.475 182.115 351.954 181.957 351.42 181.956Z" fill="#1CB0FD"/>
<path d="M220.416 124.8C219.996 125.219 219.462 125.504 218.88 125.619C218.298 125.734 217.695 125.674 217.148 125.447C216.6 125.22 216.132 124.835 215.802 124.342C215.473 123.849 215.297 123.269 215.297 122.676C215.297 122.083 215.473 121.503 215.802 121.01C216.132 120.517 216.6 120.132 217.148 119.905C217.695 119.678 218.298 119.618 218.88 119.733C219.462 119.848 219.996 120.133 220.416 120.552C220.974 121.118 221.288 121.881 221.288 122.676C221.288 123.471 220.974 124.234 220.416 124.8Z" fill="#1CB0FD"/>
<path d="M218.292 126C217.532 125.986 216.799 125.71 216.219 125.218C215.639 124.727 215.246 124.05 215.108 123.302C214.969 122.554 215.093 121.781 215.459 121.115C215.824 120.448 216.409 119.927 217.114 119.642C217.819 119.356 218.601 119.323 219.327 119.548C220.054 119.772 220.68 120.241 221.101 120.875C221.522 121.508 221.711 122.267 221.637 123.024C221.562 123.781 221.228 124.489 220.692 125.028C220.379 125.345 220.005 125.594 219.592 125.761C219.179 125.928 218.737 126.01 218.292 126ZM218.292 120C217.937 119.998 217.586 120.068 217.258 120.204C216.93 120.34 216.633 120.54 216.384 120.792C215.878 121.298 215.594 121.985 215.594 122.7C215.594 123.416 215.878 124.102 216.384 124.608C216.898 125.1 217.581 125.374 218.292 125.374C219.003 125.374 219.686 125.1 220.2 124.608C220.577 124.23 220.834 123.75 220.938 123.226C221.042 122.703 220.988 122.16 220.784 121.667C220.58 121.174 220.234 120.753 219.791 120.456C219.347 120.159 218.826 120.001 218.292 120Z" fill="#1CB0FD"/>
<path d="M214.8 163.452C214.38 163.871 213.846 164.156 213.264 164.271C212.682 164.386 212.079 164.326 211.532 164.099C210.984 163.872 210.516 163.487 210.186 162.994C209.857 162.501 209.681 161.921 209.681 161.328C209.681 160.735 209.857 160.155 210.186 159.662C210.516 159.169 210.984 158.784 211.532 158.557C212.079 158.33 212.682 158.27 213.264 158.385C213.846 158.5 214.38 158.785 214.8 159.204C215.358 159.77 215.671 160.533 215.671 161.328C215.671 162.123 215.358 162.886 214.8 163.452Z" fill="#1CB0FD"/>
<path d="M212.64 164.628C211.876 164.631 211.136 164.368 210.544 163.886C209.952 163.403 209.546 162.73 209.394 161.982C209.243 161.233 209.356 160.456 209.714 159.781C210.072 159.107 210.653 158.577 211.358 158.283C212.062 157.989 212.847 157.948 213.578 158.168C214.31 158.387 214.942 158.854 215.368 159.488C215.794 160.121 215.987 160.883 215.914 161.643C215.841 162.404 215.507 163.115 214.968 163.656C214.664 163.964 214.301 164.209 213.902 164.376C213.502 164.543 213.073 164.629 212.64 164.628ZM212.64 158.628C212.015 158.628 211.41 158.844 210.927 159.239C210.443 159.635 210.112 160.187 209.99 160.799C209.868 161.412 209.961 162.048 210.255 162.599C210.549 163.15 211.026 163.582 211.602 163.822C212.179 164.061 212.822 164.093 213.42 163.912C214.017 163.731 214.534 163.349 214.882 162.83C215.229 162.31 215.386 161.687 215.325 161.065C215.264 160.443 214.989 159.862 214.548 159.42C214.298 159.168 214.001 158.968 213.674 158.833C213.346 158.697 212.995 158.627 212.64 158.628Z" fill="#1CB0FD"/>
<path d="M234.084 306.708C233.664 307.127 233.13 307.412 232.548 307.527C231.966 307.642 231.363 307.582 230.816 307.355C230.268 307.128 229.8 306.743 229.47 306.25C229.141 305.757 228.965 305.177 228.965 304.584C228.965 303.991 229.141 303.411 229.47 302.918C229.8 302.425 230.268 302.04 230.816 301.813C231.363 301.586 231.966 301.526 232.548 301.641C233.13 301.756 233.664 302.041 234.084 302.46C234.642 303.026 234.956 303.789 234.956 304.584C234.956 305.379 234.642 306.142 234.084 306.708Z" fill="#1CB0FD"/>
<path d="M231.96 307.884C231.19 307.889 230.442 307.626 229.844 307.141C229.246 306.656 228.836 305.978 228.682 305.223C228.528 304.469 228.641 303.684 229.002 303.004C229.362 302.324 229.948 301.789 230.658 301.493C231.369 301.196 232.16 301.155 232.898 301.377C233.635 301.599 234.272 302.071 234.701 302.71C235.129 303.35 235.322 304.119 235.247 304.885C235.172 305.651 234.833 306.368 234.288 306.912C233.984 307.22 233.621 307.465 233.222 307.632C232.822 307.799 232.393 307.885 231.96 307.884ZM231.96 301.884C231.605 301.882 231.253 301.951 230.926 302.087C230.598 302.223 230.301 302.423 230.052 302.676C229.575 303.188 229.315 303.865 229.328 304.564C229.34 305.264 229.623 305.931 230.118 306.426C230.613 306.921 231.28 307.204 231.98 307.216C232.679 307.229 233.356 306.969 233.868 306.492C234.245 306.114 234.502 305.634 234.606 305.11C234.71 304.587 234.656 304.044 234.452 303.551C234.248 303.058 233.902 302.637 233.459 302.34C233.015 302.043 232.494 301.884 231.96 301.884Z" fill="#1CB0FD"/>
<path d="M366.732 428.52C366.312 428.939 365.778 429.224 365.196 429.339C364.614 429.454 364.011 429.394 363.464 429.167C362.916 428.94 362.448 428.555 362.118 428.062C361.789 427.569 361.613 426.989 361.613 426.396C361.613 425.803 361.789 425.223 362.118 424.73C362.448 424.237 362.916 423.852 363.464 423.625C364.011 423.398 364.614 423.338 365.196 423.453C365.778 423.568 366.312 423.853 366.732 424.272C367.013 424.55 367.236 424.881 367.388 425.245C367.54 425.61 367.618 426.001 367.618 426.396C367.618 426.791 367.54 427.182 367.388 427.547C367.236 427.911 367.013 428.242 366.732 428.52Z" fill="#1CB0FD"/>
<path d="M364.608 429.696C364.068 429.686 363.538 429.543 363.066 429.281C362.594 429.018 362.193 428.644 361.899 428.19C361.606 427.736 361.428 427.218 361.382 426.679C361.335 426.141 361.422 425.599 361.634 425.102C361.846 424.605 362.177 424.168 362.597 423.828C363.018 423.489 363.515 423.258 364.046 423.156C364.577 423.054 365.124 423.084 365.641 423.243C366.157 423.402 366.627 423.685 367.008 424.068C367.624 424.689 367.97 425.528 367.97 426.402C367.97 427.277 367.624 428.116 367.008 428.736C366.692 429.048 366.317 429.294 365.905 429.459C365.493 429.624 365.052 429.704 364.608 429.696ZM364.608 423.696C364.074 423.697 363.553 423.855 363.109 424.152C362.666 424.449 362.32 424.87 362.116 425.363C361.912 425.856 361.858 426.399 361.962 426.922C362.066 427.446 362.323 427.927 362.7 428.304C363.214 428.796 363.897 429.07 364.608 429.07C365.319 429.07 366.002 428.796 366.516 428.304C366.893 427.927 367.15 427.446 367.254 426.922C367.358 426.399 367.304 425.856 367.1 425.363C366.896 424.87 366.55 424.449 366.107 424.152C365.663 423.855 365.142 423.697 364.608 423.696Z" fill="#1CB0FD"/>
<path d="M138.66 179.7C138.241 180.121 137.706 180.407 137.124 180.524C136.542 180.64 135.938 180.581 135.389 180.355C134.841 180.128 134.372 179.743 134.042 179.25C133.712 178.756 133.535 178.176 133.535 177.582C133.535 176.988 133.712 176.408 134.042 175.914C134.372 175.421 134.841 175.036 135.389 174.809C135.938 174.583 136.542 174.524 137.124 174.64C137.706 174.757 138.241 175.044 138.66 175.464C139.221 176.026 139.535 176.788 139.535 177.582C139.535 178.376 139.221 179.138 138.66 179.7Z" fill="#1CB0FD"/>
<path d="M136.536 180.888C135.766 180.893 135.018 180.63 134.42 180.145C133.822 179.66 133.412 178.982 133.258 178.228C133.104 177.473 133.217 176.689 133.578 176.008C133.938 175.328 134.524 174.794 135.234 174.497C135.945 174.2 136.736 174.159 137.474 174.381C138.211 174.604 138.848 175.075 139.277 175.715C139.705 176.354 139.898 177.123 139.823 177.889C139.748 178.656 139.409 179.372 138.864 179.916C138.56 180.225 138.197 180.469 137.798 180.636C137.398 180.803 136.969 180.889 136.536 180.888ZM136.536 174.888C136.181 174.887 135.83 174.957 135.502 175.093C135.175 175.229 134.878 175.428 134.628 175.68C134.122 176.186 133.838 176.873 133.838 177.588C133.838 178.304 134.122 178.99 134.628 179.496C134.942 179.81 135.328 180.042 135.753 180.172C136.178 180.301 136.629 180.323 137.064 180.236C137.5 180.15 137.908 179.957 138.251 179.675C138.594 179.394 138.863 179.031 139.033 178.621C139.203 178.211 139.269 177.765 139.225 177.323C139.182 176.881 139.03 176.456 138.783 176.087C138.536 175.718 138.201 175.415 137.809 175.206C137.418 174.997 136.98 174.888 136.536 174.888Z" fill="#1CB0FD"/>
<path d="M182.268 395.412C176.511 395.412 170.989 393.125 166.918 389.054C162.847 384.983 160.56 379.461 160.56 373.704C160.56 367.947 162.847 362.425 166.918 358.354C170.989 354.283 176.511 351.996 182.268 351.996C185.121 351.993 187.946 352.552 190.583 353.642C193.219 354.731 195.615 356.33 197.633 358.346C199.652 360.362 201.253 362.756 202.345 365.391C203.438 368.027 204 370.851 204 373.704C204 376.557 203.438 379.382 202.345 382.017C201.253 384.652 199.652 387.046 197.633 389.062C195.615 391.079 193.219 392.677 190.583 393.767C187.946 394.856 185.121 395.415 182.268 395.412Z" fill="#263238" stroke="#263238" stroke-linecap="round" stroke-linejoin="round"/>
<path d="M182.268 363.948C185.448 363.948 185.868 363.948 187.068 364.02C187.822 364.023 188.57 364.161 189.276 364.428C189.789 364.625 190.255 364.928 190.644 365.316C191.032 365.705 191.335 366.171 191.532 366.684C191.799 367.39 191.937 368.138 191.94 368.892C191.94 370.092 192.012 370.524 192.012 373.692C192.012 376.86 192.012 377.292 191.94 378.492C191.936 379.246 191.797 379.994 191.532 380.7C191.335 381.213 191.032 381.679 190.644 382.068C190.255 382.456 189.789 382.759 189.276 382.956C188.57 383.223 187.822 383.361 187.068 383.364C185.808 383.424 185.436 383.436 182.268 383.436C179.1 383.436 178.668 383.436 177.468 383.364C176.714 383.36 175.966 383.221 175.26 382.956C174.744 382.766 174.276 382.462 173.892 382.068C173.502 381.681 173.199 381.214 173.004 380.7C172.739 379.994 172.6 379.246 172.596 378.492C172.596 377.232 172.524 376.86 172.524 373.692C172.524 370.524 172.524 370.092 172.596 368.892C172.599 368.138 172.737 367.39 173.004 366.684C173.199 366.17 173.502 365.703 173.892 365.316C174.276 364.922 174.744 364.618 175.26 364.428C175.966 364.163 176.714 364.025 177.468 364.02C178.728 363.96 179.1 363.948 182.268 363.948ZM182.268 361.8C179.04 361.8 178.668 361.8 177.36 361.872C176.376 361.896 175.403 362.083 174.48 362.424C173.685 362.726 172.964 363.197 172.368 363.804C171.764 364.395 171.297 365.112 171 365.904C170.647 366.828 170.456 367.807 170.436 368.796C170.436 370.068 170.364 370.476 170.364 373.704C170.364 376.932 170.364 377.304 170.436 378.612C170.459 379.601 170.65 380.579 171 381.504C171.297 382.296 171.764 383.013 172.368 383.604C172.964 384.211 173.685 384.682 174.48 384.984C175.403 385.326 176.376 385.512 177.36 385.536C178.632 385.596 179.04 385.608 182.268 385.608C185.496 385.608 185.868 385.608 187.176 385.536C188.164 385.513 189.141 385.327 190.068 384.984C190.858 384.677 191.573 384.207 192.168 383.604C192.776 383.013 193.247 382.296 193.548 381.504C193.888 380.576 194.074 379.6 194.1 378.612C194.16 377.34 194.172 376.932 194.172 373.704C194.172 370.476 194.172 370.104 194.1 368.796C194.077 367.808 193.891 366.831 193.548 365.904C193.247 365.112 192.776 364.395 192.168 363.804C191.573 363.201 190.858 362.731 190.068 362.424C189.141 362.081 188.164 361.895 187.176 361.872C185.904 361.812 185.508 361.8 182.268 361.8Z" fill="#1CB0FD"/>
<path d="M182.268 367.596C181.06 367.596 179.879 367.954 178.875 368.625C177.87 369.296 177.087 370.25 176.625 371.367C176.163 372.483 176.042 373.711 176.277 374.896C176.513 376.08 177.095 377.169 177.949 378.023C178.803 378.877 179.892 379.459 181.076 379.695C182.261 379.93 183.489 379.809 184.605 379.347C185.722 378.885 186.675 378.102 187.347 377.097C188.018 376.093 188.376 374.912 188.376 373.704C188.376 372.084 187.732 370.53 186.587 369.385C185.442 368.239 183.888 367.596 182.268 367.596ZM182.268 377.664C181.482 377.664 180.713 377.431 180.06 376.994C179.407 376.557 178.897 375.936 178.597 375.209C178.297 374.483 178.219 373.683 178.373 372.913C178.527 372.142 178.907 371.434 179.464 370.879C180.02 370.324 180.729 369.947 181.5 369.795C182.272 369.643 183.071 369.723 183.796 370.026C184.522 370.328 185.141 370.839 185.576 371.494C186.011 372.149 186.242 372.918 186.24 373.704C186.24 374.225 186.137 374.741 185.937 375.222C185.738 375.703 185.445 376.14 185.076 376.508C184.707 376.876 184.269 377.168 183.787 377.366C183.305 377.564 182.789 377.666 182.268 377.664Z" fill="#1CB0FD"/>
<path d="M190.056 367.356C190.056 367.735 189.906 368.098 189.638 368.366C189.37 368.634 189.007 368.784 188.628 368.784C188.249 368.784 187.886 368.634 187.618 368.366C187.35 368.098 187.2 367.735 187.2 367.356C187.2 366.977 187.35 366.614 187.618 366.346C187.886 366.078 188.249 365.928 188.628 365.928C189.007 365.928 189.37 366.078 189.638 366.346C189.906 366.614 190.056 366.977 190.056 367.356Z" fill="#1CB0FD"/>
<path d="M372 141.312C366.243 141.312 360.721 139.025 356.65 134.954C352.579 130.883 350.292 125.361 350.292 119.604C350.292 116.754 350.854 113.932 351.945 111.298C353.036 108.665 354.635 106.273 356.651 104.258C358.667 102.244 361.06 100.646 363.694 99.556C366.327 98.4664 369.15 97.9064 372 97.908C374.85 97.9064 377.672 98.4665 380.305 99.5563C382.938 100.646 385.33 102.244 387.345 104.259C389.36 106.274 390.958 108.666 392.048 111.299C393.137 113.932 393.698 116.754 393.696 119.604C393.698 122.454 393.138 125.277 392.048 127.91C390.958 130.544 389.36 132.937 387.346 134.953C385.331 136.969 382.939 138.568 380.305 139.659C377.672 140.75 374.85 141.312 372 141.312Z" fill="#263238"/>
<path d="M368.592 132.732H373.872V119.532H377.568L377.952 115.104H373.872V112.584C373.872 111.54 374.088 111.12 375.072 111.12H378V106.488H374.4C370.464 106.488 368.688 108.216 368.688 111.528V115.128H365.94V119.616H368.688L368.592 132.732Z" fill="#1CB0FD"/>
<path d="M161.508 182.688C155.751 182.688 150.229 180.401 146.158 176.33C142.087 172.259 139.8 166.737 139.8 160.98C139.803 155.225 142.092 149.706 146.162 145.638C150.233 141.569 155.753 139.284 161.508 139.284C167.261 139.287 172.778 141.574 176.846 145.642C180.914 149.71 183.201 155.227 183.204 160.98C183.204 166.735 180.919 172.255 176.85 176.326C172.782 180.396 167.263 182.685 161.508 182.688Z" fill="#263238" stroke="#263238" stroke-linecap="round" stroke-linejoin="round"/>
<path d="M152 156.16C152 153.398 154.239 151.16 157 151.16H167C169.762 151.16 172 153.398 172 156.16V164.639C172 167.401 169.762 169.639 167 169.639H157C154.239 169.639 152 167.401 152 164.639V156.16Z" fill="white"/>
<path d="M155.334 151C153.493 151 152 152.492 152 154.333V167.667C152 169.508 153.493 171 155.334 171H168.667C170.508 171 172 169.508 172 167.667V154.333C172 152.492 170.508 151 168.667 151H155.334ZM156.327 155.286H160.107L162.791 159.1L166.048 155.286H167.238L163.328 159.863L168.15 166.714H164.371L161.256 162.289L157.476 166.714H156.286L160.719 161.525L156.327 155.286ZM158.15 156.238L164.868 165.762H166.327L159.609 156.238H158.15Z" fill="#1CB0FD"/>
<path d="M414.072 394.08C426.187 394.08 436.008 384.259 436.008 372.144C436.008 360.029 426.187 350.208 414.072 350.208C401.957 350.208 392.136 360.029 392.136 372.144C392.136 384.259 401.957 394.08 414.072 394.08Z" fill="#263238"/>
<path d="M428.136 370.512C428.352 370.495 428.568 370.495 428.784 370.512C429.432 370.512 430.053 370.255 430.511 369.797C430.969 369.339 431.226 368.718 431.226 368.07C431.226 367.422 430.969 366.801 430.511 366.343C430.053 365.885 429.432 365.628 428.784 365.628H419.532C419.532 365.628 420.096 362.292 420.096 361.152C420.096 360.012 420.672 358.284 419.148 356.088C417.624 353.892 414.096 354.756 414.096 354.756L414.624 359.292C414.708 360.003 414.574 360.723 414.24 361.356L410.088 369.156L408.18 370.788L407.604 380.388C408.804 383.34 412.752 384.3 412.752 384.3H425.268C425.928 384.316 426.568 384.075 427.052 383.627C427.536 383.178 427.826 382.559 427.86 381.9C427.855 381.483 427.742 381.075 427.532 380.715C427.321 380.355 427.021 380.056 426.66 379.848C426.819 379.866 426.981 379.866 427.14 379.848C427.8 379.868 428.442 379.627 428.927 379.178C429.412 378.729 429.701 378.108 429.732 377.448C429.723 377.035 429.608 376.632 429.398 376.277C429.188 375.921 428.89 375.626 428.532 375.42C429.117 375.34 429.654 375.055 430.048 374.615C430.441 374.175 430.665 373.61 430.68 373.02C430.678 372.688 430.611 372.36 430.482 372.054C430.354 371.748 430.166 371.47 429.929 371.237C429.693 371.004 429.413 370.82 429.105 370.696C428.797 370.571 428.468 370.509 428.136 370.512Z" fill="white"/>
<path d="M425.244 384.66H412.644C412.476 384.66 408.528 383.616 407.232 380.52C407.221 380.465 407.221 380.407 407.232 380.352L407.808 370.752C407.808 370.699 407.82 370.647 407.843 370.599C407.866 370.552 407.899 370.509 407.94 370.476L409.788 368.904L413.916 361.164C414.216 360.597 414.338 359.953 414.264 359.316L413.724 354.792C413.712 354.699 413.735 354.605 413.788 354.527C413.841 354.45 413.921 354.395 414.012 354.372C414.168 354.372 417.816 353.484 419.472 355.86C420.413 357.185 420.797 358.827 420.54 360.432C420.54 360.684 420.54 360.924 420.54 361.14C420.447 362.512 420.279 363.878 420.036 365.232H428.844H428.976C429.726 365.244 430.441 365.546 430.974 366.073C431.506 366.601 431.813 367.315 431.832 368.064C431.825 368.64 431.641 369.201 431.307 369.671C430.972 370.14 430.502 370.497 429.96 370.692C430.331 370.948 430.635 371.29 430.844 371.689C431.053 372.089 431.161 372.533 431.16 372.984C431.154 373.536 430.986 374.073 430.677 374.53C430.367 374.987 429.93 375.342 429.42 375.552C429.894 376.056 430.16 376.72 430.164 377.412C430.148 378.094 429.891 378.747 429.438 379.257C428.986 379.767 428.367 380.1 427.692 380.196C428.065 380.672 428.268 381.259 428.268 381.864C428.254 382.246 428.165 382.622 428.005 382.97C427.845 383.318 427.618 383.631 427.337 383.891C427.056 384.151 426.727 384.352 426.367 384.484C426.008 384.616 425.626 384.676 425.244 384.66ZM412.8 383.892H425.268C425.834 383.908 426.383 383.7 426.796 383.314C427.21 382.928 427.454 382.393 427.476 381.828C427.472 381.479 427.378 381.137 427.204 380.834C427.029 380.531 426.78 380.279 426.48 380.1C426.404 380.055 426.347 379.984 426.318 379.901C426.29 379.817 426.292 379.726 426.324 379.644C426.354 379.56 426.413 379.49 426.49 379.446C426.567 379.402 426.657 379.387 426.744 379.404H427.164C427.73 379.42 428.279 379.212 428.692 378.826C429.106 378.44 429.35 377.906 429.372 377.34C429.368 376.997 429.277 376.66 429.107 376.362C428.937 376.064 428.694 375.814 428.4 375.636C428.334 375.595 428.283 375.536 428.253 375.465C428.223 375.394 428.216 375.315 428.232 375.24C428.248 375.164 428.286 375.095 428.342 375.042C428.397 374.988 428.468 374.953 428.544 374.94C429.039 374.872 429.493 374.631 429.827 374.26C430.161 373.889 430.353 373.411 430.368 372.912C430.359 372.631 430.294 372.355 430.178 372.1C430.062 371.844 429.897 371.614 429.692 371.422C429.487 371.231 429.246 371.081 428.983 370.983C428.72 370.884 428.441 370.838 428.16 370.848C428.062 370.842 427.971 370.799 427.904 370.727C427.837 370.656 427.8 370.562 427.8 370.464C427.8 370.044 428.148 370.044 428.844 370.044C429.127 370.066 429.412 370.028 429.681 369.935C429.949 369.841 430.195 369.693 430.404 369.5C430.613 369.307 430.779 369.073 430.893 368.812C431.007 368.551 431.065 368.27 431.065 367.986C431.065 367.702 431.007 367.42 430.893 367.16C430.779 366.899 430.613 366.665 430.404 366.472C430.195 366.279 429.949 366.131 429.681 366.037C429.412 365.943 429.127 365.906 428.844 365.928H428.712H419.592C419.536 365.928 419.48 365.916 419.428 365.893C419.377 365.871 419.33 365.837 419.292 365.796C419.258 365.752 419.233 365.702 419.219 365.648C419.204 365.595 419.201 365.539 419.208 365.484C419.476 364.023 419.668 362.549 419.784 361.068C419.784 360.816 419.784 360.564 419.784 360.288C419.903 359.582 419.882 358.859 419.721 358.161C419.56 357.463 419.264 356.803 418.848 356.22C417.744 354.648 415.392 354.84 414.528 355.02L415.02 359.196C415.113 359.986 414.962 360.786 414.588 361.488L410.436 369.288C410.411 369.333 410.378 369.374 410.34 369.408L408.564 370.92L408 380.304C409.092 382.8 412.368 383.784 412.8 383.892Z" fill="#263238"/>
<path d="M406.728 367.188H401.784C400.366 367.188 399.216 368.338 399.216 369.756V383.22C399.216 384.638 400.366 385.788 401.784 385.788H406.728C408.146 385.788 409.296 384.638 409.296 383.22V369.756C409.296 368.338 408.146 367.188 406.728 367.188Z" fill="#1CB0FD" stroke="#263238" stroke-linecap="round" stroke-linejoin="round"/>
<path d="M444.144 155.04C441.905 155.04 439.687 155.481 437.618 156.338C435.55 157.195 433.67 158.451 432.086 160.034C430.503 161.618 429.247 163.498 428.39 165.567C427.533 167.635 427.092 169.853 427.092 172.092C427.092 181.512 444.144 201.996 444.144 201.996C444.144 201.996 461.196 181.512 461.196 172.092C461.196 167.57 459.399 163.232 456.202 160.034C453.004 156.837 448.666 155.04 444.144 155.04ZM444.144 181.608C442.359 181.608 440.614 181.079 439.131 180.087C437.647 179.096 436.49 177.686 435.807 176.037C435.124 174.388 434.945 172.574 435.293 170.824C435.642 169.073 436.501 167.465 437.763 166.203C439.025 164.941 440.633 164.082 442.383 163.733C444.134 163.385 445.948 163.564 447.597 164.247C449.246 164.93 450.656 166.087 451.647 167.571C452.639 169.055 453.168 170.799 453.168 172.584C453.168 173.769 452.935 174.943 452.481 176.037C452.028 177.132 451.363 178.127 450.525 178.965C449.687 179.803 448.692 180.468 447.597 180.921C446.502 181.375 445.329 181.608 444.144 181.608Z" fill="#263238"/>
<path d="M483.948 270.288L484.032 270.228H483.864L456.972 250.008L430.068 270.228H429.9L429.984 270.288L429.9 270.348H430.08L457.212 289.872L483.864 270.348H484.032L483.948 270.288Z" fill="#1CB0FD" stroke="#263238" stroke-linecap="round" stroke-linejoin="round"/>
<path d="M474.696 252.024H438.384V297.096H474.696V252.024Z" fill="white" stroke="#1CB0FD" stroke-linecap="round" stroke-linejoin="round"/>
<path d="M464.28 264.288C464.28 269.52 461.88 272.52 459.48 272.52C459.223 272.556 458.961 272.536 458.711 272.463C458.462 272.39 458.231 272.265 458.034 272.096C457.836 271.927 457.677 271.718 457.566 271.483C457.456 271.248 457.396 270.992 457.392 270.732C457.184 271.276 456.81 271.742 456.324 272.063C455.837 272.383 455.262 272.543 454.68 272.52C452.7 272.52 452.016 270.828 452.28 268.488L452.568 265.848C452.796 263.448 453.888 261.948 455.832 261.996C456.355 261.968 456.872 262.127 457.288 262.446C457.704 262.766 457.992 263.223 458.1 263.736L458.292 262.104H460.08L459.288 269.676C459.204 270.276 459.396 270.804 460.056 270.804C462.084 270.804 462.768 266.928 462.744 264.348C462.744 260.676 461.028 258.348 457.068 258.348C451.8 258.348 449.352 262.716 449.352 268.632C449.352 273.192 451.428 275.928 456.024 275.928C457.894 276.008 459.731 275.421 461.208 274.272L461.052 276.096C459.533 277.1 457.735 277.596 455.916 277.512C450.108 277.512 447.576 273.912 447.576 268.524C447.576 262.248 450.588 256.74 457.176 256.74C462.384 256.704 464.28 259.944 464.28 264.288ZM454.284 266.028L454.044 268.428C453.888 269.808 454.308 270.828 455.544 270.828C456.78 270.828 457.416 269.904 457.584 268.428L457.848 265.896C457.98 264.696 457.476 263.796 456.312 263.796C455.148 263.796 454.44 264.612 454.284 266.028Z" fill="#263238"/>
<path d="M429.9 270.228V301.608H484.032V270.228L456.972 285.912L429.9 270.228Z" fill="#1CB0FD" stroke="#263238" stroke-linecap="round" stroke-linejoin="round"/>
<path d="M429.9 301.608L456.972 285.912L484.032 301.608" stroke="#263238" stroke-linecap="round" stroke-linejoin="round"/>
<path d="M285.768 96.324H228.3V136.176H285.768V96.324Z" fill="#263238" stroke="#263238" stroke-linecap="round" stroke-linejoin="round"/>
<path d="M260.084 129.056C267.164 127.376 271.542 120.274 269.862 113.194C268.181 106.114 261.08 101.736 253.999 103.416C246.919 105.096 242.541 112.198 244.222 119.278C245.902 126.359 253.004 130.736 260.084 129.056Z" fill="#1CB0FD"/>
<path d="M266.592 116.496L250.488 107.196V125.796L266.592 116.496Z" fill="#263238" stroke="#263238" stroke-linecap="round" stroke-linejoin="round"/>
<path d="M229.572 132.18H284.208" stroke="white" stroke-linecap="round" stroke-linejoin="round"/>
<path d="M167.244 275.52C167.732 272.865 167.428 270.126 166.369 267.643C165.31 265.16 163.543 263.045 161.289 261.56C159.035 260.075 156.394 259.287 153.694 259.294C150.995 259.301 148.358 260.103 146.112 261.6C144.501 257.603 141.546 254.292 137.758 252.239C133.969 250.185 129.583 249.516 125.354 250.347C121.125 251.178 117.319 253.458 114.589 256.793C111.86 260.128 110.378 264.31 110.4 268.62C110.4 268.848 110.4 269.076 110.4 269.292C107.759 270.071 105.463 271.73 103.895 273.994C102.328 276.258 101.582 278.991 101.783 281.738C101.983 284.484 103.118 287.079 104.998 289.092C106.877 291.104 109.389 292.413 112.116 292.8V292.932H166.656C168.949 292.974 171.167 292.112 172.83 290.533C174.493 288.953 175.468 286.784 175.546 284.491C175.623 282.199 174.796 279.969 173.242 278.281C171.689 276.594 169.535 275.585 167.244 275.472V275.52Z" fill="white" stroke="#1CB0FD" stroke-linecap="round" stroke-linejoin="round"/>
<path d="M151.692 287.388L136.572 268.368L121.464 287.388H127.368V304.512H145.776V287.388H151.692Z" fill="#263238"/>
<path d="M263.532 504.672C261.658 506.135 259.867 507.701 258.168 509.364C255.768 511.764 248.856 514.512 244.692 517.452C240.528 520.392 242.976 523.332 246.648 524.556C250.32 525.78 260.868 524.796 264.78 524.064C268.692 523.332 270.672 518.676 273.852 517.944C277.032 517.212 282.924 519.9 283.164 515.244C283.404 510.588 283.656 505.932 283.656 505.932L263.532 504.672Z" fill="white" stroke="#263238" stroke-linecap="round" stroke-linejoin="round"/>
<path d="M283.2 515.244C283.2 514.296 283.296 513.36 283.344 512.448C280.68 514.368 277.344 514.284 272.904 515.244C267.276 516.444 265.308 521.856 254.04 522.348C246.744 522.66 243.78 521.34 242.58 520.368C242.376 522.18 244.26 523.74 246.684 524.556C250.368 525.756 260.904 524.796 264.816 524.064C268.728 523.332 270.708 518.676 273.888 517.944C277.068 517.212 282.924 519.9 283.2 515.244Z" fill="white" stroke="#263238" stroke-linecap="round" stroke-linejoin="round"/>
<path d="M265.764 503.724C265.764 503.724 260.124 510.588 258.168 512.796C256.212 515.004 261.84 514.26 264.3 512.052C266.587 509.75 268.716 507.297 270.672 504.708L265.764 503.724Z" fill="white" stroke="#263238" stroke-linecap="round" stroke-linejoin="round"/>
<path d="M343.008 504.672C344.882 506.135 346.673 507.701 348.372 509.364C350.772 511.764 357.684 514.512 361.848 517.452C366.012 520.392 363.564 523.332 359.892 524.556C356.22 525.78 345.672 524.796 341.76 524.064C337.848 523.332 335.868 518.676 332.688 517.944C329.508 517.212 323.616 519.9 323.376 515.244C323.136 510.588 322.884 505.932 322.884 505.932L343.008 504.672Z" fill="white" stroke="#263238" stroke-linecap="round" stroke-linejoin="round"/>
<path d="M323.376 515.244C323.376 514.296 323.28 513.36 323.232 512.448C325.896 514.368 329.232 514.284 333.672 515.244C339.3 516.444 341.268 521.856 352.536 522.348C359.832 522.66 362.796 521.34 363.996 520.368C364.2 522.18 362.316 523.74 359.892 524.556C356.208 525.756 345.672 524.796 341.76 524.064C337.848 523.332 335.868 518.676 332.688 517.944C329.508 517.212 323.616 519.9 323.376 515.244Z" fill="white" stroke="#263238" stroke-linecap="round" stroke-linejoin="round"/>
<path d="M340.8 503.724C340.8 503.724 346.44 510.588 348.396 512.796C350.352 515.004 344.724 514.26 342.264 512.052C339.977 509.75 337.848 507.297 335.892 504.708L340.8 503.724Z" fill="white" stroke="#263238" stroke-linecap="round" stroke-linejoin="round"/>
<path d="M266.592 329.592C266.592 329.592 263.532 357.192 263.532 361.596C263.532 366 263.532 422.184 264.216 432.12C264.9 442.056 261.48 446.136 263.532 458.796C265.584 471.456 266.268 493.716 266.268 493.716C266.268 493.716 263.532 495.432 263.532 497.148V504.672L284.148 506.916C284.148 506.916 285.444 489.276 285.78 483.792C286.116 478.308 291.264 443.76 292.632 433.824C294 423.888 299.4 367.368 299.4 367.368C299.4 367.368 308.376 430.068 309.06 432.168C310.972 437.075 312.575 442.097 313.86 447.204C316.932 458.508 319.68 497.532 319.68 497.532L322.62 508.428L343.692 504.504C343.692 504.504 340.56 486.924 340.56 484.188C340.56 481.452 339.876 482.472 339.192 475.62C337.931 462.889 337.586 450.084 338.16 437.304C338.844 417.444 329.604 364.728 329.604 364.728L326.868 329.46C326.868 329.46 292.932 337.308 266.592 329.592Z" fill="#263238" stroke="#263238" stroke-linecap="round" stroke-linejoin="round"/>
<path d="M307.74 358.8L302.196 369.096C302.196 369.096 314.076 361.968 321.6 360.78" stroke="white" stroke-linecap="round" stroke-linejoin="round"/>
<path d="M289.404 365.46C289.404 365.46 284.244 357.132 275.136 354.756" stroke="white" stroke-linecap="round" stroke-linejoin="round"/>
<path d="M265.572 332.496C265.572 332.496 261.972 341.436 263.784 344.124C265.596 346.812 282.132 353.52 298.68 353.52C315.228 353.52 331.356 347.7 331.356 343.68C331.356 339.66 328.224 329.808 328.224 329.808C328.224 329.808 301.368 342.336 265.572 332.496Z" fill="#1CB0FD" stroke="#263238" stroke-linecap="round" stroke-linejoin="round"/>
<path d="M271.032 247.296C271.032 247.296 259.032 247.296 256.296 249.516C253.56 251.736 253.248 260.916 252.96 262.584C252.672 264.252 246.348 294.108 246.348 294.108L259.704 312.48L264.648 289.008L265.128 334.608C265.128 334.608 266.028 339.096 269.088 340.764C272.148 342.432 293.556 344.1 303.564 344.1C313.572 344.1 327.996 339.084 329.112 336.024C330.228 332.964 326.928 298.8 326.928 298.8L331.668 309.348L343.044 289.86C343.044 289.86 335.268 264.036 334.152 258.48C333.036 252.924 329.988 251.28 323.868 248.748C317.748 246.216 299.676 247.08 292.452 247.08C285.228 247.08 271.032 247.296 271.032 247.296Z" fill="#1CB0FD" stroke="#263238" stroke-linecap="round" stroke-linejoin="round"/>
<path d="M274.068 336.972C276.278 336.709 278.344 335.738 279.957 334.205C281.57 332.672 282.645 330.658 283.02 328.464C284.808 320.412 285.708 315.936 285.708 315.936L288.84 315.492C288.777 319.977 288.477 324.455 287.94 328.908C287.052 336.516 284.34 338.76 283.02 338.76" stroke="#263238" stroke-linecap="round" stroke-linejoin="round"/>
<path d="M323.748 332.94C327.348 323.988 319.272 313.74 319.272 313.74L316.14 313.296C316.14 313.296 325.092 324.936 320.616 333.876" stroke="#263238" stroke-linecap="round" stroke-linejoin="round"/>
<path d="M264.648 289.008L262.692 274.824" stroke="#263238" stroke-linecap="round" stroke-linejoin="round"/>
<path d="M326.928 298.74L325.812 272.88" stroke="#263238" stroke-linecap="round" stroke-linejoin="round"/>
<path d="M329.22 300.288C329.22 300.288 325.752 293.856 337.14 288.408" stroke="#263238" stroke-linecap="round" stroke-linejoin="round"/>
<path d="M331.2 286.92C331.2 286.92 337.2 284.4 341.1 284.4" stroke="#263238" stroke-linecap="round" stroke-linejoin="round"/>
<path d="M250.98 288.408C250.98 288.408 260.388 291.384 262.368 298.812" stroke="#263238" stroke-linecap="round" stroke-linejoin="round"/>
<path d="M261.876 291.876C261.876 291.876 258.408 285.936 252.96 284.94" stroke="#263238" stroke-linecap="round" stroke-linejoin="round"/>
<path d="M288.36 234.804C288.36 234.804 282.048 234.804 280.188 236.208C278.328 237.612 277.38 241.344 276.444 242.04C275.508 242.736 271.308 242.508 270.372 245.076C269.436 247.644 269.436 246.948 276.684 253.728C283.932 260.508 301.884 268.212 303.78 268.212C305.676 268.212 317.796 254.196 321.3 252.612C324.804 251.028 325.272 250.98 325.5 250.044C325.728 249.108 325.272 244.44 322.224 242.568C320.054 241.361 317.677 240.572 315.216 240.24C315.216 240.24 314.76 237.432 311.016 235.332C307.272 233.232 302.136 232.764 298.404 232.764C294.672 232.764 288.36 234.804 288.36 234.804Z" fill="#1CB0FD" stroke="#263238" stroke-linecap="round" stroke-linejoin="round"/>
<path d="M315.216 240.18C314.902 243.639 314.114 247.039 312.876 250.284" stroke="#263238" stroke-linecap="round" stroke-linejoin="round"/>
<path d="M277.728 245.328C277.728 245.328 278.712 248.304 284.16 251.268" stroke="#263238" stroke-linecap="round" stroke-linejoin="round"/>
<path d="M299.4 264.816L299.952 295.404" stroke="white" stroke-linecap="round" stroke-linejoin="round"/>
<path d="M306.072 265.092L308.856 293.448" stroke="white" stroke-linecap="round" stroke-linejoin="round"/>
<path d="M238 244.403L226.89 248.224C225.932 248.554 225.422 249.598 225.751 250.557L233.955 274.41C234.285 275.369 235.33 275.879 236.289 275.549L247.398 271.728C248.357 271.398 248.867 270.354 248.537 269.395L240.333 245.542C240.003 244.583 238.959 244.073 238 244.403Z" fill="#263238" stroke="#263238" stroke-linecap="round" stroke-linejoin="round"/>
<path d="M237.228 284.64C236.256 283.668 227.328 262.404 226.524 260.46C225.72 258.516 235.608 251.688 235.608 251.688C235.608 251.688 238.212 250.068 238.212 251.532C238.212 252.996 233.172 257.376 232.524 258.516C231.876 259.656 233.988 263.22 233.988 263.22C233.988 263.22 240.312 259.812 240.804 259.812C241.296 259.812 248.268 265.812 248.916 266.46C249.564 267.108 251.316 269.064 250.872 270.06C250.428 271.056 249.24 270.552 248.472 270.384C247.704 270.216 240.516 272.784 240.516 272.784C240.516 272.784 243.276 276.684 242.916 278.952C242.704 280.383 242.379 281.796 241.944 283.176C241.944 283.176 257.352 302.1 259.296 303.24C261.24 304.38 262.344 308.532 261.048 312.912C259.752 317.292 256.704 317.028 252.648 316.872C248.592 316.716 237.228 284.64 237.228 284.64Z" fill="white" stroke="#263238" stroke-linecap="round" stroke-linejoin="round"/>
<path d="M243.396 262.896C242.241 262.86 241.088 263.023 239.988 263.376C239.34 263.868 234.48 267.108 234.48 267.108" stroke="#263238" stroke-linecap="round" stroke-linejoin="round"/>
<path d="M236.256 269.868C238.023 268.56 239.867 267.358 241.776 266.268C243.822 266.022 245.883 265.914 247.944 265.944" stroke="#263238" stroke-linecap="round" stroke-linejoin="round"/>
<path d="M249.408 267.276C249.408 267.276 242.208 268.74 241.296 269.064C239.992 269.839 238.783 270.766 237.696 271.824" stroke="#263238" stroke-linecap="round" stroke-linejoin="round"/>
<path d="M233.988 263.22L231.876 264.516" stroke="#263238" stroke-linecap="round" stroke-linejoin="round"/>
<path d="M342.18 291.156L368.916 269.904C368.916 269.904 367.716 262.26 367.956 261.072C368.196 259.884 370.356 252.96 375.6 250.332C380.844 247.704 382.524 247.224 382.524 249.132C382.524 251.04 380.604 251.532 380.124 252.24C379.644 252.948 377.016 255.576 377.016 255.576C377.016 255.576 382.032 253.428 383.7 253.428C385.368 253.428 388.236 252.72 388.236 254.388C388.236 256.056 386.328 256.056 385.128 256.056C383.928 256.056 380.592 259.404 380.592 259.404C383.362 258.702 386.165 258.141 388.992 257.724C390.42 257.724 391.62 259.404 390.42 260.124C389.362 260.661 388.241 261.064 387.084 261.324C386.018 261.821 384.98 262.378 383.976 262.992C383.976 262.992 391.176 262.272 390.66 264.192C390.144 266.112 386.844 265.62 386.124 265.62C384.56 265.991 383.146 266.828 382.068 268.02C381.588 268.968 380.628 273.036 378.72 274.02C376.812 275.004 373.236 276.42 373.236 276.42C373.236 276.42 361.056 291.228 356.04 296.952C351.024 302.676 342 309.288 336.924 310.488C331.848 311.688 330.924 310.248 330.72 308.088C330.516 305.928 330.696 298.308 342.18 291.156Z" fill="white" stroke="#263238" stroke-linecap="round" stroke-linejoin="round"/>
<path d="M369.156 258C369.156 258 374.88 255.384 376.068 255.384C377.256 255.384 379.176 256.332 377.748 258C376.147 259.54 374.384 260.904 372.492 262.068C372.492 262.068 379.416 264.924 376.092 270.18" stroke="#263238" stroke-linecap="round" stroke-linejoin="round"/>
<path d="M301.704 193.788C301.704 193.788 294.216 195.096 290.76 199.32C287.304 203.544 275.928 229.092 276 231.384C276.072 233.676 287.556 232.512 287.556 232.512C287.556 232.512 288.756 245.304 292.8 254.664C293.916 257.208 297.888 262.248 302.148 260.364C306.408 258.48 308.256 229.308 308.256 229.308C308.256 229.308 312.312 235.056 315.384 233.52C318.888 231.756 318.252 227.52 315.744 227.208C313.236 226.896 323.784 217.608 321.18 210.48C318.576 203.352 304.944 191.82 301.704 193.788Z" fill="white" stroke="#263238" stroke-linecap="round" stroke-linejoin="round"/>
<path d="M299.724 185.472C299.724 185.472 285.6 184.104 284.22 190.8C282.84 197.496 289.812 201.24 297.972 200.76C306.132 200.28 313.38 201.504 314.268 202.86C315.156 204.216 304.092 205.68 306.432 207.66C307.795 208.846 309.513 209.546 311.316 209.652C311.316 209.652 307.716 210.312 307.716 212.856C307.716 215.4 308.832 226.716 310.596 226.884C312.36 227.052 315.72 227.16 315.72 227.16C319.052 225.862 322.146 224.021 324.876 221.712C329.04 218.052 330.876 209.604 326.592 204.108C322.308 198.612 319.008 193.392 315.624 189.012C312.24 184.632 309.144 180 301.704 178.212C294.264 176.424 289.92 179.196 299.724 185.472Z" fill="#263238" stroke="#263238" stroke-linecap="round" stroke-linejoin="round"/>
<path d="M326.544 214.296C326.661 215.794 326.568 217.3 326.268 218.772" stroke="white" stroke-linecap="round" stroke-linejoin="round"/>
<path d="M302.46 193.764C302.46 193.764 286.86 193.764 292.428 197.268C297.996 200.772 307.44 196.14 318.24 201.684C320.068 202.553 321.693 203.796 323.012 205.331C324.331 206.867 325.313 208.662 325.896 210.6" stroke="white" stroke-linecap="round" stroke-linejoin="round"/>
<path d="M310.692 206.4C310.692 206.4 320.724 212.58 321.396 220.212" stroke="white" stroke-linecap="round" stroke-linejoin="round"/>
<path d="M287.52 232.512C287.52 232.512 299.664 232.932 303.204 230.484" stroke="#263238" stroke-linecap="round" stroke-linejoin="round"/>
<path d="M284.736 222.084C284.736 222.084 293.292 225.456 296.316 220.428" stroke="#263238" stroke-linecap="round" stroke-linejoin="round"/>
<path d="M294.9 219.276L298.524 221.148" stroke="#263238" stroke-linecap="round" stroke-linejoin="round"/>
<path d="M288.624 210.792C288.624 210.792 280.728 211.032 280.608 212.292C280.488 213.552 285.168 217.56 285.168 217.56" fill="white"/>
<path d="M288.624 210.792C288.624 210.792 280.728 211.032 280.608 212.292C280.488 213.552 285.168 217.56 285.168 217.56" stroke="#263238" stroke-linecap="round" stroke-linejoin="round"/>
<path d="M289.848 208.476C289.38 209.52 288.576 210.192 288.048 209.952C287.52 209.712 287.472 208.68 287.952 207.624C288.432 206.568 289.224 205.908 289.752 206.148C290.28 206.388 290.316 207.42 289.848 208.476Z" fill="#263238"/>
<path d="M296.136 212.472C295.668 213.528 294.852 214.188 294.336 213.948C293.82 213.708 293.76 212.676 294.228 211.62C294.696 210.564 295.5 209.904 296.028 210.144C296.556 210.384 296.604 211.416 296.136 212.472Z" fill="#263238"/>
<path d="M297.192 205.368C297.192 205.368 300.972 206.076 300.12 211.236L297.192 205.368Z" fill="#263238" stroke="#263238" stroke-linecap="round" stroke-linejoin="round"/>
<path d="M294 202.608C294 202.608 292.188 199.632 289.044 203.172L294 202.608Z" fill="#263238" stroke="#263238" stroke-linecap="round" stroke-linejoin="round"/>
<path d="M230.46 241.968L230.268 233.424C231.398 233.421 232.481 232.971 233.281 232.173C234.081 231.376 234.534 230.294 234.54 229.164V205.92C234.537 204.788 234.086 203.703 233.285 202.903C232.485 202.102 231.4 201.651 230.268 201.648H176.664C175.534 201.654 174.452 202.107 173.654 202.907C172.857 203.707 172.407 204.79 172.404 205.92V229.2C172.407 230.329 172.857 231.411 173.655 232.209C174.453 233.007 175.535 233.457 176.664 233.46H223.02L230.46 241.968Z" fill="#263238"/>
<path d="M190.224 216.588C190.226 216.07 190.075 215.563 189.789 215.131C189.503 214.7 189.095 214.362 188.617 214.163C188.14 213.963 187.613 213.909 187.105 214.009C186.597 214.108 186.13 214.357 185.763 214.722C185.395 215.087 185.145 215.553 185.043 216.061C184.941 216.569 184.992 217.096 185.19 217.574C185.388 218.053 185.723 218.462 186.153 218.75C186.584 219.038 187.09 219.192 187.608 219.192C188.3 219.192 188.963 218.918 189.454 218.43C189.944 217.942 190.221 217.28 190.224 216.588Z" fill="#1CB0FD"/>
<path d="M205.632 216.588C205.634 216.07 205.483 215.562 205.196 215.13C204.91 214.698 204.501 214.361 204.023 214.161C203.544 213.962 203.017 213.909 202.509 214.01C202 214.11 201.533 214.36 201.166 214.726C200.8 215.093 200.55 215.56 200.45 216.069C200.349 216.577 200.402 217.104 200.601 217.583C200.801 218.061 201.138 218.47 201.57 218.756C202.002 219.043 202.51 219.194 203.028 219.192C203.719 219.192 204.381 218.918 204.869 218.429C205.358 217.941 205.632 217.279 205.632 216.588Z" fill="#1CB0FD"/>
<path d="M221.052 216.588C221.054 216.07 220.903 215.563 220.617 215.131C220.331 214.7 219.923 214.362 219.445 214.163C218.968 213.963 218.441 213.909 217.933 214.009C217.425 214.108 216.958 214.357 216.591 214.722C216.223 215.087 215.973 215.553 215.871 216.061C215.769 216.569 215.82 217.096 216.018 217.574C216.216 218.053 216.551 218.462 216.981 218.75C217.412 219.038 217.918 219.192 218.436 219.192C219.128 219.192 219.791 218.918 220.282 218.43C220.772 217.942 221.049 217.28 221.052 216.588Z" fill="#1CB0FD"/>
</svg>
