<svg width="45" height="45" viewBox="0 0 45 45" fill="none" xmlns="http://www.w3.org/2000/svg">
<rect width="45" height="45" rx="22.5" fill="white"/>
<rect x="5" y="7" width="35" height="32" fill="white"/>
<path d="M7.5 0C3.35786 0 0 3.35786 0 7.5V37.5C0 41.6421 3.35786 45 7.5 45H37.5C41.6421 45 45 41.6421 45 37.5V7.5C45 3.35786 41.6421 0 37.5 0H7.5ZM9.73493 9.64286H18.2394L24.2787 18.2247L31.6071 9.64286H34.2857L25.4883 19.9428L36.3365 35.3571H27.8341L20.8259 25.4004L12.3214 35.3571H9.64286L19.6164 23.6823L9.73493 9.64286ZM13.8365 11.7857L28.9516 33.2143H32.2349L17.1198 11.7857H13.8365Z" fill="black"/>
</svg>
