<svg width="35" height="35" viewBox="0 0 35 35" fill="none" xmlns="http://www.w3.org/2000/svg">
<path d="M24.8135 4.45527C25.1154 4.23993 25.4879 4.14764 25.8553 4.19715C26.2227 4.24666 26.5575 4.43427 26.7916 4.72182C27.0256 5.00936 27.1414 5.37526 27.1153 5.7451C27.0892 6.11494 26.9232 6.46095 26.651 6.71277L26.5081 6.82798L23.4442 9.01694C23.0043 9.33056 22.6621 9.76224 22.4572 10.2621C22.2523 10.762 22.1931 11.3096 22.2863 11.8417L22.3329 12.0634L27.2081 7.18819C27.4706 6.92664 27.8227 6.77479 28.1931 6.76348C28.5634 6.75217 28.9242 6.88225 29.2021 7.1273C29.48 7.37235 29.6542 7.71399 29.6893 8.08284C29.7245 8.45169 29.6179 8.82008 29.3913 9.11319L29.2702 9.25027L24.395 14.1255C25.4231 14.388 26.5606 14.0672 27.2913 13.2067L27.4415 13.0142L29.6304 9.95027C29.8464 9.64964 30.1685 9.44236 30.5317 9.37048C30.8948 9.29859 31.2716 9.36747 31.5858 9.56315C31.9 9.75883 32.1281 10.0667 32.2237 10.4243C32.3193 10.7818 32.2754 11.1624 32.1008 11.4888L32.0031 11.6449L29.8156 14.7103C29.006 15.8432 27.8151 16.6462 26.4612 16.9719C25.1074 17.2976 23.6815 17.1243 22.4452 16.4836L22.1827 16.3378L18.8329 19.6861L24.8952 25.7499C25.1463 26.001 25.2971 26.3351 25.3194 26.6895C25.3417 27.0439 25.2339 27.3943 25.0163 27.6749L24.8952 27.8119C24.6441 28.063 24.31 28.2139 23.9556 28.2362C23.6012 28.2584 23.2508 28.1506 22.9702 27.933L22.8331 27.8119L16.7708 21.7482L10.7085 27.8119C10.4574 28.063 10.1233 28.2139 9.76891 28.2362C9.4145 28.2584 9.06413 28.1506 8.78354 27.933L8.64646 27.8119C8.39537 27.5608 8.24453 27.2267 8.22225 26.8723C8.19996 26.5179 8.30776 26.1675 8.52542 25.8869L8.64646 25.7499L14.7088 19.6861L12.3608 17.3382C11.7431 17.6719 11.076 17.9048 10.3848 18.028L10.0202 18.0819C9.1477 18.1921 8.26153 18.0979 7.43166 17.8068C6.60179 17.5158 5.85092 17.0358 5.23833 16.4049C3.88354 15.0486 3.10917 13.3438 2.91667 11.7061C2.72708 10.0946 3.09167 8.36798 4.27292 7.18819C5.45271 6.00694 7.17792 5.64236 8.78938 5.83194C10.4271 6.0259 12.1333 6.80027 13.4881 8.15507C14.1189 8.7675 14.5987 9.51812 14.8898 10.3477C15.1808 11.1773 15.2751 12.0632 15.1652 12.9355C15.0777 13.6719 14.8633 14.3705 14.5731 14.9786L14.4215 15.2761L16.7694 17.624L20.1206 14.2757C19.4183 13.0766 19.171 11.6649 19.4237 10.2985C19.6765 8.9321 20.4125 7.70228 21.4973 6.83381L21.7481 6.64423L24.8135 4.45527Z" fill="black" fill-opacity="0.9"/>
</svg>
