<svg width="104" height="104" viewBox="0 0 104 104" fill="none" xmlns="http://www.w3.org/2000/svg">
<g filter="url(#filter0_d_9_12)">
<rect x="7" y="3" width="90" height="90" rx="45" fill="url(#paint0_linear_9_12)" fill-opacity="0.9" shape-rendering="crispEdges"/>
<rect x="5.5" y="1.5" width="93" height="93" rx="46.5" stroke="url(#paint1_linear_9_12)" stroke-width="3" shape-rendering="crispEdges"/>
</g>
<g filter="url(#filter1_d_9_12)">
<path d="M31.0953 55.59C30.6153 56.75 30.3153 57.71 30.1953 58.47C30.6753 57.97 30.9253 57.71 30.9453 57.69C32.2053 56.17 33.5053 54.59 34.8453 52.95C37.2053 50.09 39.5153 47.73 41.7753 45.87C42.6353 45.17 43.5753 44.49 44.5953 43.83C45.6153 43.17 46.7753 42.91 48.0753 43.05C49.2353 43.17 50.0653 43.77 50.5653 44.85C50.9053 45.61 51.0953 46.51 51.1353 47.55C51.1753 49.53 50.7353 51.81 49.8153 54.39C49.8153 54.41 49.6053 54.98 49.1853 56.1C49.6653 55.9 49.9153 55.8 49.9353 55.8C50.3353 55.6 50.9753 55.26 51.8553 54.78C52.7353 54.3 53.4153 53.94 53.8953 53.7C54.2553 53.5 54.5453 53.38 54.7653 53.34C54.8053 53.32 55.0553 53.35 55.5153 53.43C55.4553 53.55 55.3853 53.66 55.3053 53.76C55.2253 53.84 55.1353 53.92 55.0353 54C54.9353 54.08 54.8553 54.14 54.7953 54.18C54.7553 54.2 54.6653 54.26 54.5253 54.36C54.4053 54.44 54.3253 54.49 54.2853 54.51C51.8653 56.09 50.1853 57.17 49.2453 57.75C48.3253 58.31 47.5453 59.08 46.9053 60.06C46.2853 61 45.4653 62.01 44.4453 63.09C42.6053 65.05 40.3053 66.86 37.5453 68.52C36.4053 69.2 35.3953 69.52 34.5153 69.48C34.2353 69.46 34.0353 69.44 33.9153 69.42C33.7953 69.4 33.6353 69.34 33.4353 69.24C33.2553 69.16 33.1253 69.03 33.0453 68.85C33.0053 68.79 32.9753 68.72 32.9553 68.64C32.9353 68.56 32.9253 68.48 32.9253 68.4C32.9453 68.34 32.9553 68.28 32.9553 68.22C32.9753 68.16 33.0053 68.09 33.0453 68.01C33.0853 67.95 33.1153 67.9 33.1353 67.86C33.1553 67.82 33.1953 67.76 33.2553 67.68C33.3153 67.62 33.3553 67.57 33.3753 67.53C33.4153 67.49 33.4753 67.44 33.5553 67.38C34.1953 66.68 34.7353 66.17 35.1753 65.85C37.2553 64.27 39.2753 62.78 41.2353 61.38C42.1553 60.72 43.4753 59.84 45.1953 58.74C45.6753 58.42 46.0353 58.01 46.2753 57.51C47.5953 54.79 48.4253 52.14 48.7653 49.56C48.9453 48.16 48.8853 46.91 48.5853 45.81C48.4653 45.39 48.3353 45.08 48.1953 44.88C48.0553 44.68 47.7853 44.42 47.3853 44.1C46.8853 44.2 46.1653 44.58 45.2253 45.24C43.1853 46.72 41.1953 48.53 39.2553 50.67C38.7153 51.27 37.9553 52.15 36.9753 53.31C35.9953 54.45 35.4153 55.13 35.2353 55.35C34.1353 56.61 33.0353 57.87 31.9353 59.13C31.7353 59.33 31.3653 59.69 30.8253 60.21C30.3253 60.67 29.6853 60.86 28.9053 60.78C28.2253 60.7 27.8953 60.34 27.9153 59.7C27.9153 59.3 27.9653 58.93 28.0653 58.59C28.5053 57.15 28.8253 56.18 29.0253 55.68C31.4453 49.58 34.3153 43.89 37.6353 38.61C39.2953 35.95 40.9553 33.89 42.6153 32.43C43.6153 31.53 44.6653 30.85 45.7653 30.39C46.8453 29.95 47.9853 29.8 49.1853 29.94C50.8053 30.14 51.9353 31 52.5753 32.52C53.2353 34.14 53.1353 35.94 52.2753 37.92C52.2353 38 52.1753 38.08 52.0953 38.16C51.9753 38.24 51.8953 38.27 51.8553 38.25C51.6553 38.17 51.5553 38.09 51.5553 38.01C51.4953 37.57 51.4653 37.11 51.4653 36.63C51.4853 35.49 51.3753 34.57 51.1353 33.87C50.8753 33.13 50.6353 32.58 50.4153 32.22C49.9953 31.5 49.5053 31.05 48.9453 30.87C48.4053 30.67 47.7553 30.72 46.9953 31.02C46.0753 31.38 45.1453 31.99 44.2053 32.85C43.0453 33.89 42.0653 35.01 41.2653 36.21C40.0453 38.03 39.1453 39.44 38.5653 40.44C35.7853 45.18 33.2953 50.23 31.0953 55.59ZM42.7953 62.28C40.1353 64.2 38.1853 65.8 36.9453 67.08C37.8253 66.76 38.9153 66.09 40.2153 65.07C41.1153 64.35 41.7253 63.81 42.0453 63.45C42.3653 63.11 42.6153 62.72 42.7953 62.28ZM59.5568 48.72C59.6168 48.76 59.6868 48.79 59.7668 48.81C60.0668 48.47 60.2268 48.29 60.2468 48.27C61.1068 47.25 62.5868 45.48 64.6868 42.96C66.8068 40.42 68.4468 38.46 69.6068 37.08C71.9268 34.3 73.9268 32.24 75.6068 30.9C76.1668 30.44 76.8168 29.99 77.5568 29.55C78.2768 29.11 79.0868 28.95 79.9868 29.07C80.6068 29.13 81.0368 29.31 81.2768 29.61C81.5168 29.89 81.6168 30.33 81.5768 30.93C81.5168 31.39 81.4168 31.82 81.2768 32.22C80.3168 34.7 79.6868 36.27 79.3868 36.93C78.7668 38.25 77.8068 40.23 76.5068 42.87C75.2268 45.51 74.2768 47.51 73.6568 48.87C71.1568 54.19 69.2668 58.77 67.9868 62.61C67.8468 63.05 67.4468 64.53 66.7868 67.05C66.7868 67.07 66.7768 67.35 66.7568 67.89C66.8568 67.91 67.0268 67.96 67.2668 68.04C67.5068 68.12 67.6868 68.19 67.8068 68.25C67.7268 68.41 67.6768 68.49 67.6568 68.49C67.5568 68.59 67.4268 68.66 67.2668 68.7C66.5668 68.96 66.0168 68.95 65.6168 68.67C65.2168 68.41 65.0168 67.91 65.0168 67.17C65.0168 66.41 65.1368 65.53 65.3768 64.53C66.2568 60.65 67.6068 56.56 69.4268 52.26C69.7868 51.44 70.1768 50.56 70.5968 49.62C71.0368 48.66 71.4168 47.84 71.7368 47.16C72.0568 46.46 72.4768 45.57 72.9968 44.49C73.5168 43.41 73.9068 42.57 74.1668 41.97C74.4468 41.39 74.7868 40.68 75.1868 39.84C75.6068 39 75.9968 38.19 76.3568 37.41C76.7368 36.63 77.0768 35.91 77.3768 35.25C77.5368 34.89 77.9568 33.78 78.6368 31.92C78.6568 31.9 78.7068 31.66 78.7868 31.2C78.6868 31.2 78.5868 31.22 78.4868 31.26C78.3868 31.3 78.3068 31.34 78.2468 31.38C78.1868 31.4 78.1068 31.45 78.0068 31.53C77.9268 31.59 77.8668 31.64 77.8268 31.68C77.8068 31.7 77.7468 31.76 77.6468 31.86C77.5668 31.96 77.5168 32.02 77.4968 32.04C75.4568 34.14 74.1268 35.54 73.5068 36.24C72.2668 37.7 70.4368 39.86 68.0168 42.72C65.6168 45.56 63.8168 47.68 62.6168 49.08C62.1568 49.62 60.8668 50.99 58.7468 53.19C58.2268 53.75 57.7368 54.06 57.2768 54.12C56.7168 54.2 56.2768 54.21 55.9568 54.15C55.1368 54.03 54.8368 53.58 55.0568 52.8C55.2768 52.04 55.5568 51.3 55.8968 50.58C56.1968 49.98 57.6368 47.04 60.2168 41.76C60.5168 41.14 60.6968 40.62 60.7568 40.2C60.4368 40.54 60.2668 40.72 60.2468 40.74C59.6268 41.56 59.1568 42.19 58.8368 42.63C58.5368 43.07 58.1468 43.65 57.6668 44.37C57.1868 45.09 56.7668 45.78 56.4068 46.44C56.0668 47.1 55.7568 47.76 55.4768 48.42C55.4168 48.56 55.3568 48.65 55.2968 48.69C55.0768 48.79 54.9068 48.84 54.7868 48.84C54.7268 48.84 54.6668 48.81 54.6068 48.75C54.5468 48.67 54.5168 48.6 54.5168 48.54C54.5168 47.78 54.5468 47.3 54.6068 47.1C54.9868 46.02 55.3768 45.1 55.7768 44.34C57.2768 41.52 59.2568 38.56 61.7168 35.46C61.9368 35.2 62.1768 34.95 62.4368 34.71C62.9568 34.27 63.5568 34.08 64.2368 34.14C64.5768 34.16 64.8368 34.23 65.0168 34.35C65.1968 34.45 65.3168 34.61 65.3768 34.83C65.4568 35.03 65.4668 35.29 65.4068 35.61C65.3068 36.17 65.1568 36.69 64.9568 37.17C64.3968 38.55 63.8968 39.69 63.4568 40.59C63.0368 41.47 62.4168 42.74 61.5968 44.4C60.7968 46.04 60.3068 47.04 60.1268 47.4C60.1068 47.44 59.9168 47.88 59.5568 48.72Z" fill="white"/>
<path d="M31.0953 55.59L31.5573 55.7812L31.5578 55.7799L31.0953 55.59ZM30.1953 58.47L29.7014 58.392L29.453 59.9652L30.556 58.8163L30.1953 58.47ZM30.9453 57.69L31.2988 58.0436L31.3153 58.0271L31.3302 58.0091L30.9453 57.69ZM34.8453 52.95L34.4596 52.6318L34.4581 52.6336L34.8453 52.95ZM41.7753 45.87L41.4596 45.4822L41.4575 45.4839L41.7753 45.87ZM44.5953 43.83L44.8669 44.2498H44.8669L44.5953 43.83ZM48.0753 43.05L48.0217 43.5471L48.0238 43.5473L48.0753 43.05ZM50.5653 44.85L51.0217 44.6458L51.019 44.6399L50.5653 44.85ZM51.1353 47.55L51.6353 47.5399L51.6349 47.5308L51.1353 47.55ZM49.8153 54.39L49.3443 54.2221L49.3153 54.3035V54.39H49.8153ZM49.1853 56.1L48.7171 55.9244L48.3116 57.0057L49.3776 56.5615L49.1853 56.1ZM49.9353 55.8V56.3H50.0533L50.1589 56.2472L49.9353 55.8ZM51.8553 54.78L52.0947 55.2189L51.8553 54.78ZM53.8953 53.7L54.1189 54.1472L54.1286 54.1424L54.1381 54.1371L53.8953 53.7ZM54.7653 53.34L54.8547 53.8319L54.925 53.8192L54.9889 53.7872L54.7653 53.34ZM55.5153 53.43L55.9625 53.6536L56.263 53.0525L55.6009 52.9374L55.5153 53.43ZM55.3053 53.76L55.6588 54.1136L55.6784 54.094L55.6957 54.0723L55.3053 53.76ZM54.7953 54.18L55.0189 54.6272L55.0467 54.6133L55.0726 54.596L54.7953 54.18ZM54.5253 54.36L54.8026 54.776L54.8093 54.7716L54.8159 54.7669L54.5253 54.36ZM54.2853 54.51L54.0617 54.0628L54.036 54.0756L54.0119 54.0913L54.2853 54.51ZM49.2453 57.75L49.5053 58.1771L49.5078 58.1755L49.2453 57.75ZM46.9053 60.06L47.3227 60.3353L47.3239 60.3334L46.9053 60.06ZM44.4453 63.09L44.0818 62.7467L44.0807 62.7478L44.4453 63.09ZM37.5453 68.52L37.8014 68.9494L37.803 68.9485L37.5453 68.52ZM34.5153 69.48L34.4796 69.9789L34.4926 69.9795L34.5153 69.48ZM33.9153 69.42L33.8331 69.9132H33.8331L33.9153 69.42ZM33.4353 69.24L33.6589 68.7928L33.6487 68.7877L33.6383 68.7831L33.4353 69.24ZM33.0453 68.85L33.5022 68.6469L33.4849 68.608L33.4613 68.5726L33.0453 68.85ZM32.9553 68.64L32.4702 68.7613L32.9553 68.64ZM32.9253 68.4L32.4509 68.2419L32.4253 68.3189V68.4H32.9253ZM32.9553 68.22L32.4809 68.0619L32.4553 68.1389V68.22H32.9553ZM33.0453 68.01L32.6292 67.7327L32.612 67.7586L32.5981 67.7864L33.0453 68.01ZM33.1353 67.86L33.5825 68.0836L33.5825 68.0836L33.1353 67.86ZM33.2553 67.68L32.9017 67.3264L32.8766 67.3516L32.8553 67.38L33.2553 67.68ZM33.3753 67.53L33.0217 67.1764L32.9643 67.2338L32.9281 67.3064L33.3753 67.53ZM33.5553 67.38L33.8553 67.78L33.8927 67.7519L33.9243 67.7174L33.5553 67.38ZM35.1753 65.85L35.4694 66.2545L35.4777 66.2482L35.1753 65.85ZM41.2353 61.38L41.5259 61.7869L41.5267 61.7863L41.2353 61.38ZM45.1953 58.74L45.4647 59.1613L45.4726 59.156L45.1953 58.74ZM46.2753 57.51L45.8254 57.2917L45.8245 57.2936L46.2753 57.51ZM48.7653 49.56L49.261 49.6253L49.2612 49.6238L48.7653 49.56ZM48.5853 45.81L49.0677 45.6784L49.066 45.6726L48.5853 45.81ZM48.1953 44.88L47.7857 45.1667L47.7857 45.1667L48.1953 44.88ZM47.3853 44.1L47.6976 43.7096L47.5157 43.564L47.2872 43.6097L47.3853 44.1ZM45.2253 45.24L44.9379 44.8307L44.9317 44.8353L45.2253 45.24ZM39.2553 50.67L38.8848 50.3342L38.8836 50.3355L39.2553 50.67ZM36.9753 53.31L37.3544 53.636L37.3572 53.6327L36.9753 53.31ZM35.2353 55.35L35.6119 55.6788L35.6172 55.6728L35.6223 55.6666L35.2353 55.35ZM31.9353 59.13L32.2888 59.4836L32.3008 59.4716L32.3119 59.4588L31.9353 59.13ZM30.8253 60.21L31.1639 60.5781L31.1721 60.5702L30.8253 60.21ZM28.9053 60.78L28.8468 61.2766L28.8543 61.2774L28.9053 60.78ZM27.9153 59.7L28.415 59.7156L28.4153 59.7078V59.7H27.9153ZM28.0653 58.59L27.5871 58.4439L27.5856 58.4489L28.0653 58.59ZM29.0253 55.68L29.4895 55.8657L29.49 55.8644L29.0253 55.68ZM37.6353 38.61L38.0586 38.8762L38.0595 38.8747L37.6353 38.61ZM42.6153 32.43L42.9455 32.8055L42.9498 32.8016L42.6153 32.43ZM45.7653 30.39L45.5766 29.9269L45.5724 29.9287L45.7653 30.39ZM49.1853 29.94L49.2465 29.4438L49.2432 29.4434L49.1853 29.94ZM52.5753 32.52L53.0384 32.3313L53.0361 32.326L52.5753 32.52ZM52.2753 37.92L52.7225 38.1436L52.7285 38.1316L52.7339 38.1192L52.2753 37.92ZM52.0953 38.16L52.3726 38.576L52.4138 38.5486L52.4488 38.5136L52.0953 38.16ZM51.8553 38.25L52.0789 37.8028L52.0603 37.7935L52.041 37.7858L51.8553 38.25ZM51.5553 38.01H52.0553V37.9761L52.0507 37.9424L51.5553 38.01ZM51.4653 36.63L50.9653 36.6212V36.63H51.4653ZM51.1353 33.87L51.6083 33.7078L51.607 33.7043L51.1353 33.87ZM50.4153 32.22L49.9833 32.472L49.9886 32.4807L50.4153 32.22ZM48.9453 30.87L48.7716 31.3389L48.7819 31.3427L48.7923 31.346L48.9453 30.87ZM46.9953 31.02L47.1775 31.4856L47.1789 31.4851L46.9953 31.02ZM44.2053 32.85L44.5391 33.2223L44.5428 33.2189L44.2053 32.85ZM41.2653 36.21L41.6806 36.4884L41.6813 36.4874L41.2653 36.21ZM38.5653 40.44L38.9966 40.693L38.9978 40.6909L38.5653 40.44ZM42.7953 62.28L43.258 62.4693L43.9198 60.8517L42.5026 61.8746L42.7953 62.28ZM36.9453 67.08L36.5862 66.7321L37.1161 67.5499L36.9453 67.08ZM40.2153 65.07L40.5239 65.4634L40.5276 65.4604L40.2153 65.07ZM42.0453 63.45L41.6812 63.1073L41.6763 63.1125L41.6716 63.1178L42.0453 63.45ZM30.6333 55.3988C30.1464 56.5754 29.8301 57.5766 29.7014 58.392L30.6892 58.548C30.8004 57.8434 31.0842 56.9246 31.5573 55.7812L30.6333 55.3988ZM30.556 58.8163C30.7959 58.5663 30.9783 58.3764 31.1032 58.2466C31.1656 58.1816 31.2136 58.1318 31.2471 58.0971C31.2638 58.0797 31.2768 58.0662 31.2861 58.0566C31.2968 58.0456 31.2998 58.0426 31.2988 58.0436L30.5917 57.3364C30.5669 57.3612 30.3106 57.6279 29.8346 58.1237L30.556 58.8163ZM31.3302 58.0091C32.591 56.4881 33.8918 54.9072 35.2325 53.2664L34.4581 52.6336C33.1188 54.2728 31.8195 55.8519 30.5603 57.3709L31.3302 58.0091ZM35.2309 53.2682C37.5756 50.4268 39.8633 48.0911 42.093 46.2561L41.4575 45.4839C39.1673 47.3689 36.8349 49.7532 34.4596 52.6318L35.2309 53.2682ZM42.0909 46.2578C42.9356 45.5703 43.8607 44.9008 44.8669 44.2498L44.3236 43.4102C43.2898 44.0792 42.335 44.7697 41.4596 45.4822L42.0909 46.2578ZM44.8669 44.2498C45.783 43.657 46.8265 43.4184 48.0217 43.5471L48.1288 42.5529C46.7241 42.4016 45.4475 42.683 44.3236 43.4102L44.8669 44.2498ZM48.0238 43.5473C49.0041 43.6488 49.6837 44.136 50.1115 45.0601L51.019 44.6399C50.4468 43.404 49.4665 42.6912 48.1267 42.5527L48.0238 43.5473ZM50.1089 45.0542C50.4171 45.7433 50.5975 46.5777 50.6356 47.5692L51.6349 47.5308C51.593 46.4423 51.3934 45.4767 51.0217 44.6458L50.1089 45.0542ZM50.6354 47.5601C50.6738 49.4611 50.2512 51.6788 49.3443 54.2221L50.2862 54.5579C51.2193 51.9412 51.6768 49.5989 51.6352 47.5399L50.6354 47.5601ZM49.3153 54.39C49.3153 54.3459 49.3214 54.3121 49.3227 54.3044C49.3251 54.2912 49.3274 54.2811 49.3286 54.2762C49.3311 54.2661 49.3331 54.2592 49.3333 54.2584C49.3341 54.2558 49.3337 54.2572 49.3311 54.2652C49.3261 54.28 49.3176 54.3045 49.3048 54.3405C49.2795 54.4115 49.2409 54.5176 49.1886 54.6596C49.0841 54.9432 48.927 55.3647 48.7171 55.9244L49.6534 56.2756C49.8635 55.7153 50.0214 55.2918 50.1269 55.0054C50.1796 54.8624 50.2198 54.7522 50.247 54.6758C50.2604 54.638 50.2716 54.6059 50.2798 54.5814C50.2837 54.5697 50.2882 54.5557 50.2923 54.542C50.2942 54.5356 50.2974 54.5243 50.3007 54.5108C50.3023 54.5042 50.305 54.4926 50.3075 54.4782C50.3091 54.4694 50.3153 54.4347 50.3153 54.39H49.3153ZM49.3776 56.5615C49.617 56.4618 49.7969 56.3879 49.9185 56.3392C49.9798 56.3147 50.0232 56.2979 50.0508 56.2876C50.0652 56.2823 50.0708 56.2804 50.0705 56.2805C50.07 56.2807 50.0685 56.2812 50.066 56.2819C50.0636 56.2826 50.0591 56.2839 50.053 56.2855C50.0476 56.2869 50.0366 56.2896 50.0222 56.2922C50.0121 56.2941 49.9788 56.3 49.9353 56.3V55.3C49.8635 55.3 49.8053 55.3167 49.8046 55.3168C49.7876 55.3212 49.7729 55.3258 49.7635 55.3288C49.7438 55.3352 49.7228 55.3427 49.7035 55.3499C49.6636 55.3646 49.6108 55.3853 49.5471 55.4108C49.4187 55.4621 49.2335 55.5382 48.993 55.6385L49.3776 56.5615ZM50.1589 56.2472C50.5675 56.0429 51.2142 55.6992 52.0947 55.2189L51.6158 54.3411C50.7363 54.8208 50.1031 55.1571 49.7117 55.3528L50.1589 56.2472ZM52.0947 55.2189C52.9731 54.7398 53.6469 54.3832 54.1189 54.1472L53.6717 53.2528C53.1836 53.4968 52.4974 53.8602 51.6158 54.3411L52.0947 55.2189ZM54.1381 54.1371C54.4834 53.9452 54.7162 53.8571 54.8547 53.8319L54.6758 52.8481C54.3744 52.9029 54.0271 53.0548 53.6525 53.2629L54.1381 54.1371ZM54.9889 53.7872C54.9384 53.8125 54.8958 53.8225 54.8768 53.8264C54.8549 53.8309 54.8383 53.8326 54.8305 53.8332C54.8154 53.8344 54.8091 53.8338 54.8174 53.8341C54.8329 53.8346 54.8662 53.8371 54.9232 53.8439C55.035 53.8574 55.2023 53.8831 55.4296 53.9226L55.6009 52.9374C55.3682 52.8969 55.1805 52.8676 55.0423 52.8511C54.9744 52.8429 54.9089 52.8366 54.8519 52.8347C54.8239 52.8337 54.788 52.8334 54.7497 52.8365C54.7281 52.8382 54.6378 52.8447 54.5417 52.8928L54.9889 53.7872ZM55.0681 53.2064C55.0231 53.2964 54.9718 53.3764 54.9148 53.4477L55.6957 54.0723C55.7987 53.9436 55.8875 53.8036 55.9625 53.6536L55.0681 53.2064ZM54.9517 53.4064C54.8863 53.4718 54.8104 53.5396 54.7229 53.6096L55.3476 54.3904C55.4602 54.3004 55.5642 54.2082 55.6588 54.1136L54.9517 53.4064ZM54.7229 53.6096C54.627 53.6863 54.5601 53.7359 54.5179 53.764L55.0726 54.596C55.1504 54.5441 55.2435 54.4737 55.3476 54.3904L54.7229 53.6096ZM54.5717 53.7328C54.4889 53.7742 54.3635 53.8611 54.2347 53.9531L54.8159 54.7669C54.8837 54.7184 54.9364 54.6818 54.9751 54.656C54.9945 54.6431 55.0085 54.6342 55.0179 54.6283C55.0291 54.6215 55.028 54.6227 55.0189 54.6272L54.5717 53.7328ZM54.2479 53.944C54.1901 53.9825 54.1446 54.0121 54.1103 54.0335C54.0724 54.0572 54.0592 54.064 54.0617 54.0628L54.5089 54.9572C54.5818 54.9207 54.6884 54.8522 54.8026 54.776L54.2479 53.944ZM54.0119 54.0913C51.5916 55.6716 49.9166 56.7483 48.9827 57.3245L49.5078 58.1755C50.454 57.5917 52.139 56.5084 54.5586 54.9287L54.0119 54.0913ZM48.9853 57.3229C47.9962 57.9249 47.1638 58.7497 46.4866 59.7866L47.3239 60.3334C47.9267 59.4103 48.6543 58.6951 49.5052 58.1771L48.9853 57.3229ZM46.4879 59.7847C45.888 60.6943 45.0878 61.6815 44.0818 62.7467L44.8088 63.4333C45.8428 62.3385 46.6826 61.3057 47.3227 60.3353L46.4879 59.7847ZM44.0807 62.7478C42.2777 64.6684 40.0157 66.4507 37.2876 68.0915L37.803 68.9485C40.5949 67.2693 42.9328 65.4316 44.8098 63.4322L44.0807 62.7478ZM37.2891 68.0906C36.1933 68.7442 35.2823 69.0144 34.538 68.9805L34.4926 69.9795C35.5082 70.0257 36.6172 69.6558 37.8014 68.9494L37.2891 68.0906ZM34.5509 68.9813C34.2717 68.9613 34.0922 68.9426 33.9975 68.9268L33.8331 69.9132C33.9783 69.9374 34.1988 69.9587 34.4797 69.9787L34.5509 68.9813ZM33.9975 68.9268C33.9518 68.9192 33.845 68.8858 33.6589 68.7928L33.2117 69.6872C33.4256 69.7942 33.6388 69.8808 33.8331 69.9132L33.9975 68.9268ZM33.6383 68.7831C33.5715 68.7534 33.5319 68.7138 33.5022 68.6469L32.5884 69.0531C32.7186 69.3462 32.9391 69.5666 33.2322 69.6969L33.6383 68.7831ZM33.4613 68.5726C33.4573 68.5667 33.4484 68.551 33.4403 68.5187L32.4702 68.7613C32.5021 68.889 32.5533 69.0134 32.6292 69.1273L33.4613 68.5726ZM33.4403 68.5187C33.43 68.4772 33.4253 68.4379 33.4253 68.4H32.4253C32.4253 68.5221 32.4406 68.6428 32.4702 68.7613L33.4403 68.5187ZM33.3996 68.5581C33.4357 68.4499 33.4553 68.3366 33.4553 68.22H32.4553C32.4553 68.2234 32.4549 68.2301 32.4509 68.2419L33.3996 68.5581ZM33.4296 68.3781C33.4398 68.3476 33.4591 68.3004 33.4925 68.2336L32.5981 67.7864C32.5514 67.8796 32.5108 67.9724 32.4809 68.0619L33.4296 68.3781ZM33.4613 68.2874C33.5068 68.2192 33.5494 68.1498 33.5825 68.0836L32.6881 67.6364C32.6812 67.6502 32.6638 67.6808 32.6292 67.7327L33.4613 68.2874ZM33.5825 68.0836C33.5794 68.0898 33.5818 68.0842 33.5963 68.0623C33.6096 68.0423 33.6289 68.0152 33.6553 67.98L32.8553 67.38C32.7937 67.462 32.7298 67.5529 32.6881 67.6364L33.5825 68.0836ZM33.6088 68.0336C33.6791 67.9632 33.7656 67.8673 33.8225 67.7536L32.9281 67.3064C32.934 67.2945 32.9388 67.2871 32.9405 67.2845C32.9423 67.2818 32.9424 67.282 32.9398 67.2851C32.9344 67.292 32.9226 67.3056 32.9017 67.3264L33.6088 68.0336ZM33.7288 67.8836C33.7441 67.8683 33.7822 67.8348 33.8553 67.78L33.2553 66.98C33.1683 67.0452 33.0865 67.1117 33.0217 67.1764L33.7288 67.8836ZM33.9243 67.7174C34.5557 67.0268 35.0693 66.5453 35.4694 66.2544L34.8812 65.4456C34.4012 65.7947 33.8349 66.3332 33.1863 67.0426L33.9243 67.7174ZM35.4777 66.2482C37.5541 64.6709 39.5702 63.1838 41.5259 61.7869L40.9447 60.9731C38.9804 62.3762 36.9564 63.8691 34.8728 65.4518L35.4777 66.2482ZM41.5267 61.7863C42.436 61.134 43.7472 60.2596 45.4647 59.1612L44.9259 58.3188C43.2033 59.4204 41.8746 60.306 40.9438 60.9737L41.5267 61.7863ZM45.4726 59.156C46.0242 58.7883 46.4456 58.3106 46.726 57.7264L45.8245 57.2936C45.6249 57.7094 45.3264 58.0517 44.9179 58.324L45.4726 59.156ZM46.7251 57.7283C48.0648 54.9677 48.913 52.2663 49.261 49.6253L48.2696 49.4947C47.9376 52.0137 47.1258 54.6123 45.8254 57.2917L46.7251 57.7283ZM49.2612 49.6238C49.4477 48.1735 49.3886 46.8552 49.0677 45.6784L48.1029 45.9416C48.382 46.9648 48.4429 48.1465 48.2694 49.4962L49.2612 49.6238ZM49.066 45.6726C48.9408 45.2344 48.7925 44.8613 48.6049 44.5933L47.7857 45.1667C47.878 45.2987 47.9897 45.5456 48.1045 45.9474L49.066 45.6726ZM48.6049 44.5933C48.4214 44.3312 48.1033 44.0341 47.6976 43.7096L47.0729 44.4904C47.4672 44.8059 47.6891 45.0288 47.7857 45.1667L48.6049 44.5933ZM47.2872 43.6097C46.6756 43.732 45.8811 44.1686 44.938 44.8308L45.5126 45.6492C46.4495 44.9914 47.0949 44.668 47.4833 44.5903L47.2872 43.6097ZM44.9317 44.8353C42.86 46.3382 40.8447 48.1723 38.8848 50.3342L39.6257 51.0058C41.5458 48.8877 43.5105 47.1018 45.5189 45.6447L44.9317 44.8353ZM38.8836 50.3355C38.3383 50.9414 37.5743 51.8261 36.5933 52.9873L37.3572 53.6327C38.3362 52.4739 39.0922 51.5986 39.6269 51.0045L38.8836 50.3355ZM36.5961 52.9841C35.6183 54.1215 35.0332 54.8074 34.8483 55.0334L35.6223 55.6666C35.7974 55.4526 36.3722 54.7785 37.3544 53.6359L36.5961 52.9841ZM34.8586 55.0212C33.7586 56.2812 32.6586 57.5412 31.5586 58.8012L32.3119 59.4588C33.4119 58.1988 34.5119 56.9388 35.6119 55.6788L34.8586 55.0212ZM31.5817 58.7764C31.3855 58.9727 31.0187 59.3296 30.4785 59.8498L31.1721 60.5702C31.7118 60.0504 32.085 59.6873 32.2888 59.4836L31.5817 58.7764ZM30.4867 59.842C30.1088 60.1898 29.6181 60.3505 28.9563 60.2826L28.8543 61.2774C29.7524 61.3695 30.5418 61.1502 31.1638 60.578L30.4867 59.842ZM28.9637 60.2834C28.6952 60.2518 28.573 60.1739 28.5163 60.1121C28.4644 60.0554 28.4078 59.9472 28.415 59.7156L27.4155 59.6844C27.4028 60.0928 27.5012 60.4846 27.7792 60.7879C28.0526 61.0861 28.4353 61.2282 28.8469 61.2766L28.9637 60.2834ZM28.4153 59.7C28.4153 59.3417 28.46 59.0198 28.545 58.7311L27.5856 58.4489C27.4705 58.8402 27.4153 59.2583 27.4153 59.7H28.4153ZM28.5434 58.7361C28.9841 57.2938 29.2985 56.3433 29.4895 55.8657L28.561 55.4943C28.3521 56.0167 28.0264 57.0062 27.5871 58.4439L28.5434 58.7361ZM29.49 55.8644C31.8993 49.7914 34.7557 44.1289 38.0586 38.8762L37.212 38.3438C33.8749 43.6511 30.9912 49.3686 28.5605 55.4956L29.49 55.8644ZM38.0595 38.8747C39.7035 36.2402 41.3338 34.223 42.9455 32.8054L42.2851 32.0546C40.5768 33.557 38.887 35.6598 37.2111 38.3453L38.0595 38.8747ZM42.9498 32.8016C43.9132 31.9345 44.9163 31.287 45.9582 30.8513L45.5724 29.9287C44.4143 30.413 43.3173 31.1255 42.2808 32.0584L42.9498 32.8016ZM45.9539 30.853C46.953 30.446 48.0079 30.306 49.1273 30.4366L49.2432 29.4434C47.9626 29.294 46.7375 29.454 45.5766 29.927L45.9539 30.853ZM49.124 30.4362C50.564 30.614 51.543 31.3569 52.1145 32.714L53.0361 32.326C52.3275 30.6431 51.0465 29.666 49.2465 29.4438L49.124 30.4362ZM52.1122 32.7086C52.7101 34.1761 52.6364 35.8335 51.8167 37.7208L52.7339 38.1192C53.6341 36.0465 53.7605 34.1039 53.0383 32.3314L52.1122 32.7086ZM51.8281 37.6964C51.8175 37.7175 51.7933 37.7549 51.7417 37.8064L52.4488 38.5136C52.5572 38.4051 52.6531 38.2825 52.7225 38.1436L51.8281 37.6964ZM51.8179 37.744C51.7712 37.7751 51.7578 37.7788 51.7697 37.7743C51.7763 37.7718 51.8057 37.7612 51.8512 37.7574C51.897 37.7535 51.9831 37.7549 52.0789 37.8028L51.6317 38.6972C51.8503 38.8065 52.057 38.7346 52.1208 38.7107C52.2128 38.6762 52.2994 38.6249 52.3726 38.576L51.8179 37.744ZM52.041 37.7858C52.0037 37.7708 51.9771 37.7583 51.9593 37.7488C51.9408 37.7389 51.9372 37.7352 51.9426 37.7396C51.947 37.743 51.9721 37.7635 51.998 37.805C52.0262 37.85 52.0553 37.9206 52.0553 38.01H51.0553C51.0553 38.2741 51.2204 38.4424 51.3179 38.5204C51.4236 38.605 51.5505 38.6666 51.6696 38.7142L52.041 37.7858ZM52.0507 37.9424C51.994 37.5265 51.9653 37.0892 51.9653 36.63H50.9653C50.9653 37.1308 50.9966 37.6135 51.0599 38.0776L52.0507 37.9424ZM51.9652 36.6388C51.9857 35.4686 51.8744 34.4842 51.6082 33.7078L50.6623 34.0322C50.8761 34.6558 50.9848 35.5114 50.9654 36.6212L51.9652 36.6388ZM51.607 33.7043C51.3435 32.9542 51.0897 32.3647 50.8419 31.9593L49.9886 32.4807C50.1809 32.7953 50.4071 33.3058 50.6635 34.0357L51.607 33.7043ZM50.8472 31.9681C50.3908 31.1857 49.8167 30.6249 49.0983 30.394L48.7923 31.346C49.1939 31.4751 49.5998 31.8143 49.9834 32.4719L50.8472 31.9681ZM49.1189 30.4011C48.423 30.1434 47.6386 30.2285 46.8117 30.5549L47.1789 31.4851C47.872 31.2115 48.3875 31.1966 48.7716 31.3389L49.1189 30.4011ZM46.8131 30.5544C45.8219 30.9422 44.8406 31.591 43.8678 32.4811L44.5428 33.2189C45.4499 32.389 46.3287 31.8178 47.1775 31.4856L46.8131 30.5544ZM43.8715 32.4777C42.6827 33.5435 41.6744 34.695 40.8492 35.9326L41.6813 36.4874C42.4562 35.325 43.4079 34.2365 44.539 33.2223L43.8715 32.4777ZM40.85 35.9316C39.6282 37.7542 38.721 39.1749 38.1328 40.1891L38.9978 40.6909C39.5695 39.7051 40.4623 38.3058 41.6806 36.4884L40.85 35.9316ZM38.134 40.187C35.3415 44.9484 32.8412 50.0196 30.6327 55.4001L31.5578 55.7799C33.7494 50.4404 36.2291 45.4116 38.9966 40.693L38.134 40.187ZM42.5026 61.8746C39.8351 63.8 37.8569 65.4203 36.5862 66.7321L37.3044 67.4279C38.5136 66.1797 40.4354 64.6 43.0879 62.6854L42.5026 61.8746ZM37.1161 67.5499C38.0699 67.2031 39.209 66.4951 40.5239 65.4634L39.9066 64.6766C38.6216 65.6849 37.5806 66.3169 36.7744 66.6101L37.1161 67.5499ZM40.5276 65.4604C41.4277 64.7403 42.0679 64.1771 42.419 63.7822L41.6716 63.1178C41.3826 63.4429 40.8028 63.9597 39.9029 64.6796L40.5276 65.4604ZM42.4094 63.7927C42.7722 63.4072 43.0553 62.965 43.258 62.4693L42.3325 62.0907C42.1753 62.475 41.9584 62.8128 41.6812 63.1073L42.4094 63.7927ZM59.5568 48.72L59.0973 48.523L58.9334 48.9053L59.2795 49.136L59.5568 48.72ZM59.7668 48.81L59.6456 49.2951L59.9406 49.3688L60.1418 49.1408L59.7668 48.81ZM60.2468 48.27L60.6004 48.6236L60.6154 48.6085L60.6291 48.5923L60.2468 48.27ZM64.6868 42.96L64.303 42.6396L64.3027 42.6399L64.6868 42.96ZM69.6068 37.08L69.9896 37.4017L69.9907 37.4004L69.6068 37.08ZM75.6068 30.9L75.9186 31.2909L75.9242 31.2864L75.6068 30.9ZM77.5568 29.55L77.8124 29.9798L77.8176 29.9766L77.5568 29.55ZM79.9868 29.07L79.9208 29.5656L79.9297 29.5668L79.9387 29.5677L79.9868 29.07ZM81.2768 29.61L80.8864 29.9223L80.8917 29.929L80.8972 29.9354L81.2768 29.61ZM81.5768 30.93L82.0726 30.9947L82.0747 30.979L82.0757 30.9633L81.5768 30.93ZM81.2768 32.22L81.7431 32.4005L81.7461 32.3929L81.7488 32.3852L81.2768 32.22ZM79.3868 36.93L79.8394 37.1426L79.842 37.1369L79.3868 36.93ZM76.5068 42.87L76.0583 42.6491L76.0569 42.6519L76.5068 42.87ZM73.6568 48.87L74.1094 49.0827L74.1118 49.0774L73.6568 48.87ZM67.9868 62.61L67.5125 62.4519L67.5104 62.4584L67.9868 62.61ZM66.7868 67.05L66.3032 66.9233L66.2868 66.9856V67.05H66.7868ZM66.7568 67.89L66.2572 67.8715L66.2414 68.2968L66.6588 68.3803L66.7568 67.89ZM67.2668 68.04L67.1087 68.5143L67.2668 68.04ZM67.8068 68.25L68.2541 68.4736L68.4777 68.0264L68.0304 67.8028L67.8068 68.25ZM67.6568 68.49V67.99H67.4497L67.3033 68.1364L67.6568 68.49ZM67.2668 68.7L67.1456 68.2149L67.1187 68.2216L67.0927 68.2313L67.2668 68.7ZM65.6168 68.67L65.9036 68.2604L65.8965 68.2555L65.8893 68.2508L65.6168 68.67ZM65.3768 64.53L65.8631 64.6467L65.8645 64.6406L65.3768 64.53ZM69.4268 52.26L68.969 52.059L68.9664 52.0651L69.4268 52.26ZM70.5968 49.62L70.1423 49.4117L70.1403 49.416L70.5968 49.62ZM71.7368 47.16L72.1893 47.3729L72.1916 47.3679L71.7368 47.16ZM72.9968 44.49L72.5463 44.2731L72.9968 44.49ZM74.1668 41.97L73.7166 41.7526L73.7121 41.7618L73.7081 41.7712L74.1668 41.97ZM75.1868 39.84L74.7395 39.6164L74.7354 39.625L75.1868 39.84ZM76.3568 37.41L75.9072 37.191L75.9029 37.2005L76.3568 37.41ZM77.3768 35.25L77.832 35.4569L77.8337 35.4531L77.3768 35.25ZM78.6368 31.92L78.2833 31.5664L78.2052 31.6446L78.1672 31.7483L78.6368 31.92ZM78.7868 31.2L79.2794 31.2857L79.3813 30.7H78.7868V31.2ZM78.2468 31.38L78.405 31.8543L78.4685 31.8332L78.5242 31.796L78.2468 31.38ZM78.0068 31.53L78.3068 31.93L78.3131 31.9253L78.3192 31.9204L78.0068 31.53ZM77.8268 31.68L77.4733 31.3264L77.4733 31.3264L77.8268 31.68ZM77.6468 31.86L77.2933 31.5064L77.2737 31.526L77.2564 31.5476L77.6468 31.86ZM77.4968 32.04L77.1432 31.6864L77.1382 31.6916L77.4968 32.04ZM73.5068 36.24L73.1325 35.9084L73.1257 35.9163L73.5068 36.24ZM68.0168 42.72L67.6351 42.397L67.6349 42.3973L68.0168 42.72ZM62.6168 49.08L62.2372 48.7546L62.2362 48.7558L62.6168 49.08ZM58.7468 53.19L58.3867 52.843L58.3804 52.8498L58.7468 53.19ZM57.2768 54.12L57.2122 53.6242L57.2061 53.625L57.2768 54.12ZM55.9568 54.15L56.049 53.6586L56.0391 53.6567L56.0292 53.6553L55.9568 54.15ZM55.0568 52.8L54.5765 52.661L54.5756 52.6643L55.0568 52.8ZM55.8968 50.58L55.4495 50.3563L55.4447 50.3665L55.8968 50.58ZM60.2168 41.76L60.6661 41.9795L60.6669 41.9778L60.2168 41.76ZM60.7568 40.2L61.2518 40.2707L61.4752 38.7072L60.3927 39.8573L60.7568 40.2ZM60.2468 40.74L59.8933 40.3864L59.8688 40.4109L59.848 40.4384L60.2468 40.74ZM58.8368 42.63L58.4325 42.3359L58.428 42.3421L58.4237 42.3483L58.8368 42.63ZM57.6668 44.37L57.2508 44.0926L57.6668 44.37ZM56.4068 46.44L55.9678 46.2005L55.9623 46.211L56.4068 46.44ZM55.4768 48.42L55.9364 48.617L55.9371 48.6153L55.4768 48.42ZM55.2968 48.69L55.5037 49.1452L55.5405 49.1285L55.5742 49.106L55.2968 48.69ZM54.6068 48.75L54.2068 49.05L54.2282 49.0784L54.2533 49.1036L54.6068 48.75ZM54.6068 47.1L54.1352 46.934L54.1313 46.9451L54.1279 46.9563L54.6068 47.1ZM55.7768 44.34L55.3354 44.1052L55.3344 44.1071L55.7768 44.34ZM61.7168 35.46L61.3351 35.137L61.3301 35.143L61.3252 35.1492L61.7168 35.46ZM62.4368 34.71L62.1139 34.3283L62.1056 34.3353L62.0977 34.3426L62.4368 34.71ZM64.2368 34.14L64.1929 34.6381L64.2002 34.6387L64.2075 34.6391L64.2368 34.14ZM65.0168 34.35L64.7395 34.766L64.7563 34.7772L64.774 34.7871L65.0168 34.35ZM65.3768 34.83L64.8945 34.9616L64.902 34.9891L64.9126 35.0157L65.3768 34.83ZM65.4068 35.61L64.9154 35.5178L64.9146 35.5221L65.4068 35.61ZM64.9568 37.17L64.4953 36.9777L64.4935 36.982L64.9568 37.17ZM63.4568 40.59L63.0076 40.3704L63.0056 40.3746L63.4568 40.59ZM61.5968 44.4L61.1485 44.1786L61.1475 44.1808L61.5968 44.4ZM59.2795 49.136C59.3935 49.212 59.5178 49.2631 59.6456 49.2951L59.8881 48.3249C59.8558 48.3169 59.8402 48.308 59.8342 48.304L59.2795 49.136ZM60.1418 49.1408C60.2916 48.9709 60.4062 48.8415 60.4855 48.7522C60.5734 48.6534 60.6039 48.62 60.6004 48.6236L59.8933 47.9164C59.8587 47.9511 59.6813 48.1512 59.3919 48.4792L60.1418 49.1408ZM60.6291 48.5923C61.4901 47.5711 62.971 45.8001 65.0709 43.2801L64.3027 42.6399C62.2027 45.1599 60.7235 46.9289 59.8646 47.9477L60.6291 48.5923ZM65.0707 43.2804C67.1906 40.7405 68.8301 38.7811 69.9896 37.4017L69.2241 36.7583C68.0635 38.1389 66.4231 40.0995 64.303 42.6396L65.0707 43.2804ZM69.9907 37.4004C72.3016 34.6312 74.2768 32.6004 75.9186 31.2909L75.2951 30.5091C73.5769 31.8796 71.552 33.9688 69.223 36.7596L69.9907 37.4004ZM75.9242 31.2864C76.4615 30.845 77.0901 30.4092 77.8124 29.9798L77.3013 29.1202C76.5435 29.5708 75.8722 30.035 75.2895 30.5136L75.9242 31.2864ZM77.8176 29.9766C78.4321 29.6011 79.1251 29.4595 79.9208 29.5656L80.0529 28.5744C79.0486 28.4405 78.1216 28.6189 77.2961 29.1234L77.8176 29.9766ZM79.9387 29.5677C80.5045 29.6224 80.7705 29.7775 80.8864 29.9223L81.6673 29.2977C81.3032 28.8425 80.7092 28.6376 80.035 28.5723L79.9387 29.5677ZM80.8972 29.9354C81.0119 30.0692 81.1145 30.3489 81.0779 30.8967L82.0757 30.9633C82.1192 30.3111 82.0218 29.7108 81.6565 29.2846L80.8972 29.9354ZM81.081 30.8653C81.0251 31.2943 80.9325 31.6903 80.8049 32.0548L81.7488 32.3852C81.9012 31.9497 82.0086 31.4857 82.0726 30.9947L81.081 30.8653ZM80.8106 32.0395C79.8489 34.5237 79.2245 36.0789 78.9317 36.7231L79.842 37.1369C80.1492 36.4611 80.7847 34.8763 81.7431 32.4005L80.8106 32.0395ZM78.9343 36.7174C78.3163 38.0331 77.358 40.0097 76.0583 42.6491L76.9554 43.0909C78.2557 40.4503 79.2174 38.4669 79.8394 37.1426L78.9343 36.7174ZM76.0569 42.6519C74.7765 45.2927 73.8244 47.297 73.2019 48.6626L74.1118 49.0774C74.7293 47.723 75.6772 45.7273 76.9567 43.0881L76.0569 42.6519ZM73.2043 48.6573C70.6993 53.9879 68.8008 58.5871 67.5125 62.4519L68.4612 62.7681C69.7329 58.9529 71.6143 54.3921 74.1094 49.0827L73.2043 48.6573ZM67.5104 62.4584C67.3654 62.9141 66.9612 64.4107 66.3032 66.9233L67.2705 67.1767C67.9325 64.6493 68.3283 63.1859 68.4633 62.7616L67.5104 62.4584ZM66.2868 67.05C66.2868 67.0482 66.285 67.1083 66.2797 67.2572C66.2747 67.3968 66.2672 67.6016 66.2572 67.8715L67.2565 67.9085C67.2761 67.3791 67.2868 67.0823 67.2868 67.05H66.2868ZM66.6588 68.3803C66.7248 68.3935 66.868 68.4341 67.1087 68.5143L67.4249 67.5657C67.1856 67.4859 66.9889 67.4265 66.8549 67.3997L66.6588 68.3803ZM67.1087 68.5143C67.3422 68.5922 67.4954 68.6533 67.5832 68.6972L68.0304 67.8028C67.8782 67.7267 67.6714 67.6478 67.4249 67.5657L67.1087 68.5143ZM67.3596 68.0264C67.3216 68.1024 67.2976 68.1455 67.2853 68.165C67.2779 68.1768 67.2838 68.1656 67.3012 68.1457C67.3093 68.1365 67.3331 68.1099 67.3717 68.0819C67.3918 68.0673 67.4238 68.0464 67.4669 68.0282C67.5099 68.0101 67.5752 67.99 67.6568 67.99V68.99C67.8163 68.99 67.9247 68.9161 67.9598 68.8906C68.0053 68.8576 68.0369 68.8235 68.0537 68.8043C68.0886 68.7644 68.1157 68.7232 68.1333 68.695C68.1711 68.6345 68.212 68.5576 68.2541 68.4736L67.3596 68.0264ZM67.3033 68.1364C67.2774 68.1624 67.2325 68.1932 67.1456 68.2149L67.3881 69.1851C67.6212 69.1268 67.8363 69.0176 68.0104 68.8436L67.3033 68.1364ZM67.0927 68.2313C66.4617 68.4657 66.1087 68.404 65.9036 68.2604L65.3301 69.0796C65.925 69.496 66.672 69.4543 67.4409 69.1687L67.0927 68.2313ZM65.8893 68.2508C65.6973 68.126 65.5168 67.8386 65.5168 67.17H64.5168C64.5168 67.9814 64.7364 68.694 65.3443 69.0892L65.8893 68.2508ZM65.5168 67.17C65.5168 66.4603 65.6292 65.6209 65.863 64.6467L64.8906 64.4133C64.6445 65.4391 64.5168 66.3597 64.5168 67.17H65.5168ZM65.8645 64.6406C66.7369 60.7939 68.0769 56.7322 69.8873 52.4549L68.9664 52.0651C67.1368 56.3878 65.7768 60.5061 64.8892 64.4194L65.8645 64.6406ZM69.8847 52.461C70.2442 51.6421 70.6337 50.7631 71.0533 49.824L70.1403 49.416C69.72 50.3569 69.3295 51.2379 68.969 52.059L69.8847 52.461ZM71.0514 49.8283C71.4909 48.8693 71.8702 48.0509 72.1892 47.3729L71.2844 46.9471C70.9635 47.6291 70.5827 48.4507 70.1423 49.4117L71.0514 49.8283ZM72.1916 47.3679C72.5097 46.6721 72.9281 45.7854 73.4473 44.7069L72.5463 44.2731C72.0256 45.3546 71.604 46.2479 71.2821 46.9521L72.1916 47.3679ZM73.4473 44.7069C73.9683 43.625 74.3617 42.7779 74.6256 42.1688L73.7081 41.7712C73.452 42.3621 73.0654 43.195 72.5463 44.2731L73.4473 44.7069ZM74.6171 42.1874C74.8976 41.6063 75.238 40.8955 75.6383 40.055L74.7354 39.625C74.3356 40.4645 73.996 41.1737 73.7166 41.7526L74.6171 42.1874ZM75.634 40.0636C76.0562 39.2194 76.4484 38.4047 76.8108 37.6195L75.9029 37.2005C75.5452 37.9753 75.1575 38.7806 74.7396 39.6164L75.634 40.0636ZM76.8063 37.629C77.1879 36.8457 77.5299 36.1216 77.832 35.4569L76.9217 35.0431C76.6238 35.6984 76.2858 36.4143 75.9073 37.191L76.8063 37.629ZM77.8337 35.4531C78.0024 35.0736 78.4295 33.9434 79.1064 32.0917L78.1672 31.7483C77.4842 33.6166 77.0713 34.7064 76.9199 35.0469L77.8337 35.4531ZM78.9904 32.2736C79.0497 32.2143 79.0798 32.1539 79.0882 32.1373C79.101 32.1115 79.1099 32.0888 79.1152 32.0743C79.126 32.0449 79.1343 32.016 79.1403 31.9937C79.1528 31.9474 79.1657 31.8901 79.1788 31.827C79.2056 31.6987 79.2392 31.5172 79.2794 31.2857L78.2942 31.1143C78.2545 31.3428 78.2231 31.5113 78.1998 31.623C78.188 31.6799 78.1797 31.7151 78.1747 31.7338C78.1719 31.744 78.1724 31.7407 78.1763 31.7301C78.1782 31.725 78.1838 31.7099 78.1937 31.6901C78.1991 31.6794 78.2265 31.6232 78.2833 31.5664L78.9904 32.2736ZM78.7868 30.7C78.6185 30.7 78.4556 30.734 78.3011 30.7958L78.6725 31.7242C78.7181 31.706 78.7552 31.7 78.7868 31.7V30.7ZM78.3011 30.7958C78.1831 30.843 78.0686 30.8979 77.9695 30.964L78.5242 31.796C78.545 31.7821 78.5906 31.757 78.6725 31.7242L78.3011 30.7958ZM78.0887 30.9057C77.9406 30.955 77.8033 31.0526 77.6945 31.1396L78.3192 31.9204C78.359 31.8886 78.3879 31.8684 78.4068 31.8565C78.416 31.8507 78.4209 31.8482 78.4217 31.8478C78.4228 31.8473 78.4169 31.8503 78.405 31.8543L78.0887 30.9057ZM77.7068 31.13C77.6199 31.1952 77.538 31.2617 77.4733 31.3264L78.1804 32.0336C78.1956 32.0183 78.2338 31.9848 78.3068 31.93L77.7068 31.13ZM77.4733 31.3264C77.4732 31.3265 77.4732 31.3265 77.4732 31.3266C77.4731 31.3266 77.4731 31.3266 77.473 31.3267C77.473 31.3267 77.473 31.3268 77.4729 31.3268C77.4729 31.3268 77.4728 31.3269 77.4728 31.3269C77.4728 31.327 77.4727 31.327 77.4727 31.327C77.4726 31.3271 77.4726 31.3271 77.4726 31.3272C77.4725 31.3272 77.4725 31.3272 77.4724 31.3273C77.4724 31.3273 77.4724 31.3274 77.4723 31.3274C77.4723 31.3275 77.4722 31.3275 77.4722 31.3275C77.4722 31.3276 77.4721 31.3276 77.4721 31.3277C77.472 31.3277 77.472 31.3277 77.4719 31.3278C77.4719 31.3278 77.4719 31.3279 77.4718 31.3279C77.4718 31.328 77.4717 31.328 77.4717 31.328C77.4716 31.3281 77.4716 31.3281 77.4715 31.3282C77.4715 31.3282 77.4715 31.3283 77.4714 31.3283C77.4714 31.3284 77.4713 31.3284 77.4713 31.3284C77.4712 31.3285 77.4712 31.3285 77.4712 31.3286C77.4711 31.3286 77.4711 31.3287 77.471 31.3287C77.471 31.3287 77.4709 31.3288 77.4709 31.3288C77.4708 31.3289 77.4708 31.3289 77.4708 31.329C77.4707 31.329 77.4707 31.3291 77.4706 31.3291C77.4706 31.3292 77.4705 31.3292 77.4705 31.3292C77.4704 31.3293 77.4704 31.3293 77.4703 31.3294C77.4703 31.3294 77.4703 31.3295 77.4702 31.3295C77.4702 31.3296 77.4701 31.3296 77.4701 31.3297C77.47 31.3297 77.47 31.3298 77.4699 31.3298C77.4699 31.3298 77.4698 31.3299 77.4698 31.3299C77.4697 31.33 77.4697 31.33 77.4696 31.3301C77.4696 31.3301 77.4696 31.3302 77.4695 31.3302C77.4695 31.3303 77.4694 31.3303 77.4694 31.3304C77.4693 31.3304 77.4693 31.3305 77.4692 31.3305C77.4692 31.3306 77.4691 31.3306 77.4691 31.3307C77.469 31.3307 77.469 31.3308 77.4689 31.3308C77.4689 31.3309 77.4688 31.3309 77.4688 31.331C77.4687 31.331 77.4687 31.3311 77.4686 31.3311C77.4686 31.3312 77.4685 31.3312 77.4685 31.3313C77.4684 31.3313 77.4684 31.3314 77.4683 31.3314C77.4683 31.3315 77.4682 31.3315 77.4682 31.3316C77.4681 31.3316 77.4681 31.3317 77.468 31.3317C77.468 31.3318 77.4679 31.3318 77.4679 31.3319C77.4678 31.3319 77.4678 31.332 77.4677 31.332C77.4677 31.3321 77.4676 31.3321 77.4676 31.3322C77.4675 31.3322 77.4675 31.3323 77.4674 31.3323C77.4673 31.3324 77.4673 31.3324 77.4672 31.3325C77.4672 31.3325 77.4671 31.3326 77.4671 31.3326C77.467 31.3327 77.467 31.3328 77.4669 31.3328C77.4669 31.3329 77.4668 31.3329 77.4668 31.333C77.4667 31.333 77.4667 31.3331 77.4666 31.3331C77.4666 31.3332 77.4665 31.3332 77.4664 31.3333C77.4664 31.3333 77.4663 31.3334 77.4663 31.3334C77.4662 31.3335 77.4662 31.3336 77.4661 31.3336C77.4661 31.3337 77.466 31.3337 77.466 31.3338C77.4659 31.3338 77.4658 31.3339 77.4658 31.3339C77.4657 31.334 77.4657 31.3341 77.4656 31.3341C77.4656 31.3342 77.4655 31.3342 77.4655 31.3343C77.4654 31.3343 77.4653 31.3344 77.4653 31.3344C77.4652 31.3345 77.4652 31.3346 77.4651 31.3346C77.4651 31.3347 77.465 31.3347 77.4649 31.3348C77.4649 31.3348 77.4648 31.3349 77.4648 31.335C77.4647 31.335 77.4647 31.3351 77.4646 31.3351C77.4645 31.3352 77.4645 31.3352 77.4644 31.3353C77.4644 31.3354 77.4643 31.3354 77.4643 31.3355C77.4642 31.3355 77.4641 31.3356 77.4641 31.3356C77.464 31.3357 77.464 31.3358 77.4639 31.3358C77.4639 31.3359 77.4638 31.3359 77.4637 31.336C77.4637 31.3361 77.4636 31.3361 77.4636 31.3362C77.4635 31.3362 77.4634 31.3363 77.4634 31.3364C77.4633 31.3364 77.4633 31.3365 77.4632 31.3365C77.4631 31.3366 77.4631 31.3367 77.463 31.3367C77.463 31.3368 77.4629 31.3368 77.4628 31.3369C77.4628 31.337 77.4627 31.337 77.4627 31.3371C77.4626 31.3371 77.4625 31.3372 77.4625 31.3373C77.4624 31.3373 77.4623 31.3374 77.4623 31.3374C77.4622 31.3375 77.4622 31.3376 77.4621 31.3376C77.462 31.3377 77.462 31.3377 77.4619 31.3378C77.4619 31.3379 77.4618 31.3379 77.4617 31.338C77.4617 31.3381 77.4616 31.3381 77.4615 31.3382C77.4615 31.3382 77.4614 31.3383 77.4614 31.3384C77.4613 31.3384 77.4612 31.3385 77.4612 31.3386C77.4611 31.3386 77.461 31.3387 77.461 31.3388C77.4609 31.3388 77.4609 31.3389 77.4608 31.3389C77.4607 31.339 77.4607 31.3391 77.4606 31.3391C77.4605 31.3392 77.4605 31.3393 77.4604 31.3393C77.4603 31.3394 77.4603 31.3395 77.4602 31.3395C77.4601 31.3396 77.4601 31.3396 77.46 31.3397C77.46 31.3398 77.4599 31.3398 77.4598 31.3399C77.4598 31.34 77.4597 31.34 77.4596 31.3401C77.4596 31.3402 77.4595 31.3402 77.4594 31.3403C77.4594 31.3404 77.4593 31.3404 77.4592 31.3405C77.4592 31.3406 77.4591 31.3406 77.459 31.3407C77.459 31.3408 77.4589 31.3408 77.4588 31.3409C77.4588 31.341 77.4587 31.341 77.4586 31.3411C77.4586 31.3412 77.4585 31.3412 77.4584 31.3413C77.4584 31.3414 77.4583 31.3414 77.4582 31.3415C77.4582 31.3416 77.4581 31.3416 77.458 31.3417C77.458 31.3418 77.4579 31.3418 77.4578 31.3419C77.4577 31.342 77.4577 31.3421 77.4576 31.3421C77.4575 31.3422 77.4575 31.3423 77.4574 31.3423C77.4573 31.3424 77.4573 31.3425 77.4572 31.3425C77.4571 31.3426 77.4571 31.3427 77.457 31.3427C77.4569 31.3428 77.4568 31.3429 77.4568 31.343C77.4567 31.343 77.4566 31.3431 77.4566 31.3432C77.4565 31.3432 77.4564 31.3433 77.4564 31.3434C77.4563 31.3434 77.4562 31.3435 77.4561 31.3436C77.4561 31.3437 77.456 31.3437 77.4559 31.3438C77.4559 31.3439 77.4558 31.3439 77.4557 31.344C77.4557 31.3441 77.4556 31.3442 77.4555 31.3442C77.4554 31.3443 77.4554 31.3444 77.4553 31.3444C77.4552 31.3445 77.4551 31.3446 77.4551 31.3447C77.455 31.3447 77.4549 31.3448 77.4549 31.3449C77.4548 31.3449 77.4547 31.345 77.4546 31.3451C77.4546 31.3452 77.4545 31.3452 77.4544 31.3453C77.4543 31.3454 77.4543 31.3455 77.4542 31.3455C77.4541 31.3456 77.454 31.3457 77.454 31.3458C77.4539 31.3458 77.4538 31.3459 77.4538 31.346C77.4537 31.3461 77.4536 31.3461 77.4535 31.3462C77.4535 31.3463 77.4534 31.3463 77.4533 31.3464C77.4532 31.3465 77.4532 31.3466 77.4531 31.3466C77.453 31.3467 77.4529 31.3468 77.4529 31.3469C77.4528 31.3469 77.4527 31.347 77.4526 31.3471C77.4526 31.3472 77.4525 31.3473 77.4524 31.3473C77.4523 31.3474 77.4522 31.3475 77.4522 31.3476C77.4521 31.3476 77.452 31.3477 77.4519 31.3478C77.4519 31.3479 77.4518 31.3479 77.4517 31.348C77.4516 31.3481 77.4516 31.3482 77.4515 31.3482C77.4514 31.3483 77.4513 31.3484 77.4512 31.3485C77.4512 31.3486 77.4511 31.3486 77.451 31.3487C77.4509 31.3488 77.4509 31.3489 77.4508 31.3489C77.4507 31.349 77.4506 31.3491 77.4505 31.3492C77.4505 31.3493 77.4504 31.3493 77.4503 31.3494C77.4502 31.3495 77.4502 31.3496 77.4501 31.3497C77.45 31.3497 77.4499 31.3498 77.4498 31.3499C77.4498 31.35 77.4497 31.35 77.4496 31.3501C77.4495 31.3502 77.4494 31.3503 77.4494 31.3504C77.4493 31.3504 77.4492 31.3505 77.4491 31.3506C77.449 31.3507 77.449 31.3508 77.4489 31.3508C77.4488 31.3509 77.4487 31.351 77.4486 31.3511C77.4486 31.3512 77.4485 31.3513 77.4484 31.3513C77.4483 31.3514 77.4482 31.3515 77.4482 31.3516C77.4481 31.3517 77.448 31.3517 77.4479 31.3518C77.4478 31.3519 77.4477 31.352 77.4477 31.3521C77.4476 31.3522 77.4475 31.3522 77.4474 31.3523C77.4473 31.3524 77.4473 31.3525 77.4472 31.3526C77.4471 31.3526 77.447 31.3527 77.4469 31.3528C77.4468 31.3529 77.4467 31.353 77.4467 31.3531C77.4466 31.3531 77.4465 31.3532 77.4464 31.3533C77.4463 31.3534 77.4463 31.3535 77.4462 31.3536C77.4461 31.3536 77.446 31.3537 77.4459 31.3538C77.4458 31.3539 77.4457 31.354 77.4457 31.3541C77.4456 31.3542 77.4455 31.3542 77.4454 31.3543C77.4453 31.3544 77.4452 31.3545 77.4452 31.3546C77.4451 31.3547 77.445 31.3547 77.4449 31.3548C77.4448 31.3549 77.4447 31.355 77.4446 31.3551C77.4445 31.3552 77.4445 31.3553 77.4444 31.3553C77.4443 31.3554 77.4442 31.3555 77.4441 31.3556C77.444 31.3557 77.4439 31.3558 77.4439 31.3559C77.4438 31.356 77.4437 31.356 77.4436 31.3561C77.4435 31.3562 77.4434 31.3563 77.4433 31.3564C77.4433 31.3565 77.4432 31.3566 77.4431 31.3567C77.443 31.3567 77.4429 31.3568 77.4428 31.3569C77.4427 31.357 77.4426 31.3571 77.4426 31.3572C77.4425 31.3573 77.4424 31.3574 77.4423 31.3574C77.4422 31.3575 77.4421 31.3576 77.442 31.3577C77.4419 31.3578 77.4418 31.3579 77.4417 31.358C77.4417 31.3581 77.4416 31.3582 77.4415 31.3582C77.4414 31.3583 77.4413 31.3584 77.4412 31.3585C77.4411 31.3586 77.441 31.3587 77.4409 31.3588C77.4409 31.3589 77.4408 31.359 77.4407 31.3591C77.4406 31.3591 77.4405 31.3592 77.4404 31.3593C77.4403 31.3594 77.4402 31.3595 77.4401 31.3596C77.44 31.3597 77.4399 31.3598 77.4399 31.3599C77.4398 31.36 77.4397 31.3601 77.4396 31.3601C77.4395 31.3602 77.4394 31.3603 77.4393 31.3604C77.4392 31.3605 77.4391 31.3606 77.439 31.3607C77.4389 31.3608 77.4389 31.3609 77.4388 31.361C77.4387 31.3611 77.4386 31.3612 77.4385 31.3612C77.4384 31.3613 77.4383 31.3614 77.4382 31.3615C77.4381 31.3616 77.438 31.3617 77.4379 31.3618C77.4378 31.3619 77.4377 31.362 77.4376 31.3621C77.4375 31.3622 77.4375 31.3623 77.4374 31.3624C77.4373 31.3625 77.4372 31.3626 77.4371 31.3627C77.437 31.3627 77.4369 31.3628 77.4368 31.3629C77.4367 31.363 77.4366 31.3631 77.4365 31.3632C77.4364 31.3633 77.4363 31.3634 77.4362 31.3635C77.4361 31.3636 77.436 31.3637 77.4359 31.3638C77.4358 31.3639 77.4357 31.364 77.4357 31.3641C77.4356 31.3642 77.4355 31.3643 77.4354 31.3644C77.4353 31.3645 77.4352 31.3646 77.4351 31.3647C77.435 31.3648 77.4349 31.3648 77.4348 31.3649C77.4347 31.365 77.4346 31.3651 77.4345 31.3652C77.4344 31.3653 77.4343 31.3654 77.4342 31.3655C77.4341 31.3656 77.434 31.3657 77.4339 31.3658C77.4338 31.3659 77.4337 31.366 77.4336 31.3661C77.4335 31.3662 77.4334 31.3663 77.4333 31.3664C77.4332 31.3665 77.4331 31.3666 77.433 31.3667C77.4329 31.3668 77.4328 31.3669 77.4327 31.367C77.4326 31.3671 77.4325 31.3672 77.4324 31.3673C77.4323 31.3674 77.4322 31.3675 77.4321 31.3676C77.432 31.3677 77.4319 31.3678 77.4318 31.3679C77.4317 31.368 77.4316 31.3681 77.4315 31.3682C77.4314 31.3683 77.4313 31.3684 77.4312 31.3685C77.4311 31.3686 77.431 31.3687 77.4309 31.3688C77.4308 31.3689 77.4307 31.369 77.4306 31.3691C77.4305 31.3692 77.4304 31.3693 77.4303 31.3694C77.4302 31.3695 77.4301 31.3696 77.43 31.3697C77.4299 31.3698 77.4298 31.3699 77.4297 31.37C77.4296 31.3701 77.4295 31.3702 77.4294 31.3703C77.4293 31.3704 77.4292 31.3705 77.4291 31.3706C77.429 31.3707 77.4289 31.3708 77.4288 31.3709C77.4287 31.371 77.4286 31.3711 77.4285 31.3712C77.4284 31.3713 77.4283 31.3714 77.4282 31.3716C77.4281 31.3717 77.428 31.3718 77.4279 31.3719C77.4278 31.372 77.4277 31.3721 77.4276 31.3722C77.4275 31.3723 77.4273 31.3724 77.4272 31.3725C77.4271 31.3726 77.427 31.3727 77.4269 31.3728C77.4268 31.3729 77.4267 31.373 77.4266 31.3731C77.4265 31.3732 77.4264 31.3733 77.4263 31.3734C77.4262 31.3735 77.4261 31.3736 77.426 31.3737C77.4259 31.3739 77.4258 31.374 77.4257 31.3741C77.4256 31.3742 77.4255 31.3743 77.4253 31.3744C77.4252 31.3745 77.4251 31.3746 77.425 31.3747C77.4249 31.3748 77.4248 31.3749 77.4247 31.375C77.4246 31.3751 77.4245 31.3752 77.4244 31.3753C77.4243 31.3754 77.4242 31.3756 77.4241 31.3757C77.424 31.3758 77.4239 31.3759 77.4237 31.376C77.4236 31.3761 77.4235 31.3762 77.4234 31.3763C77.4233 31.3764 77.4232 31.3765 77.4231 31.3766C77.423 31.3767 77.4229 31.3769 77.4228 31.377C77.4227 31.3771 77.4226 31.3772 77.4224 31.3773C77.4223 31.3774 77.4222 31.3775 77.4221 31.3776C77.422 31.3777 77.4219 31.3778 77.4218 31.3779C77.4217 31.3781 77.4216 31.3782 77.4215 31.3783C77.4213 31.3784 77.4212 31.3785 77.4211 31.3786C77.421 31.3787 77.4209 31.3788 77.4208 31.3789C77.4207 31.379 77.4206 31.3792 77.4205 31.3793C77.4204 31.3794 77.4202 31.3795 77.4201 31.3796C77.42 31.3797 77.4199 31.3798 77.4198 31.3799C77.4197 31.38 77.4196 31.3802 77.4195 31.3803C77.4193 31.3804 77.4192 31.3805 77.4191 31.3806C77.419 31.3807 77.4189 31.3808 77.4188 31.3809C77.4187 31.3811 77.4186 31.3812 77.4185 31.3813C77.4183 31.3814 77.4182 31.3815 77.4181 31.3816C77.418 31.3817 77.4179 31.3818 77.4178 31.382C77.4177 31.3821 77.4175 31.3822 77.4174 31.3823C77.4173 31.3824 77.4172 31.3825 77.4171 31.3826C77.417 31.3827 77.4169 31.3829 77.4168 31.383C77.4166 31.3831 77.4165 31.3832 77.4164 31.3833C77.4163 31.3834 77.4162 31.3835 77.4161 31.3837C77.416 31.3838 77.4158 31.3839 77.4157 31.384C77.4156 31.3841 77.4155 31.3842 77.4154 31.3844C77.4153 31.3845 77.4151 31.3846 77.415 31.3847C77.4149 31.3848 77.4148 31.3849 77.4147 31.385C77.4146 31.3852 77.4145 31.3853 77.4143 31.3854C77.4142 31.3855 77.4141 31.3856 77.414 31.3857C77.4139 31.3859 77.4137 31.386 77.4136 31.3861C77.4135 31.3862 77.4134 31.3863 77.4133 31.3864C77.4132 31.3866 77.413 31.3867 77.4129 31.3868C77.4128 31.3869 77.4127 31.387 77.4126 31.3871C77.4125 31.3873 77.4123 31.3874 77.4122 31.3875C77.4121 31.3876 77.412 31.3877 77.4119 31.3879C77.4118 31.388 77.4116 31.3881 77.4115 31.3882C77.4114 31.3883 77.4113 31.3885 77.4112 31.3886C77.411 31.3887 77.4109 31.3888 77.4108 31.3889C77.4107 31.389 77.4106 31.3892 77.4104 31.3893C77.4103 31.3894 77.4102 31.3895 77.4101 31.3896C77.41 31.3898 77.4098 31.3899 77.4097 31.39C77.4096 31.3901 77.4095 31.3902 77.4094 31.3904C77.4092 31.3905 77.4091 31.3906 77.409 31.3907C77.4089 31.3909 77.4088 31.391 77.4086 31.3911C77.4085 31.3912 77.4084 31.3913 77.4083 31.3915C77.4081 31.3916 77.408 31.3917 77.4079 31.3918C77.4078 31.3919 77.4077 31.3921 77.4075 31.3922C77.4074 31.3923 77.4073 31.3924 77.4072 31.3926C77.4071 31.3927 77.4069 31.3928 77.4068 31.3929C77.4067 31.393 77.4066 31.3932 77.4064 31.3933C77.4063 31.3934 77.4062 31.3935 77.4061 31.3937C77.4059 31.3938 77.4058 31.3939 77.4057 31.394C77.4056 31.3942 77.4054 31.3943 77.4053 31.3944C77.4052 31.3945 77.4051 31.3946 77.405 31.3948C77.4048 31.3949 77.4047 31.395 77.4046 31.3951C77.4045 31.3953 77.4043 31.3954 77.4042 31.3955C77.4041 31.3956 77.404 31.3958 77.4038 31.3959C77.4037 31.396 77.4036 31.3961 77.4035 31.3963C77.4033 31.3964 77.4032 31.3965 77.4031 31.3966C77.403 31.3968 77.4028 31.3969 77.4027 31.397C77.4026 31.3972 77.4025 31.3973 77.4023 31.3974C77.4022 31.3975 77.4021 31.3977 77.4019 31.3978C77.4018 31.3979 77.4017 31.398 77.4016 31.3982C77.4014 31.3983 77.4013 31.3984 77.4012 31.3985C77.4011 31.3987 77.4009 31.3988 77.4008 31.3989C77.4007 31.3991 77.4005 31.3992 77.4004 31.3993C77.4003 31.3994 77.4002 31.3996 77.4 31.3997C77.3999 31.3998 77.3998 31.4 77.3997 31.4001C77.3995 31.4002 77.3994 31.4003 77.3993 31.4005C77.3991 31.4006 77.399 31.4007 77.3989 31.4009C77.3988 31.401 77.3986 31.4011 77.3985 31.4012C77.3984 31.4014 77.3982 31.4015 77.3981 31.4016C77.398 31.4018 77.3978 31.4019 77.3977 31.402C77.3976 31.4021 77.3975 31.4023 77.3973 31.4024C77.3972 31.4025 77.3971 31.4027 77.3969 31.4028C77.3968 31.4029 77.3967 31.4031 77.3965 31.4032C77.3964 31.4033 77.3963 31.4035 77.3961 31.4036C77.396 31.4037 77.3959 31.4038 77.3958 31.404C77.3956 31.4041 77.3955 31.4042 77.3954 31.4044C77.3952 31.4045 77.3951 31.4046 77.395 31.4048C77.3948 31.4049 77.3947 31.405 77.3946 31.4052C77.3944 31.4053 77.3943 31.4054 77.3942 31.4056C77.394 31.4057 77.3939 31.4058 77.3938 31.406C77.3936 31.4061 77.3935 31.4062 77.3934 31.4064C77.3932 31.4065 77.3931 31.4066 77.393 31.4068C77.3928 31.4069 77.3927 31.407 77.3926 31.4072C77.3924 31.4073 77.3923 31.4074 77.3922 31.4076C77.392 31.4077 77.3919 31.4078 77.3918 31.408C77.3916 31.4081 77.3915 31.4082 77.3913 31.4084C77.3912 31.4085 77.3911 31.4086 77.3909 31.4088C77.3908 31.4089 77.3907 31.4091 77.3905 31.4092C77.3904 31.4093 77.3903 31.4095 77.3901 31.4096C77.39 31.4097 77.3899 31.4099 77.3897 31.41C77.3896 31.4101 77.3895 31.4103 77.3893 31.4104C77.3892 31.4105 77.389 31.4107 77.3889 31.4108C77.3888 31.411 77.3886 31.4111 77.3885 31.4112C77.3884 31.4114 77.3882 31.4115 77.3881 31.4116C77.3879 31.4118 77.3878 31.4119 77.3877 31.4121C77.3875 31.4122 77.3874 31.4123 77.3873 31.4125C77.3871 31.4126 77.387 31.4127 77.3868 31.4129C77.3867 31.413 77.3866 31.4132 77.3864 31.4133C77.3863 31.4134 77.3862 31.4136 77.386 31.4137C77.3859 31.4139 77.3857 31.414 77.3856 31.4141C77.3855 31.4143 77.3853 31.4144 77.3852 31.4145C77.385 31.4147 77.3849 31.4148 77.3848 31.415C77.3846 31.4151 77.3845 31.4152 77.3843 31.4154C77.3842 31.4155 77.3841 31.4157 77.3839 31.4158C77.3838 31.4159 77.3836 31.4161 77.3835 31.4162C77.3834 31.4164 77.3832 31.4165 77.3831 31.4167C77.3829 31.4168 77.3828 31.4169 77.3827 31.4171C77.3825 31.4172 77.3824 31.4174 77.3822 31.4175C77.3821 31.4176 77.3819 31.4178 77.3818 31.4179C77.3817 31.4181 77.3815 31.4182 77.3814 31.4184C77.3812 31.4185 77.3811 31.4186 77.381 31.4188C77.3808 31.4189 77.3807 31.4191 77.3805 31.4192C77.3804 31.4193 77.3802 31.4195 77.3801 31.4196C77.38 31.4198 77.3798 31.4199 77.3797 31.4201C77.3795 31.4202 77.3794 31.4204 77.3792 31.4205C77.3791 31.4206 77.3789 31.4208 77.3788 31.4209C77.3787 31.4211 77.3785 31.4212 77.3784 31.4214C77.3782 31.4215 77.3781 31.4216 77.3779 31.4218C77.3778 31.4219 77.3776 31.4221 77.3775 31.4222C77.3774 31.4224 77.3772 31.4225 77.3771 31.4227C77.3769 31.4228 77.3768 31.423 77.3766 31.4231C77.3765 31.4232 77.3763 31.4234 77.3762 31.4235C77.376 31.4237 77.3759 31.4238 77.3758 31.424C77.3756 31.4241 77.3755 31.4243 77.3753 31.4244C77.3752 31.4246 77.375 31.4247 77.3749 31.4249C77.3747 31.425 77.3746 31.4251 77.3744 31.4253C77.3743 31.4254 77.3741 31.4256 77.374 31.4257C77.3738 31.4259 77.3737 31.426 77.3736 31.4262C77.3734 31.4263 77.3733 31.4265 77.3731 31.4266C77.373 31.4268 77.3728 31.4269 77.3727 31.4271C77.3725 31.4272 77.3724 31.4274 77.3722 31.4275C77.3721 31.4277 77.3719 31.4278 77.3718 31.428C77.3716 31.4281 77.3715 31.4283 77.3713 31.4284C77.3712 31.4286 77.371 31.4287 77.3709 31.4289C77.3707 31.429 77.3706 31.4292 77.3704 31.4293C77.3703 31.4295 77.3701 31.4296 77.37 31.4298C77.3698 31.4299 77.3697 31.4301 77.3695 31.4302C77.3694 31.4304 77.3692 31.4305 77.3691 31.4307C77.3689 31.4308 77.3688 31.431 77.3686 31.4311C77.3685 31.4313 77.3683 31.4314 77.3682 31.4316C77.368 31.4317 77.3679 31.4319 77.3677 31.432C77.3676 31.4322 77.3674 31.4323 77.3673 31.4325C77.3671 31.4326 77.367 31.4328 77.3668 31.4329C77.3666 31.4331 77.3665 31.4332 77.3663 31.4334C77.3662 31.4335 77.366 31.4337 77.3659 31.4338C77.3657 31.434 77.3656 31.4342 77.3654 31.4343C77.3653 31.4345 77.3651 31.4346 77.365 31.4348C77.3648 31.4349 77.3647 31.4351 77.3645 31.4352C77.3643 31.4354 77.3642 31.4355 77.364 31.4357C77.3639 31.4358 77.3637 31.436 77.3636 31.4361C77.3634 31.4363 77.3633 31.4365 77.3631 31.4366C77.363 31.4368 77.3628 31.4369 77.3626 31.4371C77.3625 31.4372 77.3623 31.4374 77.3622 31.4375C77.362 31.4377 77.3619 31.4379 77.3617 31.438C77.3616 31.4382 77.3614 31.4383 77.3613 31.4385C77.3611 31.4386 77.3609 31.4388 77.3608 31.4389C77.3606 31.4391 77.3605 31.4393 77.3603 31.4394C77.3602 31.4396 77.36 31.4397 77.3598 31.4399C77.3597 31.44 77.3595 31.4402 77.3594 31.4404C77.3592 31.4405 77.3591 31.4407 77.3589 31.4408C77.3587 31.441 77.3586 31.4411 77.3584 31.4413C77.3583 31.4415 77.3581 31.4416 77.358 31.4418C77.3578 31.4419 77.3576 31.4421 77.3575 31.4422C77.3573 31.4424 77.3572 31.4426 77.357 31.4427C77.3568 31.4429 77.3567 31.443 77.3565 31.4432C77.3564 31.4434 77.3562 31.4435 77.356 31.4437C77.3559 31.4438 77.3557 31.444 77.3556 31.4442C77.3554 31.4443 77.3553 31.4445 77.3551 31.4446C77.3549 31.4448 77.3548 31.445 77.3546 31.4451C77.3545 31.4453 77.3543 31.4454 77.3541 31.4456C77.354 31.4458 77.3538 31.4459 77.3537 31.4461C77.3535 31.4462 77.3533 31.4464 77.3532 31.4466C77.353 31.4467 77.3528 31.4469 77.3527 31.447C77.3525 31.4472 77.3524 31.4474 77.3522 31.4475C77.352 31.4477 77.3519 31.4479 77.3517 31.448C77.3515 31.4482 77.3514 31.4483 77.3512 31.4485C77.3511 31.4487 77.3509 31.4488 77.3507 31.449C77.3506 31.4492 77.3504 31.4493 77.3503 31.4495C77.3501 31.4496 77.3499 31.4498 77.3498 31.45C77.3496 31.4501 77.3494 31.4503 77.3493 31.4505C77.3491 31.4506 77.3489 31.4508 77.3488 31.451C77.3486 31.4511 77.3484 31.4513 77.3483 31.4514C77.3481 31.4516 77.348 31.4518 77.3478 31.4519C77.3476 31.4521 77.3475 31.4523 77.3473 31.4524C77.3471 31.4526 77.347 31.4528 77.3468 31.4529C77.3466 31.4531 77.3465 31.4533 77.3463 31.4534C77.3461 31.4536 77.346 31.4538 77.3458 31.4539C77.3456 31.4541 77.3455 31.4542 77.3453 31.4544C77.3451 31.4546 77.345 31.4547 77.3448 31.4549C77.3447 31.4551 77.3445 31.4552 77.3443 31.4554C77.3442 31.4556 77.344 31.4557 77.3438 31.4559C77.3437 31.4561 77.3435 31.4562 77.3433 31.4564C77.3431 31.4566 77.343 31.4567 77.3428 31.4569C77.3426 31.4571 77.3425 31.4573 77.3423 31.4574C77.3421 31.4576 77.342 31.4578 77.3418 31.4579C77.3416 31.4581 77.3415 31.4583 77.3413 31.4584C77.3411 31.4586 77.341 31.4588 77.3408 31.4589C77.3406 31.4591 77.3405 31.4593 77.3403 31.4594C77.3401 31.4596 77.34 31.4598 77.3398 31.4599C77.3396 31.4601 77.3394 31.4603 77.3393 31.4605C77.3391 31.4606 77.3389 31.4608 77.3388 31.461C77.3386 31.4611 77.3384 31.4613 77.3382 31.4615C77.3381 31.4616 77.3379 31.4618 77.3377 31.462C77.3376 31.4622 77.3374 31.4623 77.3372 31.4625C77.3371 31.4627 77.3369 31.4628 77.3367 31.463C77.3365 31.4632 77.3364 31.4634 77.3362 31.4635C77.336 31.4637 77.3359 31.4639 77.3357 31.464C77.3355 31.4642 77.3353 31.4644 77.3352 31.4646C77.335 31.4647 77.3348 31.4649 77.3347 31.4651C77.3345 31.4652 77.3343 31.4654 77.3341 31.4656C77.334 31.4658 77.3338 31.4659 77.3336 31.4661C77.3334 31.4663 77.3333 31.4665 77.3331 31.4666C77.3329 31.4668 77.3327 31.467 77.3326 31.4672C77.3324 31.4673 77.3322 31.4675 77.3321 31.4677C77.3319 31.4678 77.3317 31.468 77.3315 31.4682C77.3314 31.4684 77.3312 31.4685 77.331 31.4687C77.3308 31.4689 77.3307 31.4691 77.3305 31.4692C77.3303 31.4694 77.3301 31.4696 77.33 31.4698C77.3298 31.4699 77.3296 31.4701 77.3294 31.4703C77.3293 31.4705 77.3291 31.4706 77.3289 31.4708C77.3287 31.471 77.3286 31.4712 77.3284 31.4713C77.3282 31.4715 77.328 31.4717 77.3279 31.4719C77.3277 31.4721 77.3275 31.4722 77.3273 31.4724C77.3271 31.4726 77.327 31.4728 77.3268 31.4729C77.3266 31.4731 77.3264 31.4733 77.3263 31.4735C77.3261 31.4736 77.3259 31.4738 77.3257 31.474C77.3256 31.4742 77.3254 31.4744 77.3252 31.4745C77.325 31.4747 77.3248 31.4749 77.3247 31.4751C77.3245 31.4752 77.3243 31.4754 77.3241 31.4756C77.3239 31.4758 77.3238 31.476 77.3236 31.4761C77.3234 31.4763 77.3232 31.4765 77.3231 31.4767C77.3229 31.4769 77.3227 31.477 77.3225 31.4772C77.3223 31.4774 77.3222 31.4776 77.322 31.4778C77.3218 31.4779 77.3216 31.4781 77.3214 31.4783C77.3213 31.4785 77.3211 31.4787 77.3209 31.4788C77.3207 31.479 77.3205 31.4792 77.3204 31.4794C77.3202 31.4796 77.32 31.4797 77.3198 31.4799C77.3196 31.4801 77.3195 31.4803 77.3193 31.4805C77.3191 31.4806 77.3189 31.4808 77.3187 31.481C77.3185 31.4812 77.3184 31.4814 77.3182 31.4816C77.318 31.4817 77.3178 31.4819 77.3176 31.4821C77.3175 31.4823 77.3173 31.4825 77.3171 31.4826C77.3169 31.4828 77.3167 31.483 77.3165 31.4832C77.3164 31.4834 77.3162 31.4836 77.316 31.4837C77.3158 31.4839 77.3156 31.4841 77.3154 31.4843C77.3153 31.4845 77.3151 31.4847 77.3149 31.4848C77.3147 31.485 77.3145 31.4852 77.3143 31.4854C77.3142 31.4856 77.314 31.4858 77.3138 31.4859C77.3136 31.4861 77.3134 31.4863 77.3132 31.4865C77.313 31.4867 77.3129 31.4869 77.3127 31.4871C77.3125 31.4872 77.3123 31.4874 77.3121 31.4876C77.3119 31.4878 77.3118 31.488 77.3116 31.4882C77.3114 31.4883 77.3112 31.4885 77.311 31.4887C77.3108 31.4889 77.3106 31.4891 77.3104 31.4893C77.3103 31.4895 77.3101 31.4897 77.3099 31.4898C77.3097 31.49 77.3095 31.4902 77.3093 31.4904C77.3091 31.4906 77.309 31.4908 77.3088 31.491C77.3086 31.4911 77.3084 31.4913 77.3082 31.4915C77.308 31.4917 77.3078 31.4919 77.3076 31.4921C77.3075 31.4923 77.3073 31.4925 77.3071 31.4926C77.3069 31.4928 77.3067 31.493 77.3065 31.4932C77.3063 31.4934 77.3061 31.4936 77.306 31.4938C77.3058 31.494 77.3056 31.4942 77.3054 31.4943C77.3052 31.4945 77.305 31.4947 77.3048 31.4949C77.3046 31.4951 77.3044 31.4953 77.3043 31.4955C77.3041 31.4957 77.3039 31.4959 77.3037 31.496C77.3035 31.4962 77.3033 31.4964 77.3031 31.4966C77.3029 31.4968 77.3027 31.497 77.3025 31.4972C77.3024 31.4974 77.3022 31.4976 77.302 31.4978C77.3018 31.4979 77.3016 31.4981 77.3014 31.4983C77.3012 31.4985 77.301 31.4987 77.3008 31.4989C77.3006 31.4991 77.3004 31.4993 77.3002 31.4995C77.3001 31.4997 77.2999 31.4999 77.2997 31.5001C77.2995 31.5002 77.2993 31.5004 77.2991 31.5006C77.2989 31.5008 77.2987 31.501 77.2985 31.5012C77.2983 31.5014 77.2981 31.5016 77.2979 31.5018C77.2978 31.502 77.2976 31.5022 77.2974 31.5024C77.2972 31.5026 77.297 31.5028 77.2968 31.5029C77.2966 31.5031 77.2964 31.5033 77.2962 31.5035C77.296 31.5037 77.2958 31.5039 77.2956 31.5041C77.2954 31.5043 77.2952 31.5045 77.295 31.5047C77.2948 31.5049 77.2946 31.5051 77.2945 31.5053C77.2943 31.5055 77.2941 31.5057 77.2939 31.5059C77.2937 31.5061 77.2935 31.5063 77.2933 31.5064L78.0004 32.2136C78.0006 32.2134 78.0008 32.2132 78.001 32.213C78.0012 32.2128 78.0014 32.2126 78.0016 32.2124C78.0018 32.2122 78.002 32.212 78.0021 32.2118C78.0023 32.2116 78.0025 32.2114 78.0027 32.2112C78.0029 32.211 78.0031 32.2108 78.0033 32.2106C78.0035 32.2104 78.0037 32.2102 78.0039 32.2101C78.0041 32.2099 78.0043 32.2097 78.0045 32.2095C78.0047 32.2093 78.0049 32.2091 78.0051 32.2089C78.0052 32.2087 78.0054 32.2085 78.0056 32.2083C78.0058 32.2081 78.006 32.2079 78.0062 32.2077C78.0064 32.2075 78.0066 32.2074 78.0068 32.2072C78.007 32.207 78.0072 32.2068 78.0074 32.2066C78.0075 32.2064 78.0077 32.2062 78.0079 32.206C78.0081 32.2058 78.0083 32.2056 78.0085 32.2054C78.0087 32.2052 78.0089 32.2051 78.0091 32.2049C78.0093 32.2047 78.0095 32.2045 78.0097 32.2043C78.0098 32.2041 78.01 32.2039 78.0102 32.2037C78.0104 32.2035 78.0106 32.2033 78.0108 32.2032C78.011 32.203 78.0112 32.2028 78.0114 32.2026C78.0116 32.2024 78.0117 32.2022 78.0119 32.202C78.0121 32.2018 78.0123 32.2016 78.0125 32.2014C78.0127 32.2013 78.0129 32.2011 78.0131 32.2009C78.0132 32.2007 78.0134 32.2005 78.0136 32.2003C78.0138 32.2001 78.014 32.1999 78.0142 32.1998C78.0144 32.1996 78.0146 32.1994 78.0148 32.1992C78.0149 32.199 78.0151 32.1988 78.0153 32.1986C78.0155 32.1984 78.0157 32.1983 78.0159 32.1981C78.0161 32.1979 78.0163 32.1977 78.0164 32.1975C78.0166 32.1973 78.0168 32.1971 78.017 32.1969C78.0172 32.1968 78.0174 32.1966 78.0176 32.1964C78.0177 32.1962 78.0179 32.196 78.0181 32.1958C78.0183 32.1956 78.0185 32.1955 78.0187 32.1953C78.0189 32.1951 78.019 32.1949 78.0192 32.1947C78.0194 32.1945 78.0196 32.1943 78.0198 32.1942C78.02 32.194 78.0202 32.1938 78.0203 32.1936C78.0205 32.1934 78.0207 32.1932 78.0209 32.1931C78.0211 32.1929 78.0213 32.1927 78.0214 32.1925C78.0216 32.1923 78.0218 32.1921 78.022 32.1919C78.0222 32.1918 78.0224 32.1916 78.0225 32.1914C78.0227 32.1912 78.0229 32.191 78.0231 32.1908C78.0233 32.1907 78.0235 32.1905 78.0236 32.1903C78.0238 32.1901 78.024 32.1899 78.0242 32.1898C78.0244 32.1896 78.0246 32.1894 78.0247 32.1892C78.0249 32.189 78.0251 32.1888 78.0253 32.1887C78.0255 32.1885 78.0257 32.1883 78.0258 32.1881C78.026 32.1879 78.0262 32.1877 78.0264 32.1876C78.0266 32.1874 78.0267 32.1872 78.0269 32.187C78.0271 32.1868 78.0273 32.1867 78.0275 32.1865C78.0276 32.1863 78.0278 32.1861 78.028 32.1859C78.0282 32.1858 78.0284 32.1856 78.0285 32.1854C78.0287 32.1852 78.0289 32.185 78.0291 32.1849C78.0293 32.1847 78.0294 32.1845 78.0296 32.1843C78.0298 32.1841 78.03 32.184 78.0302 32.1838C78.0303 32.1836 78.0305 32.1834 78.0307 32.1832C78.0309 32.1831 78.0311 32.1829 78.0312 32.1827C78.0314 32.1825 78.0316 32.1824 78.0318 32.1822C78.0319 32.182 78.0321 32.1818 78.0323 32.1816C78.0325 32.1815 78.0327 32.1813 78.0328 32.1811C78.033 32.1809 78.0332 32.1808 78.0334 32.1806C78.0335 32.1804 78.0337 32.1802 78.0339 32.18C78.0341 32.1799 78.0343 32.1797 78.0344 32.1795C78.0346 32.1793 78.0348 32.1792 78.035 32.179C78.0351 32.1788 78.0353 32.1786 78.0355 32.1785C78.0357 32.1783 78.0358 32.1781 78.036 32.1779C78.0362 32.1778 78.0364 32.1776 78.0365 32.1774C78.0367 32.1772 78.0369 32.177 78.0371 32.1769C78.0372 32.1767 78.0374 32.1765 78.0376 32.1763C78.0378 32.1762 78.0379 32.176 78.0381 32.1758C78.0383 32.1756 78.0385 32.1755 78.0386 32.1753C78.0388 32.1751 78.039 32.175 78.0392 32.1748C78.0393 32.1746 78.0395 32.1744 78.0397 32.1743C78.0399 32.1741 78.04 32.1739 78.0402 32.1737C78.0404 32.1736 78.0406 32.1734 78.0407 32.1732C78.0409 32.173 78.0411 32.1729 78.0412 32.1727C78.0414 32.1725 78.0416 32.1724 78.0418 32.1722C78.0419 32.172 78.0421 32.1718 78.0423 32.1717C78.0424 32.1715 78.0426 32.1713 78.0428 32.1711C78.043 32.171 78.0431 32.1708 78.0433 32.1706C78.0435 32.1705 78.0437 32.1703 78.0438 32.1701C78.044 32.1699 78.0442 32.1698 78.0443 32.1696C78.0445 32.1694 78.0447 32.1693 78.0448 32.1691C78.045 32.1689 78.0452 32.1688 78.0454 32.1686C78.0455 32.1684 78.0457 32.1682 78.0459 32.1681C78.046 32.1679 78.0462 32.1677 78.0464 32.1676C78.0465 32.1674 78.0467 32.1672 78.0469 32.1671C78.0471 32.1669 78.0472 32.1667 78.0474 32.1665C78.0476 32.1664 78.0477 32.1662 78.0479 32.166C78.0481 32.1659 78.0482 32.1657 78.0484 32.1655C78.0486 32.1654 78.0487 32.1652 78.0489 32.165C78.0491 32.1649 78.0492 32.1647 78.0494 32.1645C78.0496 32.1644 78.0498 32.1642 78.0499 32.164C78.0501 32.1639 78.0503 32.1637 78.0504 32.1635C78.0506 32.1634 78.0508 32.1632 78.0509 32.163C78.0511 32.1629 78.0513 32.1627 78.0514 32.1625C78.0516 32.1624 78.0518 32.1622 78.0519 32.162C78.0521 32.1619 78.0523 32.1617 78.0524 32.1615C78.0526 32.1614 78.0528 32.1612 78.0529 32.161C78.0531 32.1609 78.0533 32.1607 78.0534 32.1605C78.0536 32.1604 78.0537 32.1602 78.0539 32.16C78.0541 32.1599 78.0542 32.1597 78.0544 32.1595C78.0546 32.1594 78.0547 32.1592 78.0549 32.159C78.0551 32.1589 78.0552 32.1587 78.0554 32.1585C78.0556 32.1584 78.0557 32.1582 78.0559 32.1581C78.0561 32.1579 78.0562 32.1577 78.0564 32.1576C78.0565 32.1574 78.0567 32.1572 78.0569 32.1571C78.057 32.1569 78.0572 32.1567 78.0574 32.1566C78.0575 32.1564 78.0577 32.1563 78.0578 32.1561C78.058 32.1559 78.0582 32.1558 78.0583 32.1556C78.0585 32.1554 78.0587 32.1553 78.0588 32.1551C78.059 32.155 78.0591 32.1548 78.0593 32.1546C78.0595 32.1545 78.0596 32.1543 78.0598 32.1542C78.06 32.154 78.0601 32.1538 78.0603 32.1537C78.0604 32.1535 78.0606 32.1533 78.0608 32.1532C78.0609 32.153 78.0611 32.1529 78.0612 32.1527C78.0614 32.1525 78.0616 32.1524 78.0617 32.1522C78.0619 32.1521 78.062 32.1519 78.0622 32.1517C78.0624 32.1516 78.0625 32.1514 78.0627 32.1513C78.0628 32.1511 78.063 32.1509 78.0632 32.1508C78.0633 32.1506 78.0635 32.1505 78.0636 32.1503C78.0638 32.1501 78.0639 32.15 78.0641 32.1498C78.0643 32.1497 78.0644 32.1495 78.0646 32.1494C78.0647 32.1492 78.0649 32.149 78.0651 32.1489C78.0652 32.1487 78.0654 32.1486 78.0655 32.1484C78.0657 32.1482 78.0658 32.1481 78.066 32.1479C78.0662 32.1478 78.0663 32.1476 78.0665 32.1475C78.0666 32.1473 78.0668 32.1471 78.0669 32.147C78.0671 32.1468 78.0673 32.1467 78.0674 32.1465C78.0676 32.1464 78.0677 32.1462 78.0679 32.1461C78.068 32.1459 78.0682 32.1457 78.0684 32.1456C78.0685 32.1454 78.0687 32.1453 78.0688 32.1451C78.069 32.145 78.0691 32.1448 78.0693 32.1446C78.0695 32.1445 78.0696 32.1443 78.0698 32.1442C78.0699 32.144 78.0701 32.1439 78.0702 32.1437C78.0704 32.1436 78.0705 32.1434 78.0707 32.1433C78.0708 32.1431 78.071 32.1429 78.0712 32.1428C78.0713 32.1426 78.0715 32.1425 78.0716 32.1423C78.0718 32.1422 78.0719 32.142 78.0721 32.1419C78.0722 32.1417 78.0724 32.1416 78.0725 32.1414C78.0727 32.1413 78.0728 32.1411 78.073 32.141C78.0731 32.1408 78.0733 32.1406 78.0734 32.1405C78.0736 32.1403 78.0738 32.1402 78.0739 32.14C78.0741 32.1399 78.0742 32.1397 78.0744 32.1396C78.0745 32.1394 78.0747 32.1393 78.0748 32.1391C78.075 32.139 78.0751 32.1388 78.0753 32.1387C78.0754 32.1385 78.0756 32.1384 78.0757 32.1382C78.0759 32.1381 78.076 32.1379 78.0762 32.1378C78.0763 32.1376 78.0765 32.1375 78.0766 32.1373C78.0768 32.1372 78.0769 32.137 78.0771 32.1369C78.0772 32.1367 78.0774 32.1366 78.0775 32.1364C78.0777 32.1363 78.0778 32.1361 78.078 32.136C78.0781 32.1358 78.0783 32.1357 78.0784 32.1355C78.0786 32.1354 78.0787 32.1352 78.0789 32.1351C78.079 32.1349 78.0792 32.1348 78.0793 32.1346C78.0795 32.1345 78.0796 32.1343 78.0798 32.1342C78.0799 32.134 78.0801 32.1339 78.0802 32.1337C78.0804 32.1336 78.0805 32.1334 78.0807 32.1333C78.0808 32.1331 78.081 32.133 78.0811 32.1328C78.0812 32.1327 78.0814 32.1325 78.0815 32.1324C78.0817 32.1323 78.0818 32.1321 78.082 32.132C78.0821 32.1318 78.0823 32.1317 78.0824 32.1315C78.0826 32.1314 78.0827 32.1312 78.0829 32.1311C78.083 32.1309 78.0832 32.1308 78.0833 32.1306C78.0834 32.1305 78.0836 32.1304 78.0837 32.1302C78.0839 32.1301 78.084 32.1299 78.0842 32.1298C78.0843 32.1296 78.0845 32.1295 78.0846 32.1293C78.0848 32.1292 78.0849 32.129 78.085 32.1289C78.0852 32.1288 78.0853 32.1286 78.0855 32.1285C78.0856 32.1283 78.0858 32.1282 78.0859 32.128C78.0861 32.1279 78.0862 32.1277 78.0863 32.1276C78.0865 32.1275 78.0866 32.1273 78.0868 32.1272C78.0869 32.127 78.0871 32.1269 78.0872 32.1267C78.0873 32.1266 78.0875 32.1265 78.0876 32.1263C78.0878 32.1262 78.0879 32.126 78.0881 32.1259C78.0882 32.1257 78.0883 32.1256 78.0885 32.1255C78.0886 32.1253 78.0888 32.1252 78.0889 32.125C78.0891 32.1249 78.0892 32.1247 78.0893 32.1246C78.0895 32.1245 78.0896 32.1243 78.0898 32.1242C78.0899 32.124 78.09 32.1239 78.0902 32.1238C78.0903 32.1236 78.0905 32.1235 78.0906 32.1233C78.0907 32.1232 78.0909 32.1231 78.091 32.1229C78.0912 32.1228 78.0913 32.1226 78.0914 32.1225C78.0916 32.1224 78.0917 32.1222 78.0919 32.1221C78.092 32.1219 78.0921 32.1218 78.0923 32.1217C78.0924 32.1215 78.0926 32.1214 78.0927 32.1212C78.0928 32.1211 78.093 32.121 78.0931 32.1208C78.0933 32.1207 78.0934 32.1205 78.0935 32.1204C78.0937 32.1203 78.0938 32.1201 78.094 32.12C78.0941 32.1199 78.0942 32.1197 78.0944 32.1196C78.0945 32.1194 78.0946 32.1193 78.0948 32.1192C78.0949 32.119 78.0951 32.1189 78.0952 32.1187C78.0953 32.1186 78.0955 32.1185 78.0956 32.1183C78.0957 32.1182 78.0959 32.1181 78.096 32.1179C78.0962 32.1178 78.0963 32.1177 78.0964 32.1175C78.0966 32.1174 78.0967 32.1172 78.0968 32.1171C78.097 32.117 78.0971 32.1168 78.0972 32.1167C78.0974 32.1166 78.0975 32.1164 78.0976 32.1163C78.0978 32.1162 78.0979 32.116 78.0981 32.1159C78.0982 32.1158 78.0983 32.1156 78.0985 32.1155C78.0986 32.1153 78.0987 32.1152 78.0989 32.1151C78.099 32.1149 78.0991 32.1148 78.0993 32.1147C78.0994 32.1145 78.0995 32.1144 78.0997 32.1143C78.0998 32.1141 78.0999 32.114 78.1001 32.1139C78.1002 32.1137 78.1003 32.1136 78.1005 32.1135C78.1006 32.1133 78.1007 32.1132 78.1009 32.1131C78.101 32.1129 78.1011 32.1128 78.1013 32.1127C78.1014 32.1125 78.1015 32.1124 78.1017 32.1123C78.1018 32.1121 78.1019 32.112 78.1021 32.1119C78.1022 32.1117 78.1023 32.1116 78.1025 32.1115C78.1026 32.1113 78.1027 32.1112 78.1029 32.1111C78.103 32.111 78.1031 32.1108 78.1032 32.1107C78.1034 32.1106 78.1035 32.1104 78.1036 32.1103C78.1038 32.1102 78.1039 32.11 78.104 32.1099C78.1042 32.1098 78.1043 32.1096 78.1044 32.1095C78.1046 32.1094 78.1047 32.1093 78.1048 32.1091C78.1049 32.109 78.1051 32.1089 78.1052 32.1087C78.1053 32.1086 78.1055 32.1085 78.1056 32.1083C78.1057 32.1082 78.1059 32.1081 78.106 32.108C78.1061 32.1078 78.1062 32.1077 78.1064 32.1076C78.1065 32.1074 78.1066 32.1073 78.1068 32.1072C78.1069 32.1071 78.107 32.1069 78.1071 32.1068C78.1073 32.1067 78.1074 32.1065 78.1075 32.1064C78.1077 32.1063 78.1078 32.1062 78.1079 32.106C78.108 32.1059 78.1082 32.1058 78.1083 32.1057C78.1084 32.1055 78.1085 32.1054 78.1087 32.1053C78.1088 32.1051 78.1089 32.105 78.1091 32.1049C78.1092 32.1048 78.1093 32.1046 78.1094 32.1045C78.1096 32.1044 78.1097 32.1043 78.1098 32.1041C78.1099 32.104 78.1101 32.1039 78.1102 32.1038C78.1103 32.1036 78.1104 32.1035 78.1106 32.1034C78.1107 32.1033 78.1108 32.1031 78.1109 32.103C78.1111 32.1029 78.1112 32.1028 78.1113 32.1026C78.1114 32.1025 78.1116 32.1024 78.1117 32.1023C78.1118 32.1021 78.1119 32.102 78.1121 32.1019C78.1122 32.1018 78.1123 32.1016 78.1124 32.1015C78.1126 32.1014 78.1127 32.1013 78.1128 32.1011C78.1129 32.101 78.1131 32.1009 78.1132 32.1008C78.1133 32.1006 78.1134 32.1005 78.1135 32.1004C78.1137 32.1003 78.1138 32.1002 78.1139 32.1C78.114 32.0999 78.1142 32.0998 78.1143 32.0997C78.1144 32.0995 78.1145 32.0994 78.1146 32.0993C78.1148 32.0992 78.1149 32.0991 78.115 32.0989C78.1151 32.0988 78.1153 32.0987 78.1154 32.0986C78.1155 32.0984 78.1156 32.0983 78.1157 32.0982C78.1159 32.0981 78.116 32.098 78.1161 32.0978C78.1162 32.0977 78.1163 32.0976 78.1165 32.0975C78.1166 32.0974 78.1167 32.0972 78.1168 32.0971C78.117 32.097 78.1171 32.0969 78.1172 32.0968C78.1173 32.0966 78.1174 32.0965 78.1175 32.0964C78.1177 32.0963 78.1178 32.0962 78.1179 32.096C78.118 32.0959 78.1181 32.0958 78.1183 32.0957C78.1184 32.0956 78.1185 32.0954 78.1186 32.0953C78.1187 32.0952 78.1189 32.0951 78.119 32.095C78.1191 32.0948 78.1192 32.0947 78.1193 32.0946C78.1195 32.0945 78.1196 32.0944 78.1197 32.0943C78.1198 32.0941 78.1199 32.094 78.12 32.0939C78.1202 32.0938 78.1203 32.0937 78.1204 32.0936C78.1205 32.0934 78.1206 32.0933 78.1207 32.0932C78.1209 32.0931 78.121 32.093 78.1211 32.0928C78.1212 32.0927 78.1213 32.0926 78.1214 32.0925C78.1216 32.0924 78.1217 32.0923 78.1218 32.0922C78.1219 32.092 78.122 32.0919 78.1221 32.0918C78.1223 32.0917 78.1224 32.0916 78.1225 32.0915C78.1226 32.0913 78.1227 32.0912 78.1228 32.0911C78.1229 32.091 78.1231 32.0909 78.1232 32.0908C78.1233 32.0907 78.1234 32.0905 78.1235 32.0904C78.1236 32.0903 78.1237 32.0902 78.1239 32.0901C78.124 32.09 78.1241 32.0899 78.1242 32.0897C78.1243 32.0896 78.1244 32.0895 78.1245 32.0894C78.1247 32.0893 78.1248 32.0892 78.1249 32.0891C78.125 32.0889 78.1251 32.0888 78.1252 32.0887C78.1253 32.0886 78.1255 32.0885 78.1256 32.0884C78.1257 32.0883 78.1258 32.0882 78.1259 32.088C78.126 32.0879 78.1261 32.0878 78.1262 32.0877C78.1264 32.0876 78.1265 32.0875 78.1266 32.0874C78.1267 32.0873 78.1268 32.0871 78.1269 32.087C78.127 32.0869 78.1271 32.0868 78.1272 32.0867C78.1273 32.0866 78.1275 32.0865 78.1276 32.0864C78.1277 32.0863 78.1278 32.0861 78.1279 32.086C78.128 32.0859 78.1281 32.0858 78.1282 32.0857C78.1283 32.0856 78.1285 32.0855 78.1286 32.0854C78.1287 32.0853 78.1288 32.0852 78.1289 32.085C78.129 32.0849 78.1291 32.0848 78.1292 32.0847C78.1293 32.0846 78.1294 32.0845 78.1295 32.0844C78.1297 32.0843 78.1298 32.0842 78.1299 32.0841C78.13 32.084 78.1301 32.0838 78.1302 32.0837C78.1303 32.0836 78.1304 32.0835 78.1305 32.0834C78.1306 32.0833 78.1307 32.0832 78.1309 32.0831C78.131 32.083 78.1311 32.0829 78.1312 32.0828C78.1313 32.0827 78.1314 32.0826 78.1315 32.0824C78.1316 32.0823 78.1317 32.0822 78.1318 32.0821C78.1319 32.082 78.132 32.0819 78.1321 32.0818C78.1322 32.0817 78.1323 32.0816 78.1325 32.0815C78.1326 32.0814 78.1327 32.0813 78.1328 32.0812C78.1329 32.0811 78.133 32.081 78.1331 32.0809C78.1332 32.0807 78.1333 32.0806 78.1334 32.0805C78.1335 32.0804 78.1336 32.0803 78.1337 32.0802C78.1338 32.0801 78.1339 32.08 78.134 32.0799C78.1341 32.0798 78.1342 32.0797 78.1343 32.0796C78.1345 32.0795 78.1346 32.0794 78.1347 32.0793C78.1348 32.0792 78.1349 32.0791 78.135 32.079C78.1351 32.0789 78.1352 32.0788 78.1353 32.0787C78.1354 32.0786 78.1355 32.0785 78.1356 32.0783C78.1357 32.0782 78.1358 32.0781 78.1359 32.078C78.136 32.0779 78.1361 32.0778 78.1362 32.0777C78.1363 32.0776 78.1364 32.0775 78.1365 32.0774C78.1366 32.0773 78.1367 32.0772 78.1368 32.0771C78.1369 32.077 78.137 32.0769 78.1371 32.0768C78.1372 32.0767 78.1373 32.0766 78.1374 32.0765C78.1375 32.0764 78.1376 32.0763 78.1377 32.0762C78.1378 32.0761 78.1379 32.076 78.138 32.0759C78.1381 32.0758 78.1382 32.0757 78.1383 32.0756C78.1384 32.0755 78.1385 32.0754 78.1386 32.0753C78.1387 32.0752 78.1388 32.0751 78.1389 32.075C78.139 32.0749 78.1391 32.0748 78.1392 32.0747C78.1393 32.0746 78.1394 32.0745 78.1395 32.0744C78.1396 32.0743 78.1397 32.0742 78.1398 32.0741C78.1399 32.074 78.14 32.0739 78.1401 32.0738C78.1402 32.0737 78.1403 32.0736 78.1404 32.0735C78.1405 32.0734 78.1406 32.0733 78.1407 32.0732C78.1408 32.0731 78.1409 32.073 78.141 32.0729C78.1411 32.0728 78.1412 32.0727 78.1413 32.0726C78.1414 32.0725 78.1415 32.0724 78.1416 32.0723C78.1417 32.0722 78.1418 32.0721 78.1419 32.0721C78.142 32.072 78.1421 32.0719 78.1422 32.0718C78.1423 32.0717 78.1424 32.0716 78.1425 32.0715C78.1426 32.0714 78.1427 32.0713 78.1428 32.0712C78.1429 32.0711 78.143 32.071 78.143 32.0709C78.1431 32.0708 78.1432 32.0707 78.1433 32.0706C78.1434 32.0705 78.1435 32.0704 78.1436 32.0703C78.1437 32.0702 78.1438 32.0701 78.1439 32.07C78.144 32.0699 78.1441 32.0699 78.1442 32.0698C78.1443 32.0697 78.1444 32.0696 78.1445 32.0695C78.1446 32.0694 78.1447 32.0693 78.1447 32.0692C78.1448 32.0691 78.1449 32.069 78.145 32.0689C78.1451 32.0688 78.1452 32.0687 78.1453 32.0686C78.1454 32.0685 78.1455 32.0684 78.1456 32.0684C78.1457 32.0683 78.1458 32.0682 78.1459 32.0681C78.146 32.068 78.146 32.0679 78.1461 32.0678C78.1462 32.0677 78.1463 32.0676 78.1464 32.0675C78.1465 32.0674 78.1466 32.0673 78.1467 32.0673C78.1468 32.0672 78.1469 32.0671 78.147 32.067C78.1471 32.0669 78.1471 32.0668 78.1472 32.0667C78.1473 32.0666 78.1474 32.0665 78.1475 32.0664C78.1476 32.0663 78.1477 32.0662 78.1478 32.0662C78.1479 32.0661 78.148 32.066 78.1481 32.0659C78.1481 32.0658 78.1482 32.0657 78.1483 32.0656C78.1484 32.0655 78.1485 32.0654 78.1486 32.0653C78.1487 32.0653 78.1488 32.0652 78.1489 32.0651C78.1489 32.065 78.149 32.0649 78.1491 32.0648C78.1492 32.0647 78.1493 32.0646 78.1494 32.0646C78.1495 32.0645 78.1496 32.0644 78.1497 32.0643C78.1497 32.0642 78.1498 32.0641 78.1499 32.064C78.15 32.0639 78.1501 32.0638 78.1502 32.0638C78.1503 32.0637 78.1504 32.0636 78.1504 32.0635C78.1505 32.0634 78.1506 32.0633 78.1507 32.0632C78.1508 32.0631 78.1509 32.0631 78.151 32.063C78.1511 32.0629 78.1511 32.0628 78.1512 32.0627C78.1513 32.0626 78.1514 32.0625 78.1515 32.0625C78.1516 32.0624 78.1517 32.0623 78.1517 32.0622C78.1518 32.0621 78.1519 32.062 78.152 32.0619C78.1521 32.0619 78.1522 32.0618 78.1523 32.0617C78.1523 32.0616 78.1524 32.0615 78.1525 32.0614C78.1526 32.0613 78.1527 32.0613 78.1528 32.0612C78.1529 32.0611 78.1529 32.061 78.153 32.0609C78.1531 32.0608 78.1532 32.0608 78.1533 32.0607C78.1534 32.0606 78.1534 32.0605 78.1535 32.0604C78.1536 32.0603 78.1537 32.0603 78.1538 32.0602C78.1539 32.0601 78.1539 32.06 78.154 32.0599C78.1541 32.0598 78.1542 32.0598 78.1543 32.0597C78.1544 32.0596 78.1544 32.0595 78.1545 32.0594C78.1546 32.0593 78.1547 32.0593 78.1548 32.0592C78.1548 32.0591 78.1549 32.059 78.155 32.0589C78.1551 32.0588 78.1552 32.0588 78.1553 32.0587C78.1553 32.0586 78.1554 32.0585 78.1555 32.0584C78.1556 32.0584 78.1557 32.0583 78.1557 32.0582C78.1558 32.0581 78.1559 32.058 78.156 32.058C78.1561 32.0579 78.1562 32.0578 78.1562 32.0577C78.1563 32.0576 78.1564 32.0576 78.1565 32.0575C78.1565 32.0574 78.1566 32.0573 78.1567 32.0572C78.1568 32.0572 78.1569 32.0571 78.1569 32.057C78.157 32.0569 78.1571 32.0568 78.1572 32.0568C78.1573 32.0567 78.1573 32.0566 78.1574 32.0565C78.1575 32.0564 78.1576 32.0564 78.1577 32.0563C78.1577 32.0562 78.1578 32.0561 78.1579 32.0561C78.158 32.056 78.158 32.0559 78.1581 32.0558C78.1582 32.0557 78.1583 32.0557 78.1584 32.0556C78.1584 32.0555 78.1585 32.0554 78.1586 32.0554C78.1587 32.0553 78.1587 32.0552 78.1588 32.0551C78.1589 32.055 78.159 32.055 78.159 32.0549C78.1591 32.0548 78.1592 32.0547 78.1593 32.0547C78.1594 32.0546 78.1594 32.0545 78.1595 32.0544C78.1596 32.0544 78.1597 32.0543 78.1597 32.0542C78.1598 32.0541 78.1599 32.0541 78.16 32.054C78.16 32.0539 78.1601 32.0538 78.1602 32.0538C78.1603 32.0537 78.1603 32.0536 78.1604 32.0535C78.1605 32.0535 78.1606 32.0534 78.1606 32.0533C78.1607 32.0532 78.1608 32.0532 78.1609 32.0531C78.1609 32.053 78.161 32.0529 78.1611 32.0529C78.1612 32.0528 78.1612 32.0527 78.1613 32.0526C78.1614 32.0526 78.1615 32.0525 78.1615 32.0524C78.1616 32.0523 78.1617 32.0523 78.1617 32.0522C78.1618 32.0521 78.1619 32.0521 78.162 32.052C78.162 32.0519 78.1621 32.0518 78.1622 32.0518C78.1623 32.0517 78.1623 32.0516 78.1624 32.0515C78.1625 32.0515 78.1625 32.0514 78.1626 32.0513C78.1627 32.0513 78.1628 32.0512 78.1628 32.0511C78.1629 32.051 78.163 32.051 78.163 32.0509C78.1631 32.0508 78.1632 32.0508 78.1633 32.0507C78.1633 32.0506 78.1634 32.0505 78.1635 32.0505C78.1635 32.0504 78.1636 32.0503 78.1637 32.0503C78.1637 32.0502 78.1638 32.0501 78.1639 32.0501C78.164 32.05 78.164 32.0499 78.1641 32.0498C78.1642 32.0498 78.1642 32.0497 78.1643 32.0496C78.1644 32.0496 78.1644 32.0495 78.1645 32.0494C78.1646 32.0494 78.1646 32.0493 78.1647 32.0492C78.1648 32.0492 78.1649 32.0491 78.1649 32.049C78.165 32.049 78.1651 32.0489 78.1651 32.0488C78.1652 32.0487 78.1653 32.0487 78.1653 32.0486C78.1654 32.0485 78.1655 32.0485 78.1655 32.0484C78.1656 32.0483 78.1657 32.0483 78.1657 32.0482C78.1658 32.0481 78.1659 32.0481 78.1659 32.048C78.166 32.0479 78.1661 32.0479 78.1661 32.0478C78.1662 32.0477 78.1663 32.0477 78.1663 32.0476C78.1664 32.0475 78.1665 32.0475 78.1665 32.0474C78.1666 32.0473 78.1667 32.0473 78.1667 32.0472C78.1668 32.0471 78.1669 32.0471 78.1669 32.047C78.167 32.047 78.1671 32.0469 78.1671 32.0468C78.1672 32.0468 78.1673 32.0467 78.1673 32.0466C78.1674 32.0466 78.1674 32.0465 78.1675 32.0464C78.1676 32.0464 78.1676 32.0463 78.1677 32.0462C78.1678 32.0462 78.1678 32.0461 78.1679 32.046C78.168 32.046 78.168 32.0459 78.1681 32.0459C78.1682 32.0458 78.1682 32.0457 78.1683 32.0457C78.1683 32.0456 78.1684 32.0455 78.1685 32.0455C78.1685 32.0454 78.1686 32.0454 78.1687 32.0453C78.1687 32.0452 78.1688 32.0452 78.1688 32.0451C78.1689 32.045 78.169 32.045 78.169 32.0449C78.1691 32.0449 78.1692 32.0448 78.1692 32.0447C78.1693 32.0447 78.1693 32.0446 78.1694 32.0445C78.1695 32.0445 78.1695 32.0444 78.1696 32.0444C78.1696 32.0443 78.1697 32.0442 78.1698 32.0442C78.1698 32.0441 78.1699 32.0441 78.1699 32.044C78.17 32.0439 78.1701 32.0439 78.1701 32.0438C78.1702 32.0438 78.1702 32.0437 78.1703 32.0436C78.1704 32.0436 78.1704 32.0435 78.1705 32.0435C78.1705 32.0434 78.1706 32.0433 78.1707 32.0433C78.1707 32.0432 78.1708 32.0432 78.1708 32.0431C78.1709 32.043 78.171 32.043 78.171 32.0429C78.1711 32.0429 78.1711 32.0428 78.1712 32.0428C78.1712 32.0427 78.1713 32.0426 78.1714 32.0426C78.1714 32.0425 78.1715 32.0425 78.1715 32.0424C78.1716 32.0423 78.1717 32.0423 78.1717 32.0422C78.1718 32.0422 78.1718 32.0421 78.1719 32.0421C78.1719 32.042 78.172 32.0419 78.1721 32.0419C78.1721 32.0418 78.1722 32.0418 78.1722 32.0417C78.1723 32.0417 78.1723 32.0416 78.1724 32.0415C78.1724 32.0415 78.1725 32.0414 78.1726 32.0414C78.1726 32.0413 78.1727 32.0413 78.1727 32.0412C78.1728 32.0412 78.1728 32.0411 78.1729 32.041C78.173 32.041 78.173 32.0409 78.1731 32.0409C78.1731 32.0408 78.1732 32.0408 78.1732 32.0407C78.1733 32.0407 78.1733 32.0406 78.1734 32.0406C78.1734 32.0405 78.1735 32.0404 78.1735 32.0404C78.1736 32.0403 78.1737 32.0403 78.1737 32.0402C78.1738 32.0402 78.1738 32.0401 78.1739 32.0401C78.1739 32.04 78.174 32.04 78.174 32.0399C78.1741 32.0399 78.1741 32.0398 78.1742 32.0398C78.1742 32.0397 78.1743 32.0396 78.1743 32.0396C78.1744 32.0395 78.1745 32.0395 78.1745 32.0394C78.1746 32.0394 78.1746 32.0393 78.1747 32.0393C78.1747 32.0392 78.1748 32.0392 78.1748 32.0391C78.1749 32.0391 78.1749 32.039 78.175 32.039C78.175 32.0389 78.1751 32.0389 78.1751 32.0388C78.1752 32.0388 78.1752 32.0387 78.1753 32.0387C78.1753 32.0386 78.1754 32.0386 78.1754 32.0385C78.1755 32.0385 78.1755 32.0384 78.1756 32.0384C78.1756 32.0383 78.1757 32.0383 78.1757 32.0382C78.1758 32.0382 78.1758 32.0381 78.1759 32.0381C78.1759 32.038 78.176 32.038 78.176 32.0379C78.1761 32.0379 78.1761 32.0378 78.1762 32.0378C78.1762 32.0377 78.1763 32.0377 78.1763 32.0376C78.1764 32.0376 78.1764 32.0375 78.1765 32.0375C78.1765 32.0374 78.1766 32.0374 78.1766 32.0373C78.1767 32.0373 78.1767 32.0372 78.1768 32.0372C78.1768 32.0371 78.1768 32.0371 78.1769 32.0371C78.1769 32.037 78.177 32.037 78.177 32.0369C78.1771 32.0369 78.1771 32.0368 78.1772 32.0368C78.1772 32.0367 78.1773 32.0367 78.1773 32.0366C78.1774 32.0366 78.1774 32.0365 78.1775 32.0365C78.1775 32.0364 78.1775 32.0364 78.1776 32.0364C78.1776 32.0363 78.1777 32.0363 78.1777 32.0362C78.1778 32.0362 78.1778 32.0361 78.1779 32.0361C78.1779 32.036 78.178 32.036 78.178 32.0359C78.178 32.0359 78.1781 32.0359 78.1781 32.0358C78.1782 32.0358 78.1782 32.0357 78.1783 32.0357C78.1783 32.0356 78.1784 32.0356 78.1784 32.0355C78.1784 32.0355 78.1785 32.0355 78.1785 32.0354C78.1786 32.0354 78.1786 32.0353 78.1787 32.0353C78.1787 32.0352 78.1787 32.0352 78.1788 32.0352C78.1788 32.0351 78.1789 32.0351 78.1789 32.035C78.179 32.035 78.179 32.0349 78.179 32.0349C78.1791 32.0349 78.1791 32.0348 78.1792 32.0348C78.1792 32.0347 78.1793 32.0347 78.1793 32.0346C78.1793 32.0346 78.1794 32.0346 78.1794 32.0345C78.1795 32.0345 78.1795 32.0344 78.1796 32.0344C78.1796 32.0344 78.1796 32.0343 78.1797 32.0343C78.1797 32.0342 78.1797 32.0342 78.1798 32.0341C78.1798 32.0341 78.1799 32.0341 78.1799 32.034C78.18 32.034 78.18 32.0339 78.18 32.0339C78.1801 32.0339 78.1801 32.0338 78.1802 32.0338C78.1802 32.0337 78.1802 32.0337 78.1803 32.0337C78.1803 32.0336 78.1804 32.0336 78.1804 32.0336L77.4733 31.3264ZM77.2564 31.5476C77.2174 31.5965 77.1872 31.6336 77.1652 31.6599C77.1542 31.6731 77.1464 31.6823 77.1412 31.6883C77.1346 31.6958 77.1364 31.6934 77.1433 31.6865L77.8504 32.3935C77.8948 32.3491 77.9652 32.2625 78.0373 32.1723L77.2564 31.5476ZM77.1382 31.6916C75.0998 33.79 73.7615 35.1983 73.1325 35.9085L73.8811 36.5715C74.4921 35.8817 75.8139 34.49 77.8555 32.3884L77.1382 31.6916ZM73.1257 35.9163C71.8854 37.3767 70.0552 39.537 67.6351 42.397L68.3985 43.043C70.8185 40.183 72.6482 38.0233 73.8879 36.5637L73.1257 35.9163ZM67.6349 42.3973C65.2351 45.2371 63.436 47.356 62.2372 48.7546L62.9965 49.4054C64.1977 48.004 65.9986 45.8829 68.3987 43.0427L67.6349 42.3973ZM62.2362 48.7558C61.7885 49.2813 60.5113 50.6384 58.3868 52.8431L59.1069 53.5369C61.2224 51.3416 62.5251 49.9587 62.9975 49.4042L62.2362 48.7558ZM58.3804 52.8498C57.8922 53.3755 57.5023 53.5864 57.2122 53.6242L57.3415 54.6158C57.9714 54.5336 58.5614 54.1245 59.1132 53.5302L58.3804 52.8498ZM57.2061 53.625C56.6665 53.7021 56.2897 53.7037 56.049 53.6586L55.8647 54.6414C56.264 54.7163 56.7672 54.6979 57.3475 54.615L57.2061 53.625ZM56.0292 53.6553C55.6851 53.6049 55.5705 53.5017 55.5329 53.4451C55.4974 53.392 55.4477 53.2562 55.5381 52.9357L54.5756 52.6643C54.446 53.1238 54.4362 53.603 54.7008 53.9999C54.9631 54.3933 55.4086 54.5751 55.8844 54.6447L56.0292 53.6553ZM55.5371 52.939C55.7497 52.2047 56.0202 51.4896 56.349 50.7935L55.4447 50.3665C55.0934 51.1104 54.804 51.8753 54.5766 52.661L55.5371 52.939ZM56.3441 50.8036C56.6454 50.2009 58.0869 47.2578 60.6661 41.9795L59.7676 41.5405C57.1868 46.8222 55.7483 49.7591 55.4496 50.3564L56.3441 50.8036ZM60.6669 41.9778C60.9772 41.3365 61.1814 40.7635 61.2518 40.2707L60.2619 40.1293C60.2123 40.4765 60.0564 40.9435 59.7668 41.5422L60.6669 41.9778ZM60.3927 39.8573C60.2328 40.0273 60.1105 40.157 60.0258 40.2467C59.9834 40.2916 59.9507 40.3261 59.9275 40.3506C59.9015 40.378 59.8926 40.3871 59.8933 40.3864L60.6004 41.0936C60.6275 41.0665 60.8063 40.877 61.1209 40.5427L60.3927 39.8573ZM59.848 40.4384C59.2275 41.2592 58.7552 41.8921 58.4325 42.3359L59.2412 42.9241C59.5584 42.4879 60.0262 41.8608 60.6457 41.0416L59.848 40.4384ZM58.4237 42.3483C58.1223 42.7904 57.7313 43.372 57.2508 44.0926L58.0829 44.6474C58.5624 43.928 58.9513 43.3496 59.25 42.9117L58.4237 42.3483ZM57.2508 44.0926C56.7638 44.8232 56.3359 45.5258 55.9679 46.2006L56.8458 46.6794C57.1977 46.0342 57.6099 45.3568 58.0829 44.6474L57.2508 44.0926ZM55.9623 46.211C55.6169 46.8817 55.3016 47.5529 55.0165 48.2247L55.9371 48.6153C56.2121 47.9671 56.5168 47.3183 56.8513 46.669L55.9623 46.211ZM55.0173 48.223C55.0064 48.2483 54.9968 48.2686 54.9885 48.2843C54.9802 48.3003 54.9742 48.3101 54.9708 48.3152C54.9673 48.3204 54.9682 48.3182 54.9744 48.3115C54.9805 48.3049 54.9951 48.2902 55.0195 48.274L55.5742 49.106C55.7651 48.9787 55.8723 48.7665 55.9364 48.617L55.0173 48.223ZM55.0899 48.2348C54.9942 48.2783 54.9194 48.3063 54.8633 48.3228C54.8044 48.3401 54.7822 48.34 54.7868 48.34V49.34C55.0195 49.34 55.2715 49.2508 55.5037 49.1452L55.0899 48.2348ZM54.7868 48.34C54.9062 48.34 54.9659 48.4019 54.9604 48.3964L54.2533 49.1036C54.3678 49.2181 54.5475 49.34 54.7868 49.34V48.34ZM55.0068 48.45C54.9937 48.4325 54.9942 48.4296 54.9989 48.4405C55.0037 48.4516 55.0168 48.4867 55.0168 48.54H54.0168C54.0168 48.7593 54.1213 48.936 54.2068 49.05L55.0068 48.45ZM55.0168 48.54C55.0168 48.1652 55.0243 47.8667 55.0384 47.6412C55.0532 47.403 55.0737 47.2837 55.0858 47.2437L54.1279 46.9563C54.0799 47.1163 54.0554 47.337 54.0403 47.5788C54.0244 47.8333 54.0168 48.1548 54.0168 48.54H55.0168ZM55.0785 47.266C55.4529 46.2019 55.8337 45.3056 56.2193 44.5729L55.3344 44.1071C54.92 44.8944 54.5208 45.8381 54.1352 46.934L55.0785 47.266ZM56.2183 44.5748C57.7011 41.787 59.6631 38.8524 62.1085 35.7708L61.3252 35.1492C58.8506 38.2676 56.8525 41.253 55.3354 44.1052L56.2183 44.5748ZM62.0985 35.783C62.3048 35.5392 62.5305 35.304 62.776 35.0774L62.0977 34.3426C61.8232 34.596 61.5689 34.8608 61.3351 35.137L62.0985 35.783ZM62.7598 35.0917C63.1777 34.7381 63.6455 34.5898 64.1929 34.6381L64.2808 33.6419C63.4682 33.5702 62.736 33.8019 62.1139 34.3283L62.7598 35.0917ZM64.2075 34.6391C64.5051 34.6566 64.6641 34.7158 64.7395 34.766L65.2942 33.934C65.0095 33.7442 64.6485 33.6634 64.2662 33.6409L64.2075 34.6391ZM64.774 34.7871C64.823 34.8143 64.8657 34.8561 64.8945 34.9616L65.8592 34.6984C65.768 34.3639 65.5706 34.0857 65.2597 33.9129L64.774 34.7871ZM64.9126 35.0157C64.9436 35.0933 64.9662 35.2467 64.9154 35.5179L65.8983 35.7021C65.9674 35.3333 65.97 34.9667 65.8411 34.6443L64.9126 35.0157ZM64.9146 35.5221C64.8204 36.0496 64.6801 36.5342 64.4953 36.9777L65.4184 37.3623C65.6336 36.8457 65.7932 36.2904 65.8991 35.6979L64.9146 35.5221ZM64.4935 36.982C63.936 38.3559 63.4408 39.4844 63.0076 40.3704L63.906 40.8096C64.3529 39.8956 64.8577 38.7441 65.4201 37.358L64.4935 36.982ZM63.0056 40.3746C62.5871 41.2515 61.9683 42.5191 61.1485 44.1786L62.0451 44.6214C62.8654 42.9609 63.4866 41.6885 63.9081 40.8054L63.0056 40.3746ZM61.1475 44.1808C60.347 45.8218 59.8583 46.8191 59.6796 47.1764L60.5741 47.6236C60.7554 47.2609 61.2467 46.2582 62.0462 44.6192L61.1475 44.1808ZM59.6796 47.1764C59.6509 47.2338 59.451 47.6978 59.0973 48.523L60.0164 48.917C60.1964 48.4971 60.3336 48.1776 60.4284 47.9582C60.4758 47.8485 60.5123 47.7643 60.538 47.7054C60.5674 47.6382 60.5764 47.619 60.5741 47.6236L59.6796 47.1764Z" fill="white"/>
</g>
<defs>
<filter id="filter0_d_9_12" x="0" y="0" width="104" height="104" filterUnits="userSpaceOnUse" color-interpolation-filters="sRGB">
<feFlood flood-opacity="0" result="BackgroundImageFix"/>
<feColorMatrix in="SourceAlpha" type="matrix" values="0 0 0 0 0 0 0 0 0 0 0 0 0 0 0 0 0 0 127 0" result="hardAlpha"/>
<feOffset dy="4"/>
<feGaussianBlur stdDeviation="2"/>
<feComposite in2="hardAlpha" operator="out"/>
<feColorMatrix type="matrix" values="0 0 0 0 0 0 0 0 0 0 0 0 0 0 0 0 0 0 0.25 0"/>
<feBlend mode="normal" in2="BackgroundImageFix" result="effect1_dropShadow_9_12"/>
<feBlend mode="normal" in="SourceGraphic" in2="effect1_dropShadow_9_12" result="shape"/>
</filter>
<filter id="filter1_d_9_12" x="23.8853" y="28.89" width="61.7516" height="48.65" filterUnits="userSpaceOnUse" color-interpolation-filters="sRGB">
<feFlood flood-opacity="0" result="BackgroundImageFix"/>
<feColorMatrix in="SourceAlpha" type="matrix" values="0 0 0 0 0 0 0 0 0 0 0 0 0 0 0 0 0 0 127 0" result="hardAlpha"/>
<feOffset dy="4"/>
<feGaussianBlur stdDeviation="2"/>
<feComposite in2="hardAlpha" operator="out"/>
<feColorMatrix type="matrix" values="0 0 0 0 0 0 0 0 0 0 0 0 0 0 0 0 0 0 0.25 0"/>
<feBlend mode="normal" in2="BackgroundImageFix" result="effect1_dropShadow_9_12"/>
<feBlend mode="normal" in="SourceGraphic" in2="effect1_dropShadow_9_12" result="shape"/>
</filter>
<linearGradient id="paint0_linear_9_12" x1="52" y1="92" x2="52" y2="3" gradientUnits="userSpaceOnUse">
<stop stop-color="#00FEE0" stop-opacity="0.75"/>
<stop offset="1" stop-color="#00FEE0" stop-opacity="0.25"/>
</linearGradient>
<linearGradient id="paint1_linear_9_12" x1="7" y1="3" x2="97" y2="93" gradientUnits="userSpaceOnUse">
<stop stop-opacity="0.25"/>
<stop offset="1" stop-opacity="0.1"/>
</linearGradient>
</defs>
</svg>
